<svg width="41" height="41" viewBox="0 0 41 41" fill="none" xmlns="http://www.w3.org/2000/svg">
<path d="M19.9268 40.6417C30.7573 40.6417 39.5372 31.8618 39.5372 21.0313C39.5372 10.2008 30.7573 1.4209 19.9268 1.4209C9.09629 1.4209 0.316406 10.2008 0.316406 21.0313C0.316406 31.8618 9.09629 40.6417 19.9268 40.6417Z" fill="#559AFF"/>
<path d="M39.5366 20.9732V20.9482C39.5366 20.9456 39.5365 20.9418 39.5365 20.9392V20.9224C39.5364 20.9199 39.5364 20.9175 39.5364 20.9151V20.9057C39.5363 20.9035 39.5363 20.9013 39.5363 20.8992V20.8888L39.5363 20.8864C39.5363 20.8771 39.5362 20.8677 39.536 20.8585V20.8569C39.536 20.8536 39.536 20.8496 39.5359 20.8463V20.8402C39.5359 20.8374 39.5358 20.8331 39.5358 20.8304C39.5358 20.8281 39.5358 20.8257 39.5358 20.8235C39.5358 20.8202 39.5358 20.8176 39.5357 20.8143V20.8065C39.5356 20.8039 39.5356 20.8007 39.5356 20.7981C39.5355 20.7952 39.5355 20.7923 39.5355 20.7894C39.5354 20.7868 39.5354 20.7844 39.5354 20.7818C39.5354 20.7785 39.5353 20.7751 39.5353 20.7717C39.5353 20.7696 39.5353 20.7674 39.5353 20.7654C39.5353 20.7614 39.5352 20.7572 39.535 20.7532C39.5349 20.7433 39.5348 20.7315 39.5346 20.7216C39.5139 19.7597 38.7277 18.991 37.7656 18.9922C37.7571 18.9922 37.7485 18.9922 37.74 18.9923C36.7541 19.0076 35.9645 19.8141 35.9699 20.8001L35.9716 21.0314C35.9716 29.8783 28.7741 37.076 19.9269 37.076C18.1912 37.0782 16.4666 36.7983 14.8207 36.2475C13.8871 35.9347 12.8768 36.438 12.564 37.3715C12.2517 38.3038 12.7531 39.3129 13.6848 39.6271C13.6872 39.628 13.6903 39.629 13.6927 39.6299L13.6953 39.6307C13.6996 39.6321 13.7041 39.6336 13.7083 39.6351L13.7087 39.6351C13.7134 39.6366 13.7177 39.6381 13.7224 39.6397L13.7245 39.6404C13.7281 39.6416 13.7324 39.643 13.7358 39.6442C13.737 39.6447 13.738 39.645 13.7391 39.6453C13.7427 39.6465 13.7455 39.6475 13.749 39.6486C13.7503 39.649 13.7516 39.6496 13.7529 39.65C13.7565 39.6511 13.7604 39.6524 13.7638 39.6536L13.766 39.6543C13.7708 39.6559 13.7748 39.6572 13.7797 39.6589L13.7807 39.6592L13.7929 39.6632C13.794 39.6636 13.7954 39.664 13.7965 39.6644L13.8061 39.6676L13.8102 39.6689C13.8138 39.6701 13.8173 39.6713 13.8209 39.6724L13.8234 39.6732C13.8281 39.6747 13.8321 39.6761 13.8368 39.6776C13.8375 39.6778 13.8381 39.678 13.8387 39.6783C13.8422 39.6793 13.8463 39.6808 13.8499 39.6819C13.8514 39.6824 13.8528 39.6829 13.8542 39.6833C13.8572 39.6843 13.86 39.6852 13.863 39.6862C13.8646 39.6866 13.8662 39.6872 13.8677 39.6877C13.8707 39.6887 13.8743 39.6898 13.8772 39.6907C13.8783 39.6911 13.8798 39.6915 13.881 39.6919C13.8851 39.6933 13.89 39.6948 13.8942 39.6961L13.8951 39.6965C13.8992 39.6978 13.903 39.6991 13.9073 39.7004C13.9087 39.7008 13.9101 39.7014 13.9115 39.7018L13.9205 39.7047C13.9222 39.7052 13.9237 39.7058 13.9256 39.7063C13.9285 39.7073 13.9311 39.7081 13.9341 39.7091C13.9356 39.7097 13.9371 39.7101 13.9387 39.7106C13.9423 39.7117 13.9467 39.7131 13.9503 39.7143L13.9526 39.715C13.9561 39.7161 13.9612 39.7178 13.9648 39.7189C13.9663 39.7194 13.9679 39.72 13.9694 39.7204L13.9776 39.723C13.9795 39.7236 13.9816 39.7241 13.9834 39.7248C13.9858 39.7256 13.9887 39.7265 13.9911 39.7272C13.9929 39.7279 13.9947 39.7284 13.9965 39.729C13.9994 39.73 14.003 39.7311 14.006 39.732C14.0071 39.7323 14.0082 39.7327 14.0095 39.7331C14.0137 39.7344 14.0181 39.7358 14.0222 39.7371C14.0238 39.7375 14.0253 39.7381 14.0269 39.7386C14.0299 39.7394 14.0323 39.7403 14.0353 39.7412C14.0371 39.7418 14.0389 39.7423 14.0407 39.7429C14.0431 39.7436 14.0465 39.7447 14.0489 39.7454C14.0506 39.746 14.0522 39.7465 14.0538 39.747L14.0631 39.7499L14.0672 39.7512C14.0715 39.7525 14.0756 39.7538 14.0797 39.7551L14.0852 39.7568L14.0926 39.7592C14.0948 39.7599 14.0969 39.7604 14.099 39.7612C14.1015 39.7619 14.1035 39.7626 14.1059 39.7632C14.108 39.7639 14.1102 39.7647 14.1123 39.7652L14.1195 39.7674C14.1214 39.7679 14.1234 39.7686 14.1252 39.7692C14.1288 39.7703 14.1339 39.7719 14.1376 39.773L14.1426 39.7747C14.1456 39.7755 14.1477 39.7762 14.1508 39.7772C14.1526 39.7777 14.1547 39.7784 14.1566 39.779L14.1638 39.7812C14.1657 39.7818 14.1679 39.7824 14.1698 39.7831C14.1728 39.7839 14.1746 39.7845 14.1775 39.7853C14.1794 39.786 14.1811 39.7864 14.183 39.7871C14.1873 39.7884 14.1911 39.7896 14.1953 39.7907C14.1972 39.7912 14.199 39.7919 14.2008 39.7925C14.2033 39.7932 14.2058 39.794 14.2081 39.7947C14.2103 39.7954 14.2124 39.796 14.2146 39.7968C14.217 39.7974 14.219 39.7981 14.2215 39.7988C14.2236 39.7995 14.2257 39.8 14.2278 39.8007C14.2302 39.8014 14.2328 39.8022 14.2353 39.8029L14.2408 39.8046L14.2526 39.8082L14.2585 39.81C14.2609 39.8107 14.2638 39.8115 14.2661 39.8123L14.2726 39.8142C14.275 39.8149 14.277 39.8156 14.2794 39.8161L14.2857 39.8181C14.2875 39.8186 14.291 39.8196 14.2927 39.8202L14.2991 39.8221C14.3015 39.8227 14.3034 39.8232 14.3057 39.824L14.3178 39.8276C14.3202 39.8283 14.3217 39.8287 14.324 39.8294C14.3263 39.8301 14.3286 39.8308 14.3309 39.8315C14.3326 39.832 14.3355 39.8329 14.3373 39.8334C14.3395 39.834 14.3419 39.8347 14.3441 39.8353C14.3458 39.8359 14.3487 39.8367 14.3506 39.8372L14.3571 39.8391C14.3595 39.8399 14.3625 39.8408 14.365 39.8414L14.3736 39.844C14.3767 39.8448 14.3794 39.8456 14.3823 39.8466C14.3844 39.8471 14.3864 39.8477 14.3885 39.8483C14.3909 39.8491 14.3932 39.8497 14.3956 39.8504C14.3977 39.8511 14.3996 39.8516 14.4017 39.8522C14.4041 39.8529 14.4067 39.8537 14.4092 39.8544C14.4112 39.8549 14.4132 39.8555 14.415 39.8562C14.418 39.857 14.4216 39.858 14.4247 39.8589C14.4259 39.8593 14.4268 39.8596 14.428 39.8599C14.4322 39.8613 14.4363 39.8624 14.4406 39.8636L14.4463 39.8653C14.4494 39.8661 14.4511 39.8667 14.454 39.8675L14.4597 39.8692C14.4621 39.8699 14.4651 39.8707 14.4674 39.8715C14.4692 39.8719 14.4713 39.8725 14.4732 39.8731C14.4761 39.874 14.4787 39.8748 14.4818 39.8756C14.4832 39.8761 14.485 39.8765 14.4864 39.877C14.4906 39.8781 14.4946 39.8794 14.4989 39.8806C14.501 39.8812 14.5028 39.8817 14.5048 39.8822C14.5072 39.883 14.5097 39.8837 14.512 39.8844L14.5181 39.8862C14.5206 39.8868 14.5231 39.8875 14.5254 39.8883C14.5275 39.8888 14.5295 39.8894 14.5318 39.89C14.5342 39.8908 14.5363 39.8914 14.5389 39.8921L14.545 39.8939C14.5475 39.8945 14.5511 39.8956 14.5536 39.8964C14.5571 39.8972 14.5604 39.8982 14.5639 39.8992C14.5663 39.9 14.5679 39.9004 14.5704 39.901C14.5725 39.9017 14.5748 39.9024 14.577 39.9029C14.5794 39.9036 14.5811 39.9041 14.5835 39.9048L14.59 39.9066L14.5977 39.9087C14.5994 39.9093 14.6013 39.9098 14.6031 39.9102L14.6157 39.9138L14.6205 39.9152L14.6289 39.9176L14.6346 39.9193C14.6371 39.9199 14.6397 39.9207 14.6422 39.9214C14.6443 39.922 14.6462 39.9225 14.6483 39.9231C14.6507 39.9238 14.6533 39.9245 14.6558 39.9252L14.6616 39.9269L14.6699 39.9291C14.6735 39.9301 14.6767 39.931 14.6803 39.932L14.6871 39.9339C14.6893 39.9346 14.6914 39.9351 14.6936 39.9356C14.696 39.9364 14.698 39.937 14.7005 39.9376C14.7026 39.9381 14.7047 39.9387 14.7068 39.9393C14.7093 39.94 14.7118 39.9407 14.7141 39.9412C14.7162 39.9419 14.7182 39.9424 14.7203 39.943L14.7279 39.9451C14.7314 39.9461 14.735 39.947 14.7383 39.9479C14.7408 39.9487 14.7433 39.9493 14.7456 39.95C14.7478 39.9506 14.7499 39.9511 14.7519 39.9518C14.7545 39.9524 14.7566 39.9529 14.7591 39.9536C14.7613 39.9543 14.7635 39.9548 14.7657 39.9554L14.7723 39.9573C14.7745 39.9579 14.7766 39.9584 14.7788 39.959C14.7813 39.9597 14.7831 39.9602 14.7855 39.9609C14.7894 39.9619 14.7931 39.963 14.797 39.9639C14.7995 39.9646 14.802 39.9652 14.8044 39.9658C14.8066 39.9665 14.8088 39.967 14.8109 39.9676C14.8127 39.9681 14.8156 39.9689 14.8175 39.9694C14.8197 39.9699 14.8221 39.9706 14.8243 39.9712C14.8267 39.9719 14.8284 39.9723 14.8309 39.973C14.8332 39.9737 14.8353 39.9742 14.8377 39.9748C14.8401 39.9755 14.8418 39.9759 14.8443 39.9766C14.8476 39.9774 14.8511 39.9784 14.8545 39.9793C14.8575 39.9802 14.8599 39.9808 14.863 39.9816L14.8694 39.9834C14.8713 39.9838 14.8744 39.9847 14.8762 39.9851C14.8786 39.9858 14.8808 39.9863 14.8831 39.987C14.8856 39.9876 14.8873 39.988 14.8897 39.9887C14.8918 39.9893 14.894 39.9899 14.8962 39.9905L14.903 39.9922C14.9068 39.9933 14.9105 39.9943 14.9142 39.9952L14.9218 39.9971C14.9239 39.9976 14.9261 39.9983 14.9284 39.9989C14.9302 39.9993 14.933 40.0001 14.9349 40.0007L14.9417 40.0024L14.9482 40.0042L14.9552 40.006C14.957 40.0064 14.9595 40.0071 14.9614 40.0077C14.9638 40.0083 14.966 40.0088 14.9683 40.0094C14.972 40.0104 14.9768 40.0117 14.9805 40.0126L14.9865 40.0143C14.989 40.0149 14.9914 40.0154 14.994 40.0161C14.9961 40.0168 14.9984 40.0173 15.0006 40.0179L15.0071 40.0196C15.0093 40.0201 15.0117 40.0208 15.014 40.0214C15.0158 40.0218 15.0183 40.0225 15.0201 40.0231C15.0225 40.0236 15.025 40.0242 15.0275 40.0249C15.0311 40.0259 15.0358 40.0271 15.0395 40.0279L15.0459 40.0296C15.0484 40.0302 15.05 40.0307 15.0525 40.0313C15.0548 40.032 15.0572 40.0325 15.0596 40.0332C15.0621 40.0337 15.0636 40.0342 15.0662 40.0348C15.0683 40.0354 15.0706 40.036 15.0729 40.0366L15.0795 40.0383C15.0818 40.0389 15.084 40.0394 15.0861 40.04C15.0886 40.0407 15.092 40.0415 15.0945 40.0421L15.1045 40.0447C15.1069 40.0452 15.1093 40.0459 15.1117 40.0464C15.1141 40.0471 15.1161 40.0476 15.1186 40.0482L15.125 40.0499C15.1272 40.0504 15.1294 40.051 15.1318 40.0516C15.1336 40.052 15.1369 40.0528 15.1387 40.0534L15.1452 40.0551C15.1489 40.0559 15.1517 40.0567 15.1554 40.0576L15.1607 40.0589C15.1643 40.0599 15.1674 40.0607 15.171 40.0615C15.1729 40.0619 15.1746 40.0623 15.1765 40.0629L15.185 40.065C15.1867 40.0654 15.1887 40.0658 15.1904 40.0663C15.1929 40.067 15.1957 40.0677 15.1981 40.0683C15.2002 40.0688 15.2021 40.0693 15.2042 40.0698L15.2126 40.0719C15.2152 40.0725 15.2177 40.073 15.2203 40.0737C15.2233 40.0744 15.227 40.0754 15.23 40.0761L15.2364 40.0778L15.2433 40.0795L15.2499 40.0811C15.2524 40.0818 15.2543 40.0822 15.2567 40.0828C15.2591 40.0835 15.2611 40.0839 15.2635 40.0846C15.266 40.0851 15.2686 40.0857 15.2711 40.0864L15.2767 40.0877C15.281 40.0888 15.2847 40.0897 15.289 40.0907L15.2958 40.0924L15.3026 40.0941L15.3092 40.0958C15.3118 40.0963 15.3135 40.0968 15.3159 40.0973L15.3226 40.0989C15.3251 40.0996 15.3277 40.1003 15.3302 40.1008C15.3321 40.1012 15.3341 40.1018 15.336 40.1022L15.3485 40.1051C15.3504 40.1056 15.3525 40.1061 15.3544 40.1065C15.3569 40.1072 15.3595 40.1079 15.362 40.1084C15.3641 40.1089 15.366 40.1094 15.3682 40.1099C15.3706 40.1105 15.3731 40.111 15.3754 40.1116C15.3776 40.112 15.3799 40.1126 15.382 40.1131C15.3845 40.1137 15.3865 40.1142 15.3891 40.1148C15.3911 40.1154 15.3933 40.1158 15.3954 40.1163L15.4078 40.1192C15.4097 40.1197 15.4117 40.1201 15.4138 40.1207C15.4162 40.1212 15.4188 40.1218 15.4213 40.1224L15.4281 40.1241L15.4345 40.1255L15.4414 40.1272C15.4433 40.1276 15.4465 40.1285 15.4484 40.1288C15.4506 40.1294 15.4526 40.1298 15.4548 40.1304C15.4592 40.1314 15.463 40.1323 15.4674 40.1333L15.4735 40.1347C15.4759 40.1352 15.4781 40.1358 15.4806 40.1364L15.4877 40.138L15.494 40.1395C15.4965 40.1401 15.4988 40.1406 15.5013 40.1412L15.5076 40.1426L15.5145 40.1443C15.5175 40.145 15.5202 40.1456 15.5232 40.1462C15.5264 40.147 15.5293 40.1476 15.5325 40.1484C15.535 40.149 15.538 40.1496 15.5405 40.1502C15.5424 40.1507 15.5447 40.1512 15.5468 40.1517C15.5493 40.1522 15.5514 40.1527 15.5539 40.1533C15.5561 40.1537 15.5582 40.1543 15.5604 40.1548L15.5682 40.1565L15.5739 40.1578C15.5771 40.1586 15.5803 40.1593 15.5835 40.16C15.5861 40.1607 15.5885 40.1612 15.5912 40.1618C15.5942 40.1625 15.597 40.1631 15.6 40.1639C15.6021 40.1643 15.6043 40.1649 15.6065 40.1653C15.6089 40.1659 15.6109 40.1663 15.6134 40.1668C15.6157 40.1674 15.618 40.1679 15.6203 40.1683L15.6271 40.1698C15.6293 40.1704 15.6314 40.1708 15.6337 40.1713C15.6361 40.1718 15.6387 40.1724 15.6412 40.173C15.6444 40.1737 15.6479 40.1745 15.651 40.1752C15.6535 40.1757 15.6572 40.1766 15.6596 40.1771C15.6618 40.1776 15.6639 40.1781 15.6661 40.1785C15.6679 40.1789 15.6711 40.1796 15.6729 40.18L15.68 40.1817L15.6865 40.1831C15.6889 40.1835 15.6912 40.1841 15.6937 40.1846L15.7002 40.186C15.7038 40.1868 15.7074 40.1877 15.711 40.1884C15.7135 40.1889 15.7165 40.1898 15.7191 40.1902C15.7216 40.1909 15.724 40.1913 15.7265 40.1919C15.7283 40.1923 15.7308 40.1929 15.7326 40.1932L15.7398 40.1949L15.7466 40.1964L15.753 40.1977C15.7555 40.1982 15.7582 40.1989 15.7607 40.1995L15.7668 40.2008C15.7704 40.2015 15.7753 40.2026 15.7791 40.2034C15.7812 40.2038 15.7837 40.2044 15.786 40.2049C15.7878 40.2052 15.7906 40.2059 15.7924 40.2063C15.7949 40.2067 15.7971 40.2073 15.7995 40.2077L15.8064 40.2092C15.8086 40.2097 15.8107 40.2101 15.8129 40.2107C15.8154 40.2112 15.8173 40.2117 15.8198 40.2121C15.8221 40.2127 15.8244 40.2131 15.8266 40.2136C15.8304 40.2143 15.8352 40.2153 15.8389 40.2162C15.8411 40.2166 15.8433 40.217 15.8454 40.2175L15.8523 40.219C15.8548 40.2194 15.8571 40.22 15.8595 40.2205C15.862 40.2209 15.8635 40.2213 15.866 40.2219C15.8682 40.2224 15.8706 40.2229 15.8728 40.2233C15.8747 40.2237 15.8781 40.2244 15.8799 40.2248C15.8822 40.2252 15.8843 40.2256 15.8865 40.2262C15.8909 40.227 15.8947 40.228 15.8991 40.2288C15.9008 40.2291 15.9026 40.2295 15.9044 40.2299C15.9074 40.2305 15.9093 40.231 15.9124 40.2316L15.919 40.233L15.9262 40.2345L15.9327 40.2358C15.9352 40.2363 15.9377 40.2369 15.9402 40.2373L15.9462 40.2387C15.9494 40.2393 15.9528 40.24 15.956 40.2406C15.9589 40.2412 15.9618 40.2417 15.9649 40.2424C15.9674 40.2429 15.9698 40.2434 15.9723 40.2439C15.9748 40.2445 15.9771 40.2449 15.9795 40.2454C15.9814 40.2458 15.9842 40.2463 15.986 40.2468L15.9928 40.2481C15.9952 40.2486 15.9976 40.2491 16.0001 40.2496L16.0065 40.2509C16.0095 40.2516 16.0129 40.2523 16.016 40.2529L16.0226 40.2542L16.0327 40.2563C16.0346 40.2566 16.0367 40.257 16.0387 40.2575C16.0412 40.2579 16.0441 40.2585 16.0466 40.259C16.0486 40.2594 16.0506 40.2598 16.0527 40.2601L16.0603 40.2618C16.0623 40.2621 16.0644 40.2626 16.0664 40.263C16.0695 40.2636 16.0722 40.2641 16.0754 40.2647L16.0817 40.2661C16.0854 40.2668 16.0893 40.2676 16.0929 40.2682C16.095 40.2687 16.0968 40.269 16.0987 40.2694C16.1019 40.2699 16.1036 40.2704 16.1067 40.2709C16.1086 40.2713 16.1106 40.2717 16.1125 40.2721C16.115 40.2725 16.1183 40.2732 16.1208 40.2738C16.1227 40.2741 16.1244 40.2745 16.1264 40.2748C16.1294 40.2755 16.133 40.2762 16.1361 40.2768C16.1373 40.277 16.1386 40.2772 16.14 40.2775C16.1443 40.2783 16.1488 40.2792 16.1532 40.28C16.1549 40.2804 16.1567 40.2807 16.1584 40.2811C16.1616 40.2816 16.164 40.2821 16.1671 40.2828C16.169 40.2831 16.1708 40.2835 16.1728 40.2839C16.1753 40.2844 16.1783 40.2849 16.1808 40.2854L16.1867 40.2865C16.1899 40.2871 16.1922 40.2876 16.1953 40.2882L16.2006 40.2892C16.2042 40.29 16.2095 40.291 16.2133 40.2917C16.2152 40.292 16.2173 40.2925 16.2193 40.2928C16.2218 40.2934 16.2247 40.2939 16.2272 40.2943C16.2291 40.2947 16.2311 40.2951 16.233 40.2954C16.2355 40.296 16.2387 40.2965 16.2412 40.2971C16.2433 40.2974 16.2451 40.2978 16.247 40.2982C16.2502 40.2987 16.2524 40.2992 16.2555 40.2998L16.2609 40.3008C16.2652 40.3017 16.2694 40.3025 16.2738 40.3032L16.2788 40.3043C16.282 40.3048 16.2848 40.3053 16.2878 40.306L16.2933 40.307C16.2958 40.3074 16.299 40.3081 16.3015 40.3085C16.3033 40.3088 16.3055 40.3093 16.3075 40.3096C16.3107 40.3103 16.3129 40.3107 16.3161 40.3113L16.3211 40.3123C16.3256 40.313 16.3301 40.3139 16.3345 40.3148C16.3356 40.3149 16.3368 40.3151 16.338 40.3153C16.3412 40.316 16.3452 40.3167 16.3484 40.3172L16.3535 40.3182L16.3622 40.3197C16.364 40.32 16.366 40.3205 16.3677 40.3208C16.3709 40.3213 16.3735 40.3219 16.3767 40.3225C16.3782 40.3227 16.38 40.323 16.3815 40.3233C16.3852 40.324 16.3894 40.3247 16.3931 40.3255C16.3949 40.3257 16.3967 40.3261 16.3985 40.3265C16.4017 40.3271 16.4055 40.3276 16.4086 40.3282L16.414 40.3292L16.4225 40.3307C16.4244 40.3311 16.4264 40.3315 16.428 40.3318L16.4366 40.3333L16.4422 40.3343C16.4453 40.3348 16.4486 40.3354 16.4518 40.3361C16.454 40.3364 16.4562 40.3368 16.4585 40.3373L16.4691 40.3391L16.4744 40.3401L16.4831 40.3416L16.4888 40.3426L16.4973 40.3441C16.4991 40.3444 16.5008 40.3448 16.5026 40.3449C16.5064 40.3457 16.5098 40.3463 16.5136 40.3469C16.5144 40.3471 16.5155 40.3472 16.5164 40.3474L16.5302 40.3498L16.5341 40.3505L16.5441 40.3522C16.5459 40.3526 16.5474 40.3527 16.549 40.3531L16.5583 40.3547C16.5601 40.355 16.5617 40.3553 16.5634 40.3556C16.5666 40.3561 16.57 40.3566 16.5732 40.3572C16.5746 40.3576 16.5758 40.3577 16.5772 40.358C16.5816 40.3587 16.5863 40.3595 16.5906 40.3602C16.5921 40.3605 16.5935 40.3607 16.5949 40.361C16.5981 40.3615 16.6015 40.3621 16.6047 40.3627C16.6064 40.363 16.608 40.3632 16.6097 40.3635L16.6191 40.3652C16.6206 40.3654 16.6221 40.3656 16.6237 40.3659C16.6275 40.3666 16.6306 40.3671 16.6344 40.3677L16.6378 40.3683C16.6428 40.3691 16.6465 40.3698 16.6515 40.3706L16.6552 40.3713C16.6583 40.3717 16.6621 40.3724 16.6653 40.3729C16.667 40.3733 16.6686 40.3735 16.6703 40.3738C16.6728 40.3742 16.6771 40.3749 16.6796 40.3753C16.6813 40.3756 16.683 40.3759 16.6847 40.3761L16.6944 40.3778L16.6984 40.3785C16.7035 40.3793 16.7072 40.3799 16.7122 40.3807L16.7147 40.3811C16.7186 40.3816 16.7227 40.3825 16.7265 40.383L16.7305 40.3837C16.7342 40.3842 16.7367 40.3847 16.7406 40.3854C16.7421 40.3856 16.7436 40.3858 16.7452 40.3861C16.7483 40.3866 16.7518 40.3872 16.7549 40.3876C16.7564 40.388 16.7579 40.3882 16.7594 40.3884C16.7638 40.3891 16.7688 40.3899 16.7733 40.3907L16.7741 40.3907C16.7784 40.3914 16.7828 40.3922 16.7871 40.3928L16.7915 40.3935C16.7946 40.3941 16.7981 40.3946 16.8012 40.3952L16.806 40.3959C16.8092 40.3964 16.8125 40.397 16.8157 40.3974C16.8172 40.3977 16.8185 40.3978 16.8201 40.3982C16.8245 40.3988 16.8288 40.3995 16.8332 40.4003L16.8359 40.4007C16.8398 40.4012 16.8441 40.402 16.8478 40.4025C16.8495 40.4028 16.851 40.4031 16.8527 40.4033C16.8559 40.4038 16.8587 40.4043 16.8618 40.4047C16.8635 40.405 16.8653 40.4053 16.8669 40.4055C16.8701 40.406 16.8733 40.4065 16.8764 40.407C16.878 40.4073 16.8794 40.4075 16.8811 40.4077C16.8855 40.4084 16.8896 40.409 16.894 40.4098L16.8948 40.4099C16.8993 40.4105 16.9044 40.4113 16.9089 40.4121L16.9129 40.4126C16.9161 40.4131 16.9197 40.4136 16.9229 40.4142C16.9246 40.4145 16.9262 40.4146 16.928 40.415C16.9312 40.4154 16.9338 40.4158 16.9369 40.4163C16.9387 40.4166 16.9405 40.4168 16.9422 40.4171C16.9461 40.4177 16.9494 40.4182 16.9532 40.4188L16.9561 40.4192L16.97 40.4213L16.974 40.422C16.9772 40.4224 16.9809 40.423 16.9841 40.4235C16.9857 40.4237 16.9873 40.4239 16.9888 40.4243C16.992 40.4247 16.9952 40.4251 16.9983 40.4257L17.0032 40.4263C17.0071 40.4269 17.0119 40.4277 17.0157 40.4282L17.0168 40.4284C17.0219 40.4292 17.0262 40.4299 17.0312 40.4306C17.0323 40.4307 17.0333 40.4309 17.0344 40.431C17.0382 40.4315 17.0415 40.432 17.0452 40.4327L17.05 40.4334C17.0525 40.4337 17.0568 40.4344 17.0594 40.4348L17.0643 40.4354L17.0756 40.4371L17.0781 40.4375C17.0832 40.4383 17.0874 40.4389 17.0925 40.4396L17.0947 40.44C17.0986 40.4405 17.1027 40.4411 17.1065 40.4417C17.1079 40.4418 17.1093 40.4421 17.1106 40.4422C17.1144 40.4428 17.1171 40.4432 17.121 40.4437C17.1224 40.4438 17.1239 40.4441 17.1253 40.4442C17.1291 40.4448 17.1332 40.4454 17.1369 40.446L17.1391 40.4462C17.1442 40.447 17.1485 40.4476 17.1535 40.4483L17.1553 40.4487C17.1591 40.4492 17.1639 40.4498 17.1678 40.4504C17.1692 40.4507 17.1706 40.4507 17.1719 40.451C17.1751 40.4514 17.1784 40.452 17.1815 40.4524L17.1868 40.4531C17.1907 40.4537 17.1932 40.4541 17.1972 40.4546L17.2007 40.455C17.2103 40.4563 17.2195 40.4576 17.229 40.4589C17.2304 40.4592 17.2319 40.4593 17.2334 40.4595C17.2365 40.4599 17.2399 40.4605 17.2431 40.4609L17.2481 40.4616L17.2582 40.463C17.2595 40.4631 17.2608 40.4634 17.2621 40.4635C17.2665 40.4641 17.2718 40.4649 17.2762 40.4654L17.2766 40.4655C17.2811 40.466 17.2859 40.4666 17.2903 40.4673C17.2918 40.4674 17.2931 40.4676 17.2944 40.4678C17.2977 40.4682 17.3013 40.4686 17.3045 40.4691L17.3091 40.4698C17.3131 40.4704 17.3157 40.4706 17.3196 40.4712C17.3209 40.4713 17.3221 40.4715 17.3234 40.4716C17.3279 40.4723 17.3327 40.473 17.3371 40.4735H17.3376C17.342 40.4741 17.3473 40.4748 17.3519 40.4754C17.3532 40.4755 17.3541 40.4757 17.3554 40.4758C17.3593 40.4764 17.362 40.4766 17.3659 40.4772L17.3709 40.4779C17.3741 40.4782 17.3773 40.4787 17.3805 40.4791C17.382 40.4793 17.3835 40.4795 17.3851 40.4796C17.389 40.4802 17.3926 40.4806 17.3964 40.4811L17.3993 40.4814C17.4044 40.4821 17.4083 40.4826 17.4134 40.4832C17.4145 40.4833 17.4158 40.4836 17.4169 40.4837C17.4207 40.4842 17.4234 40.4845 17.4272 40.485L17.4326 40.4857L17.4419 40.4868L17.4466 40.4875C17.4505 40.4879 17.4548 40.4885 17.4586 40.489C17.4592 40.489 17.4599 40.4891 17.4605 40.4893C17.4656 40.4899 17.4698 40.4904 17.4749 40.491L17.4775 40.4914C17.4814 40.4919 17.4851 40.4924 17.4891 40.4929C17.4905 40.4929 17.4921 40.4932 17.4935 40.4934C17.4973 40.4939 17.4999 40.4942 17.5039 40.4946L17.5077 40.4951C17.5115 40.4955 17.5156 40.4961 17.5195 40.4965L17.5222 40.4969C17.5273 40.4975 17.5315 40.498 17.5366 40.4986L17.5389 40.499C17.5427 40.4994 17.5468 40.5 17.5507 40.5004C17.5521 40.5005 17.5537 40.5007 17.5551 40.501C17.559 40.5014 17.5614 40.5017 17.5652 40.5021C17.5667 40.5024 17.5681 40.5025 17.5696 40.5027C17.5735 40.5031 17.5767 40.5036 17.5807 40.5041L17.5838 40.5044C17.5889 40.5051 17.5929 40.5055 17.5982 40.5061L17.6003 40.5064L17.6124 40.5078C17.6139 40.5081 17.6153 40.5082 17.6168 40.5084C17.62 40.5088 17.6236 40.5092 17.6267 40.5096C17.6282 40.5097 17.6297 40.5099 17.6314 40.5102C17.6346 40.5105 17.6382 40.5109 17.6414 40.5113C17.6431 40.5114 17.6443 40.5117 17.6458 40.5117C17.6503 40.5122 17.6554 40.5128 17.6599 40.5134L17.6607 40.5135C17.6651 40.5141 17.6693 40.5145 17.6737 40.515C17.6753 40.5153 17.677 40.5153 17.6785 40.5155C17.6817 40.5158 17.685 40.5163 17.6883 40.5166C17.69 40.5168 17.6913 40.5169 17.693 40.5172C17.6962 40.5175 17.6998 40.5179 17.7029 40.5183C17.7043 40.5185 17.7058 40.5187 17.7073 40.5188C17.7117 40.5194 17.7167 40.5199 17.7212 40.5203L17.7218 40.5204C17.7262 40.5208 17.7311 40.5214 17.7355 40.5219C17.7372 40.5221 17.7387 40.5222 17.7403 40.5224L17.7497 40.5234L17.755 40.524C17.7581 40.5244 17.7611 40.5247 17.7643 40.525C17.766 40.5253 17.7677 40.5254 17.7694 40.5256C17.7733 40.526 17.7774 40.5265 17.7812 40.527C17.782 40.5271 17.7826 40.5271 17.7834 40.5272C17.7878 40.5277 17.7928 40.5283 17.7973 40.5287C17.7988 40.529 17.8003 40.529 17.8019 40.5293C17.8051 40.5296 17.8087 40.53 17.8118 40.5304C17.8135 40.5305 17.8151 40.5307 17.8166 40.5308C17.8198 40.5311 17.8232 40.5316 17.8263 40.5319C17.828 40.532 17.8293 40.5322 17.831 40.5323L17.8426 40.5336L17.8452 40.5339L17.8593 40.5354L17.8629 40.5357L17.8736 40.5369C17.8751 40.537 17.8768 40.5372 17.8783 40.5373C17.8822 40.5377 17.8844 40.538 17.8883 40.5384L17.8928 40.5388C17.8966 40.5392 17.901 40.5397 17.905 40.54C17.9056 40.5402 17.9063 40.5402 17.9069 40.5402C17.912 40.5408 17.9159 40.5412 17.9212 40.5417L17.9252 40.5421C17.9284 40.5424 17.9323 40.5428 17.9356 40.5432C17.9371 40.5432 17.9388 40.5435 17.9403 40.5436L17.95 40.5446L17.9548 40.5452C17.958 40.5455 17.9622 40.5458 17.9655 40.5462C17.9666 40.5464 17.9679 40.5465 17.9692 40.5466C17.9744 40.5472 17.9781 40.5474 17.9832 40.548L17.9865 40.5483C17.9904 40.5487 17.9936 40.549 17.9976 40.5494C17.9991 40.5495 18.0005 40.5497 18.002 40.5499C18.0059 40.5502 18.0084 40.5504 18.0122 40.5509C18.0137 40.5509 18.015 40.5511 18.0166 40.5513L18.0277 40.5523L18.0309 40.5526C18.036 40.5531 18.0402 40.5534 18.0453 40.554C18.0459 40.554 18.0467 40.5541 18.0474 40.5543C18.0513 40.5546 18.056 40.555 18.0599 40.5555L18.0637 40.5558C18.0677 40.5561 18.0705 40.5565 18.0744 40.5568L18.0787 40.5572C18.0826 40.5575 18.0863 40.5579 18.0902 40.5583C18.0911 40.5583 18.0921 40.5584 18.093 40.5585C18.1027 40.5594 18.1125 40.5603 18.1222 40.5613L18.1257 40.5616C18.1295 40.562 18.1329 40.5623 18.1368 40.5626L18.1407 40.563L18.1522 40.564L18.1553 40.5643L18.1844 40.5669L18.1878 40.5672C18.1917 40.5676 18.1952 40.5678 18.199 40.5682L18.2027 40.5686L18.2143 40.5696L18.2174 40.5698C18.2271 40.5707 18.237 40.5716 18.2467 40.5723C18.2475 40.5724 18.2484 40.5725 18.2493 40.5726C18.2532 40.5729 18.2573 40.5733 18.2611 40.5737L18.2651 40.574C18.269 40.5743 18.2722 40.5746 18.2761 40.5748L18.2798 40.5752L18.293 40.5763L18.2941 40.5763C18.2994 40.5768 18.304 40.5771 18.3092 40.5775L18.3107 40.5776L18.3236 40.5787L18.3272 40.579C18.3312 40.5793 18.3344 40.5795 18.3383 40.5799L18.342 40.5802C18.346 40.5804 18.351 40.5809 18.355 40.5812L18.3564 40.5813C18.3617 40.5817 18.3663 40.582 18.3714 40.5824L18.3729 40.5825C18.3768 40.5829 18.3818 40.5832 18.3857 40.5835L18.3898 40.5839L18.4004 40.5847L18.4044 40.585C18.4084 40.5853 18.4119 40.5856 18.4157 40.5858L18.4191 40.5861C18.4242 40.5865 18.4283 40.5868 18.4335 40.5872L18.4353 40.5873C18.4392 40.5876 18.444 40.588 18.4479 40.5883L18.4519 40.5886C18.4558 40.5889 18.4588 40.589 18.4628 40.5894L18.4667 40.5897C18.4706 40.59 18.4743 40.5902 18.4782 40.5905C18.4792 40.5906 18.4802 40.5906 18.4812 40.5907C18.4909 40.5915 18.5008 40.5921 18.5107 40.5929L18.5138 40.5931C18.5178 40.5935 18.5214 40.5936 18.5254 40.5939L18.529 40.5942C18.5329 40.5945 18.5366 40.5948 18.5406 40.595C18.5417 40.5951 18.5427 40.5951 18.5438 40.5952C18.5535 40.596 18.5631 40.5966 18.5729 40.5973C18.5741 40.5974 18.5754 40.5974 18.5765 40.5976C18.5804 40.5979 18.5837 40.5981 18.5876 40.5983C18.589 40.5984 18.5904 40.5986 18.5916 40.5986C18.5956 40.5989 18.5989 40.5992 18.6028 40.5993C18.6039 40.5994 18.6053 40.5996 18.6063 40.5996C18.616 40.6002 18.6258 40.6009 18.6356 40.6015L18.6388 40.6017C18.6427 40.602 18.6462 40.6022 18.65 40.6025C18.6515 40.6026 18.6529 40.6026 18.6543 40.6027C18.6582 40.6031 18.6611 40.6032 18.665 40.6035C18.6663 40.6035 18.6678 40.6036 18.6691 40.6038C18.6737 40.6041 18.6782 40.6043 18.6828 40.6046H18.6834C18.6887 40.6049 18.6928 40.6053 18.6981 40.6056L18.7014 40.6057C18.7053 40.606 18.709 40.6062 18.7129 40.6064C18.7142 40.6065 18.7155 40.6065 18.7168 40.6067C18.7207 40.6069 18.7236 40.6071 18.7275 40.6073C18.7288 40.6074 18.7304 40.6076 18.7318 40.6076C18.7357 40.6079 18.7407 40.6082 18.7445 40.6083L18.7461 40.6084C18.7514 40.6088 18.7558 40.6091 18.7609 40.6093L18.7641 40.6095C18.768 40.6098 18.7713 40.6099 18.7752 40.6102L18.78 40.6105C18.7833 40.6106 18.7865 40.6109 18.7898 40.611C18.7913 40.6111 18.7931 40.6111 18.7948 40.6113L18.8066 40.6119L18.809 40.6122C18.8143 40.6124 18.8181 40.6126 18.8234 40.6129C18.8247 40.613 18.8261 40.613 18.8274 40.6132C18.8306 40.6134 18.8346 40.6136 18.8378 40.6138L18.8431 40.6141C18.8457 40.6142 18.8497 40.6144 18.8524 40.6146C18.8542 40.6147 18.856 40.6147 18.8578 40.6149C18.8611 40.6151 18.8646 40.6153 18.8678 40.6154C18.8693 40.6155 18.8707 40.6157 18.8722 40.6157C18.8768 40.616 18.8818 40.6163 18.8863 40.6165L18.8896 40.6167C18.8936 40.617 18.8968 40.617 18.9007 40.6173C18.9022 40.6174 18.904 40.6175 18.9057 40.6175C18.9083 40.6178 18.9125 40.618 18.9151 40.6181C18.917 40.6182 18.9188 40.6184 18.9206 40.6184C18.9239 40.6186 18.9272 40.6188 18.9304 40.6189L18.9348 40.6191L18.949 40.6198L18.9519 40.62C18.9558 40.6203 18.9597 40.6204 18.9637 40.6206C18.9651 40.6207 18.9666 40.6207 18.968 40.6209C18.9713 40.621 18.9749 40.6212 18.9781 40.6213L18.9831 40.6216C18.9864 40.6217 18.9902 40.622 18.9935 40.6221C18.9949 40.6221 18.9963 40.6221 18.9976 40.6223C19.0067 40.6227 19.0174 40.6231 19.0265 40.6236C19.0279 40.6237 19.0293 40.6237 19.0306 40.6239C19.0346 40.624 19.0371 40.6241 19.0411 40.6243C19.0426 40.6244 19.0442 40.6244 19.0458 40.6246C19.0497 40.6248 19.0527 40.6249 19.0566 40.625L19.0602 40.6252C19.0648 40.6255 19.0698 40.6256 19.0743 40.6257L19.0749 40.6258C19.0802 40.6261 19.0843 40.6261 19.0896 40.6263L19.0932 40.6266C19.0971 40.6266 19.1001 40.6268 19.1041 40.627C19.1056 40.6271 19.1071 40.6271 19.1087 40.6272C19.1126 40.6273 19.1154 40.6275 19.1194 40.6277C19.1207 40.6277 19.1221 40.6277 19.1234 40.6277C19.1273 40.628 19.1326 40.6282 19.1367 40.6282H19.1378C19.1432 40.6285 19.1472 40.6287 19.1524 40.6289C19.1537 40.6289 19.155 40.629 19.1563 40.629C19.1602 40.6292 19.1629 40.6292 19.1668 40.6294C19.1686 40.6294 19.1702 40.6295 19.1719 40.6297C19.1758 40.6297 19.1779 40.6299 19.1818 40.63C19.1833 40.6301 19.185 40.6301 19.1864 40.6302C19.1903 40.6303 19.1941 40.6305 19.198 40.6307C19.199 40.6307 19.1999 40.6307 19.2009 40.6307C19.2063 40.6308 19.2103 40.6311 19.2156 40.6312C19.2166 40.6312 19.2175 40.6313 19.2185 40.6312C19.2225 40.6315 19.2258 40.6316 19.2297 40.6317C19.2315 40.6317 19.2331 40.6317 19.2348 40.6319C19.2374 40.6319 19.242 40.6322 19.2446 40.6322C19.2463 40.6322 19.2479 40.6323 19.2495 40.6323C19.2535 40.6324 19.257 40.6327 19.2608 40.6327C19.2618 40.6327 19.2628 40.6327 19.2638 40.6328C19.2692 40.6329 19.2731 40.6332 19.2783 40.6332L19.2819 40.6333L19.2928 40.6337C19.2946 40.6338 19.2961 40.6338 19.298 40.6339L19.3077 40.6343C19.3094 40.6343 19.3109 40.6343 19.3124 40.6343L19.3235 40.6347L19.3272 40.6348C19.3324 40.635 19.3363 40.6351 19.3416 40.6352L19.3446 40.6353L19.356 40.6356C19.3575 40.6356 19.3593 40.6357 19.3608 40.6357L19.3709 40.636C19.3726 40.636 19.3741 40.6361 19.3756 40.6361L19.3858 40.6364C19.3873 40.6364 19.3888 40.6364 19.3904 40.6365L19.4046 40.6368L19.4073 40.6369L19.4192 40.6373C19.4209 40.6373 19.4224 40.6373 19.4242 40.6373C19.4275 40.6373 19.4306 40.6374 19.4339 40.6376C19.4356 40.6376 19.4372 40.6377 19.439 40.6377C19.4423 40.6378 19.4458 40.6379 19.449 40.6379C19.4507 40.638 19.452 40.638 19.4537 40.638L19.4681 40.6383H19.4682L19.4824 40.6387C19.4842 40.6388 19.4856 40.6388 19.4874 40.6388C19.4906 40.6388 19.4939 40.639 19.4972 40.639C19.4989 40.6391 19.5005 40.6391 19.5023 40.6391C19.5062 40.6392 19.5088 40.6394 19.5127 40.6394C19.514 40.6394 19.5153 40.6394 19.5167 40.6394L19.5308 40.6398H19.5312C19.5359 40.6399 19.5413 40.64 19.546 40.64C19.5473 40.6401 19.5487 40.6401 19.55 40.6401C19.5539 40.6402 19.5568 40.6402 19.5607 40.6404C19.5623 40.6404 19.5636 40.6404 19.565 40.6404C19.569 40.6404 19.5722 40.6405 19.5761 40.6407H19.5801C19.5846 40.6408 19.5893 40.6409 19.5938 40.6409H19.5945L19.6094 40.6413H19.6126C19.6166 40.6414 19.6202 40.6414 19.6242 40.6415H19.6285C19.6325 40.6416 19.635 40.6416 19.639 40.6418H19.6434C19.6474 40.6419 19.6513 40.6419 19.6553 40.642H19.6581C19.6634 40.6421 19.6674 40.6421 19.6726 40.6423H19.6765C19.6798 40.6424 19.6838 40.6424 19.6872 40.6425H19.6923C19.6955 40.6426 19.6988 40.6426 19.7021 40.6426C19.7036 40.6426 19.7054 40.6427 19.7069 40.6427C19.7109 40.6427 19.7148 40.6427 19.7188 40.6428H19.7214C19.7266 40.6429 19.7307 40.6429 19.7361 40.6429C19.7372 40.6429 19.7383 40.6429 19.7393 40.6429C19.7433 40.6429 19.7468 40.6429 19.7506 40.643H19.7555C19.7588 40.643 19.7623 40.6431 19.7656 40.6431H19.7703C19.7743 40.6431 19.7774 40.6432 19.7814 40.6432H19.785C19.7904 40.6433 19.7943 40.6433 19.7996 40.6433H19.8023C19.8063 40.6433 19.8103 40.6434 19.8143 40.6434H19.8186C19.8226 40.6434 19.8252 40.6434 19.8292 40.6434H19.8484C19.8536 40.6435 19.8578 40.6435 19.8631 40.6435H19.8822C19.8855 40.6435 19.8891 40.6435 19.8924 40.6436H19.9267C30.7571 40.6436 39.5368 31.8638 39.5368 21.0335V20.9834C39.5368 20.9786 39.5368 20.9759 39.5366 20.9732Z" fill="#247DFF"/>
<path d="M19.9271 4.98682H19.9153H19.9118H19.9032H19.8994H19.8897H19.8877H19.8757H19.8731H19.8636H19.8601H19.8514H19.848L19.837 4.9869H19.836L19.8243 4.98698H19.8205L19.8123 4.98707H19.8083L19.7995 4.98715H19.7964L19.7846 4.98723H19.7832L19.7729 4.98732H19.7692L19.7605 4.9874H19.7569L19.7475 4.98748H19.745L19.7334 4.98765L19.7296 4.98774L19.7216 4.98782L19.717 4.9879L19.7091 4.98799L19.7056 4.98807L19.6939 4.98824H19.6937L19.6819 4.9884L19.6783 4.98849L19.6701 4.98857L19.666 4.98865L19.6577 4.98882L19.654 4.98891L19.6426 4.98907L19.6396 4.98916L19.6308 4.98932L19.6267 4.98941L19.6189 4.98957L19.6146 4.98966L19.604 4.98991H19.6031L19.5914 4.99016L19.5878 4.99024L19.5794 4.99041L19.5753 4.99049L19.5671 4.99066L19.5635 4.99074L19.5519 4.99099L19.5498 4.99108L19.5402 4.99133L19.5359 4.99141L19.5284 4.99158L19.524 4.99166L19.5158 4.99183L19.5121 4.99191L19.5009 4.99216L19.4972 4.99225L19.4892 4.9925L19.4849 4.99258L19.4769 4.99283L19.473 4.99292L19.4621 4.99325H19.4608L19.4497 4.99359L19.446 4.99367L19.4374 4.99392L19.4338 4.994L19.4249 4.99425L19.422 4.99434L19.4105 4.99467L19.4073 4.99476L19.3984 4.99501L19.3947 4.99509L19.3863 4.99534L19.3828 4.99542L19.372 4.99576H19.371L19.3591 4.99618L19.3561 4.99626L19.3471 4.99659L19.3437 4.99668L19.3347 4.99701L19.3316 4.9971L19.3199 4.99751L19.3185 4.9976L19.3085 4.99793L19.3042 4.9981L19.2962 4.99843L19.2926 4.9986L19.282 4.99902H19.281L19.2688 4.99952L19.2667 4.9996L19.257 5.00002L19.2534 5.00019L19.2447 5.00052L19.2415 5.00069C19.234 5.00102 19.2254 5.00136 19.218 5.00169L19.2145 5.00186L19.2063 5.00219L19.2023 5.00236L19.1935 5.00278L19.1904 5.00294L19.1789 5.00345L19.1762 5.00353L19.1673 5.00395L19.1632 5.00411L19.1556 5.00445L19.151 5.0047L19.1421 5.00512L19.1396 5.0052L19.1282 5.00579L19.1247 5.00595L19.1162 5.00637L19.1121 5.00654L19.1044 5.00696L19.1002 5.00721L19.089 5.00779L19.0869 5.00788L19.077 5.00838L19.0736 5.00854L19.0651 5.00896L19.0616 5.00913L19.0522 5.00963L19.0496 5.0098L19.0378 5.01047L19.0357 5.01055L19.0262 5.01105L19.0226 5.01122L19.0141 5.01172L19.0106 5.01189L18.9871 5.01322L18.9842 5.01339L18.975 5.01389L18.9719 5.01406L18.9614 5.01464L18.9602 5.01473L18.948 5.01548L18.9467 5.01556L18.9361 5.01623L18.9331 5.0164L18.9242 5.01698L18.9209 5.01715L18.9102 5.01782L18.9091 5.0179L18.8974 5.01866L18.8942 5.01882L18.8854 5.01941L18.8821 5.01966L18.8729 5.02024L18.87 5.02041L18.8465 5.022L18.8435 5.02216L18.8343 5.02275L18.8313 5.02292L18.821 5.02359L18.8196 5.02367L18.8076 5.0245L18.8058 5.02459L18.7958 5.02526L18.7926 5.02551L18.7836 5.02618L18.7809 5.02634L18.757 5.02801L18.7547 5.02818L18.7453 5.02885L18.7421 5.0291L18.7321 5.02985L18.7304 5.02994L18.7182 5.03086H18.7178L18.7064 5.03169L18.7038 5.03186L18.6946 5.03253L18.6914 5.03278C18.6835 5.03336 18.6757 5.03395 18.6678 5.03462L18.6659 5.03478L18.6557 5.03562L18.6533 5.03579L18.6429 5.03662L18.6414 5.03671C18.6329 5.03737 18.6255 5.03796 18.617 5.03863L18.6152 5.03879L18.6047 5.03963L18.6029 5.0398L18.5923 5.04063L18.5906 5.0408L18.5786 5.0418L18.577 5.04197L18.5668 5.04281L18.5641 5.04306L18.5543 5.04389L18.5521 5.04406C18.5435 5.04481 18.5365 5.0454 18.5282 5.04615L18.5261 5.04632L18.5163 5.04715L18.5133 5.0474L18.5034 5.04824L18.5017 5.0484L18.4896 5.04949L18.4885 5.04957L18.4776 5.05058L18.4753 5.05074L18.4656 5.05158L18.4631 5.05183C18.4551 5.05258 18.4471 5.05325 18.4392 5.054L18.4374 5.05417L18.4271 5.05509L18.4249 5.05534L18.4145 5.05634L18.4128 5.05651C18.405 5.05726 18.3969 5.05801 18.3889 5.05877L18.3864 5.05902L18.3767 5.05994L18.3743 5.06019L18.3629 5.06127H18.3625L18.35 5.06253H18.3498L18.3383 5.0637L18.3361 5.06395L18.3253 5.06503L18.3243 5.06512C18.3159 5.06595 18.3084 5.06671 18.2999 5.06754L18.2982 5.06771L18.2884 5.06871L18.2854 5.06905L18.2753 5.07005L18.2738 5.07022L18.2617 5.07147L18.261 5.07155L18.2499 5.07272L18.2475 5.07297L18.2377 5.07398L18.2354 5.07423C18.2276 5.07506 18.2193 5.0759 18.2114 5.07673L18.2102 5.07682L18.1995 5.07799L18.1972 5.07824L18.187 5.07932L18.1853 5.07949C18.1768 5.08041 18.1695 5.08116 18.1611 5.08217L18.1595 5.08233L18.1489 5.0835L18.1472 5.08367L18.1354 5.08501H18.1353L18.1228 5.08643L18.1112 5.08776L18.1089 5.08801L18.0988 5.08918L18.097 5.08935C18.0886 5.09027 18.0814 5.09111 18.0731 5.09211L18.0711 5.09236L18.0613 5.09353L18.0589 5.09378L18.0474 5.09512H18.0473C18.0389 5.09612 18.0312 5.09704 18.0228 5.09796L18.0212 5.09813L18.0103 5.09938L18.0091 5.09955C18.0008 5.10055 17.9931 5.10147 17.9847 5.10247L17.9837 5.10256L17.9727 5.10389L17.971 5.10406L17.9599 5.1054L17.9591 5.10548L17.9348 5.10849L17.9331 5.10874L17.9226 5.11008L17.921 5.11024C17.9126 5.11133 17.905 5.11225 17.8966 5.11334L17.8961 5.11342L17.885 5.11484L17.8826 5.11517L17.8727 5.11643L17.8708 5.11668C17.8625 5.11776 17.8549 5.11877 17.8465 5.11985L17.8461 5.11994L17.8348 5.12144L17.833 5.12169L17.8214 5.1232H17.8213C17.8129 5.12428 17.8051 5.12529 17.7968 5.12646L17.7955 5.12662L17.7848 5.12804L17.783 5.12829C17.7746 5.12938 17.767 5.13047 17.7587 5.13155H17.7586L17.7466 5.13314L17.7457 5.13322L17.7338 5.13481H17.7336C17.7253 5.13598 17.7173 5.13707 17.709 5.13815L17.708 5.13832L17.6964 5.13991L17.6958 5.13999C17.6833 5.14175 17.6716 5.14342 17.6591 5.14517L17.658 5.14534L17.6462 5.14701H17.646C17.6334 5.14877 17.6215 5.15052 17.6089 5.15228L17.6082 5.15236C17.5957 5.1542 17.5836 5.15595 17.5712 5.15779H17.571L17.5587 5.15963H17.5586C17.5462 5.16147 17.5339 5.16331 17.5214 5.16515H17.5212C17.5087 5.16698 17.4967 5.16882 17.4843 5.17074L17.4835 5.17091L17.4716 5.17275H17.4715C17.4591 5.17467 17.447 5.17651 17.4345 5.17852L17.4339 5.1786C14.0917 5.70273 11.0018 7.27159 8.60738 9.66066L8.6073 9.66074C8.59877 9.66926 8.5905 9.67745 8.58206 9.68589L8.58139 9.68656L8.57337 9.69458L8.57329 9.69467C8.56476 9.70319 8.55649 9.71155 8.54797 9.72007L8.54771 9.72041C8.53919 9.72893 8.53092 9.7372 8.52256 9.74581L8.52231 9.74606C8.51955 9.7489 8.5173 9.75116 8.51446 9.754L8.5137 9.75475C8.50518 9.76328 8.49716 9.77147 8.48872 9.78007L8.48863 9.78024C8.47735 9.79169 8.46632 9.80289 8.45512 9.81442L8.45487 9.81467C8.44643 9.82328 8.43833 9.83155 8.42997 9.84024L8.42955 9.84066C8.42679 9.8435 8.42429 9.84601 8.42153 9.84885L8.42128 9.8491C8.41576 9.85486 8.41025 9.86046 8.40465 9.86623L8.39663 9.87459L8.39596 9.87525C8.3876 9.88386 8.37966 9.89213 8.37122 9.90083L8.37114 9.90099L8.3632 9.90927L8.3627 9.90977C8.35434 9.91846 8.34649 9.92665 8.33813 9.93534L8.33755 9.93592C8.33512 9.93843 8.33253 9.94119 8.33011 9.9437L8.32927 9.94453C8.32401 9.94996 8.31866 9.95556 8.31348 9.96099L8.31172 9.96283L8.30554 9.96935L8.30387 9.9711C8.29626 9.97913 8.28799 9.98782 8.28039 9.99584L8.27888 9.99743C8.27646 10 8.27445 10.0021 8.27203 10.0047L8.27119 10.0055L8.25523 10.0225L8.2544 10.0234L8.24763 10.0306L8.24596 10.0324C8.24353 10.0349 8.24136 10.0373 8.23885 10.0399L8.23827 10.0405C8.23309 10.046 8.22766 10.0517 8.22248 10.0573L8.22106 10.0588L8.2147 10.0655L8.21295 10.0675C8.20777 10.073 8.20267 10.0784 8.19757 10.0839L8.19657 10.085L8.18997 10.0921L8.18805 10.0942C8.18638 10.096 8.18429 10.0982 8.18262 10.1L8.18019 10.1026C8.17543 10.1078 8.16991 10.1138 8.16515 10.1188L8.16348 10.1206L8.15729 10.1272L8.15562 10.129C8.15353 10.1312 8.15136 10.1336 8.14927 10.1359L8.14777 10.1375C8.14267 10.143 8.13774 10.1483 8.13264 10.1538L8.13055 10.156L8.12487 10.1622L8.12287 10.1644C8.12086 10.1666 8.11852 10.1692 8.11643 10.1713L8.11534 10.1726L8.10791 10.1807L8.10598 10.1828C8.10398 10.185 8.10248 10.1866 8.10047 10.1888L8.09796 10.1916C8.09596 10.1938 8.0942 10.1956 8.09211 10.1979L8.09078 10.1994C8.08802 10.2023 8.08601 10.2046 8.08334 10.2075L8.08133 10.2097L8.0759 10.2156L8.07314 10.2186L8.06838 10.2238L8.06562 10.2269L8.06036 10.2327L8.0581 10.2351C8.05576 10.2377 8.05351 10.2401 8.05117 10.2427L8.04824 10.246L8.04364 10.2511L8.04105 10.2539C8.03938 10.2557 8.03754 10.2577 8.03596 10.2596L8.03345 10.2623C8.02877 10.2675 8.02384 10.2729 8.01916 10.2781L8.01624 10.2814L8.01164 10.2865L8.00888 10.2895L8.00403 10.2948L8.00136 10.2978L7.99451 10.3055L7.99208 10.3081C7.99041 10.31 7.98883 10.3117 7.98715 10.3136L7.98423 10.3169L7.97963 10.3221L7.97696 10.3251L7.97161 10.331L7.96961 10.3333L7.9625 10.3413L7.96041 10.3436L7.95532 10.3492L7.95247 10.3524L7.94738 10.3582L7.94529 10.3605L7.93802 10.3687L7.93735 10.3695C7.93543 10.3717 7.93292 10.3745 7.93091 10.3767L7.92832 10.3797L7.92389 10.3846L7.92055 10.3883L7.91629 10.3932L7.91353 10.3964C7.91161 10.3986 7.90885 10.4016 7.90693 10.4039L7.90376 10.4075L7.89958 10.4122L7.89657 10.4157C7.89523 10.4172 7.89356 10.4191 7.89222 10.4206L7.8893 10.4239C7.88729 10.4262 7.88554 10.4281 7.88362 10.4304L7.88069 10.4336C7.87902 10.4355 7.8771 10.4377 7.87543 10.4397L7.87192 10.4436L7.86824 10.4478L7.86481 10.4517L7.86114 10.456C7.8598 10.4575 7.8588 10.4585 7.85754 10.46C7.85621 10.4616 7.85454 10.4635 7.8532 10.465L7.84752 10.4715L7.84426 10.4753L7.8405 10.4795L7.83699 10.4836L7.83331 10.4879L7.83047 10.4911L7.82161 10.5013L7.82019 10.5029L7.81593 10.5078L7.81317 10.511L7.80891 10.516L7.80665 10.5185C7.80147 10.5245 7.79629 10.5305 7.79111 10.5364L7.7891 10.5388C7.78785 10.5403 7.78593 10.5424 7.78467 10.5439L7.78242 10.5465L7.77765 10.5521L7.77598 10.554C7.77089 10.5599 7.7652 10.5664 7.76011 10.5724L7.75827 10.5746L7.75317 10.5799L7.75091 10.5825L7.74632 10.5878L7.74431 10.5902C7.74122 10.5938 7.73804 10.5974 7.73504 10.601L7.7337 10.6025C7.73194 10.6046 7.73052 10.6062 7.72877 10.6083L7.72693 10.6105C7.72534 10.6122 7.72359 10.6144 7.722 10.6161L7.72041 10.618C7.71506 10.6243 7.70972 10.6305 7.70437 10.6368L7.70278 10.6386L7.69785 10.6444L7.69609 10.6465L7.69133 10.6522L7.68983 10.6538C7.68398 10.6607 7.6788 10.6668 7.67303 10.6736L7.67253 10.6742C7.67044 10.6767 7.66894 10.6785 7.66693 10.6808L7.66609 10.6818C7.6605 10.6884 7.65431 10.6957 7.6488 10.7023L7.64829 10.7029C7.64654 10.705 7.64512 10.7067 7.64336 10.7088L7.64153 10.711L7.6366 10.7168L7.63551 10.7182L7.61871 10.7382L7.61796 10.7391L7.61236 10.7458L7.61186 10.7464C7.604 10.7558 7.59623 10.7651 7.58846 10.7744L7.58763 10.7754L7.58228 10.7819L7.58144 10.7829C7.57367 10.7923 7.5659 10.8017 7.55821 10.811L7.55771 10.8116C7.52161 10.8551 7.48626 10.8985 7.45066 10.9425C7.45033 10.9429 7.45083 10.9423 7.45049 10.9426C6.33247 12.3225 5.45168 13.8786 4.84416 15.5474C4.29246 17.0611 5.07229 18.7354 6.586 19.2871C8.09972 19.8388 9.77404 19.059 10.3257 17.5453C10.3262 17.5439 10.3267 17.5427 10.3272 17.5413C11.8035 13.5115 15.6354 10.8291 19.9271 10.821C21.5383 10.821 22.8443 9.51492 22.8443 7.90377C22.8443 6.29262 21.5382 4.98682 19.9271 4.98682Z" fill="#A4C9FF"/>
<path d="M39.5372 21.0315C39.5372 9.46672 29.5264 0.240129 17.6976 1.54459C8.74314 2.53209 1.45694 9.79881 0.445962 18.7507C-0.108665 23.6621 1.15485 28.2604 3.64654 31.9637L6.05265 29.5576C7.80778 27.8024 7.80787 24.9568 6.05273 23.2017C6.05265 23.2016 6.05265 23.2016 6.05257 23.2015L4.77376 21.9228C4.2818 21.4302 4.28239 20.632 4.77501 20.1401C5.26713 19.6486 6.06435 19.6486 6.55647 20.1401L9.69236 23.2761C10.8862 24.47 12.8218 24.47 14.0157 23.2762L14.0716 23.2203C15.3084 21.9931 15.3162 19.9956 14.0889 18.7589C14.0868 18.7567 14.0847 18.7546 14.0825 18.7525C13.9327 18.6027 8.33258 13.0026 8.18559 12.8556C7.20135 11.8707 7.20176 10.2744 8.18659 9.29015C9.17141 8.30591 10.7678 8.30633 11.752 9.29115L13.285 10.8242C14.2635 11.8026 15.9205 11.9444 16.8735 10.9411C17.8318 9.93093 19.4275 9.88882 20.4377 10.8471C20.4538 10.8624 20.4697 10.8778 20.4853 10.8935L28.3186 18.7268C28.6529 19.0611 28.8407 19.5145 28.8407 19.9873V32.5174C28.8407 34.0506 30.0837 35.2936 31.617 35.2936C33.0681 35.2936 34.2744 34.1761 34.3851 32.7291L34.43 32.1417C34.7509 27.9471 36.5626 24.006 39.5372 21.0315Z" fill="#19E77C"/>
<path d="M37.7656 18.9922C37.7571 18.9922 37.7486 18.9922 37.74 18.9923C36.7541 19.0076 35.9645 19.8141 35.9699 20.8001L35.9716 21.0314C35.9716 26.3806 33.3303 31.114 29.2939 34.0309C30.1284 35.3153 31.8461 35.68 33.1305 34.8456C33.856 34.3742 34.3199 33.5914 34.3851 32.7288L34.4301 32.1413C34.751 27.9469 36.5626 24.0059 39.5372 21.0314C39.5372 20.8978 39.5185 20.7692 39.5159 20.6363C39.4556 19.7133 38.6907 18.9945 37.7656 18.9922Z" fill="#00C864"/>
<path d="M10.3265 17.5414C10.5497 16.946 10.8287 16.373 11.1599 15.8301L8.18499 12.8552C7.677 12.3395 7.41936 11.6277 7.47961 10.9062C7.46984 10.9184 7.45981 10.9301 7.45003 10.9424C7.4497 10.9428 7.45012 10.9421 7.44978 10.9426C6.33175 12.3224 5.45097 13.8785 4.84344 15.5473C4.29283 17.0615 5.07384 18.7352 6.58797 19.2859C8.1021 19.8366 9.77584 19.0555 10.3265 17.5414Z" fill="#88F2BB"/>
<path d="M22.8438 7.90402C22.8438 6.29295 21.5378 4.98682 19.9267 4.98682H19.9266H19.8873C19.8829 4.98682 19.8797 4.98682 19.8753 4.9869H19.8511L19.8478 4.98698H19.8358C19.8321 4.98698 19.8279 4.98707 19.8242 4.98707H19.8121C19.8104 4.98715 19.8098 4.98715 19.8081 4.98715H19.7994C19.7982 4.98715 19.7975 4.98715 19.7962 4.98723H19.7843L19.783 4.98732H19.7725C19.7717 4.9874 19.7698 4.9874 19.7689 4.9874C19.7657 4.9874 19.7635 4.9874 19.7603 4.98748H19.7567C19.7535 4.98748 19.7506 4.98748 19.7473 4.98757H19.7448C19.741 4.98757 19.7371 4.98765 19.7333 4.98765C19.7319 4.98765 19.7307 4.98774 19.7294 4.98774C19.7267 4.98774 19.7242 4.98774 19.7215 4.98782H19.7168C19.7146 4.98782 19.711 4.9879 19.7089 4.9879C19.7077 4.9879 19.7066 4.9879 19.7054 4.98799C19.7015 4.98799 19.6974 4.98807 19.6936 4.98807H19.6933C19.6895 4.98815 19.6854 4.98815 19.6815 4.98832H19.6779C19.6752 4.9884 19.6725 4.9884 19.6698 4.9884C19.6684 4.9884 19.6668 4.98849 19.6657 4.98849C19.6629 4.98849 19.6601 4.98857 19.6574 4.98857C19.656 4.98857 19.6549 4.98865 19.6535 4.98865C19.6497 4.98865 19.6459 4.98874 19.6423 4.98874C19.6413 4.98882 19.6403 4.98891 19.6393 4.98882C19.6361 4.98882 19.6337 4.98891 19.6305 4.98891C19.6291 4.98899 19.6276 4.98899 19.6264 4.98899C19.6242 4.98899 19.6207 4.98907 19.6185 4.98907C19.6169 4.98916 19.6159 4.98916 19.6143 4.98916C19.6104 4.98924 19.6074 4.98924 19.6036 4.98941H19.6028C19.599 4.98949 19.5948 4.98966 19.591 4.98966C19.5897 4.98974 19.5886 4.98974 19.5874 4.98974C19.5847 4.98982 19.5818 4.98982 19.5791 4.98999C19.5773 4.98999 19.5767 4.98999 19.575 4.99008C19.5724 4.99008 19.5695 4.99016 19.5668 4.99016C19.5655 4.99016 19.5644 4.99024 19.5632 4.99024C19.5594 4.99033 19.5554 4.99033 19.5516 4.99049L19.5494 4.99058C19.5462 4.99058 19.5432 4.99066 19.54 4.99083C19.5383 4.99083 19.5372 4.99083 19.5356 4.99091C19.5335 4.99091 19.5303 4.99099 19.5281 4.99099C19.5269 4.99108 19.5249 4.99108 19.5237 4.99108C19.5211 4.99116 19.5183 4.99133 19.5155 4.99133C19.5143 4.99141 19.5131 4.99141 19.5118 4.99141L19.5006 4.99175C19.4993 4.99175 19.4981 4.99175 19.4969 4.99183C19.4942 4.99183 19.4915 4.99191 19.4889 4.99208C19.4876 4.99208 19.4859 4.99208 19.4846 4.99216C19.482 4.99216 19.4793 4.99225 19.4766 4.99242C19.4753 4.99242 19.4739 4.99242 19.4727 4.9925L19.4618 4.99283H19.4605L19.4495 4.99317C19.4481 4.99317 19.447 4.99317 19.4458 4.99325C19.4425 4.99333 19.4404 4.99333 19.4372 4.9935C19.4359 4.9935 19.4348 4.99359 19.4336 4.99359L19.4246 4.99392H19.4217C19.4174 4.99417 19.4145 4.99425 19.4102 4.99434C19.4089 4.99434 19.4083 4.99434 19.4069 4.99442C19.4042 4.99442 19.4008 4.99467 19.3982 4.99467C19.3968 4.99476 19.3957 4.99476 19.3945 4.99476C19.3912 4.99484 19.3892 4.99501 19.386 4.99509L19.3825 4.99517C19.3793 4.99526 19.3749 4.99542 19.3717 4.99551L19.3707 4.99559L19.3588 4.99593C19.3578 4.99601 19.3569 4.99601 19.3559 4.99601L19.3469 4.99634C19.346 4.99643 19.3443 4.99643 19.3433 4.99643L19.3343 4.99676C19.3333 4.99684 19.3323 4.99693 19.3313 4.99684C19.3276 4.9971 19.3234 4.99718 19.3195 4.99726L19.3182 4.99735L19.3081 4.99768L19.3038 4.99793L19.2958 4.99826C19.2945 4.99826 19.2934 4.99835 19.2922 4.99835C19.2889 4.99843 19.2848 4.99868 19.2815 4.99877H19.2805C19.2762 4.99902 19.2726 4.9991 19.2683 4.99935H19.2662C19.263 4.9996 19.2598 4.99969 19.2565 4.99977C19.2554 4.99985 19.2543 4.99985 19.2529 4.99985C19.2498 5.0001 19.2476 5.0001 19.2443 5.00027C19.2432 5.00027 19.2421 5.00027 19.2411 5.00035C19.2335 5.00069 19.2249 5.00102 19.2176 5.00136L19.214 5.00161C19.2108 5.00169 19.209 5.00186 19.2058 5.00194C19.2045 5.00194 19.203 5.00203 19.2018 5.00219L19.1931 5.00253C19.192 5.00261 19.191 5.00269 19.1899 5.00261C19.1857 5.00286 19.1826 5.00294 19.1784 5.0032C19.1776 5.00328 19.1766 5.00328 19.1758 5.00328C19.1725 5.00353 19.17 5.00361 19.1668 5.0037C19.1656 5.00378 19.1639 5.00378 19.1627 5.00395C19.1606 5.00403 19.1572 5.0042 19.1551 5.00428C19.1534 5.00437 19.1522 5.00453 19.1505 5.00453C19.1473 5.00478 19.1448 5.00487 19.1417 5.00495C19.1409 5.00503 19.14 5.00503 19.1392 5.00503C19.1354 5.00528 19.1315 5.00545 19.1277 5.00562L19.1242 5.00587C19.1216 5.00595 19.1184 5.0062 19.1158 5.00629L19.1117 5.00654L19.1041 5.00687C19.1028 5.00696 19.1012 5.00712 19.0998 5.00712L19.0886 5.00779H19.0865C19.0833 5.00804 19.0798 5.00821 19.0767 5.00838C19.0759 5.00846 19.0741 5.00846 19.0732 5.00863C19.07 5.00871 19.0678 5.00888 19.0647 5.00904L19.0611 5.0093C19.0579 5.00938 19.055 5.00963 19.0518 5.00971L19.0492 5.00996C19.0449 5.01021 19.0417 5.0103 19.0374 5.01055C19.0367 5.01063 19.036 5.01072 19.0352 5.01063C19.0321 5.01088 19.0289 5.01105 19.0258 5.01122C19.0245 5.0113 19.0234 5.01147 19.0222 5.01147L19.0136 5.01205C19.0124 5.01205 19.0114 5.01214 19.0101 5.01214C19.0026 5.01255 18.9941 5.01314 18.9867 5.01356C18.9857 5.01356 18.9848 5.01356 18.9838 5.01364C18.9806 5.01389 18.9777 5.01398 18.9747 5.01423L18.9715 5.01448C18.9683 5.01456 18.9642 5.01489 18.961 5.01506L18.9599 5.01515C18.9556 5.0154 18.9519 5.01556 18.9477 5.0159L18.9462 5.01598C18.9431 5.01606 18.939 5.0164 18.9358 5.01657L18.9328 5.01682C18.9296 5.01707 18.927 5.01715 18.9238 5.0174C18.923 5.01749 18.9214 5.01749 18.9206 5.01765C18.9174 5.0179 18.9131 5.01807 18.9099 5.01832L18.9088 5.0184C18.9051 5.01866 18.9009 5.01882 18.897 5.01907C18.8959 5.01924 18.8949 5.01924 18.8938 5.01932C18.8907 5.01957 18.8883 5.01974 18.8852 5.01991C18.8843 5.01999 18.8826 5.02016 18.8818 5.02016L18.8727 5.02083C18.8718 5.02083 18.8708 5.02091 18.8699 5.02108C18.8623 5.0215 18.8537 5.02208 18.8462 5.02258C18.8452 5.02258 18.8443 5.02267 18.8433 5.02283C18.84 5.02308 18.8373 5.02317 18.8342 5.02342L18.8312 5.02367C18.8279 5.02392 18.824 5.02425 18.8207 5.02442H18.8194C18.8151 5.02476 18.8115 5.02501 18.8073 5.02526L18.8055 5.02534C18.8023 5.02559 18.7987 5.02593 18.7955 5.02609C18.7944 5.02609 18.7933 5.02618 18.7922 5.02634C18.7891 5.02659 18.7864 5.02668 18.7832 5.02693C18.7823 5.02701 18.7814 5.0271 18.7804 5.02718C18.7724 5.02776 18.7645 5.02835 18.7565 5.02893L18.7543 5.02902C18.7511 5.02935 18.7481 5.0296 18.7449 5.02977L18.7417 5.03002C18.7384 5.03027 18.7348 5.03044 18.7316 5.03077C18.7311 5.03077 18.7305 5.03077 18.7299 5.03086C18.7256 5.03119 18.722 5.03144 18.7177 5.03169H18.7173C18.7136 5.03203 18.7097 5.03236 18.706 5.03253L18.7034 5.03278L18.6941 5.03345L18.6909 5.03378C18.683 5.03437 18.6752 5.03495 18.6672 5.03554L18.6653 5.03579C18.6621 5.03604 18.6584 5.03637 18.6552 5.03654L18.6528 5.03679C18.6495 5.03704 18.6456 5.03737 18.6423 5.03754L18.6408 5.03762C18.6323 5.03838 18.6249 5.03896 18.6164 5.03955L18.6147 5.0398C18.6115 5.04005 18.6072 5.04038 18.6041 5.04063L18.6024 5.04072C18.5985 5.04105 18.5955 5.0413 18.5917 5.04155L18.5899 5.04164C18.5857 5.04197 18.5822 5.0423 18.578 5.04264L18.5765 5.04272C18.5732 5.04306 18.5694 5.04339 18.5663 5.04356C18.5653 5.04364 18.5644 5.04372 18.5635 5.04381C18.5603 5.04414 18.5569 5.04448 18.5537 5.04464C18.553 5.04464 18.5522 5.04473 18.5515 5.04489C18.543 5.04556 18.536 5.04623 18.5276 5.04698L18.5255 5.04707C18.5223 5.0474 18.519 5.04774 18.5158 5.0479L18.5128 5.04815C18.5096 5.04849 18.506 5.04882 18.5029 5.04899L18.5012 5.04924C18.4969 5.04957 18.4933 5.04991 18.4891 5.05033L18.488 5.05041C18.4848 5.05066 18.4803 5.05108 18.4771 5.05141L18.4748 5.0515C18.4716 5.05183 18.4683 5.05216 18.4652 5.05233L18.4626 5.05267C18.4546 5.05333 18.4466 5.05409 18.4387 5.05484L18.4369 5.05492C18.4337 5.05526 18.4298 5.05559 18.4267 5.05593C18.426 5.05593 18.4252 5.05601 18.4245 5.05618C18.4213 5.05643 18.4173 5.05684 18.4141 5.05718L18.4123 5.05726C18.4045 5.05801 18.3964 5.05877 18.3885 5.05952C18.3877 5.05952 18.3869 5.0596 18.386 5.05977L18.3762 5.06077C18.3755 5.06077 18.3747 5.06086 18.374 5.06102C18.3703 5.06136 18.3663 5.06169 18.3625 5.06211H18.3622C18.3579 5.06253 18.3538 5.06286 18.3496 5.06328H18.3495C18.3458 5.0637 18.3416 5.06403 18.338 5.06445C18.3372 5.06445 18.3365 5.06453 18.3358 5.0647L18.325 5.0657L18.3239 5.06579C18.3156 5.06662 18.308 5.06746 18.2995 5.06829L18.2978 5.06838C18.2945 5.06871 18.2912 5.06913 18.288 5.06946C18.2872 5.06946 18.2858 5.06971 18.285 5.06971L18.2749 5.0708L18.2734 5.07088C18.2691 5.0713 18.2654 5.07172 18.2613 5.07222H18.2606C18.2569 5.07264 18.2531 5.07297 18.2494 5.07339L18.2471 5.07364C18.244 5.07398 18.2404 5.07439 18.2373 5.07473C18.2365 5.07473 18.2358 5.07481 18.235 5.07498C18.2272 5.07573 18.2189 5.07665 18.2109 5.07749L18.2099 5.07757C18.2067 5.0779 18.2023 5.0784 18.1991 5.07874L18.1969 5.07899L18.1867 5.08008L18.185 5.08033C18.1764 5.08116 18.1692 5.08208 18.1607 5.08292L18.1592 5.08317L18.1487 5.08425L18.1469 5.0845C18.1427 5.08492 18.1393 5.08534 18.1351 5.08584H18.135C18.1309 5.08626 18.1266 5.08684 18.1224 5.08726C18.1188 5.08768 18.1145 5.0881 18.1108 5.0886C18.1101 5.08877 18.1093 5.08877 18.1086 5.08885C18.1054 5.08927 18.1016 5.08969 18.0985 5.09002L18.0966 5.09027C18.0883 5.09127 18.0811 5.09203 18.0727 5.09303L18.0708 5.09328C18.0676 5.09361 18.064 5.09403 18.0609 5.09445C18.0601 5.09445 18.0594 5.09453 18.0585 5.0947C18.0548 5.09512 18.0507 5.09554 18.0471 5.09604H18.047C18.0386 5.09704 18.0309 5.09796 18.0225 5.09896L18.0208 5.09921L18.01 5.10055L18.0088 5.10063C18.0004 5.10164 17.9928 5.10247 17.9844 5.10356L17.9834 5.10364L17.9723 5.10498L17.9706 5.10523C17.9665 5.10581 17.9637 5.10606 17.9595 5.10657L17.9587 5.10665C17.9503 5.10774 17.9428 5.10857 17.9344 5.10966L17.9327 5.10991C17.9295 5.11024 17.9252 5.11074 17.9221 5.11125L17.9206 5.1115C17.9123 5.1125 17.9047 5.11342 17.8962 5.11451H17.8958C17.8921 5.11509 17.8883 5.11551 17.8847 5.11593L17.8822 5.11626C17.879 5.11668 17.8754 5.1171 17.8723 5.1176L17.8705 5.11785L17.8461 5.12102H17.8457C17.8421 5.12161 17.8381 5.12203 17.8345 5.12253L17.8326 5.12278C17.829 5.1232 17.8247 5.12378 17.821 5.12428H17.8209C17.8127 5.12537 17.8048 5.12637 17.7965 5.12754L17.7951 5.12762C17.7915 5.12821 17.7882 5.12863 17.7844 5.12905L17.7827 5.1293C17.7743 5.13047 17.7667 5.13147 17.7583 5.13256L17.7582 5.13264C17.7541 5.13322 17.7503 5.13364 17.7462 5.13431L17.7454 5.13439C17.7413 5.13498 17.7375 5.1354 17.7334 5.13607H17.7334C17.725 5.13715 17.7171 5.13824 17.7086 5.13941L17.7076 5.13949C17.7035 5.14008 17.7004 5.14058 17.6961 5.14116L17.6955 5.14125L17.6587 5.14634L17.6577 5.14643C17.6536 5.1471 17.6501 5.14751 17.6459 5.14818H17.6456C17.6331 5.14994 17.6211 5.15169 17.6086 5.15353L17.6079 5.15361C17.5955 5.15537 17.5834 5.15721 17.5708 5.15905H17.5707C17.5667 5.15963 17.5626 5.16022 17.5585 5.1608L17.5584 5.16088C17.5458 5.16264 17.5336 5.16448 17.5212 5.1664H17.5209C17.5085 5.16824 17.4964 5.17008 17.484 5.17191L17.4832 5.17217C17.4791 5.17275 17.4755 5.17325 17.4713 5.17392C17.4588 5.17584 17.4467 5.17776 17.4343 5.17969L17.4335 5.17977C14.6399 5.61933 12.0132 6.79334 9.82227 8.58149C10.5378 8.52867 11.2413 8.78748 11.7521 9.29138L13.2852 10.8244C14.2635 11.8028 15.9207 11.9446 16.8736 10.9412C17.7955 9.97929 19.3098 9.90935 20.3166 10.7823C21.7607 10.5912 22.8412 9.36107 22.8438 7.90402Z" fill="#88F2BB"/>
<path d="M28.8407 37.9676C28.8407 36.4907 27.6435 35.2935 26.1666 35.2935H23.4925C22.5079 35.2935 21.7098 36.0915 21.7098 37.0761V37.0762C21.7094 38.0607 20.911 38.8586 19.9263 38.8582C18.9422 38.8578 18.1446 38.0602 18.1443 37.0762V35.2935C18.1443 34.3089 17.346 33.5107 16.3615 33.5107C15.8887 33.5107 15.4353 33.6986 15.101 34.0329L13.3183 36.554C12.9839 36.8883 12.5305 37.0762 12.0577 37.0762H11.0133C10.4916 37.0808 9.9991 37.3175 9.66943 37.7219C15.4643 41.312 22.7144 41.611 28.7852 38.5104C28.8221 38.3317 28.8406 38.1499 28.8407 37.9676Z" fill="#19E77C"/>
<path d="M32.2794 11.5814C33.4025 10.4583 32.6071 8.53809 31.0188 8.53809H14.2335C13.5015 8.53809 12.7981 8.82229 12.2716 9.33079C11.1495 10.4144 11.1183 12.2024 12.2019 13.3245C12.4242 13.5548 12.6841 13.7456 12.9704 13.8887L22.9088 19.0924C23.578 19.3768 24.3529 19.2265 24.867 18.7123L32.2794 11.5814Z" fill="#FF4957"/>
<path d="M14.978 9.42948C14.978 8.9372 15.3771 8.53809 15.8694 8.53809H30.1313C30.6236 8.53809 31.0227 8.9372 31.0227 9.42948C31.0227 9.92177 30.6236 10.3209 30.1313 10.3209H15.8694C15.3771 10.3208 14.978 9.92169 14.978 9.42948Z" fill="#FF7F89"/>
<path d="M14.9778 12.3225L22.747 16.704C23.6676 17.1649 24.1087 18.2331 23.7815 19.2093C23.4865 19.2441 23.1876 19.2039 22.9123 19.0922L12.974 13.8886C12.6789 13.7352 12.4137 13.5303 12.1909 13.2834C12.1963 13.2719 12.1953 13.2595 12.2009 13.248C12.7121 12.2257 13.9553 11.8113 14.9778 12.3225Z" fill="#FF3040"/>
<path d="M38.7298 3.86251C39.5021 4.63482 39.936 5.68224 39.936 6.77444C39.936 7.9915 39.3977 9.14629 38.4655 9.92872L19.085 26.1965C17.5834 27.4568 15.6858 28.1477 13.7255 28.1477H8.47426C7.14313 28.1477 6.06396 27.0686 6.06396 25.7374C6.06396 25.0981 6.31792 24.4851 6.76993 24.0331L26.9406 3.86251C30.196 0.607029 35.4743 0.607029 38.7298 3.86251Z" fill="#F6EDFF"/>
<path d="M33.9517 7.47573L17.3324 24.5823C16.7379 25.1768 16.5906 26.085 16.9665 26.837C17.0555 27.0092 17.1699 27.167 17.3058 27.3052C17.9433 27.0124 18.5411 26.6398 19.0848 26.1965L37.6631 10.6021C38.3322 9.64652 38.2934 8.33688 37.4322 7.47582C36.4712 6.51464 34.913 6.51456 33.9518 7.47565C33.9518 7.47565 33.9517 7.47565 33.9517 7.47573Z" fill="#E4CAFF"/>
<path d="M9.62939 22.3312V26.3249C9.62939 27.3318 10.4457 28.1481 11.4526 28.1481H11.7002C12.5693 28.1481 13.3176 27.5346 13.488 26.6824L14.3615 22.315C14.5589 21.3277 13.9187 20.3672 12.9313 20.1697C12.6201 20.1074 12.2982 20.1275 11.9972 20.2279L10.876 20.6016C10.1315 20.8498 9.62939 21.5465 9.62939 22.3312Z" fill="#E4CAFF"/>
<path d="M8.53183 27.9555C9.37952 28.3793 10.409 28.1363 10.9776 27.3781L14.1856 24.1695C14.8355 23.3031 14.6599 22.0739 13.7935 21.4241C13.6994 21.3535 13.5991 21.2916 13.4939 21.2389C12.6462 20.8151 11.6167 21.0581 11.0481 21.8163L7.84007 25.0249C7.19026 25.8913 7.36583 27.1205 8.23225 27.7703C8.32634 27.8409 8.42662 27.9028 8.53183 27.9555Z" fill="#E4CAFF"/>
<path d="M11.1843 23.8262C10.6627 24.3571 9.86625 24.508 9.18653 24.2049L3.82586 22.1206C2.63346 21.4994 2.1583 20.0376 2.75755 18.834C3.17864 17.9883 4.0458 17.4575 4.99043 17.4671L13.189 17.457C14.7708 17.4549 15.5716 19.3609 14.463 20.4892L11.1843 23.8262Z" fill="#FF4957"/>
<path d="M31.5443 10.8426C32.6673 9.71957 34.5876 10.5149 34.5876 12.1032V28.8885C34.5876 29.6205 34.3034 30.3239 33.7949 30.8505C32.7113 31.9725 30.9233 32.0038 29.8012 30.9202C29.5709 30.6978 29.3801 30.4379 29.2369 30.1516L24.0333 20.2132C23.7488 19.5441 23.8992 18.7692 24.4133 18.2551L31.5443 10.8426Z" fill="#FF4957"/>
<path d="M31.0225 8.53759C32.007 8.53759 32.8052 7.73944 32.8052 6.75488C32.8052 5.77032 32.007 4.97217 31.0225 4.97217C30.0379 4.97217 29.2397 5.77032 29.2397 6.75488C29.2397 7.73944 30.0379 8.53759 31.0225 8.53759Z" fill="#247DFF"/>
<path d="M33.7477 1.5083C32.6605 2.59549 33.3657 1.89036 33.3273 1.92872C32.6311 2.62491 32.6311 3.75363 33.3273 4.44982C34.0235 5.14601 35.1522 5.14601 35.8484 4.44982C36.014 4.28436 35.9859 4.31235 37.4672 2.83107C36.3526 2.09585 35.0763 1.64201 33.7477 1.5083Z" fill="#247DFF"/>
<path d="M27.4565 12.1035C28.4411 12.1035 29.2393 11.3054 29.2393 10.3208C29.2393 9.33623 28.4411 8.53809 27.4565 8.53809C26.472 8.53809 25.6738 9.33623 25.6738 10.3208C25.6738 11.3054 26.472 12.1035 27.4565 12.1035Z" fill="#247DFF"/>
<path d="M23.8911 15.6685C24.8757 15.6685 25.6738 14.8703 25.6738 13.8857C25.6738 12.9012 24.8757 12.103 23.8911 12.103C22.9065 12.103 22.1084 12.9012 22.1084 13.8857C22.1084 14.8703 22.9065 15.6685 23.8911 15.6685Z" fill="#247DFF"/>
<path d="M18.543 21.0166C19.5275 21.0166 20.3257 20.2184 20.3257 19.2339C20.3257 18.2493 19.5275 17.4512 18.543 17.4512C17.5584 17.4512 16.7603 18.2493 16.7603 19.2339C16.7603 20.2184 17.5584 21.0166 18.543 21.0166Z" fill="#247DFF"/>
<path d="M22.6759 40.427C23.248 40.3451 23.815 40.2476 24.3701 40.1169C24.5221 40.0817 24.6712 40.0397 24.8217 40.0009C25.4199 39.8449 26.0091 39.6674 26.5837 39.458C26.6691 39.4271 26.7545 39.3965 26.8394 39.3644C27.5027 39.1146 28.1522 38.8296 28.7851 38.5105C29.0639 37.1673 28.2754 35.8325 26.9646 35.4282C25.3221 36.2392 23.5516 36.7601 21.7316 36.9678C21.7291 37.0056 21.7097 37.0377 21.7097 37.0762C21.7093 38.0608 20.9109 38.8587 19.9262 38.8583C18.9421 38.8579 18.1445 38.0603 18.1442 37.0762V36.9663C17.0139 36.8461 15.8997 36.6052 14.8207 36.2477C14.3665 36.0894 13.8662 36.1344 13.4475 36.3711L13.3182 36.5541C13.1713 36.6937 13.0015 36.8072 12.8163 36.8895C12.2386 37.6675 12.4008 38.7665 13.1788 39.3443C13.3033 39.4368 13.4395 39.5123 13.5839 39.569C16.3314 40.5319 19.2629 40.8527 22.1537 40.5067C22.3298 40.4867 22.5011 40.4516 22.6759 40.427Z" fill="#00C864"/>
<path d="M33.6961 12.1035C34.1884 12.1035 34.5875 12.5026 34.5875 12.9949V27.2568C34.5875 27.7491 34.1884 28.1482 33.6961 28.1482C33.2038 28.1482 32.8047 27.7491 32.8047 27.2568V12.9949C32.8048 12.5026 33.2039 12.1035 33.6961 12.1035Z" fill="#FF7F89"/>
<path d="M30.8033 28.148L26.4218 20.3788C25.9608 19.4582 24.8927 19.0171 23.9165 19.3443C23.8816 19.6393 23.9219 19.9382 24.0335 20.2134L29.2372 30.1518C29.3905 30.4468 29.5954 30.7121 29.8424 30.9349C29.8538 30.9294 29.8663 30.9305 29.8777 30.9248C30.9 30.4137 31.3144 29.1705 30.8033 28.148Z" fill="#FF3040"/>
<path d="M12.214 22.7787C12.0384 22.6748 11.8472 22.6 11.6478 22.5569L4.79976 21.0548C4.19006 20.9346 3.55981 21.1172 3.10889 21.5448C3.30928 21.7804 3.55262 21.9761 3.8258 22.1211L9.18638 24.2053C9.86602 24.5084 10.6625 24.3575 11.1841 23.8267L12.214 22.7787Z" fill="#FF3040"/>
<path d="M5.17265 17.4517H12.3038C12.7961 17.4517 13.1952 17.8508 13.1952 18.3431C13.1952 18.8353 12.7961 19.2344 12.3038 19.2344H5.17265C4.68036 19.2344 4.28125 18.8353 4.28125 18.3431C4.28125 17.8508 4.68036 17.4517 5.17265 17.4517Z" fill="#FF7F89"/>
</svg>













