<svg width="81" height="29" viewBox="0 0 81 29" fill="none" xmlns="http://www.w3.org/2000/svg">
<path d="M25.6523 28.5479C29.7001 28.5479 32.9814 25.3526 32.9814 21.4109C32.9814 17.4693 29.7001 14.2739 25.6523 14.2739C21.6046 14.2739 18.3232 17.4693 18.3232 21.4109C18.3232 25.3526 21.6046 28.5479 25.6523 28.5479Z" fill="#002A56"/>
<path d="M62.2969 28.5479C66.3446 28.5479 69.626 25.3526 69.626 21.4109C69.626 17.4693 66.3446 14.2739 62.2969 14.2739C58.2491 14.2739 54.9678 17.4693 54.9678 21.4109C54.9678 25.3526 58.2491 28.5479 62.2969 28.5479Z" fill="#002A56"/>
<path d="M76.9551 24.9794H21.9873V0H55.5967C57.5405 0 59.4046 0.751889 60.7791 2.0904L69.626 10.7054C75.6975 10.7054 80.6196 15.4984 80.6196 21.4108C80.6197 23.3816 78.9789 24.9794 76.9551 24.9794Z" fill="#009C54"/>
<path d="M69.6254 14.2734H76.954C78.9778 14.2734 80.6184 15.8711 80.6184 17.8419V17.842C80.6184 19.8128 78.9778 21.4104 76.954 21.4104H69.6254C67.6016 21.4104 65.9609 19.8128 65.9609 17.842V17.8419C65.9609 15.8711 67.6016 14.2734 69.6254 14.2734Z" fill="#2DAD66"/>
<path d="M54.9678 10.7054H51.3033L42.457 2.0904C41.0822 0.751889 39.218 -0.000167244 37.274 2.78975e-08H16.3168C13.0545 2.78975e-08 10.0722 1.79483 8.61311 4.63628C7.77949 6.25933 6.42797 7.57542 4.76124 8.38703C1.84331 9.80784 0 12.712 0 15.889V21.411C0 23.3818 1.64062 24.9794 3.66446 24.9794H62.2967C64.3206 24.9794 65.9612 23.3818 65.9612 21.411C65.9614 15.4984 61.0395 10.7054 54.9678 10.7054C54.9678 10.7054 54.968 10.7054 54.9678 10.7054Z" fill="#21B950"/>
<path d="M16.491 21.4111H20.1555C21.1674 21.4111 21.9878 22.21 21.9878 23.1954C21.9878 24.1808 21.1674 24.9797 20.1555 24.9797H16.491C15.4791 24.9797 14.6587 24.1808 14.6587 23.1954C14.6587 22.21 15.4791 21.4111 16.491 21.4111Z" fill="#00963F"/>
<path d="M27.4843 3.56836C28.4963 3.56836 29.3165 4.36725 29.3165 5.35265V23.1949C29.3165 24.1803 28.4961 24.9792 27.4842 24.9792C26.4722 24.9792 25.6519 24.1803 25.6519 23.1949V5.35265C25.652 4.36725 26.4724 3.56836 27.4843 3.56836Z" fill="#00963F"/>
<path d="M31.1482 3.56787C32.1602 3.56787 32.9806 4.36676 32.9806 5.35216V19.6265C32.9806 20.6119 32.1602 21.4108 31.1482 21.4108C30.1363 21.4108 29.3159 20.6119 29.3159 19.6265V5.35216C29.3161 4.36676 30.1365 3.56787 31.1482 3.56787Z" fill="#51C876"/>
<path d="M38.4783 10.7056H56.8008C57.8127 10.7056 58.6331 11.5045 58.6331 12.4899C58.6331 13.4753 57.8127 14.2742 56.8008 14.2742H38.4783C37.4664 14.2742 36.646 13.4753 36.646 12.4899C36.646 11.5045 37.4664 10.7056 38.4783 10.7056Z" fill="#5ACB7D"/>
<path d="M47.6392 28.5479C51.6869 28.5479 54.9683 25.3526 54.9683 21.4109C54.9683 17.4693 51.6869 14.2739 47.6392 14.2739C43.5914 14.2739 40.3101 17.4693 40.3101 21.4109C40.3101 25.3526 43.5914 28.5479 47.6392 28.5479Z" fill="#0F3860"/>
<path d="M47.6396 24.9791C49.6634 24.9791 51.304 23.3815 51.304 21.4107C51.304 19.4399 49.6634 17.8423 47.6396 17.8423C45.6157 17.8423 43.9751 19.4399 43.9751 21.4107C43.9751 23.3815 45.6157 24.9791 47.6396 24.9791Z" fill="#BECAD4"/>
<path d="M10.9932 28.5479C15.0409 28.5479 18.3223 25.3526 18.3223 21.4109C18.3223 17.4693 15.0409 14.2739 10.9932 14.2739C6.94541 14.2739 3.66406 17.4693 3.66406 21.4109C3.66406 25.3526 6.94541 28.5479 10.9932 28.5479Z" fill="#0F3860"/>
<path d="M10.9931 24.9791C13.0169 24.9791 14.6575 23.3815 14.6575 21.4107C14.6575 19.4399 13.0169 17.8423 10.9931 17.8423C8.96925 17.8423 7.32861 19.4399 7.32861 21.4107C7.32861 23.3815 8.96925 24.9791 10.9931 24.9791Z" fill="#BECAD4"/>
<path d="M51.3032 10.7054H69.6259L62.2968 3.56836H43.9741L51.3032 10.7054Z" fill="#0F3860"/>
<path d="M51.3034 10.7052H36.6454C34.6216 10.7052 32.981 9.10758 32.981 7.13678C32.981 5.16598 34.6216 3.56836 36.6454 3.56836H43.9743L51.3034 10.7052Z" fill="#345779"/>
<path d="M14.6576 3.56787H21.9862C24.0101 3.56787 25.6507 5.16549 25.6507 7.13629V7.13646C25.6507 9.10726 24.0101 10.7049 21.9862 10.7049H14.6576C12.6338 10.7049 10.9932 9.10726 10.9932 7.13646V7.13629C10.9932 5.16549 12.6338 3.56787 14.6576 3.56787Z" fill="#345779"/>
<path d="M21.9874 3.56885H14.6585C13.6466 3.56885 12.8262 4.36774 12.8262 5.35314C12.8262 6.33854 13.6466 7.13743 14.6585 7.13743H21.9874C22.9993 7.13743 23.8197 6.33854 23.8197 5.35314C23.8197 4.36757 22.9993 3.56885 21.9874 3.56885Z" fill="#1A4269"/>
<path d="M42.142 3.56885H38.4773C37.4654 3.56885 36.645 4.36774 36.645 5.35314C36.645 6.33854 37.4654 7.13743 38.4773 7.13743H42.1418C43.1537 7.13743 43.9741 6.33854 43.9741 5.35314C43.9741 4.36757 43.1539 3.56885 42.142 3.56885Z" fill="#1A4269"/>
<path d="M62.297 10.7053V8.92101C62.297 7.93561 61.4766 7.13672 60.4646 7.13672C59.4527 7.13672 58.6323 7.93561 58.6323 8.92101V10.7053H62.297Z" fill="#1F456A"/>
<path d="M27.4847 21.4106H38.4775C39.4895 21.4106 40.3098 22.2095 40.3098 23.1949C40.3098 24.1803 39.4895 24.9792 38.4775 24.9792H27.4847C26.4727 24.9792 25.6523 24.1803 25.6523 23.1949C25.6523 22.2095 26.4727 21.4106 27.4847 21.4106Z" fill="#00963F"/>
<path d="M1.83232 21.4111C2.84424 21.4111 3.66463 22.21 3.66463 23.1954C3.66463 24.1808 2.84424 24.9797 1.83232 24.9797C0.820394 24.9796 0 24.1808 0 23.1954C0 22.21 0.820394 21.4111 1.83232 21.4111Z" fill="#00963F"/>
<path d="M16.491 0H38.4774C39.4894 0 40.3098 0.798892 40.3098 1.78429C40.3098 2.76969 39.4894 3.56859 38.4774 3.56859H16.491C15.4791 3.56859 14.6587 2.76969 14.6587 1.78429C14.6587 0.798892 15.4791 0 16.491 0Z" fill="#70D28F"/>
<path d="M45.8059 0H56.7988C57.8107 0 58.6311 0.798892 58.6311 1.78429C58.6311 2.76969 57.8107 3.56859 56.7988 3.56859H45.8059C44.794 3.56859 43.9736 2.76969 43.9736 1.78429C43.9736 0.798892 44.794 0 45.8059 0Z" fill="#1FAD6A"/>
<path d="M49.4715 3.56787H60.4643C61.4763 3.56787 62.2967 4.36676 62.2967 5.35216C62.2967 6.33756 61.4763 7.13646 60.4643 7.13646H49.4715C48.4596 7.13646 47.6392 6.33756 47.6392 5.35216C47.6392 4.36676 48.4596 3.56787 49.4715 3.56787Z" fill="#002852"/>
<path d="M16.491 10.7056H20.1555C21.1674 10.7056 21.9878 11.5045 21.9878 12.4899C21.9878 13.4753 21.1674 14.2742 20.1555 14.2742H16.491C15.4791 14.2742 14.6587 13.4753 14.6587 12.4899C14.6587 11.5045 15.4791 10.7056 16.491 10.7056Z" fill="#5ACB7D"/>
</svg>

