<svg width="41" height="42" viewBox="0 0 41 42" fill="none" xmlns="http://www.w3.org/2000/svg">
<path d="M6.42529 14.8135H35.1255V35.693H6.42529L6.42529 14.8135Z" fill="#F5F5F5"/>
<path d="M32.5244 16.0312H37.3963V34.2431H32.5244L32.5244 16.0312Z" fill="#F0F0F0"/>
<path d="M8.86112 33.919H3.98926V16.6689H8.86112V33.919Z" fill="#F0F0F0"/>
<path d="M31.1323 14.4653H38.788V16.2054C38.788 16.9741 38.1649 17.5971 37.3962 17.5971H32.5244C31.7554 17.5971 31.1323 16.9741 31.1323 16.2054L31.1323 14.4653Z" fill="#D4D7D9"/>
<path d="M32.5244 32.9087H37.3962C38.1649 32.9087 38.788 33.532 38.788 34.3007V36.0408H31.1323V34.3007C31.1323 33.532 31.7554 32.9087 32.5244 32.9087Z" fill="#D4D7D9"/>
<path d="M8.86077 17.5971H3.98891C3.2202 17.5971 2.59717 16.9741 2.59717 16.2054V14.4653H10.2528V16.2054C10.2528 16.9741 9.62979 17.5971 8.86077 17.5971Z" fill="#D4D7D9"/>
<path d="M10.2528 36.0408H2.59717V34.3007C2.59717 33.532 3.2202 32.9087 3.98891 32.9087H8.86077C9.62979 32.9087 10.2528 33.532 10.2528 34.3007V36.0408Z" fill="#D4D7D9"/>
<path d="M1.90137 11.1245H40.1803V14.1171C40.1803 14.5015 39.8686 14.8131 39.4842 14.8131H2.59739C2.21304 14.8131 1.90137 14.5015 1.90137 14.1171V11.1245Z" fill="#005EEE"/>
<path d="M20.3604 32.5222C24.5118 32.5222 27.8771 29.2114 27.8771 25.1273C27.8771 21.0432 24.5118 17.7324 20.3604 17.7324C16.2091 17.7324 12.8438 21.0432 12.8438 25.1273C12.8438 29.2114 16.2091 32.5222 20.3604 32.5222Z" fill="#FFD300"/>
<path d="M20.3605 32.5225C24.5119 32.5225 27.8773 29.2116 27.8773 25.1274V25.1122C27.8773 25.111 27.8773 25.1099 27.8773 25.1087V25.1024L27.8772 25.0994V25.0932C27.8772 25.0921 27.8772 25.0909 27.8772 25.0898V25.0869C27.8771 25.0857 27.8771 25.0846 27.8771 25.0835V25.0807C27.8772 25.0794 27.8772 25.0783 27.8772 25.077L27.8771 25.0743C27.8771 25.0731 27.8771 25.0718 27.8771 25.0705V25.0682C27.877 25.0667 27.877 25.0652 27.877 25.0638L27.877 25.0619C27.877 25.0597 27.8769 25.0578 27.8769 25.0556V25.0547C27.8769 25.0529 27.8769 25.0512 27.8769 25.0494V25.047L27.8768 25.0431V25.0407L27.8768 25.0368L27.8767 25.0343L27.8766 25.0305C27.8766 25.0297 27.8766 25.0286 27.8766 25.0278L27.8765 25.0244L27.8765 25.0215L27.8764 25.0179L27.8764 25.0153C27.8764 25.014 27.8763 25.0129 27.8763 25.0117C27.8763 25.0107 27.8763 25.01 27.8763 25.009C27.8763 25.0078 27.8762 25.0065 27.8762 25.0053L27.8762 25.0027L27.8761 24.9988L27.8761 24.9965L27.876 24.9909L27.8759 24.9903L27.8758 24.984L27.8758 24.9824L27.8757 24.9777L27.8756 24.9754C27.8756 24.9741 27.8756 24.9727 27.8756 24.9715L27.8755 24.9688L27.8755 24.9652L27.8754 24.9625C27.8754 24.9613 27.8754 24.9602 27.8754 24.9589C27.8753 24.9579 27.8753 24.9571 27.8753 24.9561L27.8752 24.9527C27.8752 24.9517 27.8752 24.9509 27.8752 24.9499L27.8751 24.9464L27.8751 24.9437L27.875 24.9399L27.8749 24.9375C27.8749 24.9362 27.8749 24.9347 27.8748 24.9333L27.8747 24.9312L27.8746 24.9268L27.8745 24.9249C27.8745 24.9232 27.8744 24.9212 27.8744 24.9194L27.8743 24.9177C27.8743 24.9159 27.8742 24.9142 27.8742 24.9124L27.8741 24.9106C27.8741 24.9091 27.8741 24.9077 27.874 24.9062L27.8739 24.9039L27.8738 24.8999L27.8737 24.8975L27.8736 24.8937L27.8735 24.8912C27.8735 24.8899 27.8735 24.8886 27.8734 24.8874L27.8733 24.8849C27.8733 24.8836 27.8733 24.8825 27.8732 24.8813L27.8731 24.8785L27.873 24.8751L27.8729 24.8723C27.8728 24.8712 27.8728 24.87 27.8727 24.8689L27.8726 24.8661C27.8726 24.8647 27.8726 24.8635 27.8725 24.8622L27.8724 24.86L27.8722 24.8552L27.8722 24.8537C27.8721 24.8515 27.872 24.8496 27.8719 24.8474L27.8719 24.8466L27.8716 24.8412L27.8716 24.8391C27.8715 24.8378 27.8714 24.8364 27.8714 24.835L27.8713 24.8325L27.8712 24.8288L27.8711 24.8261C27.871 24.8249 27.871 24.8238 27.8709 24.8226L27.8708 24.8199L27.8706 24.8163C27.8706 24.8154 27.8705 24.8145 27.8705 24.8135L27.8703 24.8101L27.8702 24.8074C27.8702 24.8062 27.8701 24.8049 27.8701 24.8036L27.87 24.8012L27.8698 24.7969L27.8697 24.7952L27.8695 24.7903L27.8694 24.7888L27.8688 24.7762L27.8687 24.7753C27.8687 24.7736 27.8686 24.7717 27.8685 24.7699L27.8684 24.7684C27.8683 24.7669 27.8682 24.7653 27.8681 24.7638L27.868 24.7617L27.8678 24.7575L27.8677 24.7554C27.8676 24.7539 27.8676 24.7528 27.8675 24.7513L27.8674 24.7491L27.8671 24.7449L27.867 24.7428C27.867 24.7416 27.8669 24.74 27.8668 24.7388C27.8668 24.7381 27.8667 24.7372 27.8667 24.7365L27.8664 24.7324L27.8663 24.7303C27.8662 24.7288 27.8662 24.7274 27.8661 24.7259L27.866 24.7241C27.8659 24.7225 27.8658 24.7208 27.8657 24.7192L27.8657 24.7179L27.8653 24.7116L27.8653 24.7108L27.8649 24.7053L27.8648 24.7036C27.8648 24.7022 27.8647 24.7006 27.8646 24.6991L27.8645 24.697L27.8642 24.693L27.8641 24.6905C27.864 24.6893 27.8639 24.6881 27.8638 24.6869C27.8638 24.6861 27.8637 24.6849 27.8637 24.6841L27.8635 24.6806L27.8633 24.6781L27.8631 24.6744L27.8629 24.6717C27.8629 24.6706 27.8628 24.6693 27.8627 24.6681L27.8625 24.6656C27.8624 24.6644 27.8624 24.6631 27.8623 24.6618L27.8621 24.6593C27.8621 24.658 27.862 24.6565 27.8619 24.6552L27.8618 24.6533L27.8614 24.6481L27.8613 24.647L27.8609 24.6406L27.8608 24.6406L27.8604 24.6346L27.8603 24.6328L27.86 24.6283L27.8598 24.6264L27.8596 24.6221L27.8594 24.6199L27.8591 24.6159L27.859 24.6136C27.8589 24.6123 27.8588 24.6111 27.8587 24.6098L27.8586 24.6073L27.8583 24.6034L27.8582 24.6011L27.8579 24.5972L27.8577 24.5949L27.8574 24.5907L27.8573 24.5888C27.8572 24.5872 27.857 24.5856 27.8569 24.584L27.8568 24.5826C27.8565 24.5784 27.8562 24.5741 27.8559 24.57L27.8558 24.5695C27.8557 24.5677 27.8555 24.5656 27.8554 24.5637L27.8553 24.5626L27.8549 24.5576L27.8548 24.5559L27.8544 24.5514L27.8543 24.5496C27.8541 24.5481 27.854 24.5466 27.8539 24.5451L27.8537 24.5432L27.8534 24.539L27.8532 24.5369C27.8531 24.5354 27.853 24.5342 27.8529 24.5327L27.8527 24.5306C27.8526 24.5291 27.8524 24.5277 27.8523 24.5262L27.8522 24.5245C27.852 24.5229 27.8519 24.5215 27.8518 24.5198L27.8516 24.5182L27.8512 24.5128L27.8512 24.5121C27.851 24.51 27.8508 24.5079 27.8507 24.5058L27.8506 24.5055C27.8505 24.5035 27.8503 24.5015 27.8501 24.4996L27.85 24.4982L27.8496 24.4936L27.8494 24.4913C27.8493 24.49 27.8492 24.4886 27.8491 24.4872L27.8489 24.4852L27.8485 24.4812L27.8483 24.4789L27.8479 24.4749L27.8477 24.4727C27.8476 24.4714 27.8475 24.47 27.8474 24.4687L27.8472 24.4666L27.8468 24.4623L27.8466 24.4604L27.8462 24.4562L27.846 24.4541C27.8458 24.4525 27.8457 24.4511 27.8456 24.4496L27.8454 24.448C27.845 24.4439 27.8446 24.4396 27.8443 24.4355L27.8442 24.435C27.8441 24.4332 27.8439 24.4313 27.8437 24.4294L27.8436 24.4278C27.8434 24.4262 27.8433 24.4248 27.8432 24.4232L27.843 24.4214C27.8429 24.4199 27.8427 24.4184 27.8426 24.4169L27.8424 24.4149L27.842 24.4109C27.8419 24.4102 27.8418 24.4093 27.8417 24.4085L27.8414 24.4048L27.8411 24.4023L27.8407 24.3984L27.8405 24.3964C27.8404 24.3949 27.8402 24.3936 27.8401 24.3921L27.8399 24.3901L27.8394 24.3855L27.8393 24.384C27.8391 24.3823 27.8389 24.3805 27.8387 24.3787L27.8386 24.3778C27.8382 24.3736 27.8377 24.3695 27.8373 24.3653L27.8373 24.3649L27.8367 24.3591L27.8365 24.3576C27.8364 24.3562 27.8362 24.3546 27.8361 24.3531L27.8358 24.351L27.8354 24.3469L27.8352 24.3447L27.8348 24.3409L27.8345 24.3385L27.8341 24.3346L27.8339 24.3323L27.8335 24.3285L27.8332 24.3262C27.8331 24.3249 27.8329 24.3235 27.8328 24.3221L27.8325 24.3201C27.8324 24.3187 27.8322 24.3171 27.8321 24.3158L27.8318 24.3139L27.8313 24.3094L27.8311 24.3077L27.8304 24.3016L27.8303 24.3009L27.8297 24.2955L27.8295 24.2938L27.829 24.2894L27.8288 24.2874C27.8286 24.286 27.8284 24.2845 27.8283 24.2832L27.828 24.2813L27.8275 24.277L27.8273 24.275L27.8268 24.2709L27.8265 24.2688C27.8264 24.2674 27.8262 24.266 27.8261 24.2647L27.8258 24.2627C27.8257 24.2612 27.8255 24.2599 27.8253 24.2585L27.8251 24.2566L27.8246 24.2525L27.8243 24.2503L27.8238 24.2461L27.8235 24.2443C27.8233 24.2426 27.8231 24.2407 27.8229 24.2389L27.8228 24.2382C27.8223 24.2341 27.8218 24.23 27.8213 24.2259L27.8211 24.2242C27.8209 24.2227 27.8207 24.2213 27.8205 24.2198L27.8203 24.2178L27.8198 24.2138L27.8195 24.2116L27.819 24.2075L27.8188 24.2055L27.8183 24.2016L27.818 24.1992L27.8175 24.1955L27.8172 24.1931L27.8166 24.1891L27.8164 24.1871C27.8161 24.1855 27.816 24.184 27.8158 24.1824L27.8156 24.181L27.8149 24.1759L27.8148 24.1748L27.8131 24.1624L27.813 24.1615L27.8123 24.1564L27.8121 24.1546L27.8115 24.1503L27.8112 24.1483L27.8107 24.1442L27.8104 24.1422L27.8099 24.1381L27.8096 24.136C27.8094 24.1347 27.8092 24.1333 27.809 24.1319L27.8087 24.1298L27.8082 24.1259C27.8081 24.1251 27.808 24.1244 27.8079 24.1236L27.8073 24.1195L27.8071 24.1177L27.8064 24.1131L27.8062 24.1116L27.8054 24.1058L27.8054 24.1055C27.8048 24.1013 27.8042 24.0973 27.8036 24.0931L27.8035 24.0924L27.8028 24.0871L27.8025 24.0854L27.8019 24.0809L27.8016 24.0791L27.801 24.075L27.8006 24.0729L27.8 24.0688L27.7998 24.0669C27.7995 24.0655 27.7994 24.0642 27.7992 24.0627L27.7989 24.0607C27.7987 24.0593 27.7985 24.0578 27.7983 24.0564L27.798 24.0547L27.7974 24.0502L27.7971 24.0486L27.7963 24.0432L27.7962 24.0426L27.7934 24.024L27.7933 24.0233C27.793 24.0215 27.7928 24.0198 27.7925 24.0179L27.7923 24.0167L27.7916 24.0119L27.7913 24.0103C27.7911 24.0089 27.7908 24.0072 27.7906 24.0057L27.7904 24.0043C27.7901 24.0027 27.7899 24.0012 27.7897 23.9997L27.7894 23.998C27.7892 23.9964 27.7889 23.9949 27.7887 23.9934L27.7885 23.9921L27.7877 23.9871L27.7875 23.9859L27.7866 23.9804L27.7865 23.9799C27.7862 23.9778 27.7859 23.9759 27.7855 23.9738V23.9738C27.7845 23.9675 27.7835 23.9613 27.7825 23.955L27.7825 23.9545L27.7816 23.9491L27.7813 23.9476L27.7805 23.943L27.7803 23.9415L27.7795 23.937L27.7793 23.9353L27.7785 23.9308L27.7782 23.9292L27.7775 23.9248L27.7772 23.9231L27.7764 23.9182L27.7763 23.9171C27.7759 23.9153 27.7757 23.9135 27.7754 23.9118L27.7753 23.9111C27.7742 23.9048 27.7732 23.8988 27.7721 23.8925L27.772 23.8919C27.7716 23.8901 27.7713 23.8883 27.771 23.8865L27.7708 23.8851L27.77 23.8804L27.7697 23.8789L27.769 23.8744L27.7686 23.8726C27.7684 23.8712 27.7681 23.8697 27.7679 23.8682L27.7676 23.8666L27.7668 23.8621L27.7665 23.8606C27.7662 23.859 27.766 23.8575 27.7657 23.8559L27.7655 23.8545C27.7652 23.8529 27.7649 23.8513 27.7647 23.8498L27.7644 23.8483L27.7634 23.8427L27.7633 23.8424C27.7622 23.8362 27.7611 23.8301 27.76 23.8239L27.76 23.8235C27.7596 23.8216 27.7593 23.8197 27.759 23.8178L27.7588 23.8171L27.7578 23.8118L27.7576 23.8107C27.7573 23.809 27.757 23.8073 27.7567 23.8056L27.7564 23.8045C27.7562 23.803 27.7559 23.8013 27.7556 23.7997L27.7553 23.7982L27.7544 23.7935L27.7541 23.7922C27.7538 23.7905 27.7535 23.7889 27.7532 23.7872L27.753 23.7862C27.7527 23.7843 27.7523 23.7825 27.752 23.7807L27.7519 23.7801C27.7504 23.7719 27.7488 23.7638 27.7473 23.7556L27.7471 23.7548L27.7461 23.7496L27.7459 23.7482C27.7456 23.7466 27.7453 23.7453 27.745 23.7436L27.7447 23.7422L27.7438 23.7374L27.7436 23.7361C27.7433 23.7345 27.743 23.7328 27.7426 23.7313L27.7424 23.7301L27.7414 23.7251L27.7411 23.7239L27.7401 23.7186L27.74 23.718C27.7396 23.7161 27.7392 23.7141 27.7388 23.7122L27.7388 23.7119C27.7372 23.7038 27.7356 23.6956 27.7339 23.6874L27.7337 23.6866L27.7327 23.6813L27.7325 23.6804C27.7321 23.6788 27.7318 23.677 27.7315 23.6754L27.7312 23.6741C27.7308 23.6725 27.7305 23.6709 27.7302 23.6694L27.7299 23.668C27.7296 23.6665 27.7293 23.6648 27.729 23.6633L27.7287 23.6621L27.7277 23.6569L27.7275 23.6561L27.7264 23.6506L27.7262 23.65C27.7241 23.6397 27.722 23.6296 27.7199 23.6194L27.7198 23.6192C27.7194 23.6173 27.719 23.6153 27.7186 23.6134L27.7184 23.6127C27.718 23.6109 27.7177 23.6092 27.7173 23.6074L27.7171 23.6064L27.7161 23.6015L27.7158 23.6002L27.7148 23.5951L27.7146 23.5944L27.7135 23.5889L27.7133 23.5883C27.7111 23.5781 27.7089 23.5679 27.7067 23.5577V23.5577L27.7054 23.5519L27.7052 23.5509C27.7048 23.5492 27.7045 23.5476 27.704 23.5459L27.7038 23.5448C27.7034 23.5432 27.7031 23.5415 27.7027 23.54L27.7024 23.5386C27.702 23.5371 27.7017 23.5355 27.7013 23.534L27.701 23.5326C27.7007 23.531 27.7003 23.5296 27.7 23.528L27.6997 23.5266C27.6993 23.5249 27.6989 23.5233 27.6986 23.5216L27.6983 23.5207L27.6971 23.5151L27.697 23.5148C27.6956 23.5086 27.6942 23.5026 27.6928 23.4965L27.6927 23.4961C27.6923 23.4943 27.6919 23.4924 27.6915 23.4906L27.6912 23.4894C27.6909 23.4878 27.6905 23.4862 27.6901 23.4845L27.6899 23.4834L27.6887 23.4786L27.6884 23.4772C27.688 23.4757 27.6877 23.4741 27.6873 23.4726L27.687 23.4712L27.6859 23.4665L27.6856 23.4652L27.6844 23.46L27.6842 23.4594C27.6838 23.4575 27.6834 23.4559 27.683 23.454L27.6828 23.4533C27.6809 23.4452 27.679 23.4373 27.677 23.4291C27.677 23.4289 27.677 23.4291 27.677 23.4289C27.6765 23.4269 27.6761 23.4252 27.6756 23.4231L27.6755 23.4225L27.6742 23.4172L27.674 23.4163C27.6735 23.4145 27.6731 23.4128 27.6727 23.4111L27.6725 23.4103L27.6713 23.4053L27.671 23.4041L27.6698 23.399L27.6696 23.3982L27.6683 23.3927L27.6682 23.3923C27.6652 23.3802 27.6622 23.3682 27.6592 23.356L27.6591 23.3556C27.6586 23.3537 27.6582 23.3518 27.6577 23.35L27.6576 23.3495L27.6562 23.344L27.656 23.3434L27.6546 23.3379L27.6545 23.3374L27.6532 23.3319L27.653 23.3312C27.6494 23.3172 27.6458 23.303 27.6422 23.289H27.6421L27.6406 23.283L27.6405 23.2828L27.639 23.2769L27.6375 23.2711L27.6373 23.2707L27.6358 23.2649C27.6357 23.2647 27.6358 23.265 27.6357 23.2647C27.6321 23.2507 27.6283 23.2366 27.6245 23.2227L27.6244 23.2221C27.6239 23.2202 27.6234 23.2185 27.6229 23.2166L27.6228 23.2162C27.6223 23.2144 27.6217 23.2125 27.6213 23.2107L27.6211 23.2101C27.6206 23.2083 27.6201 23.2063 27.6196 23.2046L27.6195 23.2043C27.6157 23.1902 27.6119 23.1764 27.608 23.1623L27.6079 23.1619L27.6063 23.1563L27.6062 23.1559L27.6046 23.1504L27.6045 23.1499L27.6029 23.1443L27.6029 23.144C27.6023 23.1422 27.6018 23.1403 27.6013 23.1384L27.6011 23.138C27.5971 23.124 27.5932 23.1101 27.5891 23.0962V23.0961C27.5886 23.0942 27.588 23.0922 27.5875 23.0903L27.5873 23.0898L27.5857 23.0842L27.5856 23.084C27.5851 23.0821 27.5845 23.0802 27.5839 23.0783L27.5838 23.0779C27.5791 23.0619 27.5744 23.0463 27.5697 23.0303L27.5696 23.0301L27.5679 23.0245L27.5678 23.0241L27.5661 23.0187L27.5659 23.0181C27.5654 23.0162 27.5649 23.0144 27.5643 23.0125L27.5642 23.0123C27.56 22.9984 27.5558 22.9845 27.5515 22.9706C27.5509 22.9686 27.5503 22.9668 27.5497 22.9648L27.5496 22.9646L27.5478 22.9588L27.5478 22.9586C27.5472 22.9567 27.5466 22.9548 27.5459 22.9528V22.9528L27.5441 22.947L27.5441 22.9469C27.5391 22.9311 27.5342 22.9154 27.5291 22.8997L27.529 22.8991L27.5272 22.8936L27.5271 22.8933C27.5214 22.8755 27.5157 22.858 27.5098 22.8402L27.5079 22.8344L27.5078 22.8341L27.506 22.8287L27.5058 22.8281L27.5039 22.8226L27.5039 22.8225C27.4993 22.8088 27.4947 22.7951 27.4901 22.7815L27.4899 22.7809L27.4881 22.7755L27.4879 22.7751L27.4861 22.7697L27.4859 22.7691L27.4841 22.7637L27.4839 22.7634C27.4785 22.7477 27.4732 22.7323 27.4677 22.7167L27.4677 22.7164C27.467 22.7146 27.4664 22.7128 27.4658 22.7109L27.4656 22.7104L27.4637 22.7051L27.4635 22.7047C27.4629 22.703 27.4623 22.7011 27.4617 22.6994L27.4615 22.6989C27.456 22.6834 27.4505 22.6679 27.4449 22.6524L27.4449 22.6522C27.4442 22.6503 27.4436 22.6485 27.4429 22.6466L27.4428 22.6463C27.4421 22.6445 27.4415 22.6428 27.4408 22.641L27.4406 22.6404C27.4181 22.5784 27.3947 22.5166 27.3706 22.4555L27.3705 22.4551C27.3629 22.436 27.3553 22.417 27.3476 22.3979L27.3476 22.3978C27.3468 22.3959 27.346 22.3941 27.3453 22.3921L27.3452 22.3921C27.3383 22.3749 27.3313 22.3578 27.3242 22.3407C27.3241 22.3405 27.3242 22.3408 27.3241 22.3406C27.3146 22.3177 27.3052 22.2952 27.2955 22.2724L27.2954 22.2722C27.2793 22.2344 27.2629 22.1969 27.2462 22.1594L27.246 22.159L27.2436 22.1537L27.2436 22.1535C27.2427 22.1517 27.242 22.1499 27.2411 22.148L27.2411 22.1479C27.2344 22.1329 27.2276 22.118 27.2208 22.1031L27.2207 22.103C27.2199 22.1011 27.2191 22.0995 27.2183 22.0976L27.2181 22.0973C27.2173 22.0956 27.2165 22.0939 27.2157 22.0921L27.2155 22.0916C27.2087 22.0768 27.2018 22.062 27.195 22.0472L27.1948 22.047C27.1939 22.0451 27.1932 22.0434 27.1923 22.0416L27.1898 22.0362L27.1896 22.0358L27.1871 22.0306L27.187 22.0304C27.1861 22.0285 27.1853 22.0268 27.1845 22.0249L27.1844 22.0248C27.1783 22.0118 27.1722 21.999 27.166 21.986L27.1659 21.9858L27.1634 21.9807L27.1632 21.9801L27.1608 21.9751L27.1606 21.9747C27.1598 21.9729 27.1589 21.9712 27.1581 21.9695L27.158 21.9692C27.1509 21.9544 27.1438 21.9399 27.1366 21.9251L27.1365 21.925C27.1347 21.9213 27.133 21.9178 27.1312 21.9141L27.1311 21.9139C27.1238 21.8992 27.1166 21.8845 27.1093 21.8699L27.1093 21.8698L27.1066 21.8644C27.1065 21.8642 27.1067 21.8645 27.1066 21.8643L27.1039 21.859L27.1037 21.8587L27.1011 21.8534L27.101 21.8533C27.0937 21.8387 27.0863 21.8242 27.0788 21.8096L27.0787 21.8094C27.0778 21.8075 27.077 21.806 27.0761 21.8041L27.0759 21.8039C27.0656 21.7838 27.0554 21.7641 27.0449 21.7441L27.0448 21.7439C27.0439 21.7422 27.043 21.7405 27.0422 21.7388L27.042 21.7384C27.0344 21.7239 27.0267 21.7095 27.0191 21.6952L27.019 21.695C27.018 21.6932 27.0172 21.6915 27.0162 21.6897L27.0162 21.6896C27.0152 21.6878 27.0142 21.6861 27.0133 21.6842C27.0046 21.668 26.9958 21.6518 26.987 21.6356V21.6356C26.9861 21.6339 26.9851 21.632 26.9841 21.6304L26.9839 21.63L26.9811 21.6248L26.9811 21.6248C26.9722 21.6086 26.9634 21.5926 26.9544 21.5765L26.9543 21.5763C26.9533 21.5745 26.9524 21.573 26.9514 21.5712L26.9513 21.5709L26.9485 21.5659L26.9483 21.5656C26.9403 21.5513 26.9324 21.5372 26.9243 21.523L26.9242 21.5229L26.9213 21.5177C26.9212 21.5175 26.9213 21.5178 26.9212 21.5176L26.9184 21.5126L26.9181 21.5121L26.9152 21.5071L26.9151 21.507L26.9122 21.5019L26.9121 21.5016C26.906 21.491 26.8999 21.4805 26.8938 21.4699L26.8936 21.4697C26.8916 21.4662 26.8897 21.4629 26.8877 21.4595L26.8874 21.459C26.8864 21.4573 26.8855 21.4557 26.8845 21.4541L26.8844 21.4538C26.8762 21.4397 26.868 21.4257 26.8596 21.4116C26.8595 21.4114 26.8597 21.4118 26.8596 21.4116L26.8565 21.4065L26.8563 21.4061C26.8554 21.4046 26.8544 21.4029 26.8535 21.4013L26.8531 21.4008L26.8503 21.3962L26.8499 21.3955C26.8416 21.3816 26.8334 21.3677 26.825 21.3539L26.8247 21.3535C26.8227 21.3501 26.8207 21.3468 26.8186 21.3433L26.8185 21.3431C26.8174 21.3414 26.8165 21.3399 26.8154 21.3381L26.8153 21.3379C26.8078 21.3257 26.8005 21.3136 26.793 21.3015L26.7929 21.3014L26.7897 21.2963L26.7897 21.2962C26.7887 21.2946 26.7876 21.2928 26.7866 21.2912L26.7864 21.2908C26.7855 21.2893 26.7844 21.2875 26.7834 21.286L26.7832 21.2856L26.7802 21.2808L26.78 21.2805C26.7714 21.2666 26.7629 21.253 26.7542 21.2391L26.754 21.2389L26.7509 21.234L26.7508 21.2337C26.7497 21.2321 26.7488 21.2305 26.7477 21.2288L26.7475 21.2285C26.7388 21.2147 26.7302 21.2012 26.7213 21.1874L26.7211 21.1871C26.7201 21.1855 26.7191 21.1839 26.718 21.1823L26.7179 21.182C26.7168 21.1803 26.7159 21.1789 26.7147 21.1771L26.7145 21.1769L26.7113 21.172L26.7112 21.1718C26.7102 21.1701 26.7091 21.1685 26.708 21.1668L26.7079 21.1667C26.7013 21.1564 26.6946 21.1462 26.688 21.136L26.6879 21.1359L26.6847 21.131L26.6844 21.1306L26.6814 21.126L26.681 21.1254L26.6779 21.1207L26.6777 21.1204L26.6746 21.1157L26.6744 21.1153C26.6665 21.1034 26.6587 21.0917 26.6508 21.0798C26.6507 21.0796 26.6509 21.0799 26.6508 21.0797C26.6497 21.0781 26.6487 21.0765 26.6475 21.0749L26.6472 21.0744C26.6461 21.0728 26.6451 21.0713 26.644 21.0697L26.6439 21.0695C26.6428 21.0679 26.6418 21.0663 26.6407 21.0647L26.6404 21.0643C26.6314 21.0509 26.6224 21.0374 26.6133 21.024L26.613 21.0237L26.6098 21.0189L26.6096 21.0187L26.6064 21.0139L26.6063 21.0136C26.5959 20.9985 26.5857 20.9835 26.5752 20.9685L26.5751 20.9682L26.5718 20.9636L26.5715 20.9631C26.56 20.9465 26.5483 20.9298 26.5367 20.9134L26.5365 20.913C26.5354 20.9116 26.5342 20.9099 26.5332 20.9084L26.5329 20.908C26.5319 20.9066 26.5309 20.9051 26.5299 20.9036L26.5294 20.903C26.5283 20.9015 26.5272 20.8999 26.5261 20.8984L26.5259 20.8981C26.5177 20.8865 26.5095 20.8751 26.5012 20.8635L26.5009 20.8632L26.4976 20.8586L26.4973 20.8582L26.494 20.8535L26.4938 20.8533C26.4843 20.8401 26.4747 20.827 26.4651 20.8139L26.4651 20.8138L26.4615 20.809L26.4614 20.8088C26.4603 20.8073 26.4591 20.8057 26.458 20.8042L26.4577 20.8037L26.4544 20.7992L26.4541 20.7989L26.4506 20.7942L26.4506 20.7941C26.4421 20.7826 26.4337 20.7712 26.4252 20.7597H26.4251L26.4216 20.755L26.4213 20.7546C26.4203 20.7532 26.4191 20.7516 26.418 20.7502L26.4176 20.7496L26.4144 20.7454L26.4139 20.7447C26.4042 20.7318 26.3945 20.7189 26.3847 20.706L26.3846 20.7058L26.381 20.7011L26.3809 20.701C26.3798 20.6994 26.3786 20.6979 26.3774 20.6964L26.3771 20.6961L26.3736 20.6915L26.3735 20.6913L26.3698 20.6865C26.3637 20.6784 26.3575 20.6704 26.3512 20.6623H26.3512C26.35 20.6607 26.3488 20.6592 26.3476 20.6576L26.3472 20.6571C26.3461 20.6557 26.345 20.6543 26.3439 20.6528L26.3435 20.6523L26.3402 20.6481L26.3397 20.6474C26.3387 20.646 26.3376 20.6447 26.3365 20.6433L26.3361 20.6428L26.3326 20.6383L26.3324 20.6381C26.3237 20.6269 26.3149 20.6157 26.3061 20.6045C26.3049 20.6029 26.3037 20.6014 26.3024 20.5998L26.3022 20.5995L26.2986 20.595L26.2984 20.5948L26.2949 20.5904L26.2946 20.59C26.2846 20.5773 26.2745 20.5646 26.2643 20.552L26.2641 20.5517L26.2605 20.5472L26.2604 20.547L26.2567 20.5425L26.2565 20.5423L26.2528 20.5376H26.2528C26.2425 20.525 26.2323 20.5123 26.222 20.4997H26.222C26.2207 20.4981 26.2195 20.4966 26.2181 20.4951L26.218 20.495C26.2051 20.4792 26.1922 20.4635 26.1792 20.4479C26.1766 20.4447 26.174 20.4416 26.1714 20.4385H26.1714C25.8999 20.1132 25.6009 19.8112 25.2775 19.5357C24.8289 19.154 24.1508 19.2024 23.7628 19.6437C23.3753 20.0846 23.4239 20.751 23.8715 21.1328C26.1142 23.0414 26.3597 26.3772 24.4197 28.5836C23.3998 29.7435 21.9179 30.4101 20.3591 30.4101C19.3332 30.4117 18.3286 30.1228 17.465 29.5781C16.9658 29.263 16.3015 29.4056 15.9812 29.8967C15.6614 30.387 15.8054 31.0395 16.3032 31.3552C16.4967 31.4774 16.6962 31.591 16.9015 31.696L16.9018 31.6961C16.9066 31.6986 16.9116 31.7011 16.9164 31.7036L16.9171 31.7039C16.9221 31.7065 16.9268 31.7088 16.9318 31.7114L16.932 31.7116L16.9369 31.714L16.9375 31.7143C16.9423 31.7167 16.9472 31.7192 16.9521 31.7216L16.9525 31.7219C16.9574 31.7243 16.9621 31.7267 16.967 31.7291L16.9679 31.7295C16.9725 31.7319 16.9777 31.7344 16.9824 31.7367L16.9829 31.737C16.9878 31.7394 16.9927 31.7418 16.9975 31.7442L16.9981 31.7445C16.9998 31.7453 17.0011 31.746 17.0028 31.7468L17.0037 31.7472C17.0083 31.7495 17.013 31.7518 17.0176 31.7541L17.0193 31.7548C17.024 31.7571 17.0282 31.7592 17.0329 31.7615L17.0343 31.7622L17.0388 31.7644L17.0389 31.7644L17.048 31.7689L17.0494 31.7696L17.0538 31.7716L17.0552 31.7723C17.0579 31.7737 17.0607 31.775 17.0635 31.7763L17.0645 31.7768L17.0688 31.7789L17.0706 31.7797C17.0733 31.781 17.0761 31.7823 17.0789 31.7837L17.0798 31.7841L17.0837 31.786L17.0859 31.7871L17.0898 31.789L17.0915 31.7898C17.094 31.791 17.096 31.7919 17.0986 31.7932L17.1011 31.7944L17.105 31.7962L17.1068 31.7971C17.1091 31.7982 17.1115 31.7993 17.1139 31.8005L17.1162 31.8015L17.12 31.8033L17.1225 31.8045L17.1293 31.8077L17.1313 31.8086L17.1351 31.8104L17.1377 31.8116L17.1412 31.8133C17.143 31.8141 17.1447 31.8149 17.1465 31.8158L17.1502 31.8174L17.1528 31.8187L17.1564 31.8204L17.1592 31.8216L17.1654 31.8245L17.1679 31.8257L17.1715 31.8273L17.1747 31.8288C17.1764 31.8296 17.178 31.8304 17.1797 31.8312L17.1834 31.8328L17.1867 31.8344L17.1896 31.8357L17.1944 31.8379L17.1985 31.8397L17.2017 31.8412L17.2049 31.8426L17.2083 31.8442L17.2137 31.8466L17.2171 31.8481L17.22 31.8494L17.2235 31.851L17.2269 31.8525L17.232 31.8549L17.2354 31.8564L17.2387 31.8579L17.2422 31.8595L17.2461 31.8612C17.2476 31.8619 17.2491 31.8625 17.2506 31.8632L17.2538 31.8646L17.2575 31.8663L17.2602 31.8675C17.2622 31.8684 17.2641 31.8692 17.2661 31.8701L17.2687 31.8713L17.2726 31.873L17.2754 31.8743C17.2772 31.8751 17.2791 31.8759 17.2809 31.8767L17.2838 31.878L17.2879 31.8798L17.2906 31.881L17.2953 31.883L17.2983 31.8843L17.3032 31.8865L17.3057 31.8876L17.3102 31.8895L17.3125 31.8905L17.3185 31.8931L17.3211 31.8942L17.3253 31.896L17.3277 31.8971L17.3338 31.8997L17.3361 31.9007L17.3405 31.9026L17.3431 31.9038C17.3452 31.9046 17.3473 31.9055 17.3493 31.9064L17.3506 31.907L17.356 31.9093L17.3582 31.9102L17.3636 31.9126L17.3648 31.9131L17.3712 31.9158L17.3734 31.9168L17.3783 31.9189L17.3802 31.9196C17.3823 31.9205 17.3844 31.9214 17.3865 31.9224L17.3884 31.9232L17.3935 31.9253L17.3954 31.9261L17.4019 31.9289L17.4035 31.9296C17.4053 31.9303 17.407 31.931 17.4087 31.9317L17.4107 31.9326L17.4172 31.9353L17.4177 31.9355L17.4242 31.9382L17.4258 31.9389L17.4319 31.9414L17.4327 31.9417C17.4349 31.9427 17.4373 31.9437 17.4395 31.9446L17.441 31.9452L17.4467 31.9475L17.4481 31.9481L17.4548 31.9509L17.4562 31.9515L17.4616 31.9537L17.4636 31.9545C17.4658 31.9554 17.4681 31.9563 17.4703 31.9572L17.471 31.9575C17.473 31.9584 17.4751 31.9592 17.4771 31.9601L17.4789 31.9607L17.4855 31.9634C17.4857 31.9635 17.4854 31.9634 17.4857 31.9635L17.4924 31.9662L17.4943 31.967L17.5 31.9693L17.5012 31.9698L17.508 31.9725L17.5095 31.9731L17.5154 31.9755L17.5164 31.976L17.5234 31.9788L17.5244 31.9792L17.5305 31.9816L17.532 31.9822C17.5366 31.984 17.5413 31.9859 17.5458 31.9877L17.5475 31.9884L17.5536 31.9908L17.5545 31.9911C17.5568 31.992 17.5591 31.9929 17.5614 31.9939L17.5628 31.9944L17.5688 31.9967L17.5699 31.9972L17.5769 31.9999L17.5779 32.0003L17.584 32.0027L17.5854 32.0032C17.5901 32.0051 17.5949 32.007 17.5996 32.0088L17.6007 32.0092C17.6055 32.0111 17.6102 32.0129 17.615 32.0148L17.6163 32.0153L17.6231 32.0179L17.6233 32.0179C17.6258 32.0189 17.6281 32.0198 17.6306 32.0208L17.6316 32.0212C17.6337 32.022 17.636 32.0228 17.6381 32.0236L17.639 32.024L17.6462 32.0268L17.6468 32.027L17.6534 32.0295L17.6545 32.0299C17.6594 32.0318 17.664 32.0335 17.6689 32.0354L17.67 32.0358L17.677 32.0384L17.6771 32.0385L17.6845 32.0413L17.6854 32.0416L17.6921 32.0441L17.6928 32.0444L17.7 32.0471L17.7009 32.0475L17.7072 32.0498L17.7085 32.0502L17.7157 32.0529L17.7159 32.053L17.7229 32.0555L17.724 32.0559C17.7289 32.0577 17.7336 32.0594 17.7384 32.0612L17.7396 32.0617L17.7466 32.0642L17.7467 32.0643C17.7492 32.0652 17.7517 32.0661 17.7542 32.067L17.7549 32.0673C17.7573 32.0682 17.7595 32.069 17.7618 32.0698L17.7623 32.07L17.7698 32.0728L17.7701 32.0729L17.7773 32.0755L17.7779 32.0757L17.7928 32.081L17.7936 32.0813C17.7986 32.0831 17.8036 32.0848 17.8086 32.0866L17.8091 32.0868L17.8166 32.0895C17.8168 32.0896 17.8163 32.0894 17.8166 32.0895L17.8243 32.0922L17.8247 32.0923L17.8316 32.0948L17.8326 32.0951C17.8375 32.0968 17.8423 32.0985 17.8473 32.1002L17.8482 32.1006C17.8531 32.1023 17.8581 32.1041 17.863 32.1057L17.8638 32.106C17.8687 32.1078 17.8737 32.1095 17.8787 32.1112L17.8794 32.1114L17.8865 32.1139L17.887 32.114L17.8945 32.1166L17.8949 32.1167L17.9021 32.1192L17.9027 32.1194C17.9078 32.1211 17.9127 32.1228 17.9178 32.1245L17.9185 32.1247C17.9236 32.1264 17.9285 32.1281 17.9336 32.1298L17.9341 32.13C17.9418 32.1326 17.9494 32.1351 17.9571 32.1376L17.9575 32.1378C17.9626 32.1395 17.9677 32.1412 17.9728 32.1428L17.9733 32.143C17.9784 32.1447 17.9835 32.1463 17.9886 32.148L17.9891 32.1481C17.9942 32.1498 17.9993 32.1515 18.0045 32.1531L18.0048 32.1532C18.0126 32.1558 18.0204 32.1583 18.0282 32.1608H18.0283C18.0334 32.1625 18.0385 32.1641 18.0437 32.1658L18.0443 32.166C18.0494 32.1676 18.0545 32.1692 18.0596 32.1708L18.06 32.1709C18.0652 32.1725 18.0703 32.1742 18.0756 32.1758L18.0757 32.1759L18.0834 32.1783L18.0836 32.1783C18.0889 32.18 18.0941 32.1816 18.0993 32.1832H18.0994C18.1046 32.1848 18.1099 32.1865 18.1151 32.1881L18.1154 32.1882C18.1206 32.1898 18.1259 32.1914 18.1311 32.193H18.1312C18.1443 32.197 18.1575 32.201 18.1707 32.2049L18.171 32.205C18.1763 32.2066 18.1814 32.2081 18.1867 32.2096C18.187 32.2097 18.1867 32.2096 18.1869 32.2097C18.1922 32.2113 18.1974 32.2128 18.2027 32.2143C18.203 32.2144 18.2026 32.2143 18.2028 32.2144L18.2107 32.2167H18.2107C18.216 32.2183 18.2213 32.2198 18.2265 32.2213L18.2268 32.2214C18.232 32.223 18.2371 32.2244 18.2423 32.2259L18.2429 32.2261C18.2481 32.2276 18.2533 32.229 18.2585 32.2305L18.2588 32.2306C18.264 32.2321 18.2694 32.2337 18.2746 32.2351L18.2747 32.2352C18.288 32.239 18.3012 32.2427 18.3146 32.2464L18.3149 32.2464C18.3202 32.2479 18.3254 32.2494 18.3308 32.2508H18.3308L18.3388 32.253H18.3389C18.3442 32.2545 18.3496 32.2559 18.3549 32.2574H18.3549C18.3602 32.2588 18.3656 32.2602 18.3708 32.2617L18.3712 32.2618C18.3765 32.2632 18.3818 32.2646 18.3871 32.266L18.3872 32.2661C18.3926 32.2675 18.3979 32.2689 18.4032 32.2703L18.4034 32.2704L18.4113 32.2725H18.4114C18.4167 32.2739 18.422 32.2753 18.4273 32.2766L18.4276 32.2767C18.4329 32.2781 18.4382 32.2795 18.4435 32.2808L18.4438 32.2809C18.4491 32.2823 18.4545 32.2837 18.4598 32.285H18.4598C18.4732 32.2884 18.4868 32.2918 18.5002 32.2952L18.5004 32.2953C18.5058 32.2966 18.511 32.2979 18.5164 32.2993L18.5166 32.2993C18.522 32.3007 18.5273 32.3019 18.5327 32.3033H18.5328C18.5463 32.3066 18.5598 32.3099 18.5734 32.3131H18.5735C18.5788 32.3144 18.5841 32.3157 18.5896 32.317L18.5898 32.317L18.5977 32.3189H18.5979C18.6033 32.3202 18.6086 32.3215 18.614 32.3227L18.6142 32.3228C18.6195 32.324 18.6247 32.3253 18.6301 32.3265L18.6307 32.3267C18.636 32.3279 18.6412 32.3291 18.6464 32.3303L18.647 32.3304C18.6524 32.3317 18.6577 32.3328 18.6631 32.3341H18.6632C18.6713 32.3359 18.6794 32.3377 18.6874 32.3395L18.6878 32.3396L18.7038 32.3432L18.7042 32.3433C18.7095 32.3445 18.7149 32.3457 18.7202 32.3468L18.7206 32.3469C18.726 32.3481 18.7314 32.3492 18.7367 32.3504H18.7368L18.7448 32.3522L18.7451 32.3522C18.7505 32.3533 18.7558 32.3545 18.7612 32.3556L18.7617 32.3557C18.7669 32.3569 18.7723 32.358 18.7777 32.3591L18.7782 32.3592C18.7835 32.3603 18.7889 32.3615 18.7942 32.3626L18.7946 32.3626C18.8027 32.3643 18.8109 32.366 18.819 32.3677H18.8191C18.8246 32.3688 18.8299 32.3699 18.8355 32.371L18.8357 32.371C18.8412 32.3721 18.8465 32.3732 18.8521 32.3743H18.8521C18.8604 32.3759 18.8686 32.3776 18.8768 32.3792H18.8769L18.8932 32.3824L18.8936 32.3825C18.8989 32.3835 18.9044 32.3845 18.9097 32.3856L18.9101 32.3857C18.9155 32.3867 18.921 32.3878 18.9264 32.3888L18.9267 32.3888C18.9348 32.3903 18.943 32.3919 18.9511 32.3934L18.9515 32.3935C18.9568 32.3945 18.9621 32.3955 18.9675 32.3965L18.9682 32.3966C18.9736 32.3976 18.9789 32.3986 18.9842 32.3995L18.9849 32.3997L18.9928 32.4011H18.9929L19.001 32.4026L19.0014 32.4027L19.0091 32.4041L19.0096 32.4042C19.0149 32.4051 19.0204 32.4061 19.0256 32.407L19.0263 32.4071C19.0316 32.4081 19.037 32.409 19.0423 32.4099L19.0431 32.41C19.0484 32.411 19.0537 32.4119 19.0589 32.4128L19.0598 32.4129L19.0675 32.4142L19.0677 32.4143L19.0759 32.4156L19.0761 32.4157L19.084 32.417L19.0846 32.4171C19.0898 32.418 19.0952 32.4189 19.1006 32.4198L19.1015 32.42C19.1068 32.4208 19.112 32.4217 19.1174 32.4226L19.1182 32.4227L19.126 32.424L19.1261 32.4241L19.1342 32.4253L19.1348 32.4254L19.1425 32.4267L19.143 32.4268L19.1512 32.4281H19.1513L19.159 32.4293L19.16 32.4295C19.1652 32.4303 19.1706 32.4311 19.1759 32.4319L19.1768 32.4321C19.1821 32.4329 19.1874 32.4337 19.1927 32.4346L19.1936 32.4347L19.2013 32.4359H19.2015L19.2097 32.4371L19.2101 32.4372L19.2178 32.4383L19.2185 32.4384L19.2266 32.4396H19.2268L19.2344 32.4407L19.2356 32.4409C19.2408 32.4417 19.246 32.4424 19.2512 32.4432L19.2526 32.4434L19.26 32.4445L19.2604 32.4445L19.2683 32.4457L19.2694 32.4458L19.2764 32.4468L19.2775 32.4469L19.2854 32.4481L19.2859 32.4481L19.2933 32.4492L19.2944 32.4493C19.2997 32.4501 19.305 32.4508 19.3102 32.4515L19.3113 32.4516C19.3166 32.4524 19.3218 32.4531 19.3271 32.4538L19.3283 32.4539L19.3357 32.4549L19.3362 32.455L19.3442 32.4561L19.345 32.4562L19.3524 32.4571L19.3532 32.4572L19.3613 32.4583H19.3614L19.3691 32.4593L19.3703 32.4595C19.3756 32.4602 19.3808 32.4608 19.3861 32.4615L19.3873 32.4616L19.395 32.4626H19.3951L19.4032 32.4636L19.4042 32.4638L19.4114 32.4647L19.4124 32.4648L19.4204 32.4658L19.4211 32.4659L19.4282 32.4667L19.4297 32.4669C19.4349 32.4675 19.4401 32.4682 19.4453 32.4688L19.4467 32.4689C19.4519 32.4696 19.4571 32.4702 19.4623 32.4708L19.464 32.471L19.4709 32.4717L19.4716 32.4718L19.4796 32.4727L19.4807 32.4729L19.4877 32.4737L19.4888 32.4738L19.4968 32.4747L19.4973 32.4748L19.5046 32.4756L19.506 32.4757C19.5113 32.4763 19.5164 32.4768 19.5216 32.4774L19.5233 32.4776L19.5302 32.4784L19.5311 32.4785L19.5387 32.4793L19.5403 32.4795L19.5472 32.4802L19.5483 32.4803L19.5561 32.4812L19.5571 32.4813L19.5641 32.4819L19.5654 32.4821C19.5707 32.4826 19.576 32.4832 19.5812 32.4837L19.5826 32.4839C19.5879 32.4844 19.5931 32.4849 19.5983 32.4855L19.5997 32.4856L19.607 32.4864L19.6076 32.4864L19.6156 32.4872L19.6167 32.4873L19.6237 32.488L19.6249 32.4881L19.6328 32.4888L19.6336 32.4889L19.6408 32.4896L19.6421 32.4898C19.6474 32.4903 19.6526 32.4907 19.6578 32.4912L19.6595 32.4914L19.6667 32.492L19.6673 32.4921L19.6751 32.4927L19.6766 32.4929L19.6837 32.4935L19.6845 32.4936L19.6926 32.4943L19.6935 32.4944L19.7005 32.495L19.702 32.4951L19.7099 32.4958H19.71L19.7176 32.4965L19.7193 32.4966C19.7244 32.4971 19.7297 32.4974 19.7349 32.4979L19.7367 32.498L19.7436 32.4986L19.7444 32.4986L19.7523 32.4993L19.7537 32.4994L19.7604 32.4999L19.7618 32.5L19.7696 32.5006L19.7707 32.5007L19.7776 32.5012L19.779 32.5013L19.787 32.5019L19.7874 32.5019L19.7947 32.5025L19.7966 32.5026L19.8035 32.5031L19.8044 32.5031L19.8121 32.5037L19.8139 32.5038L19.8204 32.5043L19.8218 32.5044L19.8295 32.5049L19.831 32.505L19.8374 32.5055L19.8394 32.5056L19.847 32.5061L19.8479 32.5062L19.8549 32.5066L19.8567 32.5067C19.8619 32.5071 19.8669 32.5074 19.8722 32.5077L19.874 32.5078L19.881 32.5082L19.8818 32.5083L19.8896 32.5088L19.8913 32.5089L19.8979 32.5093L19.8994 32.5094L19.9071 32.5098L19.9086 32.5099L19.9151 32.5103L19.9169 32.5104L19.9247 32.5109H19.9251L19.9325 32.5113L19.9342 32.5114L19.9415 32.5118L19.9421 32.5118L19.9499 32.5122L19.9516 32.5123L19.9584 32.5127L19.9596 32.5127L19.9674 32.5131L19.9688 32.5131L19.9755 32.5135L19.9771 32.5136L19.9849 32.514L19.9859 32.514L19.9928 32.5144L19.9947 32.5145L20.0024 32.5148H20.0027L20.0101 32.5152L20.0122 32.5153L20.0191 32.5156L20.0199 32.5156L20.0276 32.516L20.0296 32.5161L20.0359 32.5163L20.0376 32.5164L20.0452 32.5167L20.0469 32.5167L20.0532 32.517L20.0551 32.5171L20.0628 32.5174L20.0639 32.5174L20.0706 32.5177L20.0727 32.5178L20.0795 32.518L20.0805 32.5181L20.088 32.5183L20.0902 32.5184L20.0963 32.5186L20.0981 32.5186L20.1055 32.5189L20.1077 32.5189L20.1136 32.5191L20.1156 32.5192L20.1232 32.5194L20.1248 32.5195L20.1311 32.5197L20.1332 32.5197L20.1409 32.5199H20.1415L20.1486 32.5201L20.1508 32.5202L20.1578 32.5204H20.1584L20.1663 32.5206L20.1681 32.5206L20.1747 32.5208L20.1761 32.5208L20.1838 32.521L20.1857 32.5211L20.1919 32.5212L20.1938 32.5213L20.2015 32.5214H20.2027L20.2094 32.5216L20.2114 32.5216L20.2186 32.5218H20.2193L20.2269 32.5219L20.2291 32.522L20.2355 32.5221H20.237L20.2447 32.5222L20.2465 32.5222L20.2528 32.5223H20.2547L20.2624 32.5224H20.2636L20.2703 32.5225H20.2723L20.28 32.5226H20.2808L20.2878 32.5227H20.2901L20.2968 32.5227H20.2979L20.3055 32.5228H20.3075L20.3141 32.5228H20.3155L20.3232 32.5229H20.3252H20.3312H20.3332H20.3409H20.3424H20.3489H20.351H20.3587L20.3605 32.5225Z" fill="#FFB800"/>
<path d="M20.3606 30.4094C23.326 30.4094 25.7299 28.0444 25.7299 25.1271C25.7299 22.2097 23.326 19.8447 20.3606 19.8447C17.3951 19.8447 14.9912 22.2097 14.9912 25.1271C14.9912 28.0444 17.3951 30.4094 20.3606 30.4094Z" fill="#FFE152"/>
<path d="M14.9913 26.2151C14.3977 26.2151 13.9175 25.773 13.9175 25.1896V25.1277C13.9214 21.6286 16.8037 18.7929 20.3605 18.7891C21.8122 18.7839 23.2223 19.2659 24.358 20.1556C24.8231 20.518 24.9015 21.1826 24.5331 21.6401C24.1648 22.0977 23.4892 22.1748 23.0241 21.8124C22.2676 21.2194 21.3278 20.8982 20.3605 20.902C17.9893 20.9045 16.0677 22.795 16.0652 25.1277C16.0652 25.7111 15.5849 26.2151 14.9913 26.2151Z" fill="#FFEE9D"/>
<path d="M21.971 24.0712H18.7495C18.453 24.0712 18.2126 23.8346 18.2126 23.5429C18.2126 23.2512 18.453 23.0147 18.7495 23.0147H22.5079C23.101 23.0143 23.5815 22.5411 23.5811 21.9576C23.5808 21.3747 23.1005 20.9022 22.5079 20.9019H18.7495C17.2669 20.9019 16.0649 22.0843 16.0649 23.5429C16.0649 25.0015 17.2669 26.184 18.7495 26.184H21.971C22.2675 26.184 22.5079 26.4205 22.5079 26.7122C22.5079 27.004 22.2675 27.2405 21.971 27.2405H18.2126C17.6195 27.2405 17.1388 27.7134 17.1388 28.2969C17.1388 28.8803 17.6195 29.3533 18.2126 29.3533H21.971C23.4537 29.3533 24.6556 28.1708 24.6556 26.7122C24.6556 25.2536 23.4537 24.0712 21.971 24.0712Z" fill="#FFF7D2"/>
<path d="M2.59739 35.6929H39.4842C39.8686 35.6929 40.1803 36.0045 40.1803 36.3889V39.8687H1.90137V36.3889C1.90137 36.0045 2.21304 35.6929 2.59739 35.6929V35.6929Z" fill="#005EEE"/>
<path d="M40.1802 12.0293H1.2053C0.820949 12.0293 0.509278 11.7176 0.509278 11.3333V7.67023C0.50897 7.36595 0.706382 7.09678 0.996495 7.00562L20.074 1.08571C20.4772 0.960363 20.9083 0.960363 21.3115 1.08571L40.389 7.00562C40.6791 7.09678 40.8766 7.36595 40.8763 7.67023V11.3333C40.8763 11.7176 40.5646 12.0293 40.1802 12.0293Z" fill="#079CFF"/>
<path d="M3.98926 8.76229L20.4841 3.87249C20.6184 3.83091 20.7619 3.83091 20.8962 3.87249L37.7104 8.76229H3.98926Z" fill="#0784FF"/>
<path d="M1.2053 38.4766H40.1802C40.5646 38.4766 40.8763 38.7882 40.8763 39.1726V40.5646C40.8763 40.949 40.5646 41.2607 40.1802 41.2607H1.2053C0.820949 41.2607 0.509277 40.949 0.509277 40.5646V39.1726C0.509277 38.7882 0.820949 38.4766 1.2053 38.4766Z" fill="#079CFF"/>
<path opacity="0.24" d="M29.8327 8.76221H37.4882C37.9923 8.76221 38.401 9.17089 38.401 9.67499C38.401 10.1791 37.9923 10.5878 37.4882 10.5878H29.8327C29.3286 10.5878 28.9199 10.1791 28.9199 9.67499C28.9199 9.17089 29.3285 8.76221 29.8327 8.76221Z" fill="white"/>
</svg>


