<svg width="37" height="41" viewBox="0 0 37 41" fill="none" xmlns="http://www.w3.org/2000/svg">
<path d="M1.40918 18.9602V1.367C1.40918 0.850117 1.82112 0.431152 2.32925 0.431152C2.57331 0.431152 2.80722 0.529783 2.97975 0.705285L10.842 8.70307L1.40918 18.9602Z" fill="#E67332"/>
<path d="M35.2374 18.9602V1.367C35.2374 0.850117 34.8255 0.431152 34.3174 0.431152C34.0734 0.431152 33.8394 0.529783 33.6669 0.705285L25.8047 8.70307L35.2374 18.9602Z" fill="#E67332"/>
<path d="M36.5384 22.2691C36.5384 32.5025 28.3833 40.7982 18.3234 40.7982C8.26352 40.7982 0.108398 32.5024 0.108398 22.2691C0.108398 12.0358 6.82642 5.06348 18.3234 5.06348C29.8204 5.06348 36.5384 12.0357 36.5384 22.2691Z" fill="#FF914B"/>
<path d="M22.4401 27.6574C20.7352 27.2853 19.1676 28.0473 18.3234 29.3405C17.4791 28.0473 15.9116 27.2853 14.2067 27.6574C12.7431 27.9768 11.5634 29.1834 11.2562 30.6737C10.7268 33.2421 12.639 35.504 15.0707 35.504C16.1574 35.504 17.1396 35.0518 17.847 34.3227C18.1146 34.0469 18.5321 34.0469 18.7997 34.3227C19.507 35.0517 20.4893 35.504 21.5761 35.504C24.0077 35.504 25.92 33.2421 25.3906 30.6738C25.0833 29.1835 23.9036 27.9768 22.4401 27.6574Z" fill="white"/>
<path d="M15.7079 28.4709L17.529 31.0645C17.9182 31.6188 18.728 31.6188 19.1171 31.0645L20.9383 28.4709C21.3996 27.814 20.938 26.9014 20.1442 26.9014H16.5019C15.7083 26.9014 15.2466 27.8139 15.7079 28.4709Z" fill="#E67332"/>
<path d="M22.2266 5.35742V11.0192C22.2266 11.7501 22.8091 12.3427 23.5276 12.3427C24.2462 12.3427 24.8287 11.7501 24.8287 11.0192V5.93131C24.0003 5.69187 23.1334 5.49871 22.2266 5.35742Z" fill="#E67332"/>
<path d="M18.3235 5.06348C17.8819 5.06348 17.4499 5.07727 17.0225 5.09762V14.328C17.0225 15.059 17.605 15.6515 18.3235 15.6515C19.0421 15.6515 19.6246 15.059 19.6246 14.328V5.09762C19.1972 5.07727 18.7651 5.06348 18.3235 5.06348Z" fill="#E67332"/>
<path d="M11.8179 5.93131V11.0192C11.8179 11.7501 12.4004 12.3427 13.119 12.3427C13.8375 12.3427 14.42 11.7501 14.42 11.0192V5.35742C13.5131 5.49871 12.6462 5.69187 11.8179 5.93131Z" fill="#E67332"/>
<path d="M6.61389 30.8717C8.05102 30.8717 9.21605 29.6866 9.21605 28.2247C9.21605 26.7628 8.05102 25.5776 6.61389 25.5776C5.17675 25.5776 4.01172 26.7628 4.01172 28.2247C4.01172 29.6866 5.17675 30.8717 6.61389 30.8717Z" fill="#E67332"/>
<path d="M30.0328 30.8717C31.47 30.8717 32.635 29.6866 32.635 28.2247C32.635 26.7628 31.47 25.5776 30.0328 25.5776C28.5957 25.5776 27.4307 26.7628 27.4307 28.2247C27.4307 29.6866 28.5957 30.8717 30.0328 30.8717Z" fill="#E67332"/>
<path d="M25.4791 24.2545C26.9163 24.2545 28.0813 23.0694 28.0813 21.6075C28.0813 20.1456 26.9163 18.9604 25.4791 18.9604C24.042 18.9604 22.877 20.1456 22.877 21.6075C22.877 23.0694 24.042 24.2545 25.4791 24.2545Z" fill="#464655"/>
<path d="M11.1676 24.2545C12.6047 24.2545 13.7698 23.0694 13.7698 21.6075C13.7698 20.1456 12.6047 18.9604 11.1676 18.9604C9.73046 18.9604 8.56543 20.1456 8.56543 21.6075C8.56543 23.0694 9.73046 24.2545 11.1676 24.2545Z" fill="#464655"/>
</svg>







