<svg width="41" height="41" viewBox="0 0 41 41" fill="none" xmlns="http://www.w3.org/2000/svg">
<path d="M5.98603 29.5435H38.8454V36.8455C38.8454 38.8619 37.2107 40.4966 35.1943 40.4966H5.98603C3.96963 40.4966 2.33496 38.8619 2.33496 36.8455V33.1944C2.33496 31.178 3.96963 29.5435 5.98603 29.5435Z" fill="#106F4B"/>
<path d="M29.7176 29.5435H37.0197C38.0279 29.5435 38.8452 30.3607 38.8452 31.3689V31.369C38.8452 32.3772 38.0279 33.1945 37.0197 33.1945H29.7176C28.7094 33.1945 27.8921 32.3772 27.8921 31.369V31.3689C27.8921 30.3607 28.7095 29.5435 29.7176 29.5435Z" fill="#004E3F"/>
<path d="M27.8922 36.8455V29.5435H2.42284C2.37432 29.5435 2.33496 29.5827 2.33496 29.6313V29.6313V36.8455C2.33496 38.8619 3.96963 40.4965 5.98603 40.4966H31.5433C29.5267 40.4965 27.8922 38.8619 27.8922 36.8455Z" fill="#00AB6F"/>
<path d="M6.89863 38.6704H25.154C25.6581 38.6704 26.0668 39.0791 26.0668 39.5832C26.0668 40.0873 25.6581 40.496 25.154 40.496H6.89863C6.39453 40.496 5.98584 40.0873 5.98584 39.5832C5.98584 39.0791 6.39444 38.6704 6.89863 38.6704Z" fill="#239567"/>
<path d="M4.16045 29.5435H26.067C27.0752 29.5435 27.8925 30.3607 27.8925 31.3689V31.369C27.8925 32.3772 27.0752 33.1945 26.067 33.1945H4.16045C3.15225 33.1945 2.33496 32.3772 2.33496 31.369V31.3689C2.33496 30.3607 3.15225 29.5435 4.16045 29.5435Z" fill="#118E68"/>
<path d="M35.1943 0.334961H5.98603C3.96963 0.334961 2.33496 1.96963 2.33496 3.98603V25.8922C2.33496 27.9086 3.96954 29.5433 5.98603 29.5433H38.8454V3.98603C38.8454 1.96963 37.2107 0.334961 35.1943 0.334961Z" fill="#106F4B"/>
<path d="M16.0266 0.334961H21.5028C22.0069 0.334961 22.4156 0.743649 22.4156 1.24775C22.4156 1.75185 22.0069 2.16054 21.5028 2.16054H16.0266C15.5225 2.16054 15.1138 1.75185 15.1138 1.24775C15.1139 0.743649 15.5225 0.334961 16.0266 0.334961Z" fill="#1D8665"/>
<path d="M13.2881 0.334961H5.98603C3.96963 0.334961 2.33496 1.96954 2.33496 3.98594V3.98603V31.3688H13.2881V3.98603C13.2881 1.96963 14.9227 0.335047 16.9391 0.334961C16.9391 0.334961 16.9391 0.334961 16.9391 0.334961L13.2881 0.334961Z" fill="#00AB6F"/>
<path d="M27.8921 0.334961H20.59C18.5736 0.334961 16.9391 1.96954 16.939 3.98594V3.98603V31.3688H27.8921V3.98603C27.8921 1.96963 29.5267 0.335047 31.5431 0.334961H31.5431L27.8921 0.334961Z" fill="#00AB6F"/>
<path d="M5.98633 3.98584H9.63739V9.4624H5.98633V3.98584Z" fill="#E5E2F5"/>
<path d="M5.98633 11.2876H9.63739V16.7642H5.98633V11.2876Z" fill="#E5E2F5"/>
<path d="M5.98633 18.5898H9.63739V24.0664H5.98633V18.5898Z" fill="#E5E2F5"/>
<path d="M20.5903 3.98584H24.2414V9.4624H20.5903V3.98584H20.5903Z" fill="#E5E2F5"/>
<path d="M20.5903 11.2876H24.2414V16.7642H20.5903V11.2876H20.5903Z" fill="#E5E2F5"/>
<path d="M20.5903 18.5898H24.2414V24.0664H20.5903V18.5898H20.5903Z" fill="#E5E2F5"/>
<path d="M31.5435 3.98584H35.1945V9.4624H31.5435V3.98584H31.5435Z" fill="#D3CEEE"/>
<path d="M31.5435 11.2876H35.1945V16.7642H31.5435V11.2876H31.5435Z" fill="#D3CEEE"/>
<path d="M31.5435 18.5898H35.1945V24.0664H31.5435V18.5898H31.5435Z" fill="#D3CEEE"/>
<path d="M9.63721 35.02H20.5903V40.4966H9.63721L9.63721 35.02Z" fill="#E5E2F5"/>
<path d="M2.33526 27.7173H38.8453C39.8535 27.7173 40.6708 28.5346 40.6708 29.5428V29.5429C40.6708 30.5511 39.8535 31.3684 38.8453 31.3684H2.33526C1.32706 31.3684 0.509766 30.5511 0.509766 29.5429V29.5428C0.509766 28.5346 1.32706 27.7173 2.33526 27.7173Z" fill="#268860"/>
<path d="M2.33526 27.7173H27.8922C28.9004 27.7173 29.7177 28.5346 29.7177 29.5428V29.5429C29.7177 30.5511 28.9004 31.3684 27.8922 31.3684H2.33526C1.32706 31.3684 0.509766 30.5511 0.509766 29.5429V29.5428C0.509766 28.5346 1.32706 27.7173 2.33526 27.7173Z" fill="#5DD49B"/>
<path d="M6.89863 3.98584C7.40273 3.98584 7.81133 4.39453 7.81133 4.89863V8.54961C7.81133 9.05371 7.40264 9.4624 6.89863 9.4624C6.39453 9.4624 5.98584 9.05371 5.98584 8.54961V4.89863C5.98593 4.39453 6.39453 3.98584 6.89863 3.98584Z" fill="#D2CDEE"/>
<path d="M10.5495 3.98584C11.0536 3.98584 11.4622 4.39453 11.4622 4.89863V8.54961C11.4622 9.05371 11.0535 9.4624 10.5495 9.4624C10.0454 9.4624 9.63672 9.05371 9.63672 8.54961V4.89863C9.6368 4.39453 10.0454 3.98584 10.5495 3.98584Z" fill="#6ACEAB"/>
<path d="M10.5495 11.2876C11.0536 11.2876 11.4622 11.6963 11.4622 12.2004V15.8514C11.4622 16.3555 11.0535 16.7642 10.5495 16.7642C10.0454 16.7642 9.63672 16.3555 9.63672 15.8514V12.2004C9.6368 11.6963 10.0454 11.2876 10.5495 11.2876Z" fill="#6ACEAB"/>
<path d="M10.5495 18.5903C11.0536 18.5903 11.4622 18.999 11.4622 19.5031V23.1541C11.4622 23.6582 11.0535 24.0669 10.5495 24.0669C10.0454 24.0669 9.63672 23.6582 9.63672 23.1541V19.5031C9.6368 18.999 10.0454 18.5903 10.5495 18.5903Z" fill="#6ACEAB"/>
<path d="M25.154 3.98584C25.6581 3.98584 26.0668 4.39453 26.0668 4.89863V8.54961C26.0668 9.05371 25.6581 9.4624 25.154 9.4624C24.6499 9.4624 24.2412 9.05371 24.2412 8.54961V4.89863C24.2413 4.39453 24.6499 3.98584 25.154 3.98584Z" fill="#6ACEAB"/>
<path d="M25.154 11.2876C25.6581 11.2876 26.0668 11.6963 26.0668 12.2004V15.8514C26.0668 16.3555 25.6581 16.7642 25.154 16.7642C24.6499 16.7642 24.2412 16.3555 24.2412 15.8514V12.2004C24.2413 11.6963 24.6499 11.2876 25.154 11.2876Z" fill="#6ACEAB"/>
<path d="M25.154 18.5903C25.6581 18.5903 26.0668 18.999 26.0668 19.5031V23.1541C26.0668 23.6582 25.6581 24.0669 25.154 24.0669C24.6499 24.0669 24.2412 23.6582 24.2412 23.1541V19.5031C24.2413 18.999 24.6499 18.5903 25.154 18.5903Z" fill="#6ACEAB"/>
<path d="M36.1076 3.98584C36.6117 3.98584 37.0204 4.39453 37.0204 4.89863V8.54961C37.0204 9.05371 36.6117 9.4624 36.1076 9.4624C35.6035 9.4624 35.1948 9.05371 35.1948 8.54961V4.89863C35.1949 4.39453 35.6035 3.98584 36.1076 3.98584Z" fill="#1D8665"/>
<path d="M36.1076 11.2876C36.6117 11.2876 37.0204 11.6963 37.0204 12.2004V15.8514C37.0204 16.3555 36.6117 16.7642 36.1076 16.7642C35.6035 16.7642 35.1948 16.3555 35.1948 15.8514V12.2004C35.1949 11.6963 35.6035 11.2876 36.1076 11.2876Z" fill="#1D8665"/>
<path d="M36.1076 18.5903C36.6117 18.5903 37.0204 18.999 37.0204 19.5031V23.1541C37.0204 23.6582 36.6117 24.0669 36.1076 24.0669C35.6035 24.0669 35.1948 23.6582 35.1948 23.1541V19.5031C35.1949 18.999 35.6035 18.5903 36.1076 18.5903Z" fill="#1D8665"/>
<path d="M21.5031 3.98584C22.0072 3.98584 22.4159 4.39453 22.4159 4.89863V8.54961C22.4159 9.05371 22.0072 9.4624 21.5031 9.4624C20.999 9.4624 20.5903 9.05371 20.5903 8.54961V4.89863C20.5904 4.39453 20.999 3.98584 21.5031 3.98584Z" fill="#D2CDEE"/>
<path d="M6.89863 11.2876C7.40273 11.2876 7.81133 11.6963 7.81133 12.2004V15.8514C7.81133 16.3555 7.40264 16.7642 6.89863 16.7642C6.39453 16.7642 5.98584 16.3555 5.98584 15.8514V12.2004C5.98593 11.6963 6.39453 11.2876 6.89863 11.2876Z" fill="#D2CDEE"/>
<path d="M21.5031 11.2876C22.0072 11.2876 22.4159 11.6963 22.4159 12.2004V15.8514C22.4159 16.3555 22.0072 16.7642 21.5031 16.7642C20.999 16.7642 20.5903 16.3555 20.5903 15.8514V12.2004C20.5904 11.6963 20.999 11.2876 21.5031 11.2876Z" fill="#D2CDEE"/>
<path d="M6.89863 18.5903C7.40273 18.5903 7.81133 18.999 7.81133 19.5031V23.1541C7.81133 23.6582 7.40264 24.0669 6.89863 24.0669C6.39453 24.0669 5.98584 23.6582 5.98584 23.1541V19.5031C5.98593 18.999 6.39453 18.5903 6.89863 18.5903Z" fill="#D2CDEE"/>
<path d="M21.5031 18.5903C22.0072 18.5903 22.4159 18.999 22.4159 19.5031V23.1541C22.4159 23.6582 22.0072 24.0669 21.5031 24.0669C20.999 24.0669 20.5903 23.6582 20.5903 23.1541V19.5031C20.5904 18.999 20.999 18.5903 21.5031 18.5903Z" fill="#D2CDEE"/>
<path d="M32.4558 3.98584C32.9599 3.98584 33.3685 4.39453 33.3685 4.89863V8.54961C33.3685 9.05371 32.9599 9.4624 32.4558 9.4624C31.9517 9.4624 31.543 9.05371 31.543 8.54961V4.89863C31.5431 4.39453 31.9517 3.98584 32.4558 3.98584Z" fill="#BAB2E5"/>
<path d="M32.4558 11.2876C32.9599 11.2876 33.3685 11.6963 33.3685 12.2004V15.8514C33.3685 16.3555 32.9599 16.7642 32.4558 16.7642C31.9517 16.7642 31.543 16.3555 31.543 15.8514V12.2004C31.5431 11.6963 31.9517 11.2876 32.4558 11.2876Z" fill="#BAB2E5"/>
<path d="M32.4558 18.5903C32.9599 18.5903 33.3685 18.999 33.3685 19.5031V23.1541C33.3685 23.6582 32.9599 24.0669 32.4558 24.0669C31.9517 24.0669 31.543 23.6582 31.543 23.1541V19.5031C31.5431 18.999 31.9517 18.5903 32.4558 18.5903Z" fill="#BAB2E5"/>
<path d="M21.5031 35.02C22.0072 35.02 22.4159 35.4287 22.4159 35.9328V39.5838C22.4159 40.0879 22.0072 40.4966 21.5031 40.4966C20.999 40.4966 20.5903 40.0879 20.5903 39.5838V35.9328C20.5904 35.4287 20.999 35.02 21.5031 35.02Z" fill="#6ACEAB"/>
<path d="M3.24775 27.7173H26.9797C27.4838 27.7173 27.8925 28.126 27.8925 28.6301C27.8925 29.1342 27.4838 29.5429 26.9797 29.5429H3.24775C2.74365 29.5429 2.33496 29.1342 2.33496 28.6301C2.33496 28.126 2.74356 27.7173 3.24775 27.7173Z" fill="#83DEB2"/>
<path d="M30.631 27.7173H37.9334C38.4375 27.7173 38.8461 28.126 38.8461 28.6301C38.8461 29.1342 38.4375 29.5429 37.9334 29.5429H30.631C30.1269 29.5429 29.7183 29.1342 29.7183 28.6301C29.7183 28.126 30.1269 27.7173 30.631 27.7173Z" fill="#3BA275"/>
<path d="M3.24775 25.8921H12.3753C12.8794 25.8921 13.2881 26.3008 13.2881 26.8049C13.2881 27.309 12.8794 27.7177 12.3753 27.7177H3.24775C2.74365 27.7177 2.33496 27.309 2.33496 26.8049C2.33496 26.3008 2.74356 25.8921 3.24775 25.8921Z" fill="#118E68"/>
<path d="M17.8518 25.8921H26.9793C27.4834 25.8921 27.8921 26.3008 27.8921 26.8049C27.8921 27.309 27.4834 27.7177 26.9793 27.7177H17.8518C17.3477 27.7177 16.939 27.309 16.939 26.8049C16.939 26.3008 17.3476 25.8921 17.8518 25.8921Z" fill="#118E68"/>
<path d="M28.8049 25.8921H37.9324C38.4365 25.8921 38.8452 26.3008 38.8452 26.8049C38.8452 27.309 38.4365 27.7177 37.9324 27.7177H28.8049C28.3008 27.7177 27.8921 27.309 27.8921 26.8049C27.8921 26.3008 28.3008 25.8921 28.8049 25.8921Z" fill="#004E3F"/>
<path d="M14.2014 25.8921H16.0269C16.531 25.8921 16.9396 26.3008 16.9396 26.8049C16.9396 27.309 16.531 27.7177 16.0269 27.7177H14.2014C13.6973 27.7177 13.2886 27.309 13.2886 26.8049C13.2886 26.3008 13.6972 25.8921 14.2014 25.8921Z" fill="#004E3F"/>
<path d="M10.55 38.6704H19.6775C20.1816 38.6704 20.5903 39.0791 20.5903 39.5832C20.5903 40.0873 20.1816 40.496 19.6775 40.496H10.55C10.0459 40.496 9.63721 40.0873 9.63721 39.5832C9.63721 39.0791 10.0458 38.6704 10.55 38.6704Z" fill="#D2CDEE"/>
<path d="M10.5495 35.02C11.0536 35.02 11.4622 35.4287 11.4622 35.9328V39.5838C11.4622 40.0879 11.0535 40.4966 10.5495 40.4966C10.0454 40.4966 9.63672 40.0879 9.63672 39.5838V35.9328C9.6368 35.4287 10.0454 35.02 10.5495 35.02Z" fill="#D2CDEE"/>
<path d="M5.07343 0.334961H12.3757C12.8798 0.334961 13.2885 0.743649 13.2885 1.24775C13.2885 1.75185 12.8798 2.16054 12.3757 2.16054H5.07343C4.56933 2.16054 4.16064 1.75185 4.16064 1.24775C4.16064 0.743649 4.56925 0.334961 5.07343 0.334961Z" fill="#6ACEAB"/>
<path d="M19.6774 0.334961H26.9797C27.4838 0.334961 27.8925 0.743649 27.8925 1.24775C27.8925 1.75185 27.4838 2.16054 26.9797 2.16054H19.6774C19.1733 2.16054 18.7646 1.75185 18.7646 1.24775C18.7646 0.743649 19.1733 0.334961 19.6774 0.334961Z" fill="#6ACEAB"/>
<path d="M30.631 0.334961H36.1073C36.6114 0.334961 37.0201 0.743649 37.0201 1.24775C37.0201 1.75185 36.6114 2.16054 36.1073 2.16054H30.631C30.1269 2.16054 29.7183 1.75185 29.7183 1.24775C29.7183 0.743649 30.1269 0.334961 30.631 0.334961Z" fill="#1D8665"/>
<path d="M3.24775 3.98584C3.75185 3.98584 4.16054 4.39453 4.16054 4.89863V23.154C4.16054 23.6581 3.75185 24.0668 3.24775 24.0668C2.74365 24.0668 2.33496 23.6581 2.33496 23.154V4.89863C2.33505 4.39453 2.74365 3.98584 3.24775 3.98584Z" fill="#118E68"/>
<path d="M17.8518 3.98584C18.3559 3.98584 18.7645 4.39453 18.7645 4.89863V23.154C18.7645 23.6581 18.3559 24.0668 17.8518 24.0668C17.3477 24.0668 16.939 23.6581 16.939 23.154V4.89863C16.9391 4.39453 17.3477 3.98584 17.8518 3.98584Z" fill="#118E68"/>
<path d="M28.8049 3.98584C29.309 3.98584 29.7177 4.39453 29.7177 4.89863V23.154C29.7177 23.6581 29.309 24.0668 28.8049 24.0668C28.3008 24.0668 27.8921 23.6581 27.8921 23.154V4.89863C27.8921 4.39453 28.3008 3.98584 28.8049 3.98584Z" fill="#004E3F"/>
<path d="M3.24775 33.1938C3.75185 33.1938 4.16054 33.6025 4.16054 34.1066V37.7576C4.16054 38.2617 3.75185 38.6704 3.24775 38.6704C2.74365 38.6704 2.33496 38.2617 2.33496 37.7576V34.1066C2.33505 33.6025 2.74365 33.1938 3.24775 33.1938Z" fill="#118E68"/>
<path d="M28.8049 33.1938C29.309 33.1938 29.7177 33.6025 29.7177 34.1066V37.7576C29.7177 38.2617 29.309 38.6704 28.8049 38.6704C28.3008 38.6704 27.8921 38.2617 27.8921 37.7576V34.1066C27.8921 33.6025 28.3008 33.1938 28.8049 33.1938Z" fill="#004E3F"/>
</svg>


