<svg width="41" height="29" viewBox="0 0 41 29" fill="none" xmlns="http://www.w3.org/2000/svg">
<path d="M3.98095 0.699707H36.9613C38.9851 0.699707 40.6258 2.35127 40.6258 4.38851V24.6767C40.6258 26.714 38.9851 28.3655 36.9613 28.3655H3.98095C1.95711 28.3655 0.316406 26.714 0.316406 24.6767V4.38851C0.316406 2.35127 1.95711 0.699707 3.98095 0.699707Z" fill="#FF3378"/>
<path opacity="0.12" d="M36.9618 2.54395H3.98116C2.96923 2.54395 2.14893 3.36968 2.14893 4.38831C2.14893 5.40693 2.96923 6.23267 3.98116 6.23267H14.9747C16.9986 6.23267 18.6393 7.88423 18.6393 9.92147V13.6103C18.6393 14.6289 19.4596 15.4546 20.4715 15.4546H36.9618C37.9738 15.4546 38.7941 14.6289 38.7941 13.6103V4.38831C38.7941 3.36968 37.9738 2.54395 36.9618 2.54395Z" fill="white"/>
<path opacity="0.12" d="M39.71 4.38818C39.2041 4.38818 38.7939 4.8011 38.7939 5.31041V24.6765C38.7927 25.6947 37.973 26.5197 36.9616 26.5209H4.89712C4.39115 26.5209 3.98096 26.9338 3.98096 27.4431C3.98096 27.9524 4.39115 28.3653 4.89712 28.3653H36.9616C38.9855 28.3653 40.6262 26.7137 40.6262 24.6765V5.31041C40.6262 4.8011 40.216 4.38818 39.71 4.38818Z" fill="black"/>
<path d="M6.53125 8.99512H14.1655C15.0087 8.99512 15.6923 9.69382 15.6923 10.5557V18.3587C15.6923 19.2206 15.0087 19.9193 14.1655 19.9193H6.53125C5.68798 19.9193 5.00439 19.2206 5.00439 18.3587V10.5557C5.00439 9.69382 5.68798 8.99512 6.53125 8.99512Z" fill="#FFFF79"/>
<path fill-rule="evenodd" clip-rule="evenodd" d="M11.1119 9.77546C11.1119 9.3445 10.7701 8.99512 10.3485 8.99512C9.92687 8.99512 9.58504 9.3445 9.58504 9.77546V10.5555H7.2945H5.76786C5.34623 10.5555 5.00439 10.9048 5.00439 11.3359C5.00439 11.7668 5.34623 12.1162 5.76786 12.1162H6.53104V13.6767H5.76786C5.34623 13.6767 5.00439 14.0261 5.00439 14.4571C5.00439 14.888 5.34623 15.2374 5.76786 15.2374H6.53104V16.7985H5.76786C5.34623 16.7985 5.00439 17.1479 5.00439 17.5789C5.00439 18.0098 5.34623 18.3592 5.76786 18.3592H9.58504V19.1395C9.58504 19.5705 9.92687 19.9198 10.3485 19.9198C10.7701 19.9198 11.1119 19.5705 11.1119 19.1395V18.3592H14.9289C15.3505 18.3592 15.6923 18.0098 15.6923 17.5789C15.6923 17.1479 15.3505 16.7985 14.9289 16.7985H14.1659V15.2382H14.9287C15.3503 15.2382 15.6921 14.8888 15.6921 14.4579C15.6921 14.0269 15.3503 13.6775 14.9287 13.6775H14.1659V12.1162H14.9289C15.3505 12.1162 15.6923 11.7668 15.6923 11.3359C15.6923 10.9049 15.3505 10.5555 14.9289 10.5555H13.4025H11.1119V9.77546ZM12.639 16.7985V14.4902C12.6385 14.4794 12.6383 14.4686 12.6383 14.4578C12.6383 14.447 12.6385 14.4362 12.639 14.4255V12.1162H10.3668L10.3485 12.1164L10.3302 12.1162H8.0579V14.4355L8.05818 14.4571L8.0579 14.4786V16.7985H10.3485H12.639Z" fill="#FFD91E"/>
</svg>


