<svg width="41" height="41" viewBox="0 0 41 41" fill="none" xmlns="http://www.w3.org/2000/svg">
<path d="M37.6572 33.0093L16.9304 14.7957C18.3321 12.3947 17.9419 9.35092 15.98 7.38117L9.29882 0.700108C8.81185 0.21397 8.02301 0.21463 7.53687 0.701595C7.05131 1.18798 7.05131 1.97575 7.53687 2.46213L12.093 7.01826C12.5796 7.50481 12.5796 8.29357 12.093 8.78012V8.7802C11.6064 9.26675 10.8176 9.26675 10.3311 8.7802L4.01291 2.46213C3.52635 1.97558 2.73751 1.97558 2.25096 2.46213C1.76441 2.94869 1.76441 3.73753 2.25096 4.22408L8.56903 10.5421C9.05558 11.0287 9.05558 11.8175 8.56903 12.304V12.3041C8.08248 12.7906 7.29364 12.7906 6.80709 12.3041L2.25088 7.74805C1.76433 7.26149 0.975489 7.26149 0.488937 7.74805C0.00238553 8.2346 0.00238553 9.02344 0.488937 9.50999L7.1738 16.1949C9.13471 18.1477 12.1619 18.5422 14.5577 17.1571L32.7767 37.8899C34.0207 39.3413 36.2058 39.5094 37.6572 38.2654C39.1086 37.0213 39.2768 34.8362 38.0327 33.3848C37.9173 33.2502 37.7918 33.1247 37.6572 33.0093Z" fill="#D1CCED"/>
<path d="M16.441 8.70264C15.9542 8.70321 15.5601 9.09834 15.5607 9.58514C15.5609 9.70713 15.5863 9.82771 15.6354 9.93929C16.1483 11.1088 16.1257 12.4439 15.5733 13.5953C15.3639 14.0345 15.55 14.5603 15.9892 14.7698C16.4283 14.9792 16.9542 14.7931 17.1636 14.3539C17.1638 14.3536 17.164 14.3533 17.1641 14.3529C17.4321 13.7902 17.6134 13.1902 17.702 12.5732C17.7035 12.5631 17.7049 12.5529 17.7063 12.5429L17.7064 12.5424C17.7078 12.5324 17.7091 12.5223 17.7104 12.5123L17.7105 12.5118C17.7118 12.5018 17.7132 12.4917 17.7145 12.4817L17.7145 12.4812C17.7159 12.4712 17.7171 12.4612 17.7183 12.4512L17.7184 12.4505L17.7208 12.4304L17.7209 12.4303C17.7213 12.4271 17.7216 12.424 17.722 12.4209L17.7221 12.4197C17.723 12.4131 17.7237 12.4066 17.7244 12.4L17.7245 12.3995C17.7249 12.3964 17.7252 12.3934 17.7255 12.3904L17.7257 12.3889C17.7264 12.3823 17.7272 12.3758 17.7279 12.3692V12.369C17.7283 12.3658 17.7286 12.3628 17.7289 12.3596L17.7291 12.3583L17.7311 12.3385L17.7312 12.3381L17.7322 12.3289L17.7324 12.3275C17.7326 12.3244 17.733 12.3213 17.7333 12.3183L17.7334 12.3178L17.7344 12.3078L17.7344 12.3073L17.7354 12.2982L17.7355 12.2966L17.7364 12.2872V12.2871L17.7374 12.2769V12.2767C17.7377 12.2737 17.738 12.2705 17.7383 12.2674L17.7385 12.2658C17.7387 12.2629 17.7391 12.26 17.7392 12.2571L17.7393 12.2562C17.7396 12.253 17.7399 12.2496 17.7402 12.2464L17.7403 12.2456C17.7406 12.2427 17.7408 12.2399 17.741 12.237L17.7413 12.2349C17.7415 12.2321 17.7418 12.2294 17.742 12.2266L17.742 12.2254L17.7429 12.2156L17.7429 12.215L17.7436 12.2062L17.7438 12.2042L17.7444 12.1962L17.7445 12.1946C17.7448 12.1913 17.7451 12.1882 17.7453 12.185L17.7453 12.1839L17.746 12.1756L17.7462 12.1733L17.7468 12.1652L17.7469 12.1638C17.7472 12.1606 17.7474 12.1574 17.7477 12.1542L17.7477 12.1532C17.748 12.1504 17.7482 12.1476 17.7483 12.1448L17.7486 12.1424C17.7487 12.1399 17.749 12.1373 17.7491 12.1348L17.7492 12.133L17.7499 12.1234L17.75 12.1226L17.7505 12.1141L17.7507 12.1118L17.7512 12.1041L17.7514 12.1023C17.7516 12.0992 17.7518 12.0959 17.752 12.0928L17.752 12.0918L17.7525 12.0835L17.7527 12.081L17.7532 12.0736L17.7533 12.0714C17.7535 12.0684 17.7537 12.0652 17.7539 12.0621L17.7539 12.0608L17.7544 12.0528L17.7546 12.05L17.755 12.0429L17.7551 12.0405C17.7553 12.0375 17.7554 12.0344 17.7557 12.0313L17.7558 12.0297L17.7562 12.022L17.7563 12.0191L17.7567 12.0123L17.7568 12.0096L17.7573 12.0005L17.7574 11.9991C17.7575 11.9964 17.7577 11.9939 17.7578 11.9912L17.758 11.9883L17.7583 11.9814L17.7584 11.9788C17.7585 11.9759 17.7586 11.9726 17.7588 11.9697L17.7589 11.9683L17.7592 11.9603L17.7593 11.9575L17.7596 11.9508L17.7597 11.9479C17.7598 11.9449 17.76 11.9418 17.7601 11.9389L17.7602 11.9372C17.7603 11.9346 17.7605 11.9322 17.7605 11.9297L17.7606 11.9265L17.7609 11.92L17.761 11.9171L17.7613 11.9081L17.7614 11.9067C17.7614 11.9042 17.7615 11.9015 17.7616 11.899L17.7617 11.8958L17.7619 11.8894L17.762 11.8863C17.7621 11.8834 17.7622 11.8803 17.7623 11.8773V11.8761L17.7625 11.8682L17.7626 11.8648L17.7628 11.8588C17.7629 11.8575 17.7629 11.8566 17.7629 11.8553C17.7629 11.8526 17.763 11.85 17.7631 11.8473L17.7632 11.8445L17.7633 11.8374L17.7634 11.8339C17.7635 11.832 17.7635 11.8299 17.7635 11.8279L17.7636 11.8245L17.7638 11.8165L17.7638 11.814C17.7639 11.8115 17.7639 11.809 17.7639 11.8066L17.764 11.8032C17.764 11.8013 17.7641 11.799 17.7641 11.7971L17.7642 11.7937C17.7642 11.7913 17.7643 11.7886 17.7643 11.7862L17.7643 11.7831C17.7643 11.7806 17.7644 11.7784 17.7644 11.7759V11.7723L17.7645 11.7666L17.7646 11.7628C17.7646 11.7603 17.7647 11.7579 17.7647 11.7554L17.7648 11.7528C17.7648 11.7502 17.7648 11.7477 17.7648 11.7452V11.7414C17.7649 11.7395 17.7649 11.7378 17.7649 11.7359C17.7649 11.7346 17.7649 11.7334 17.765 11.732V11.7255L17.7651 11.7214V11.7106C17.7652 11.7088 17.7652 11.7069 17.7652 11.7052V11.6797C17.7652 11.6779 17.7652 11.6761 17.7651 11.6744V11.6642L17.765 11.6602V11.6528L17.7649 11.649C17.7649 11.6472 17.7649 11.6453 17.7648 11.6435V11.6396C17.7648 11.6376 17.7648 11.6355 17.7648 11.6334C17.7647 11.6321 17.7647 11.6308 17.7647 11.6295L17.7646 11.622C17.7646 11.6207 17.7646 11.6194 17.7645 11.6181C17.7645 11.6163 17.7645 11.6146 17.7644 11.6128C17.7644 11.6115 17.7644 11.6101 17.7643 11.6088L17.7643 11.6029C17.7642 11.6015 17.7642 11.5999 17.7642 11.5986L17.764 11.5913L17.7639 11.5872C17.7639 11.5855 17.7638 11.5839 17.7638 11.5822C17.7638 11.5806 17.7638 11.5794 17.7638 11.5778L17.7637 11.5726L17.7636 11.5672C17.7635 11.565 17.7635 11.5627 17.7635 11.5604C17.7634 11.559 17.7634 11.5578 17.7634 11.5564C17.7633 11.5546 17.7633 11.5529 17.7633 11.5512C17.7633 11.5499 17.7633 11.5483 17.7633 11.547C17.7632 11.5453 17.7632 11.5435 17.7632 11.5418L17.763 11.5364L17.7629 11.5297C17.7628 11.5282 17.7628 11.5269 17.7628 11.5255L17.7626 11.5206L17.7625 11.5161L17.7624 11.511L17.7622 11.5062C17.7621 11.5037 17.7621 11.5013 17.7619 11.4988L17.7619 11.4945L17.7617 11.4896L17.7615 11.4853L17.7614 11.48L17.7612 11.4763C17.7611 11.4734 17.761 11.4707 17.761 11.4679L17.7608 11.4637L17.7606 11.4589L17.7604 11.4544L17.7602 11.4496L17.76 11.4447C17.7599 11.4422 17.7597 11.4397 17.7597 11.4373C17.7596 11.4358 17.7596 11.4343 17.7595 11.4328C17.7594 11.4313 17.7594 11.4297 17.7592 11.4282L17.7591 11.4236L17.7588 11.4189L17.7586 11.4141C17.7585 11.4115 17.7583 11.409 17.7581 11.4065L17.758 11.4021L17.7577 11.3975C17.7577 11.3961 17.7577 11.3942 17.7575 11.3928L17.7572 11.3882L17.757 11.3838C17.7569 11.3812 17.7567 11.3785 17.7566 11.3757L17.7563 11.3713L17.7561 11.3667C17.756 11.3652 17.7558 11.3635 17.7558 11.3621C17.7558 11.3606 17.7557 11.3591 17.7556 11.3575L17.7553 11.3531C17.7552 11.3504 17.755 11.3477 17.7549 11.345C17.7548 11.3435 17.7547 11.342 17.7547 11.3406L17.7544 11.3359L17.7542 11.3312L17.7539 11.3268L17.7537 11.3223L17.7532 11.3143L17.7529 11.3099L17.7526 11.3051C17.7525 11.3036 17.7524 11.3021 17.7524 11.3007L17.752 11.2959C17.752 11.2945 17.7519 11.293 17.7518 11.2916C17.7516 11.2888 17.7515 11.2863 17.7512 11.2835L17.751 11.2792L17.7506 11.2744L17.7503 11.2699L17.75 11.2652L17.7496 11.2609C17.7495 11.258 17.7492 11.2556 17.7491 11.2528L17.7487 11.2484L17.7484 11.2437C17.7482 11.2421 17.7482 11.2407 17.748 11.239L17.7477 11.2346L17.7473 11.23L17.7467 11.222L17.7463 11.2175L17.746 11.213L17.7456 11.2082C17.7455 11.2068 17.7454 11.2055 17.7453 11.2042C17.7452 11.2025 17.745 11.2011 17.7448 11.1992L17.7443 11.1925L17.7438 11.1867C17.7437 11.1852 17.7435 11.1839 17.7434 11.1824C17.7433 11.1807 17.7431 11.1793 17.7429 11.1777L17.7425 11.1732L17.7421 11.1688L17.7415 11.1607L17.741 11.1565C17.741 11.1549 17.7408 11.1532 17.7406 11.1516L17.7402 11.1471L17.7398 11.1424L17.7394 11.1381C17.7391 11.1355 17.7389 11.1328 17.7387 11.1301L17.7382 11.1256C17.7381 11.1242 17.7379 11.1226 17.7378 11.1211L17.7373 11.1163C17.7373 11.1149 17.7371 11.1136 17.7369 11.1122C17.7368 11.1106 17.7366 11.109 17.7365 11.1073C17.7363 11.1055 17.7362 11.1039 17.7359 11.1021C17.7357 11.0996 17.7355 11.0972 17.7353 11.0947L17.7349 11.0905L17.7344 11.0855L17.7339 11.0815L17.7335 11.0767L17.7329 11.0711C17.7326 11.0688 17.7325 11.0664 17.7322 11.0642L17.7318 11.0597C17.7316 11.0583 17.7314 11.0564 17.7313 11.055L17.7308 11.0507L17.7303 11.0459C17.7301 11.0441 17.7299 11.0426 17.7297 11.0407L17.7289 11.0333C17.7287 11.0319 17.7286 11.0305 17.7285 11.0292L17.7279 11.0241L17.7275 11.0203L17.7269 11.0152L17.7264 11.0108L17.7255 11.0026L17.725 10.9985L17.7244 10.9935C17.7243 10.9923 17.7241 10.9909 17.724 10.9896C17.7238 10.9881 17.7236 10.9862 17.7235 10.9846L17.7229 10.98C17.7225 10.9775 17.7222 10.9746 17.722 10.972L17.7214 10.9678L17.7208 10.9628L17.7204 10.959L17.7197 10.9539L17.7192 10.95C17.7189 10.9469 17.7186 10.9443 17.7183 10.9412L17.7177 10.9372L17.7171 10.9322L17.7166 10.9283L17.7159 10.9233L17.7154 10.9191L17.7144 10.9108L17.7138 10.9066L17.7131 10.9017L17.7126 10.8976L17.7119 10.8928C17.7117 10.8913 17.7115 10.8897 17.7113 10.8882C17.7109 10.8855 17.7107 10.8831 17.7103 10.8803C17.7101 10.8789 17.7099 10.8775 17.7097 10.876L17.7091 10.8712L17.7085 10.867L17.7078 10.8622L17.7072 10.8572L17.7062 10.85L17.7055 10.8453L17.7049 10.8406L17.7043 10.8363C17.704 10.8349 17.7038 10.8332 17.7036 10.8317C17.7034 10.83 17.7031 10.8282 17.7029 10.8265L17.7019 10.8198C17.7017 10.8181 17.7014 10.8163 17.7012 10.8147C17.701 10.8133 17.7007 10.8118 17.7006 10.8103C17.7003 10.8087 17.7001 10.8073 17.6999 10.8057L17.6993 10.8012L17.6984 10.7956L17.6975 10.7896L17.6967 10.7842L17.696 10.7798C17.6958 10.7783 17.6955 10.7767 17.6954 10.775L17.6947 10.7708C17.6944 10.7689 17.6941 10.7669 17.6938 10.765L17.693 10.7592C17.6927 10.7573 17.6924 10.7555 17.6922 10.7536L17.6915 10.7493C17.6912 10.7477 17.6909 10.7461 17.6908 10.7445L17.6901 10.7402L17.6892 10.7343C17.6889 10.7326 17.6886 10.7308 17.6884 10.729C17.6881 10.7271 17.6878 10.7251 17.6874 10.7231L17.6868 10.7187L17.686 10.7141L17.6854 10.7097C17.6851 10.7079 17.6848 10.7062 17.6846 10.7044C17.6841 10.7024 17.6839 10.7004 17.6836 10.6983L17.6827 10.6927L17.682 10.6884L17.6812 10.6836L17.6805 10.6793L17.6795 10.6738L17.6787 10.6684C17.6783 10.6664 17.6779 10.6642 17.6776 10.6622L17.677 10.6582L17.6761 10.6531L17.6755 10.6491L17.6745 10.6431L17.6737 10.6384L17.6725 10.6317L17.6718 10.6277L17.671 10.6226L17.6703 10.6185C17.6699 10.6165 17.6696 10.6144 17.6692 10.6124L17.6685 10.6087C17.668 10.6061 17.6676 10.6037 17.6672 10.6013L17.6665 10.5973C17.6662 10.5956 17.6659 10.5939 17.6656 10.5923L17.6649 10.5882C17.6645 10.5862 17.6642 10.5843 17.6637 10.5821L17.6632 10.579L17.6617 10.5708L17.661 10.5673L17.6599 10.5616L17.6593 10.5581C17.6589 10.556 17.6585 10.5537 17.658 10.5515L17.6575 10.549L17.6559 10.5405L17.6552 10.537L17.6542 10.5312L17.6535 10.5278L17.6522 10.521L17.6518 10.5188L17.65 10.5101L17.6495 10.5069C17.649 10.505 17.6486 10.503 17.6483 10.501L17.6476 10.4975C17.6472 10.4952 17.6467 10.4929 17.6462 10.4906L17.6458 10.4885L17.6441 10.4799L17.6434 10.4766L17.6423 10.4709L17.6416 10.4672L17.6403 10.4608L17.6397 10.4582C17.6391 10.4553 17.6386 10.4524 17.638 10.4495L17.6374 10.4466L17.6361 10.4405L17.6354 10.4371C17.6349 10.4348 17.6344 10.4326 17.634 10.4304L17.6335 10.4281C17.6329 10.4252 17.6323 10.4223 17.6317 10.4193L17.631 10.4163L17.6297 10.4102L17.6291 10.4069L17.6276 10.4L17.6271 10.3979C17.6264 10.3949 17.6258 10.3921 17.6252 10.389L17.6246 10.3864L17.6231 10.3798L17.6224 10.3769L17.6209 10.3697L17.6205 10.3677C17.6198 10.3646 17.6191 10.3619 17.6185 10.3589L17.6179 10.3561L17.6164 10.3497L17.6158 10.3466C17.6153 10.3442 17.6148 10.3419 17.6142 10.3396L17.6137 10.3376L17.6116 10.3286L17.611 10.3263C17.6106 10.324 17.6101 10.3219 17.6096 10.3195L17.6089 10.3166L17.6072 10.3096L17.6068 10.3075L17.6047 10.2986L17.6041 10.2962L17.6025 10.2894L17.6018 10.2866L17.6001 10.2793L17.5997 10.2774C17.599 10.2744 17.5982 10.2713 17.5975 10.2683L17.597 10.2664C17.5964 10.264 17.5959 10.2617 17.5953 10.2593L17.5946 10.2565L17.5929 10.2491L17.5925 10.2474C17.5917 10.2444 17.591 10.2413 17.5902 10.2382L17.5897 10.2363L17.588 10.2291L17.5873 10.2264C17.5867 10.2239 17.5861 10.2215 17.5855 10.219L17.5851 10.2173C17.5844 10.2142 17.5836 10.2111 17.5828 10.208L17.5825 10.2066L17.5806 10.1989L17.58 10.1964C17.5793 10.1938 17.5787 10.1914 17.5781 10.1887L17.5777 10.1872L17.5753 10.1778L17.5751 10.1771C17.5744 10.1743 17.5736 10.1714 17.5729 10.1686L17.5724 10.1668C17.5717 10.164 17.571 10.1612 17.5703 10.1585L17.5701 10.1574L17.5675 10.1478L17.5674 10.1473L17.5652 10.1388L17.5646 10.1368C17.564 10.134 17.5632 10.1314 17.5625 10.1286L17.5622 10.1276L17.5597 10.118L17.5595 10.1174C17.5588 10.1146 17.558 10.1118 17.5573 10.1089L17.5567 10.1068C17.556 10.1041 17.5552 10.1015 17.5546 10.0988L17.5542 10.0975C17.5533 10.0943 17.5525 10.0912 17.5516 10.088L17.5491 10.0788L17.5486 10.0771L17.5464 10.0687L17.5461 10.0677C17.5444 10.0614 17.5427 10.0552 17.5409 10.0489L17.5404 10.0472C17.5397 10.0444 17.5389 10.0417 17.5381 10.0389L17.5379 10.0379C17.5361 10.0315 17.5343 10.0254 17.5325 10.019L17.5321 10.0175C17.5313 10.0146 17.5304 10.0116 17.5295 10.0088L17.5294 10.0082C17.5276 10.0019 17.5257 9.99537 17.5239 9.9891L17.5235 9.98786L17.5209 9.9791L17.5207 9.97844C17.5189 9.97216 17.517 9.96556 17.5151 9.95928L17.5147 9.95821C17.5139 9.95523 17.513 9.95218 17.5121 9.9492L17.5119 9.94879C17.51 9.94227 17.5081 9.93591 17.5062 9.92938L17.5059 9.92872L17.503 9.91931L17.5029 9.91906C17.501 9.91245 17.499 9.90609 17.497 9.89948L17.4969 9.89915C17.4939 9.88941 17.4909 9.8795 17.4878 9.86975V9.86967C17.4198 9.65146 17.3396 9.4373 17.2474 9.22817C17.1067 8.9087 16.7903 8.70247 16.441 8.70264Z" fill="#DAD7F2"/>
<path d="M21.9117 19.2916C21.03 18.8506 19.9578 19.1353 19.4111 19.9556L18.3784 21.5047L20.9902 24.4768C21.116 24.3765 21.2287 24.2606 21.3254 24.1319L22.664 22.1242C23.2628 21.2258 23.0199 20.0121 22.1217 19.4133C22.0543 19.3685 21.9842 19.3278 21.9117 19.2916Z" fill="#BBB3E5"/>
<path fill-rule="evenodd" clip-rule="evenodd" d="M1.46582 10.1217C1.46582 9.63518 1.86028 9.24072 2.34683 9.24072C2.58057 9.24039 2.80473 9.33323 2.97016 9.49891L8.42026 14.949C9.23049 15.7629 10.3328 16.2189 11.4812 16.2152C12.2531 16.215 13.0116 16.0129 13.6812 15.629C14.4082 15.2116 15.3286 15.3643 15.8819 15.9941L20.6303 21.3976C20.9508 21.7625 20.9156 22.318 20.5515 22.6394C20.1868 22.9614 19.63 22.9268 19.308 22.562L14.6486 17.2598L14.6464 17.2573L14.6447 17.2554L14.6428 17.2532L14.629 17.2376L14.6275 17.2358L14.6268 17.2351L14.6262 17.2343L14.622 17.2296L14.6208 17.2283L14.6165 17.2234L14.6152 17.2219L14.6082 17.2139L14.6063 17.2118L14.6059 17.2114L14.5996 17.2041L14.5992 17.2037L14.5974 17.2018L14.5966 17.2009L14.5963 17.2006L14.5942 17.1983L14.5918 17.1954L14.5916 17.1952L14.5895 17.1928L14.5861 17.1889L14.585 17.1876L14.5848 17.1874L14.5832 17.1857L14.5831 17.1855L14.5816 17.1838L14.5812 17.1834L14.5784 17.1802L14.5781 17.1799L14.5769 17.1786L14.5749 17.1762L14.5743 17.1756L14.5715 17.1725L14.5707 17.1716L14.5703 17.1711L14.5698 17.1707L14.5694 17.1703L14.567 17.1674L14.5657 17.166L14.5651 17.1655L14.5601 17.1597L14.56 17.1595L14.5592 17.1585L14.5589 17.1581L14.5588 17.158L14.558 17.157C13.6214 17.6944 12.5605 17.9771 11.4808 17.9771C9.86505 17.9805 8.31479 17.3389 7.17394 16.1948L1.72384 10.7447C1.55865 10.5795 1.46582 10.3554 1.46582 10.1217ZM21.7098 20.9419C21.71 20.4554 22.1046 20.0612 22.5911 20.0613C22.8051 20.061 23.0119 20.139 23.1723 20.2805L37.5676 32.9304L37.5679 32.9306L37.5707 32.9331L37.5721 32.9342L37.5835 32.9442L37.5842 32.9449L37.6026 32.9611L37.6032 32.9616L37.6036 32.9619L37.6049 32.9631L37.6051 32.9632L37.6088 32.9665L37.6135 32.9707L37.6158 32.9726L37.6209 32.977L37.621 32.9771L37.6237 32.9793L37.6279 32.983L37.6281 32.9831L37.6288 32.9838L37.6292 32.9842L37.63 32.9849L37.6331 32.9877L37.6376 32.9917L37.6383 32.9923L37.6405 32.9943H37.6406L37.6413 32.9949L37.6417 32.9952L37.6422 32.9956H37.6423L37.6436 32.9968L37.6438 32.997L37.6447 32.9978L37.6463 32.9992L37.6466 32.9994L37.6485 33.0011L37.6488 33.0015L37.6489 33.0016L37.6497 33.0023L37.6511 33.0035L37.6512 33.0036L37.6516 33.004H37.6517L37.652 33.0042L37.6523 33.0044L37.6524 33.0046L37.6534 33.0054L37.654 33.006L37.6541 33.0061L37.6552 33.0071H37.6552L37.6559 33.0077L37.656 33.0078L37.6566 33.0084L37.6618 33.0129L37.6636 33.0144L37.667 33.0174L37.6689 33.0191L37.6726 33.0222L37.6742 33.0236L37.6793 33.0279L37.6808 33.0293L37.6844 33.0324L37.6865 33.0343L37.6895 33.037L37.6916 33.0388L37.695 33.0419L37.6967 33.0434L37.7015 33.0476L37.7036 33.0495L37.7065 33.0521L37.7088 33.0542L37.7116 33.0567L37.7139 33.0587L37.7177 33.0621L37.7206 33.0647L37.7235 33.0675L37.7259 33.0696L37.7286 33.072L37.731 33.0742L37.7337 33.0766L37.7359 33.0787L37.7405 33.0828L37.743 33.0851L37.7453 33.0873L37.748 33.0897L37.7503 33.0918L37.7529 33.0942L37.7552 33.0963L37.7601 33.1008L37.7622 33.1027L37.765 33.1054L37.7671 33.1073L37.77 33.11L37.7717 33.1117L37.7747 33.1146L37.7752 33.115L37.782 33.1215L37.7837 33.123L37.7866 33.1259L37.7884 33.1275L37.7914 33.1304L37.7928 33.1317L37.8036 33.142L37.8049 33.1432L37.8082 33.1464L37.8094 33.1476L37.8129 33.1509L37.8131 33.1511L37.8208 33.1586L37.8213 33.1591L37.8248 33.1625L37.8258 33.1635L37.8293 33.1669L37.8301 33.1677L37.8417 33.1792L37.842 33.1795L37.8457 33.1832L37.8464 33.1838L37.8621 33.1995L37.8626 33.2001L37.8663 33.2038L37.8669 33.2044L37.8825 33.2203L37.8829 33.2208L37.9029 33.2413L37.903 33.2414C38.2024 33.5525 38.4404 33.9171 38.6047 34.3163L38.615 34.3417L38.6151 34.3418L38.6232 34.3621L38.6252 34.3671L38.6253 34.3674L38.6331 34.3875L38.6332 34.3879L38.6351 34.3928L38.6409 34.4081L38.641 34.4083L38.6428 34.4131L38.643 34.4137L38.6506 34.4338L38.6507 34.4341L38.6525 34.4389L38.6527 34.4396L38.6582 34.4546L38.6598 34.4591L38.6602 34.4602L38.6619 34.4648L38.662 34.4652L38.6672 34.4796L38.6677 34.4807L38.6691 34.485L38.6696 34.4862L38.6762 34.5055L38.6767 34.5068L38.6782 34.511L38.6786 34.5122L38.6833 34.526L38.6838 34.5272L38.6852 34.5313L38.6857 34.533L38.6871 34.5371L38.6876 34.5383L38.692 34.5518L38.6926 34.5536L38.6939 34.5575L38.6945 34.5592L38.6958 34.5633L38.6961 34.5641L38.6988 34.5724L38.6994 34.5741L38.7005 34.5778L38.7012 34.58L38.7023 34.5836L38.7031 34.5859L38.7071 34.5983L38.7077 34.6005L38.7088 34.604L38.7095 34.6064L38.7106 34.61L38.7113 34.612L38.7135 34.6191L38.7141 34.6209L38.7151 34.6245L38.7159 34.627L38.7169 34.6303L38.7177 34.6329L38.7187 34.6362L38.7199 34.6401L38.7212 34.6443L38.7222 34.6475L38.723 34.6505L38.7239 34.6535L38.7247 34.6565L38.7257 34.6596L38.7267 34.6631L38.7281 34.6679L38.7289 34.6707L38.7298 34.6739L38.7307 34.6769L38.7316 34.6801L38.7324 34.6829L38.7336 34.687L38.7346 34.6905L38.7357 34.6945L38.7365 34.6972L38.7374 34.7006L38.7382 34.7035L38.7392 34.707L38.7398 34.7095L38.7414 34.7151L38.7421 34.7177L38.7431 34.7213L38.7438 34.724L38.7448 34.7275L38.7455 34.7301L38.7466 34.7345L38.747 34.7362L38.7486 34.7419L38.7493 34.7443L38.7502 34.7481L38.7508 34.7505L38.7519 34.7545L38.7525 34.7567L38.754 34.7627L38.7543 34.7638L38.7556 34.7688L38.7562 34.7709L38.7573 34.7751L38.7578 34.7773L38.759 34.7818L38.7594 34.7835L38.7609 34.7895L38.7613 34.7913L38.7625 34.7958L38.7631 34.7979L38.7641 34.8023L38.7646 34.8041L38.7661 34.8102L38.7662 34.8103L38.7677 34.8166L38.7681 34.8182L38.7692 34.8228L38.7697 34.8248L38.7709 34.8297L38.7713 34.8311L38.7728 34.8373L38.773 34.838L38.7743 34.8435L38.7747 34.8452L38.7758 34.85L38.7762 34.8516L38.779 34.8643L38.7793 34.8655L38.7805 34.8707L38.7809 34.8722L38.782 34.8775L38.7823 34.8786L38.7851 34.8914L38.7854 34.8927L38.7865 34.898L38.7868 34.8991L38.7881 34.9052L38.7882 34.9056L38.7896 34.9123V34.9123L38.791 34.9185L38.7912 34.9197L38.7924 34.9252L38.7925 34.9261L38.7953 34.9393L38.7953 34.9398L38.7966 34.9458L38.7967 34.9467L38.8007 34.9665L38.8008 34.967L38.802 34.9732L38.8021 34.9738L38.8059 34.9939L38.806 34.9942L38.8098 35.0146L38.811 35.0214V35.0214L38.8147 35.0419C38.8854 35.4489 38.8831 35.8653 38.808 36.2716C38.7194 36.7499 38.2598 37.066 37.7814 36.9774C37.303 36.8889 36.9869 36.4292 37.0755 35.9508C37.1902 35.3534 36.9744 34.7406 36.5107 34.347L22.0093 21.6041C21.8188 21.4367 21.7097 21.1955 21.7098 20.9419Z" fill="#DAD7F2"/>
<path d="M23.4568 25.0688C22.9702 25.069 22.5759 25.4636 22.5762 25.9502C22.5763 26.163 22.6533 26.3684 22.7931 26.5288L32.725 37.8312L32.7296 37.8364L32.7304 37.8373L32.7315 37.8385L32.7327 37.8399L32.7336 37.8409L32.7402 37.8484L32.7407 37.8489L32.7478 37.857L32.7482 37.8575L32.7492 37.8587L32.7543 37.8645L32.7582 37.869L32.7592 37.87L32.7601 37.8712L32.7616 37.8729L32.7627 37.8741L32.7644 37.876L32.7672 37.8793L32.7701 37.8825L32.7703 37.8827L32.7709 37.8834L32.7743 37.8874L32.7748 37.8878L32.7752 37.8883L32.7753 37.8883L32.7758 37.889L32.7759 37.8891L32.7766 37.8898C32.7762 37.8893 32.7762 37.8894 32.7762 37.8894L32.7766 37.8898L32.7764 37.8897L32.7766 37.8898C34.0205 39.3412 36.2056 39.5094 37.657 38.2655C37.7243 38.2077 37.7894 38.1475 37.852 38.0848C37.8919 38.0451 37.9304 38.0046 37.9678 37.9635C37.9759 37.9545 37.984 37.9456 37.992 37.9365C38.003 37.9241 38.014 37.9117 38.0247 37.8992C38.0264 37.8973 38.028 37.8954 38.0296 37.8935C38.0399 37.8816 38.0502 37.8695 38.0603 37.8574C38.0722 37.8432 38.0838 37.8291 38.0954 37.8148C38.099 37.8105 38.1025 37.8061 38.106 37.8017C38.1147 37.7908 38.1234 37.7799 38.132 37.769C38.15 37.746 38.1677 37.7228 38.1851 37.6995L38.1865 37.6976C38.1965 37.6843 38.2062 37.6709 38.2159 37.6574C38.2193 37.6526 38.2229 37.6477 38.2264 37.6429C38.6695 37.0203 38.8935 36.2682 38.8631 35.5046C38.8567 35.3374 38.8383 35.171 38.808 35.0064C38.6838 34.329 38.3591 33.7045 37.8759 33.2138L37.8639 33.2016C37.8508 33.1884 37.8378 33.1755 37.8245 33.1625L37.8139 33.1522C37.8104 33.1489 37.8069 33.1456 37.8034 33.1422C37.7745 33.1144 37.745 33.0871 37.7149 33.0602C37.712 33.0574 37.7088 33.0548 37.7059 33.0521C37.7021 33.0487 37.6983 33.0454 37.6945 33.0421L37.6911 33.039L37.685 33.0338C37.6814 33.0306 37.6777 33.0274 37.6741 33.0241L37.6641 33.0156L37.657 33.0094L37.6562 33.0088L37.655 33.0076L37.6546 33.0074L37.6541 33.0069L37.6537 33.0066L37.6525 33.0056L37.6507 33.0039L37.6499 33.0032L37.6492 33.0026L37.6411 32.9955L37.6404 32.9948L37.6342 32.9895L37.6337 32.989L37.6305 32.9862L37.6276 32.9835L37.6271 32.9831L37.6257 32.982L37.6252 32.9816C37.6155 32.973 37.6037 32.9627 37.5899 32.9505L37.5857 32.9468L37.5854 32.9466L37.5834 32.9448L37.5801 32.9419L37.5798 32.9417L37.5731 32.9358L37.5726 32.9353L37.5694 32.9325L37.5607 32.9248C37.5576 32.9221 37.5544 32.9192 37.5511 32.9164L37.5483 32.9138C37.0587 32.4836 35.084 30.7484 35.084 30.7484C34.718 30.4278 34.1614 30.4646 33.8408 30.8306C33.5209 31.1957 33.5567 31.7509 33.9209 32.0719L36.5103 34.3473C37.2229 34.958 37.3054 36.0308 36.6946 36.7434C36.372 37.1197 35.9012 37.3365 35.4055 37.3368C34.9018 37.3356 34.4242 37.1125 34.1 36.7269L24.1189 25.3683C23.9517 25.1776 23.7103 25.0684 23.4568 25.0688Z" fill="#DAD7F2"/>
<path d="M37.1011 2.12139C34.1817 -0.797921 28.6652 -0.0146153 24.7795 3.87111C21.4255 7.2251 20.3972 11.7867 22.0521 14.8517L1.33278 33.0091C-0.118619 34.2532 -0.286694 36.4383 0.957395 37.8897C2.20148 39.3411 4.38655 39.5091 5.83794 38.2651C5.97249 38.1497 6.09803 38.0242 6.21333 37.8897L24.3708 17.1704C27.4357 18.8252 31.9973 17.797 35.3513 14.443C39.237 10.5572 40.0205 5.04078 37.1011 2.12139Z" fill="#E5E2F5"/>
<path d="M32.7206 10.9068C35.1532 10.9068 37.1252 8.5402 37.1252 5.62087C37.1252 2.70154 35.1532 0.334961 32.7206 0.334961C30.2879 0.334961 28.3159 2.70154 28.3159 5.62087C28.3159 8.5402 30.2879 10.9068 32.7206 10.9068Z" fill="#D9D5F0"/>
<path fill-rule="evenodd" clip-rule="evenodd" d="M24.8011 3.87108C27.1028 1.56948 29.9761 0.356445 32.5435 0.356445C34.3104 0.356445 35.9325 0.931288 37.1227 2.11921C38.313 3.30945 38.8877 4.93148 38.8876 6.69863C38.8876 9.26577 37.6744 12.1393 35.373 14.4408L35.3665 14.4473L35.3646 14.4492L35.36 14.4537L35.3576 14.4561L35.3535 14.4602L35.351 14.4628L35.3471 14.4667L35.3445 14.4693L35.3405 14.4732L35.3379 14.4757L35.3339 14.4797L35.3314 14.4822L35.3273 14.4863L35.3249 14.4887L35.3206 14.4929L35.3184 14.4951L35.3136 14.4999L35.312 14.5015L35.3061 14.5073L35.3054 14.508L35.2921 14.521L35.2907 14.5225L35.2857 14.5274L35.2833 14.5297L35.2793 14.5337L35.2765 14.5363L35.2726 14.5402L35.27 14.5428L35.266 14.5466L35.2634 14.5492L35.2594 14.5531L35.2568 14.5556L35.253 14.5593L35.25 14.5622L35.2464 14.5657L35.2436 14.5685L35.2398 14.5722L35.2371 14.575L35.233 14.5789L35.2305 14.5813L35.2242 14.5875L35.2219 14.5896L35.2176 14.5938L35.2151 14.5962L35.211 14.6002L35.2084 14.6026L35.2044 14.6064L35.2017 14.6091L35.1979 14.6128L35.1951 14.6155L35.1914 14.6191L35.1886 14.6219L35.1848 14.6255L35.1821 14.6282L35.1781 14.632L35.1755 14.6344L35.1715 14.6383L35.1689 14.6408L35.1647 14.6448L35.1623 14.6471L35.1571 14.652L35.1558 14.6534L35.1493 14.6595L35.1469 14.6619L35.1427 14.6658L35.1399 14.6685L35.1361 14.6721L35.1332 14.6749L35.1295 14.6783L35.1265 14.6812L35.1229 14.6847L35.12 14.6874L35.1163 14.6909L35.1133 14.6937L35.1096 14.6973L35.1067 14.7L35.1031 14.7035L35.1002 14.7063L35.0964 14.7098L35.0936 14.7125L35.0896 14.7162L35.0869 14.7187L35.0816 14.7237L35.0798 14.7255L35.0739 14.7311L35.0717 14.7331L35.0672 14.7373L35.0648 14.7395L35.0606 14.7435L35.0578 14.746L35.0539 14.7497L35.0511 14.7523L35.0473 14.7558L35.0444 14.7587L35.0407 14.762L35.0378 14.7648L35.034 14.7683L35.0312 14.771L35.0274 14.7745L35.0245 14.7772L35.0208 14.7806L35.0177 14.7835L35.0143 14.7867L35.0112 14.7896L35.0049 14.7955L35.0027 14.7975L34.9982 14.8018L34.995 14.8047L34.9917 14.8078L34.9882 14.8109L34.9849 14.8139L34.9817 14.8169L34.9783 14.82L34.975 14.823L34.9716 14.8261L34.9685 14.829L34.9649 14.8323L34.9619 14.8351L34.9581 14.8386L34.9553 14.8411L34.9514 14.8448L34.9486 14.8473L34.944 14.8515L34.9421 14.8532L34.9367 14.8582L34.9353 14.8595L34.9287 14.8655L34.9266 14.8674L34.9221 14.8715L34.9191 14.8743L34.9154 14.8776L34.9123 14.8805L34.909 14.8835L34.9057 14.8866L34.9023 14.8896L34.8989 14.8927L34.8958 14.8956L34.8924 14.8987L34.8889 14.9017L34.8857 14.9046L34.8823 14.9077L34.879 14.9106C34.8781 14.9116 34.8769 14.9126 34.8759 14.9135L34.8723 14.9167L34.8694 14.9194L34.8657 14.9228L34.8631 14.9251L34.8536 14.9337L34.8527 14.9345L34.8489 14.938L34.846 14.9405L34.8426 14.9436L34.8392 14.9466L34.8358 14.9496L34.8327 14.9524L34.8291 14.9556L34.826 14.9584L34.8224 14.9617L34.8194 14.9644L34.8158 14.9676L34.8127 14.9703L34.8091 14.9736L34.8061 14.9763L34.8025 14.9794L34.7993 14.9823L34.7959 14.9855L34.7927 14.9882L34.7891 14.9914L34.7854 14.9946L34.7807 14.9988L34.7759 15.003L34.7724 15.0061L34.7694 15.0087L34.7655 15.0121L34.7627 15.0146L34.7591 15.0178L34.7559 15.0206L34.7526 15.0235L34.7493 15.0265L34.7458 15.0296L34.7427 15.0323L34.739 15.0355L34.7361 15.0381L34.7322 15.0415L34.7294 15.0439L34.7256 15.0473L34.7225 15.05L34.7189 15.0532L34.7158 15.0559L34.7122 15.059L34.7091 15.0618L34.7015 15.0684L34.6991 15.0705L34.6954 15.0737L34.6923 15.0765L34.6888 15.0795L34.6857 15.0823L34.6819 15.0856L34.679 15.088L34.6752 15.0913L34.6723 15.0938L34.6685 15.0971L34.6655 15.0997L34.6617 15.103L34.6589 15.1054L34.6549 15.1088L34.6523 15.111L34.6483 15.1145L34.6454 15.117L34.6416 15.1203L34.6388 15.1227L34.6241 15.1353L34.6217 15.1373L34.618 15.1405L34.6149 15.1432L34.6114 15.1461L34.6081 15.149L34.6045 15.152L34.6014 15.1547L34.5978 15.1578L34.5946 15.1606L34.5909 15.1636L34.588 15.1662L34.584 15.1696L34.5814 15.1717L34.5771 15.1754L34.575 15.1772L34.5703 15.1811L34.5686 15.1826L34.5457 15.2019L34.5439 15.2035L34.5395 15.2071L34.5371 15.2092L34.5329 15.2127L34.5305 15.2148L34.5261 15.2185L34.5238 15.2205L34.5196 15.2241L34.517 15.2263L34.513 15.2297L34.5102 15.232L34.5062 15.2354L34.5036 15.2376L34.4994 15.2411L34.497 15.2431L34.4927 15.2468L34.4905 15.2486L34.4859 15.2525L34.4849 15.2532L34.4685 15.2669L34.466 15.269L34.4618 15.2725L34.4592 15.2746L34.4552 15.278L34.4524 15.2803L34.4485 15.2836L34.4456 15.2859L34.4417 15.2891L34.4387 15.2915L34.4348 15.2948L34.4319 15.2971L34.428 15.3003L34.425 15.3028L34.4212 15.3059L34.4184 15.3082L34.4143 15.3116L34.412 15.3135L34.4076 15.3172L34.4064 15.3181L34.3965 15.3262L34.3943 15.328L34.3903 15.3313L34.3874 15.3336L34.3835 15.3367L34.3806 15.3392L34.3768 15.3423L34.3738 15.3447L34.3699 15.348L34.367 15.3503L34.3632 15.3534L34.3602 15.3559L34.3562 15.3591L34.3534 15.3613L34.3494 15.3646L34.3468 15.3668L34.3424 15.3703L34.3404 15.372L34.3356 15.3758L34.3342 15.3769L34.3158 15.3918H34.3157L34.3109 15.3958L34.3088 15.3974L34.3044 15.401L34.3019 15.403L34.2979 15.4063L34.295 15.4086L34.291 15.4118L34.2882 15.414L34.284 15.4174L34.2815 15.4194L34.2772 15.4229L34.2747 15.4248L34.2704 15.4283L34.2679 15.4303L34.2635 15.4338L34.2613 15.4355L34.2566 15.4393L34.2559 15.4398L34.2373 15.4546L34.2367 15.4551L34.2312 15.4594L34.2299 15.4604L34.2248 15.4644L34.2231 15.4658L34.2184 15.4696L34.2162 15.4713L34.2117 15.475L34.2094 15.4767L34.205 15.4803L34.2025 15.4822L34.1981 15.4856L34.1958 15.4875L34.1914 15.4909L34.1888 15.4929L34.1845 15.4963L34.1821 15.4982L34.1776 15.5017L34.176 15.5029L34.159 15.5163L34.1576 15.5173L34.1527 15.5211L34.1506 15.5228L34.1459 15.5265L34.1439 15.5282L34.1395 15.5316L34.1368 15.5336L34.1325 15.5369L34.1302 15.5387L34.1256 15.5423L34.1234 15.544L34.1187 15.5477L34.1168 15.5491L34.112 15.5529L34.1099 15.5544L34.1049 15.5583L34.1042 15.5589L34.0788 15.5786L34.0782 15.579L34.0726 15.5833L34.0714 15.5842L34.066 15.5883L34.0645 15.5895L34.0595 15.5933L34.0576 15.5948L34.0528 15.5985L34.0507 15.6001L34.046 15.6037L34.0438 15.6054L34.0391 15.609L34.0372 15.6105L34.0324 15.6141L34.0302 15.6158L34.0253 15.6195L34.0245 15.6201L33.9999 15.6387L33.9983 15.6399L33.9933 15.6436L33.9914 15.645L33.9864 15.6488L33.9845 15.6502L33.9795 15.6539L33.9776 15.6554L33.9727 15.659L33.9706 15.6606L33.9659 15.6641L33.9638 15.6657L33.959 15.6693L33.957 15.6708L33.9522 15.6745L33.9505 15.6757L33.9255 15.6944L33.9251 15.6948L33.9199 15.6986L33.9181 15.7L33.9134 15.7033L33.911 15.7051L33.9066 15.7084L33.9041 15.7102L33.8997 15.7135L33.8972 15.7153L33.8926 15.7186L33.8902 15.7204L33.8858 15.7237L33.8834 15.7254L33.8787 15.7289L33.877 15.7301L33.8717 15.734L33.8704 15.735L33.846 15.7529L33.8446 15.7539L33.8398 15.7574L33.8376 15.7591L33.8333 15.7622L33.8306 15.7642L33.8262 15.7674L33.8237 15.7693L33.8192 15.7726L33.8168 15.7743L33.8123 15.7776L33.8099 15.7793L33.8051 15.7828L33.8033 15.7841L33.7982 15.7878L33.7965 15.7892L33.7914 15.7928L33.7893 15.7944L33.7844 15.7978L33.7841 15.7981L33.7651 15.8119L33.7642 15.8125L33.7592 15.8162L33.7571 15.8177L33.7525 15.821L33.7501 15.8226L33.7454 15.8259L33.7432 15.8276L33.7385 15.831L33.7364 15.8325L33.7315 15.836L33.7294 15.8375L33.7245 15.841L33.7227 15.8423L33.7175 15.846L33.716 15.8471L33.7106 15.8509L33.7094 15.8518L33.685 15.8692L33.6833 15.8704L33.6784 15.8739L33.6763 15.8753L33.6714 15.8788L33.6694 15.8803L33.6645 15.8837L33.6624 15.8852L33.6576 15.8887L33.6557 15.8901L33.6506 15.8936L33.6485 15.895L33.6438 15.8983L33.6416 15.8998L33.6365 15.9034L33.6356 15.904L33.6035 15.9265L33.6023 15.9273L33.597 15.931L33.5953 15.9322L33.5903 15.9357L33.5882 15.9372L33.5836 15.9404L33.5811 15.9421L33.5767 15.9452L33.5741 15.947L33.5698 15.95L33.567 15.9519L33.5627 15.9549L33.5603 15.9566L33.5556 15.9598L33.5538 15.961L33.5283 15.9785L33.5281 15.9786L33.5223 15.9826L33.521 15.9834L33.5158 15.987L33.5139 15.9883L33.5091 15.9915L33.5068 15.9931L33.5021 15.9963L33.4997 15.998L33.4949 16.0013L33.493 16.0026L33.4878 16.0061L33.486 16.0073L33.4807 16.0108L33.4792 16.0118L33.4736 16.0156L33.4731 16.016L33.447 16.0336L33.4464 16.0341L33.4411 16.0377L33.4392 16.0389L33.4344 16.0421L33.4321 16.0437L33.4275 16.0468L33.4248 16.0485L33.4204 16.0515L33.4178 16.0532L33.4134 16.0562L33.4107 16.058L33.4063 16.0609L33.4037 16.0626L33.3993 16.0655L33.3964 16.0674L33.3922 16.0702L33.3898 16.0719L33.3852 16.0749L33.3845 16.0754L33.3735 16.0828L33.3714 16.0842L33.3672 16.087L33.3644 16.0889L33.3602 16.0916L33.3573 16.0936L33.3532 16.0963L33.3502 16.0983L33.3462 16.1009L33.3431 16.103L33.3391 16.1057L33.336 16.1077L33.3318 16.1104L33.3291 16.1123L33.3247 16.1152L33.322 16.1169L33.3176 16.1198L33.315 16.1215L33.3105 16.1244L33.3081 16.126L33.2913 16.137L33.2896 16.1381L33.2847 16.1413L33.2826 16.1427L33.2781 16.1455L33.2753 16.1474L33.2709 16.1503L33.2684 16.1519L33.2639 16.1548L33.2612 16.1565L33.2569 16.1593L33.2542 16.1612L33.2497 16.164L33.2472 16.1657L33.2426 16.1687L33.2401 16.1702L33.2355 16.1732L33.2333 16.1747L33.2284 16.1778L33.2271 16.1787L33.2096 16.19L33.2076 16.1913L33.2029 16.1943L33.2004 16.1958L33.1959 16.1988L33.1934 16.2004L33.1888 16.2034L33.1862 16.205L33.1817 16.2079L33.179 16.2096L33.1746 16.2124L33.1719 16.2142L33.1674 16.2171L33.165 16.2186L33.1602 16.2217L33.1581 16.223L33.1531 16.2262L33.1512 16.2273L33.1263 16.2431L33.1251 16.2438L33.1201 16.247L33.1179 16.2484L33.1134 16.2513L33.1106 16.253L33.1063 16.2557L33.1035 16.2575L33.0992 16.2601L33.0962 16.262L33.0921 16.2646L33.089 16.2665L33.0849 16.2691L33.0819 16.271L33.0778 16.2736L33.0746 16.2755L33.0706 16.278L33.0679 16.2798L33.0508 16.2903L33.0494 16.2912L33.0444 16.2943L33.0423 16.2956L33.0379 16.2983L33.035 16.3002L33.0309 16.3027L33.0279 16.3046L33.0238 16.3072L33.0207 16.3091L33.0166 16.3116L33.0137 16.3135L33.0095 16.3161L33.0067 16.3178L33.0023 16.3206L32.9997 16.3221L32.995 16.325L32.9925 16.3266L32.988 16.3294L32.9856 16.3309L32.9692 16.3409L32.9668 16.3424L32.9625 16.3449L32.9595 16.3467L32.9552 16.3494L32.9525 16.351L32.9481 16.3538L32.9453 16.3555L32.941 16.3581L32.9382 16.3599L32.9337 16.3626L32.931 16.3643L32.9265 16.367L32.9239 16.3685L32.9193 16.3714L32.9166 16.373L32.9122 16.3757L32.9097 16.3772L32.9049 16.3801L32.9041 16.3806L32.8861 16.3914L32.8838 16.3927L32.8795 16.3954L32.8767 16.3971L32.8725 16.3997L32.8695 16.4015L32.8653 16.404L32.8624 16.4057L32.8581 16.4083L32.8552 16.41L32.8507 16.4127L32.8482 16.4141L32.8435 16.4169L32.841 16.4185L32.8365 16.4212L32.8336 16.4229L32.8294 16.4255L32.8264 16.4272L32.8222 16.4297L32.8205 16.4307L32.8026 16.4413L32.8012 16.4421L32.7958 16.4453L32.7941 16.4463L32.789 16.4492L32.7867 16.4506L32.782 16.4533L32.7794 16.4549L32.7749 16.4575L32.7723 16.4591L32.7675 16.4618L32.7652 16.4632L32.7604 16.4659L32.758 16.4673L32.7532 16.4701L32.7509 16.4715L32.7461 16.4743L32.7441 16.4754L32.72 16.4895L32.7177 16.4908L32.713 16.4935L32.7104 16.495L32.7058 16.4977L32.7031 16.4992L32.6987 16.5017L32.6958 16.5034L32.6917 16.5058L32.6885 16.5076L32.6845 16.5099L32.6814 16.5117L32.677 16.5142L32.6743 16.5157L32.6698 16.5183L32.6671 16.5199L32.6626 16.5225L32.6603 16.5238L32.6555 16.5266L32.6549 16.527L32.6428 16.5338L32.6413 16.5346L32.6366 16.5374L32.6341 16.5389L32.6294 16.5415L32.6269 16.5429L32.6222 16.5456L32.6197 16.547L32.615 16.5497L32.6125 16.5511L32.6078 16.5537L32.6051 16.5553L32.6006 16.5578L32.5977 16.5594L32.5934 16.5619L32.5906 16.5635L32.5861 16.566L32.5835 16.5674L32.5788 16.5701L32.5766 16.5713L32.5596 16.5809L32.5575 16.582L32.5527 16.5847L32.5503 16.5861L32.5456 16.5887L32.5431 16.5901L32.5385 16.5927L32.5358 16.5942L32.5312 16.5967L32.5287 16.5982L32.5239 16.6008L32.5215 16.6021L32.5166 16.6048L32.5143 16.6061L32.5094 16.6088L32.5074 16.6099L32.5021 16.6128L32.5006 16.6136L32.4754 16.6274L32.4736 16.6284L32.4689 16.6309L32.4663 16.6323L32.4616 16.6349L32.4591 16.6363L32.4545 16.6388L32.4518 16.6403L32.4472 16.6428L32.4445 16.6442L32.44 16.6467L32.4373 16.6482L32.4327 16.6507L32.4302 16.6521L32.4254 16.6546L32.4234 16.6557L32.418 16.6586L32.4172 16.6591L32.3901 16.6737L32.3899 16.6738L32.3842 16.6769L32.3826 16.6777L32.3771 16.6806L32.3754 16.6815L32.3698 16.6845L32.3683 16.6853L32.3627 16.6883L32.361 16.6892L32.3556 16.6921L32.3539 16.693L32.3483 16.6959L32.3471 16.6966L32.341 16.6998L32.3407 16.7L32.2994 16.7218L32.2987 16.7222L32.2926 16.7253L32.2914 16.726L32.2853 16.7292L32.2845 16.7296L32.2781 16.7329L32.2774 16.7334L32.2712 16.7366L32.2702 16.7372L32.2639 16.7405L32.2636 16.7406L32.2006 16.7732L32.2006 16.7733L32.1935 16.7769L32.1232 16.8127H32.1231C32.0644 16.8424 32.0057 16.8714 31.9468 16.8999L31.945 16.9007C31.5069 17.1122 30.9802 16.9284 30.7687 16.4902C30.5572 16.0521 30.7411 15.5254 31.1792 15.3139C32.2733 14.7783 33.2697 14.0627 34.1268 13.1969C37.2652 10.0586 38.0664 5.55704 35.8766 3.36719C34.8443 2.33495 33.4941 2.11831 32.5432 2.11831C30.353 2.11831 27.9243 3.23925 26.0468 5.1169C23.3276 7.83618 22.3086 11.5782 23.624 14.0145C24.0144 14.7378 23.8529 15.635 23.2348 16.1768L18.9984 19.8894C18.6325 20.2101 18.0759 20.1733 17.7552 19.8074C17.4345 19.4416 17.4712 18.885 17.8372 18.5643L22.0396 14.8815L22.0404 14.8809L22.0424 14.879L22.0465 14.8754L22.0468 14.8751L22.0471 14.8749L22.0519 14.8706L22.0526 14.87L22.0528 14.8698L22.0536 14.8692L22.0538 14.869L22.0613 14.8625L22.0622 14.8617L22.0623 14.8616L22.0627 14.8612L22.0632 14.8608L22.0635 14.8607L22.0638 14.8603L22.067 14.8575L22.0675 14.8572L22.0735 14.8519L22.0737 14.8517L22.0737 14.8517C21.5517 13.8848 21.2967 12.7692 21.2974 11.5894C21.2989 9.02906 22.505 6.16715 24.8011 3.87108ZM14.3013 26.0118C14.4685 25.8206 14.7102 25.7111 14.9642 25.7114C15.1766 25.7115 15.3819 25.7883 15.5421 25.9277C15.9091 26.2471 15.9479 26.8035 15.6285 27.1706L6.27827 37.84L6.27679 37.8417L6.27241 37.8467L6.26448 37.8558L6.2639 37.8564L6.26275 37.8578L6.26068 37.8602L6.25969 37.8612L6.2587 37.8624L6.25581 37.8657L6.25523 37.8664L6.25432 37.8673L6.25374 37.868L6.25308 37.8688L6.25193 37.8701L6.25019 37.8722L6.24135 37.8823L6.23747 37.8867L6.23665 37.8877L6.23565 37.8888L6.23557 37.8889L6.23491 37.8896C6.12928 38.0129 6.01522 38.1284 5.89339 38.2356C4.45835 39.4985 2.27122 39.3589 1.00838 37.9238C-0.254454 36.4887 -0.114873 34.3016 1.32025 33.0387L1.32628 33.0335L1.33727 33.0239L1.34718 33.0153L1.35428 33.0092L1.35436 33.0091L1.35585 33.0078L1.35701 33.0068L1.35758 33.0063L1.35791 33.006L1.93738 32.4981C2.30351 32.1789 2.85887 32.2162 3.17899 32.5815C3.4997 32.9474 3.46303 33.504 3.09706 33.8247L2.51569 34.3342C2.44417 34.3942 2.37777 34.4598 2.31706 34.5306C1.70612 35.2431 1.78847 36.3158 2.50091 36.9268C3.21335 37.5377 4.28614 37.4554 4.89708 36.7429L14.3013 26.0118Z" fill="#F2F1FA"/>
</svg>

