<svg width="44" height="40" viewBox="0 0 44 40" fill="none" xmlns="http://www.w3.org/2000/svg">
<path d="M26.0142 35.2385C26.0142 37.3927 24.2683 39.1388 22.115 39.1388C19.9614 39.1388 18.2158 37.3927 18.2158 35.2385C18.2158 33.0845 19.9614 31.3384 22.115 31.3384C24.2683 31.3384 26.0142 33.0845 26.0142 35.2385Z" fill="#0784FF"/>
<path d="M37.7112 39.1385L22.115 37.1883L6.51855 39.1385C4.36526 39.1385 2.61963 37.3923 2.61963 35.2381V9.88666C2.61963 7.73246 4.36526 5.98631 6.51855 5.98631L18.2158 4.03613C20.3694 4.03613 22.115 5.78229 22.115 7.93648C22.115 5.78229 23.8606 4.03613 26.0142 4.03613L37.7112 5.98631C39.8647 5.98631 41.6104 7.73246 41.6104 9.88666V35.2381C41.6104 37.3923 39.8647 39.1385 37.7112 39.1385Z" fill="#0784FF"/>
<path fill-rule="evenodd" clip-rule="evenodd" d="M2.61963 34.2466C2.61963 33.7079 3.05591 33.2715 3.59442 33.2715C4.13268 33.2715 4.56922 33.7079 4.56922 34.2468V35.2388C4.57026 36.2761 5.3822 37.1315 6.41787 37.1864L18.7699 35.6419C19.462 35.5553 20.1477 35.8452 20.5679 36.4021C20.93 36.8944 21.5039 37.1864 22.115 37.189C22.4514 37.19 22.7818 37.1008 23.0716 36.9298C23.5352 36.6592 24.1301 36.8143 24.4028 37.2764C24.6762 37.7404 24.5219 38.3382 24.0583 38.6117C24.0388 38.6231 24.0191 38.6346 23.9993 38.6458C23.9832 38.6549 23.967 38.6637 23.9506 38.6726L23.9447 38.6757L23.9444 38.676L23.9387 38.6791L23.9379 38.6794L23.9324 38.6825L23.9319 38.6827L23.9262 38.6859C23.9158 38.6913 23.9056 38.6965 23.8955 38.702L23.8898 38.7051L23.889 38.7054L23.8835 38.7082L23.8825 38.7088L23.8775 38.7114L23.876 38.7121L23.871 38.7147L23.87 38.7153C23.858 38.7213 23.8461 38.7275 23.8338 38.7335L23.8265 38.7371L23.8216 38.7397L23.8203 38.7402L23.8141 38.7434L23.8086 38.746L23.8081 38.7462C23.8047 38.7479 23.8013 38.7496 23.7979 38.7512C23.7912 38.7546 23.7844 38.7579 23.7776 38.7611L23.7769 38.7616L23.7717 38.7642L23.7703 38.7647L23.7654 38.7671L23.7638 38.7678L23.7589 38.7702L23.7576 38.7707L23.7524 38.7733L23.7511 38.7738L23.7456 38.7764L23.7451 38.7767C23.7385 38.7798 23.7317 38.7829 23.7249 38.786C23.7215 38.7876 23.7181 38.7892 23.7147 38.7907L23.7136 38.7913L23.7084 38.7936L23.7071 38.7941L23.7022 38.7965L23.7004 38.7972L23.6957 38.7996L23.6939 38.8004L23.6892 38.8024L23.6874 38.8032L23.6824 38.8056L23.6811 38.8061C23.6779 38.8075 23.6747 38.8089 23.6715 38.8103C23.6669 38.8124 23.6622 38.8145 23.6574 38.8165L23.6564 38.817L23.6517 38.8191L23.6496 38.8199L23.645 38.822L23.6431 38.8227L23.6385 38.8248L23.6364 38.8256L23.6317 38.8277L23.6299 38.8285L23.6252 38.8305L23.6234 38.8313L23.6182 38.8334L23.6176 38.8337C23.6096 38.8373 23.6015 38.8407 23.5934 38.8441L23.5921 38.8446L23.5872 38.8467L23.5854 38.8475L23.5807 38.8493L23.5784 38.8503L23.5739 38.8521L23.5716 38.8532L23.5672 38.855L23.5651 38.8558L23.5604 38.8579L23.5586 38.8584L23.5534 38.8605L23.5349 38.868L23.5336 38.8685L23.5287 38.8704L23.5268 38.8711L23.5224 38.8727L23.5198 38.8737L23.5157 38.8756L23.5131 38.8763L23.5086 38.8782L23.5063 38.8792L23.5019 38.8808L23.4995 38.8818L23.4951 38.8834L23.493 38.8844L23.4881 38.8862L23.4873 38.8865L23.4707 38.8927L23.4681 38.8938L23.4639 38.8953L23.461 38.8964L23.4571 38.8979L23.4543 38.899L23.4501 38.9006L23.4472 38.9016L23.4431 38.9032L23.4402 38.9042L23.4361 38.9058L23.4335 38.9065L23.4293 38.9081L23.4267 38.9091L23.4223 38.9107L23.4212 38.911L23.4103 38.9149L23.4087 38.9154L23.4046 38.9169L23.4017 38.918L23.3978 38.9195L23.3877 38.9229L23.3838 38.9245L23.3809 38.9253L23.3767 38.9268L23.3739 38.9279L23.3697 38.9292L23.3669 38.9302L23.3629 38.9318L23.3598 38.9326L23.3445 38.938L23.3211 38.9458L23.3169 38.9471L23.314 38.9482L23.3101 38.9495L23.3068 38.9505L23.3031 38.9518L23.2961 38.9542L23.2935 38.9549L23.2839 38.9581L23.2823 38.9586L23.2781 38.9599L23.275 38.9607L23.2571 38.9667L23.2537 38.9677L23.25 38.9687L23.2467 38.9698L23.2428 38.9708L23.2394 38.9719L23.2357 38.9732L23.2321 38.9742L23.2287 38.9752L23.2243 38.9765L23.218 38.9784L23.2147 38.9794L23.2108 38.9804L23.2074 38.9815L23.2037 38.9825L23.2004 38.9836L23.1965 38.9849L23.1931 38.9856L23.1892 38.9869L23.1858 38.9877L23.1819 38.9888L23.1785 38.9898L23.1603 38.995L23.1538 38.9968L23.1504 38.9979L23.1462 38.9989L23.1353 39.002L23.1317 39.0028L23.128 39.0041L23.1246 39.0049L23.1207 39.0059L23.1174 39.007L23.1135 39.008L23.1101 39.0088L23.1064 39.0098L23.1025 39.0109L23.0992 39.0119L23.0945 39.013L23.0919 39.0138L23.0848 39.0156L23.0815 39.0164L23.0737 39.0184L23.0703 39.0192L23.0666 39.0203L23.0627 39.0213L23.0594 39.0221L23.0554 39.0231L23.0521 39.0239L23.0482 39.0249L23.0445 39.0257L23.0406 39.0268L23.0375 39.0275L23.0328 39.0286L23.03 39.0294L23.0237 39.0309L23.0224 39.0312L23.0123 39.0335L23.0081 39.0346L23.0047 39.0354L23.0011 39.0364L22.9974 39.0372L22.9935 39.0382L22.9902 39.039L22.9862 39.0398L22.9826 39.0406L22.9753 39.0424L22.9709 39.0434L22.968 39.0439L22.9628 39.0452L22.9605 39.0458L22.9532 39.0473L22.9509 39.0478L22.9459 39.0489L22.9428 39.0497L22.9384 39.0504L22.9353 39.0512L22.9308 39.0523L22.9277 39.0528L22.9236 39.0538L22.9202 39.0546L22.916 39.0554L22.9126 39.0562L22.9087 39.057L22.9053 39.0577L22.9012 39.0585L22.8978 39.0593L22.8936 39.0601L22.8903 39.0609L22.8832 39.0622L22.8801 39.0629L22.8757 39.0637L22.8726 39.0642L22.8681 39.0653L22.865 39.0658L22.8609 39.0666L22.8575 39.0674L22.8533 39.0681L22.8499 39.0689L22.8458 39.0697L22.8424 39.0702L22.838 39.071L22.8348 39.0718L22.8304 39.0726L22.8211 39.0741L22.82 39.0744L22.8125 39.0757L22.8101 39.0762L22.8049 39.0772L22.8018 39.0778L22.7976 39.0785L22.7943 39.0791L22.7901 39.0799L22.7867 39.0804L22.7825 39.0812L22.7792 39.0817L22.775 39.0825L22.7716 39.083L22.7675 39.0838L22.7641 39.0843L22.7591 39.0853L22.7565 39.0856L22.7492 39.0869L22.7474 39.0871L22.7417 39.0882L22.7386 39.0887L22.7342 39.0895L22.7308 39.09L22.7264 39.0905L22.723 39.091L22.7188 39.0918L22.7154 39.0923L22.7113 39.0929L22.7079 39.0936L22.7035 39.0942L22.6925 39.096L22.6873 39.0968L22.6853 39.097L22.6777 39.0981L22.6751 39.0986L22.6699 39.0994L22.6668 39.0996L22.6626 39.1004L22.659 39.1007L22.6548 39.1014L22.6514 39.102L22.6473 39.1025L22.6439 39.103L22.6395 39.1035L22.6361 39.1041L22.6319 39.1046L22.6283 39.1051L22.6241 39.1056L22.6207 39.1059L22.615 39.1067L22.6132 39.1069L22.6056 39.108L22.6028 39.1082L22.5981 39.1087L22.595 39.1093L22.5903 39.1098L22.5872 39.1103L22.5825 39.1108L22.5794 39.1113L22.5749 39.1119L22.5716 39.1121L22.5671 39.1126L22.564 39.1132L22.5596 39.1137L22.5562 39.1139L22.5513 39.1145L22.5487 39.115L22.5416 39.1158L22.539 39.116L22.5336 39.1165L22.5305 39.1168L22.5258 39.1173L22.5224 39.1178L22.518 39.1181L22.5146 39.1186L22.5104 39.1191L22.5068 39.1194L22.5026 39.1197L22.4992 39.1202L22.4948 39.1204L22.4914 39.121L22.4868 39.1215L22.4782 39.1223H22.4761L22.4683 39.123L22.4665 39.1233L22.4579 39.1241L22.4529 39.1244L22.4496 39.1246L22.4454 39.1251L22.4417 39.1254L22.4376 39.1257L22.4342 39.1259L22.4298 39.1262L22.4264 39.1264L22.4217 39.127L22.4186 39.1272L22.4137 39.1275L22.4108 39.1277L22.4045 39.1283H22.403L22.3954 39.1288L22.3926 39.129L22.3876 39.1293L22.3843 39.1296L22.3798 39.1301L22.3764 39.1303L22.372 39.1306H22.3686L22.3642 39.1309L22.3608 39.1311L22.3562 39.1314L22.353 39.1316L22.3481 39.1319L22.345 39.1322L22.34 39.1324H22.3374L22.3301 39.1329H22.3283L22.3218 39.1332L22.319 39.1335L22.314 39.1337L22.3106 39.134H22.3062L22.3028 39.1342L22.2984 39.1345H22.295L22.2903 39.1348L22.287 39.135H22.2828L22.2792 39.1353L22.2745 39.1355H22.2713L22.2659 39.1358H22.2635L22.2557 39.1361L22.2537 39.1363H22.2479L22.2448 39.1366H22.2401L22.237 39.1368H22.2323L22.2289 39.1371H22.2245L22.2211 39.1374H22.2131L22.2084 39.1376H22.2053L22.2003 39.1379H22.1894L22.1816 39.1381H22.1793L22.1738 39.1384H22.1626L22.1579 39.1387H22.115C20.8923 39.1361 19.7424 38.5573 19.0116 37.5765L6.51881 39.1387C4.36526 39.1387 2.61963 37.3925 2.61963 35.2383V34.2466ZM26.6789 36.8996C26.6781 36.361 27.1138 35.924 27.6524 35.9232C27.6929 35.9232 27.7338 35.9256 27.7741 35.9308L37.8116 37.1859C38.3501 37.1583 38.853 36.9087 39.2006 36.4965C39.5468 36.0872 40.159 36.0344 40.5703 36.3786C40.9831 36.7245 41.0378 37.3394 40.692 37.7524C40.3398 38.1703 39.9038 38.5097 39.4123 38.7488L39.4118 38.7491L39.4069 38.7514H39.4066L39.4014 38.754L39.3642 38.7717H39.3639L39.359 38.7741L39.3582 38.7743L39.353 38.7769L39.3481 38.7793H39.3478C39.3426 38.7817 39.3374 38.7841 39.3321 38.7865C39.3268 38.789 39.3215 38.7914 39.3163 38.7939L39.3153 38.7941L39.3111 38.7962L39.3098 38.7967L39.3057 38.7988L39.3044 38.7993L39.2999 38.8014L39.2989 38.8017L39.2945 38.8037L39.2934 38.8043L39.2887 38.8063L39.2887 38.8064C39.2817 38.8095 39.2747 38.8126 39.2677 38.8155L39.2669 38.816L39.2627 38.8178L39.2612 38.8183L39.2573 38.8201L39.2518 38.8225L39.2497 38.8233L39.2461 38.8248L39.244 38.8256L39.2404 38.8272L39.2383 38.8282L39.2346 38.8298L39.2326 38.8305L39.2292 38.8321L39.2268 38.8329C39.2246 38.8339 39.2225 38.8348 39.2203 38.8357C39.2182 38.8367 39.216 38.8376 39.2138 38.8386L39.2123 38.8391L39.2086 38.8407L39.2063 38.8417L39.2029 38.843L39.2008 38.8441L39.1972 38.8454L39.1948 38.8464L39.1915 38.8477L39.1894 38.8488L39.1857 38.8501L39.1834 38.8511L39.18 38.8524L39.1779 38.8534L39.1743 38.8548L39.1719 38.8558L39.1686 38.8571L39.1649 38.8587L39.16 38.8605L39.1571 38.8618L39.1543 38.8628L39.1514 38.8641L39.1485 38.8652L39.1454 38.8665L39.1425 38.8675L39.1397 38.8688L39.1368 38.8698L39.1337 38.8711L39.1311 38.8722L39.1277 38.8732L39.1251 38.8745L39.1217 38.8756L39.1191 38.8766L39.1157 38.8779L39.1134 38.879L39.1085 38.8808L39.1053 38.8818L39.1017 38.8834L39.0991 38.8844L39.0957 38.8857L39.09 38.8878L39.0869 38.8888L39.084 38.8899L39.0812 38.8912L39.078 38.8922L39.0754 38.8933L39.072 38.8946L39.0694 38.8953L39.0661 38.8966L39.0635 38.8977L39.0596 38.899L39.0577 38.8998L39.0458 38.9042L39.0439 38.905L39.04 38.9063L39.0374 38.9071L39.0341 38.9084L39.0315 38.9094L39.0281 38.9107L39.0255 38.9115L39.0221 38.9128L39.0195 38.9136L39.0161 38.9149L39.0132 38.9159L39.0101 38.9169L39.0075 38.9177L39.0036 38.9193L39.0015 38.9201L38.9974 38.9214L38.9948 38.9224L38.9898 38.924L38.987 38.925L38.9836 38.9263L38.9813 38.9271L38.9776 38.9284L38.9753 38.9292L38.9716 38.9305L38.9693 38.9313L38.9656 38.9326L38.9594 38.9346L38.9573 38.9354L38.9532 38.9367L38.9513 38.9372L38.9464 38.9391L38.9451 38.9393L38.9394 38.9414H38.9391L38.9329 38.9435L38.9323 38.9437L38.9269 38.9456L38.9253 38.9458L38.9209 38.9474L38.9191 38.9479L38.9146 38.9495L38.9128 38.95L38.9087 38.9516L38.9068 38.9521L38.9024 38.9534L38.9006 38.9542L38.8962 38.9555L38.8884 38.9581C38.8847 38.9591 38.881 38.9603 38.8773 38.9615C38.8748 38.9623 38.8723 38.963 38.8699 38.9638L38.8696 38.964L38.8637 38.9656L38.8626 38.9661L38.8574 38.9677L38.8564 38.968L38.8514 38.9695L38.8499 38.97L38.8452 38.9713L38.8439 38.9719L38.8392 38.9732L38.8374 38.9737L38.8324 38.9752L38.8314 38.9755L38.8127 38.981L38.8116 38.9812L38.8064 38.9828L38.8054 38.983L38.8004 38.9846L38.7989 38.9851L38.7942 38.9864L38.7924 38.9869L38.7882 38.9882L38.7859 38.9888L38.7817 38.9901L38.7799 38.9906L38.7752 38.9919L38.7739 38.9924L38.7682 38.994H38.7677L38.7549 38.9976L38.7544 38.9979L38.7487 38.9994L38.7471 38.9997L38.7427 39.001L38.7409 39.0015L38.7362 39.0028L38.7344 39.0033L38.7299 39.0044L38.7281 39.0049L38.7237 39.0062L38.7219 39.0067L38.7169 39.008L38.7159 39.0083L38.7099 39.0098H38.7096L38.6966 39.0132H38.6964L38.6904 39.0148L38.6894 39.0153L38.6844 39.0164L38.6826 39.0169L38.6782 39.0182L38.6763 39.0184L38.6719 39.0197L38.6698 39.0203L38.6654 39.0213L38.6636 39.0218L38.6589 39.0229L38.6574 39.0234L38.6519 39.0247L38.6511 39.0249L38.6321 39.0296L38.6306 39.0299L38.6259 39.0309L38.6241 39.0314L38.6196 39.0325L38.6176 39.033L38.6131 39.034L38.6113 39.0346L38.6069 39.0356L38.6051 39.0361L38.6001 39.0372L38.5988 39.0374L38.5934 39.0387L38.5926 39.039L38.5796 39.0419H38.5793L38.5731 39.0434L38.5723 39.0437L38.5668 39.0447L38.5655 39.045L38.5606 39.0463L38.5588 39.0465L38.5543 39.0476L38.5523 39.0478L38.5476 39.0489L38.5463 39.0491L38.5413 39.0502L38.5398 39.0507L38.5343 39.0517L38.5335 39.052L38.5273 39.0533H38.527L38.514 39.0562H38.5135L38.5075 39.0575L38.5067 39.0577L38.5013 39.0588L38.4997 39.059L38.4948 39.0601L38.4935 39.0603L38.4885 39.0614L38.487 39.0616L38.482 39.0627L38.4805 39.0629L38.4755 39.064L38.474 39.0642L38.468 39.0653L38.4677 39.0655L38.4547 39.0679L38.4539 39.0681L38.4482 39.0692L38.4469 39.0694L38.442 39.0705L38.4401 39.0707L38.4354 39.0715L38.4334 39.072L38.4289 39.0728L38.4269 39.0731L38.4224 39.0739L38.4204 39.0744L38.4159 39.0752L38.4141 39.0754L38.4084 39.0765L38.4079 39.0767L38.3949 39.0791L38.3936 39.0793L38.3884 39.0801L38.3865 39.0804L38.3821 39.0812L38.3798 39.0817L38.3754 39.0825L38.3733 39.0827L38.3691 39.0835L38.3668 39.0838L38.3623 39.0845L38.3603 39.0848L38.354 39.0858L38.3486 39.0869H38.3478C38.3413 39.0882 38.3345 39.0892 38.328 39.0903L38.327 39.0905L38.3218 39.0913L38.3199 39.0916L38.3153 39.0923L38.3132 39.0926L38.3088 39.0934L38.3069 39.0936L38.302 39.0942L38.3004 39.0944L38.2955 39.0952L38.2939 39.0955L38.2885 39.0962L38.2874 39.0965L38.2677 39.0994L38.2663 39.0996L38.2614 39.1001L38.2593 39.1004L38.2546 39.1012L38.2528 39.1014L38.2484 39.102L38.2461 39.1022L38.2416 39.103L38.2396 39.1033L38.2351 39.1038L38.2333 39.1041L38.2281 39.1048H38.2265L38.2203 39.1056L38.207 39.1074L38.2055 39.1077L38.2005 39.1082L38.1984 39.1085L38.194 39.109L38.1917 39.1093L38.1875 39.1098L38.1852 39.11L38.181 39.1106L38.1787 39.1108L38.1743 39.1113L38.1722 39.1116L38.1675 39.1121L38.1657 39.1124L38.1599 39.1132H38.1592L38.1527 39.1139H38.1519L38.1459 39.1147H38.1446L38.1394 39.1152L38.1376 39.1155L38.1329 39.116L38.1308 39.1163L38.1264 39.1168L38.124 39.1171L38.1196 39.1173L38.1178 39.1176L38.1131 39.1181L38.111 39.1184L38.1061 39.1189L38.1045 39.1191L38.0993 39.1197H38.0978L38.0848 39.121H38.0829L38.0759 39.1217L38.0718 39.1223H38.0692L38.065 39.1228L38.0626 39.123L38.0585 39.1233L38.0561 39.1236L38.052 39.1238L38.0494 39.1241L38.0455 39.1244L38.0426 39.1246L38.0382 39.1251H38.0364L38.0231 39.1262H38.0221L38.0166 39.1267H38.0145L38.0098 39.1272L38.0078 39.1275L38.0036 39.1277L38.001 39.128L37.9968 39.1283H37.9942L37.9903 39.1285L37.9877 39.1288L37.9836 39.129L37.981 39.1293L37.9765 39.1296L37.9745 39.1298L37.969 39.1301L37.968 39.1303L37.9612 39.1306H37.9599L37.9547 39.1311H37.9523L37.9482 39.1314L37.9453 39.1316L37.9417 39.1319H37.9388L37.9352 39.1322L37.9321 39.1324L37.9284 39.1327H37.9255L37.9216 39.1329L37.9188 39.1332H37.9146L37.9125 39.1335L37.9076 39.1337H37.9058L37.8993 39.134L37.8977 39.1342H37.8928L37.8902 39.1345L37.886 39.1348H37.8831L37.8795 39.135H37.8764L37.8727 39.1353H37.8699L37.866 39.1355H37.8634L37.8592 39.1358H37.8569L37.8524 39.1361H37.8501L37.8452 39.1363H37.8436L37.8368 39.1366H37.8355L37.8303 39.1368H37.8238L37.8207 39.1371H37.8142L37.8103 39.1374H37.8035L37.8009 39.1376H37.79L37.7877 39.1379H37.7736L37.7676 39.1381H37.7515L37.7476 39.1384H37.7112L37.5975 39.1241L37.5967 39.1238L37.4599 39.1069H37.4596L37.2806 39.0845H37.2804L37.2746 39.0838L37.2728 39.0835L37.2213 39.077L37.2195 39.0767L36.7811 39.0221L36.7806 39.0218L36.7746 39.0213L36.7692 39.0205L36.6981 39.0117L36.624 39.0023L36.6204 39.0018L36.5043 38.9875L36.5028 38.9872L36.465 38.9825L36.4588 38.9817L36.4562 38.9815L36.4312 38.9784L36.4242 38.9773L36.4203 38.9768L36.381 38.9719H36.3802L36.2967 38.9614H36.2954L36.2135 38.951L36.2046 38.95L36.1898 38.9482L36.1633 38.9448L36.1471 38.9427L36.1417 38.9422L36.1315 38.9409L36.1175 38.9391L36.1089 38.938L36.0665 38.9326L36.0543 38.9313L36.0509 38.9307L36.0454 38.9302L36.0173 38.9266L36.0098 38.9255L36.0048 38.925L35.9874 38.9229L35.9827 38.9222L35.9471 38.9177L35.8451 38.905L35.8435 38.9047L35.8011 38.8995L35.7936 38.8985L35.7715 38.8959L35.766 38.8951L35.7533 38.8935L35.7421 38.8922L35.7275 38.8904L35.7218 38.8896L35.7132 38.8886L35.7114 38.8883L35.6039 38.8748L35.6003 38.8745L35.5784 38.8717L35.5748 38.8711L35.5558 38.8688L35.5493 38.868L35.5282 38.8654L35.5269 38.8652L35.5025 38.862L35.4557 38.8563L35.4497 38.8555L35.4283 38.8529L35.4213 38.8519L35.4052 38.8501L35.3992 38.8493L35.3833 38.8472L35.3732 38.8462L35.3625 38.8446L35.323 38.8397L35.3042 38.8376L35.2837 38.835L35.2743 38.8337L35.2717 38.8334L35.2644 38.8324L35.2283 38.8279L35.2267 38.8277L35.2192 38.8269L35.2002 38.8243L35.1895 38.823L35.171 38.8207L35.1677 38.8204L35.1596 38.8194L35.1104 38.8131L35.0948 38.8113L35.0878 38.8105L35.0659 38.8076L35.0592 38.8069L35.054 38.8063L35.0212 38.8022L35.015 38.8014L35.0043 38.8001L34.9991 38.7993L34.9762 38.7965L34.9601 38.7944L34.9234 38.79L34.9213 38.7897L34.9135 38.7887L34.9086 38.7881L34.8836 38.785L34.882 38.7847L34.8698 38.7832L34.8682 38.7829L34.8427 38.7798H34.8417L34.7623 38.7699L34.7553 38.7689L34.7467 38.7678L34.6807 38.7595L34.6752 38.759L34.6388 38.7543L34.6346 38.7538L34.5815 38.7473H34.581L34.3596 38.7194L34.3549 38.7189L34.1445 38.6926L34.1424 38.6924L34.1343 38.6913L34.126 38.6903L34.112 38.6885L34.1005 38.6869L33.8333 38.6536L33.8195 38.6518L33.7719 38.646L33.7584 38.6442L33.7402 38.6419L33.7373 38.6416L33.7288 38.6406L33.723 38.6398L33.4189 38.6018L33.4103 38.6008L33.3736 38.5961L33.371 38.5958L27.5322 37.8659C27.0452 37.8047 26.6794 37.3907 26.6789 36.8996Z" fill="#005EEE"/>
<path d="M4.5691 4.03613H39.6607C41.8142 4.03613 43.5598 5.78229 43.5598 7.93648V31.3381C43.5598 33.492 41.8142 35.2381 39.6607 35.2381H4.5691C2.41555 35.2381 0.669922 33.492 0.669922 31.3381V7.93648C0.669922 5.78229 2.41555 4.03613 4.5691 4.03613Z" fill="#B8C2FF"/>
<path d="M40.6353 5.98633C42.2504 5.98633 43.5597 7.29607 43.5597 8.91159V30.363C43.5597 31.9785 42.2504 33.2883 40.6353 33.2883C39.0203 33.2883 37.7109 31.9785 37.7109 30.363V8.91159C37.7109 7.29607 39.0203 5.98633 40.6353 5.98633Z" fill="#7388FF"/>
<path d="M22.115 35.2382L6.13066 33.6393C4.13736 33.44 2.61963 31.7623 2.61963 29.7585V6.39569C2.61963 4.24176 4.36526 2.49561 6.51855 2.49561C6.6481 2.49561 6.77766 2.50211 6.90669 2.51486L22.115 4.03618V35.2382Z" fill="#DFE5FF"/>
<path d="M22.1147 35.2382L38.0991 33.6393C40.0921 33.44 41.6101 31.7623 41.6101 29.7585V6.39569C41.6101 4.24176 39.8645 2.49561 37.7109 2.49561C37.5814 2.49561 37.4521 2.50211 37.323 2.51486L22.1147 4.03618V35.2382Z" fill="#CCD4FF"/>
<path d="M37.7111 4.03613C36.6346 4.03613 35.7618 4.90921 35.7616 5.98605C35.7616 5.98631 35.7616 5.98631 35.7616 5.98631V29.3879H27.9635C26.8869 29.3881 26.0144 30.2617 26.0146 31.3388C26.0152 32.4152 26.8875 33.2877 27.9635 33.288H35.7616C37.9151 33.288 39.6607 31.5418 39.6607 29.3879V5.98631C39.6607 4.90921 38.7879 4.03613 37.7114 4.03613C37.7114 4.03613 37.7114 4.03613 37.7111 4.03613Z" fill="#B8C2FF"/>
<path d="M22.115 2.08609L9.94946 0.119783C9.01499 0.00293896 8.07869 0.324325 7.4127 0.990517C6.8401 1.56329 6.51855 2.33982 6.51855 3.1494V27.8472C6.51855 29.8346 8.01261 31.5042 9.98718 31.7236L22.115 33.2881V2.08609Z" fill="#EFF2FF"/>
<path d="M22.1147 2.0859L34.2803 0.103194C35.2148 -0.0136502 36.1511 0.307475 36.817 0.973928C37.3896 1.54644 37.7112 2.32297 37.7112 3.13281V27.4616C37.7112 29.449 36.2171 31.1184 34.2426 31.338L22.1147 33.2882V2.0859Z" fill="#DFE5FF"/>
<path d="M24.0643 2.08594C25.1408 2.08594 26.0139 2.95901 26.0139 4.03611V31.338C26.0139 32.4149 25.1411 33.288 24.0643 33.288C22.9876 33.288 22.1147 32.4149 22.1147 31.338V4.03611C22.1147 2.95901 22.9876 2.08594 24.0643 2.08594Z" fill="#CCD4FF"/>
<path d="M23.0895 4.03613C23.6278 4.03613 24.0643 4.4728 24.0643 5.01122V30.363C24.0643 30.9014 23.6278 31.3381 23.0895 31.3381C22.5513 31.3381 22.1147 30.9014 22.1147 30.363V5.01122C22.1147 4.4728 22.5513 4.03613 23.0895 4.03613Z" fill="#A4B1FF"/>
<path d="M27.9635 2.08594C29.0403 2.08594 29.9131 2.95901 29.9131 4.03611V19.6372C29.9131 20.7141 29.0403 21.5872 27.9637 21.5872C26.887 21.5872 26.0142 20.7141 26.0142 19.6372V4.03611C26.0142 2.95901 26.887 2.08594 27.9635 2.08594Z" fill="#A4B1FF"/>
<path d="M19.1917 21.5875C19.1272 21.5875 19.0627 21.5813 18.9995 21.5683L9.25181 19.6181C8.72396 19.5124 8.38159 18.9987 8.48748 18.4707C8.5931 17.9427 9.10664 17.6005 9.63449 17.7062L19.3822 19.6563C19.91 19.762 20.2521 20.2759 20.1465 20.8037C20.0555 21.2591 19.6559 21.587 19.1917 21.5875Z" fill="#002755"/>
<path d="M19.1917 15.7387C19.1272 15.739 19.0627 15.7324 18.9995 15.7197L9.25181 13.7695C8.72396 13.6639 8.38159 13.1502 8.48748 12.6222C8.5931 12.0942 9.10664 11.7517 9.63449 11.8576L19.3822 13.8078C19.91 13.9134 20.2521 14.4271 20.1465 14.9551C20.0555 15.4103 19.6559 15.7382 19.1917 15.7387Z" fill="#002755"/>
<path d="M19.1915 9.88667C19.127 9.88667 19.0625 9.88042 18.9992 9.86741L14.1253 8.89258C13.5974 8.78667 13.2553 8.27297 13.3609 7.74496C13.4601 7.22138 13.965 6.87735 14.4884 6.9765C14.4949 6.9778 14.5015 6.9791 14.5082 6.9804L19.3819 7.95549C19.9098 8.06114 20.2521 8.57484 20.1463 9.10285C20.0552 9.55825 19.6556 9.88615 19.1915 9.88667Z" fill="#002755"/>
<path d="M19.1916 27.4391C19.1271 27.4393 19.0626 27.4331 18.9994 27.4201L9.25168 25.4702C8.72383 25.3637 8.38225 24.8495 8.48866 24.3218C8.5948 23.7948 9.1073 23.4531 9.63437 23.558L19.3821 25.5082C19.9096 25.6138 20.252 26.1275 20.1464 26.6555C20.0553 27.1109 19.6557 27.4388 19.1916 27.4391Z" fill="#002755"/>
<path d="M25.0382 21.5875C24.5 21.587 24.0639 21.1498 24.0645 20.6114C24.065 20.1471 24.3928 19.7474 24.8478 19.6563L34.5955 17.7062C35.1233 17.6005 35.6369 17.9427 35.7425 18.4707C35.8481 18.9987 35.506 19.5124 34.9781 19.6181L25.2305 21.5683C25.1672 21.5813 25.1027 21.5875 25.0382 21.5875Z" fill="#002755"/>
<path d="M25.0382 15.7389C24.5 15.7383 24.0639 15.3014 24.0645 14.7627C24.065 14.2985 24.3928 13.8988 24.8478 13.8077L34.5955 11.8575C35.1233 11.7519 35.6369 12.0943 35.7427 12.6223C35.8484 13.1501 35.506 13.664 34.9781 13.7697L25.2305 15.7199C25.1672 15.7326 25.1027 15.7391 25.0382 15.7389Z" fill="#002755"/>
<path d="M25.0382 9.88683C24.5 9.88631 24.0639 9.44912 24.0645 8.9107C24.065 8.44645 24.3928 8.04673 24.8478 7.95565L34.5955 6.00548C35.1233 5.89982 35.6369 6.24203 35.7425 6.77004C35.8481 7.29805 35.506 7.81174 34.9781 7.91766L25.2305 9.86757C25.1672 9.88058 25.1027 9.88683 25.0382 9.88683Z" fill="#002755"/>
<path d="M25.0382 27.4391C24.5 27.4386 24.0639 27.0017 24.0645 26.4632C24.065 25.999 24.3928 25.5993 24.8478 25.5082L34.5955 23.558C35.1236 23.4529 35.6366 23.7959 35.7417 24.3239C35.8465 24.8511 35.505 25.3638 34.9781 25.4699L25.2305 27.4201C25.1672 27.4331 25.1027 27.4394 25.0382 27.4391Z" fill="#002755"/>
<path d="M26.014 0.135742C27.0906 0.135742 27.9634 1.00882 27.9634 2.08592V17.6871C27.9634 18.7639 27.0906 19.637 26.014 19.637C24.9373 19.637 24.0645 18.7639 24.0645 17.6871V2.08592C24.0645 1.00908 24.9373 0.135742 26.014 0.135742Z" fill="#FFD700"/>
<path d="M12.367 5.98631C12.367 7.06341 11.4941 7.93648 10.4174 7.93648C9.34059 7.93648 8.46777 7.06341 8.46777 5.98631C8.46777 4.90921 9.34059 4.03613 10.4174 4.03613C11.4941 4.03613 12.367 4.90921 12.367 5.98631Z" fill="#002755"/>
</svg>
