<svg width="42" height="41" viewBox="0 0 42 41" fill="none" xmlns="http://www.w3.org/2000/svg">
<path d="M23.9311 0.233887C23.234 0.241232 22.5714 0.537746 22.1013 1.05242C21.0845 2.13392 18.6423 3.9037 13.5458 3.9037C8.44896 3.9037 6.00683 2.13392 4.99021 1.05242C4.51985 0.537746 3.85729 0.241232 3.1602 0.233887C1.80226 0.233887 0.70166 1.33449 0.70166 2.69243V20.4174C0.70166 27.5109 6.45221 33.2615 13.5458 33.2615C20.6393 33.2615 26.3896 27.5109 26.3896 20.4174V2.69243C26.3896 1.33449 25.289 0.233887 23.9311 0.233887Z" fill="#435E88"/>
<path d="M17.2155 31.4267C17.2155 32.4401 16.394 33.2616 15.3808 33.2616C14.3674 33.2616 13.5459 32.4401 13.5459 31.4267C13.5459 30.4133 14.3674 29.5918 15.3808 29.5918C16.394 29.5918 17.2155 30.4133 17.2155 31.4267Z" fill="#33527D"/>
<path d="M17.2155 29.5918H9.87617C8.86298 29.5918 8.0415 28.7704 8.0415 27.7569C8.0415 24.7169 10.5059 22.2524 13.546 22.2524C16.586 22.2524 19.0505 24.7169 19.0505 27.7569C19.0505 28.7704 18.229 29.5918 17.2155 29.5918Z" fill="#163969"/>
<path d="M17.2153 29.5918H9.87592C8.86249 29.5918 8.04102 28.7704 8.04102 27.7572C8.04102 27.7569 8.04102 27.7569 8.04102 27.7569C8.04102 24.7169 10.5054 22.2524 13.5457 22.2524H13.5626C13.5639 22.2524 13.5651 22.2524 13.5661 22.2524H13.5834C13.5852 22.2524 13.5871 22.2527 13.5886 22.2527H13.6092C13.6111 22.2529 13.6128 22.2529 13.615 22.2529H13.6177C13.6197 22.2529 13.6221 22.2529 13.6241 22.2529H13.626C13.6285 22.2532 13.6312 22.2532 13.6336 22.2532H13.6349C13.6525 22.2534 13.6699 22.2537 13.6875 22.2542H13.688C13.6909 22.2544 13.6939 22.2544 13.6966 22.2544C13.8222 22.2578 13.9466 22.2654 14.0702 22.2772C14.5744 22.3266 14.9429 22.7757 14.8934 23.2801C14.8471 23.7492 14.4527 24.1072 13.9813 24.1077C13.9527 24.1077 13.9238 24.1064 13.8946 24.1035C13.7796 24.0927 13.6633 24.0873 13.5457 24.0873C11.5198 24.0896 9.87813 25.7313 9.87592 27.7572H17.2153C17.7221 27.7572 18.1328 28.1678 18.1328 28.6746C18.1328 29.1812 17.7221 29.5918 17.2153 29.5918Z" fill="#002755"/>
<path d="M22.7202 14.913C22.7202 16.9396 21.0773 18.5825 19.0504 18.5825C17.0238 18.5825 15.3809 16.9396 15.3809 14.913C15.3809 12.8861 17.0238 11.2432 19.0504 11.2432C21.0773 11.2432 22.7202 12.8861 22.7202 14.913Z" fill="#FFBE00"/>
<path d="M38.6103 7.57324C37.9132 7.58083 37.2504 7.87735 36.7803 8.39202C35.7637 9.47352 33.3213 11.2431 28.2247 11.2431C23.1282 11.2431 20.686 9.47352 19.6692 8.39202C19.1991 7.8771 18.5365 7.58083 17.8394 7.57324C16.4815 7.57324 15.3809 8.67409 15.3809 10.0318V27.7567C15.3809 34.8503 21.1312 40.6008 28.2247 40.6008C35.3183 40.6008 41.0688 34.8503 41.0688 27.7567V10.0318C41.0688 8.67409 39.9682 7.57324 38.6103 7.57324Z" fill="#FFD700"/>
<path d="M17.8393 3.90381C14.4562 3.90748 11.7149 6.64907 11.7109 10.0319V12.882C11.7109 12.8989 11.7112 12.9158 11.7117 12.9324C11.7112 12.9493 11.7109 12.966 11.7109 12.9829V18.4876C11.7102 19.5008 12.5312 20.3227 13.5446 20.3235C14.5581 20.3242 15.38 19.5032 15.3808 18.4898C15.3808 18.489 15.3808 18.4883 15.3808 18.4873V12.9829C15.3808 12.966 15.3805 12.9491 15.38 12.9324C15.3805 12.9155 15.3808 12.8989 15.3808 12.882V10.0319C15.3808 8.67422 16.4814 7.57338 17.839 7.57338C18.5361 7.58072 19.1989 7.87724 19.6691 8.39191L19.6722 8.39534L19.673 8.39632L19.6764 8.39975L19.6786 8.4022L19.683 8.4066L19.6852 8.40905L19.6862 8.41003L19.6886 8.41272L19.6896 8.41346L19.6926 8.41689C20.1781 8.9274 20.9773 9.58409 22.2155 10.136H22.2157L22.2243 10.1399C22.2417 10.1475 22.2591 10.1551 22.2767 10.1629L22.2772 10.1632L22.2853 10.1666L22.2863 10.1671L22.2939 10.1703L22.2948 10.1707C22.3095 10.1771 22.324 10.1835 22.3387 10.1896L22.3394 10.1901L22.347 10.1933L22.3489 10.194L22.3575 10.1977L22.3646 10.2009L22.3663 10.2016L22.3734 10.2045L22.3749 10.2053L22.383 10.2087L22.3837 10.2089C22.3925 10.2126 22.4011 10.2163 22.4102 10.2202L22.4116 10.2207L22.4187 10.2236L22.4209 10.2246L22.4273 10.2276L22.4297 10.2285L22.4361 10.231L22.4386 10.2322L22.4449 10.2347L22.4474 10.2359L22.4542 10.2388L22.4559 10.2393C22.4618 10.242 22.4679 10.2442 22.4738 10.2469L22.4743 10.2471L22.4824 10.2503L22.4846 10.2513L22.4912 10.254L22.4939 10.255L22.5 10.2574L22.5032 10.2586L22.5088 10.2611L22.512 10.2623L22.5176 10.2648L22.5208 10.266L22.5265 10.2682L22.5296 10.2697L22.5363 10.2724L22.5385 10.2731L22.547 10.2768L22.5492 10.2777L22.5561 10.2804L22.559 10.2814L22.5647 10.2839L22.5686 10.2853L22.5735 10.2873L22.5774 10.289L22.5823 10.2907L22.5864 10.2924L22.5911 10.2944L22.5953 10.2961L22.5999 10.2978L22.6041 10.2995L22.6092 10.3015L22.6129 10.303L22.62 10.3059L22.6246 10.3076L22.6303 10.3098L22.6344 10.3115L22.6391 10.3135L22.6479 10.3169L22.6526 10.3186L22.6567 10.3204L22.6616 10.3223L22.6658 10.3238L22.6743 10.3272L22.6795 10.3292L22.6832 10.3306L22.6885 10.3326L22.691 10.3338L22.7035 10.3385L22.7057 10.3394L22.7116 10.3417L22.7145 10.3429L22.7201 10.3448L22.7236 10.3463L22.7289 10.3483L22.7324 10.3497L22.738 10.3517L22.7414 10.3532L22.7471 10.3551L22.75 10.3563L22.7561 10.3585L22.7586 10.3598L22.7649 10.362L22.7664 10.3627C22.7745 10.3656 22.7821 10.3686 22.7902 10.3715L22.7909 10.3718L22.7978 10.3745L22.8 10.3752L22.8066 10.3776L22.809 10.3786L22.8156 10.3811L22.8178 10.3818L22.8244 10.3845L22.8266 10.3852L22.8335 10.3877L22.835 10.3882L22.8426 10.3911H22.8428C22.8541 10.3953 22.8656 10.3997 22.8771 10.4038H22.8773L22.8854 10.4068L22.8864 10.407L22.894 10.41L22.8954 10.4105L22.903 10.4131L22.9043 10.4136L22.9121 10.4166H22.9123C22.9216 10.42 22.9305 10.4232 22.9398 10.4266C23.8935 10.7692 24.9444 10.2741 25.2871 9.32038C25.6297 8.36718 25.1351 7.31677 24.1819 6.97349C23.1168 6.58981 22.5722 6.12264 22.3423 5.87828C21.1768 4.62954 19.5479 3.91532 17.8393 3.90381Z" fill="#33527D"/>
<path d="M28.2245 36.744C28.2245 37.8681 27.2138 38.7777 26.1105 38.5625C21.0477 37.574 17.2153 33.1048 17.2153 27.7568V10.0318C17.2156 9.68758 17.4947 9.40845 17.839 9.4082C18.0292 9.41898 18.2072 9.5059 18.3326 9.64914C19.4116 10.7982 21.8462 12.6461 26.5287 13.0134C27.4824 13.0859 28.2204 13.8787 28.2245 14.8353V36.744Z" fill="#FFEA21"/>
<path d="M31.8945 29.5918H24.5551C23.5417 29.5918 22.7202 30.4133 22.7202 31.4267C22.7202 34.4668 25.1846 36.9312 28.2247 36.9312C31.2648 36.9312 33.7292 34.4668 33.7292 31.4267C33.7294 30.4133 32.9079 29.5918 31.8945 29.5918Z" fill="#FFA300"/>
<path fill-rule="evenodd" clip-rule="evenodd" d="M28.2247 27.7568H31.8945C32.5943 27.7563 33.2799 27.9564 33.8697 28.333C34.2967 28.6057 34.4216 29.1731 34.1488 29.6001C33.8761 30.0268 33.3087 30.152 32.8817 29.879C32.8545 29.8616 32.8269 29.8449 32.7987 29.829H32.7985L32.7916 29.8251L32.7911 29.8248L32.7889 29.8236L32.7884 29.8234L32.7845 29.8209L32.7838 29.8207L32.7818 29.8197L32.7811 29.8192L32.7774 29.8173L32.7767 29.8168L32.775 29.8158L32.7737 29.815L32.7679 29.8121L32.7662 29.8111L32.7649 29.8104L32.762 29.8089L32.761 29.8082L32.7591 29.8072L32.7578 29.8065L32.7544 29.8048L32.7517 29.8033L32.7483 29.8016L32.7475 29.8011L32.7446 29.7996L32.7434 29.7989L32.7412 29.7979L32.7404 29.7974L32.7373 29.7957L32.7333 29.7937L32.7267 29.7903L32.7194 29.7866L32.7191 29.7864L32.716 29.7849L32.7157 29.7847C32.5578 29.7056 32.3891 29.6498 32.2152 29.6192H32.215L32.2072 29.6177H32.2069L32.1988 29.6165L32.1949 29.6157H32.1947L32.1908 29.615H32.1905L32.1868 29.6145L32.1866 29.6143L32.1788 29.6133L32.1783 29.613L32.1704 29.6118H32.1702L32.1663 29.6113H32.166L32.1624 29.6108L32.1619 29.6106L32.1582 29.6101H32.1579L32.1501 29.6091L32.1496 29.6089L32.1418 29.6079H32.1413L32.1376 29.6074H32.1374L32.1335 29.6069L32.133 29.6067L32.1295 29.6062H32.1291L32.1212 29.6052H32.1207L32.1129 29.6042H32.1124L32.1046 29.6033H32.1041L32.1007 29.603L32.1002 29.6028L32.0962 29.6025L32.0958 29.6023L32.0923 29.602H32.0918L32.084 29.601H32.0835L32.0796 29.6006L32.0757 29.6003H32.0752L32.0715 29.5998H32.071L32.0674 29.5996L32.0669 29.5993L32.0634 29.5991H32.0625L32.0588 29.5986L32.0549 29.5984H32.0541L32.0505 29.5981H32.0502L32.0465 29.5976H32.0458L32.0424 29.5974H32.0419L32.0382 29.5971H32.0375L32.0341 29.5969L32.0333 29.5966L32.0296 29.5964H32.0289L32.026 29.5962H32.025L32.0213 29.5959H32.0211L32.0174 29.5957L32.0164 29.5954H32.0132L32.0128 29.5952L32.0088 29.5949H32.0081L32.0049 29.5947H32.0042L32.0003 29.5944H32L31.9966 29.5942H31.9956L31.988 29.5937H31.9873L31.9836 29.5935H31.9834L31.9795 29.5932H31.9748L31.9711 29.593H31.9672L31.9662 29.5927H31.9618L31.9586 29.5925H31.9537L31.9501 29.5922H31.9408L31.9376 29.592H31.9241L31.9204 29.5917H28.2247C27.7181 29.5917 27.3072 29.1809 27.3072 28.6743C27.3072 28.1677 27.7181 27.7568 28.2247 27.7568ZM33.7294 31.4267C33.7294 30.9198 34.14 30.5092 34.6468 30.5092C35.1534 30.5092 35.5641 30.9198 35.5643 31.4267C35.5641 32.4763 35.3385 33.5135 34.9035 34.4687C33.2218 38.1586 28.8674 39.7866 25.1778 38.1052C24.7167 37.8946 24.5137 37.3503 24.7243 36.8895C24.9349 36.4284 25.4792 36.2257 25.94 36.436C26.202 36.5558 26.473 36.6547 26.7504 36.7316H26.7507L26.7588 36.7338H26.759L26.7668 36.736L26.7673 36.7362L26.7749 36.7384H26.7754L26.7832 36.7406H26.7837C26.8055 36.7465 26.8273 36.7524 26.8491 36.758H26.8494L26.8569 36.76L26.8577 36.7602L26.8648 36.7619L26.8662 36.7624L26.8731 36.7641L26.8746 36.7644L26.8812 36.7661L26.8831 36.7666L26.8898 36.7683L26.8912 36.7688L26.8981 36.7703L26.8998 36.7708L26.9064 36.7725L26.9084 36.773L26.915 36.7744L26.9167 36.7749L26.9235 36.7766L26.9243 36.7769L26.9725 36.7881L26.9735 36.7884L26.9801 36.7901L26.9823 36.7906L26.9884 36.7918L26.9909 36.7925L26.997 36.7938L26.9992 36.7945L27.0056 36.7957L27.0078 36.7965L27.0139 36.7977L27.0166 36.7982L27.0225 36.7996L27.031 36.8014L27.0335 36.8021L27.0396 36.8033L27.0418 36.8038L27.0482 36.8053L27.0504 36.8058L27.0567 36.807L27.058 36.8072C27.0634 36.8086 27.0689 36.8097 27.0744 36.8108C27.0769 36.8113 27.0794 36.8118 27.082 36.8124V36.8126L27.0886 36.8138L27.0905 36.8143L27.0964 36.8156L27.0993 36.8163L27.1047 36.8173L27.1079 36.818L27.1131 36.819L27.117 36.8197L27.1219 36.8207L27.1255 36.8217L27.139 36.8244L27.1429 36.8251L27.1476 36.8258L27.1517 36.8268L27.1564 36.8278L27.1603 36.8285L27.1689 36.8302L27.1738 36.831L27.1772 36.8317L27.1853 36.8332L27.2051 36.8371L27.2083 36.8376L27.213 36.8386L27.2171 36.8393L27.2218 36.84L27.2259 36.8408L27.2306 36.8418L27.2347 36.8425L27.248 36.8447L27.2524 36.8457L27.2568 36.8464L27.2609 36.8471L27.2656 36.8481L27.2698 36.8489L27.2744 36.8496L27.2786 36.8503L27.283 36.8511L27.2871 36.8518L27.292 36.8528L27.296 36.8535L27.3006 36.8542L27.3048 36.855L27.3097 36.8557L27.3136 36.8564L27.3182 36.8572L27.3192 36.8574L27.3322 36.8594L27.3356 36.8601L27.3403 36.8609L27.3444 36.8613L27.3488 36.8621L27.3535 36.8628L27.3577 36.8635L27.3623 36.8643L27.3667 36.865L27.3711 36.8655L27.3755 36.8662L27.3802 36.867L27.3841 36.8677L27.389 36.8684L27.3932 36.8689L27.3978 36.8697L27.402 36.8704L27.4066 36.8709L27.4108 36.8716L27.4157 36.8724L27.4196 36.8729L27.4247 36.8736L27.4287 36.8743L27.4333 36.8751L27.4377 36.8755L27.4431 36.8763L27.4465 36.8768L27.4554 36.878L27.4585 36.8785L27.4642 36.8792L27.4681 36.88L27.473 36.8807L27.4774 36.8812L27.482 36.8817L27.4862 36.8824L27.4909 36.8829L27.495 36.8836L27.4999 36.8841L27.5041 36.8846L27.5087 36.8853L27.5129 36.8858L27.518 36.8866L27.5217 36.8871L27.5271 36.8878L27.5308 36.8883L27.5359 36.8888L27.5398 36.8893L27.5447 36.89L27.5489 36.8905L27.554 36.891L27.5577 36.8915L27.5638 36.8922L27.5668 36.8927C27.5729 36.8934 27.5785 36.8942 27.5846 36.8946L27.5873 36.8951L27.5937 36.8959L27.5969 36.8961L27.6025 36.8968L27.6064 36.8973L27.6116 36.8978L27.6157 36.8983L27.6204 36.8988L27.6248 36.8993L27.6297 36.8998L27.6336 36.9L27.6387 36.9005L27.6427 36.901L27.6478 36.9015L27.6517 36.902L27.6569 36.9025L27.6605 36.9027L27.6662 36.9035L27.6696 36.9037L27.6752 36.9042L27.6787 36.9047L27.6843 36.9052L27.6877 36.9054L27.6941 36.9062L27.6968 36.9064L27.7058 36.9074H27.7063L27.7149 36.9081L27.7176 36.9084L27.724 36.9091L27.7271 36.9093L27.733 36.9098L27.7364 36.9101L27.7421 36.9106L27.7455 36.9108L27.7511 36.9113L27.7548 36.9118L27.7602 36.912L27.7639 36.9125L27.769 36.9128L27.7732 36.9133L27.7783 36.9135L27.782 36.914L27.7874 36.9145L27.791 36.9147L27.7969 36.9152L27.8001 36.9155L27.806 36.9157L27.8094 36.9159L27.8155 36.9164L27.8185 36.9167L27.8253 36.9172L27.8275 36.9174L27.8366 36.9179H27.8378L27.8456 36.9186L27.8493 36.9189L27.8547 36.9191L27.8584 36.9194L27.8638 36.9199L27.8677 36.9201L27.8728 36.9204L27.877 36.9206L27.8819 36.9208L27.886 36.9211L27.8909 36.9213L27.8954 36.9216L27.9 36.9218L27.9044 36.9223L27.9093 36.9226L27.9137 36.9228L27.9184 36.923L27.9228 36.9233L27.9277 36.9235L27.9318 36.9238L27.937 36.924H27.9409L27.9465 36.9245H27.95L27.9563 36.925H27.9593L27.9681 36.9255L27.9713 36.9257L27.9774 36.926H27.9813L27.9864 36.9262L27.9908 36.9265L27.9955 36.9267H27.9999L28.0048 36.927L28.0087 36.9272L28.0141 36.9275H28.018L28.0229 36.9277L28.0273 36.9279H28.0322L28.0366 36.9282L28.0415 36.9284H28.0457L28.0506 36.9287H28.0547L28.0599 36.9289H28.0641L28.0689 36.9292H28.0731L28.0792 36.9294H28.0822L28.0905 36.9297H28.0915L28.1005 36.9299H28.1035L28.1098 36.9301H28.1189L28.1231 36.9304H28.1324L28.1373 36.9306H28.1507L28.1559 36.9309H28.1693L28.1742 36.9311H28.2247C31.2647 36.9311 33.7294 34.4667 33.7294 31.4267Z" fill="#FFFC74"/>
<path d="M26.3897 22.2523C26.3897 24.279 24.7467 25.9219 22.7201 25.9219C20.6932 25.9219 19.0503 24.279 19.0503 22.2523C19.0503 20.2255 20.6932 18.5825 22.7201 18.5825C24.7467 18.5825 26.3897 20.2255 26.3897 22.2523Z" fill="#FFA300"/>
<path d="M22.7326 16.7476C22.7285 16.7476 22.7243 16.7476 22.7201 16.7476C22.7116 16.7476 22.7032 16.7478 22.6949 16.748L22.5696 16.7495C22.071 16.7549 21.6714 17.1633 21.6766 17.6618C21.6768 17.6675 21.6768 17.6733 21.6771 17.6792C21.692 18.1821 22.1034 18.5825 22.6065 18.5839C22.6107 18.5839 22.6149 18.5839 22.6193 18.5839C22.6266 18.5837 22.6342 18.5834 22.6418 18.5834H22.6435L22.6464 18.5832H22.6518L22.6562 18.583H22.6763L22.6815 18.5827H22.7201C24.747 18.5827 26.39 20.2257 26.39 22.2525C26.39 24.2791 24.747 25.9221 22.7201 25.9221H22.666L22.6619 25.9218H22.6482L22.6442 25.9216H22.6366L22.632 25.9214H22.6266L22.6246 25.9211H22.6193L22.6141 25.9209H22.6085L22.607 25.9206H22.6014L22.5906 25.9201H22.5891L22.5852 25.9199H22.5835L22.5796 25.9196H22.5781L22.5727 25.9194H22.5674L22.5659 25.9192H22.5617L22.5602 25.9189L22.5495 25.9184H22.548L22.5438 25.9182H22.5424L22.5375 25.9179H22.5372L22.5316 25.9177H22.5304L22.5262 25.9174H22.5247L22.5203 25.9172L22.5191 25.917L22.5083 25.9165H22.5069L22.5025 25.9162L22.5015 25.916L22.4963 25.9157H22.4961L22.4905 25.9155H22.4897L22.4851 25.9152L22.4836 25.915L22.4794 25.9147H22.4782L22.4672 25.914L22.4662 25.9138L22.4618 25.9135H22.4606L22.4555 25.913H22.4552L22.4496 25.9125H22.4491L22.4442 25.9123L22.4432 25.9121L22.4386 25.9118H22.4376L22.4263 25.9108H22.4258L22.4207 25.9103H22.42C22.4143 25.9099 22.4089 25.9094 22.4033 25.9089H22.4023L22.3977 25.9084H22.3967L22.3859 25.9074H22.3849L22.3803 25.9069H22.3793L22.368 25.9059L22.3627 25.9054L22.3619 25.9052L22.3568 25.9047H22.3565L22.3455 25.9037L22.3443 25.9035L22.3399 25.903H22.3389L22.3335 25.9025L22.3279 25.9018H22.3272L22.3225 25.9013L22.3213 25.901L22.3166 25.9005H22.3159L22.3049 25.8993H22.3044L22.2992 25.8988L22.2985 25.8986C22.2931 25.8981 22.2872 25.8974 22.2816 25.8966H22.2814C22.2757 25.8961 22.2701 25.8954 22.2645 25.8947H22.2642L22.2588 25.8939H22.2586C22.2527 25.8932 22.2471 25.8925 22.2415 25.8917H22.2412C22.2145 25.8883 22.1881 25.8846 22.1614 25.8805C21.6744 25.806 21.2077 25.6339 20.7892 25.3741H20.789C20.7829 25.3702 20.7765 25.3665 20.7704 25.3626L20.7702 25.3624L20.7608 25.3565L20.7564 25.3538L20.7559 25.3533L20.7518 25.3509L20.7515 25.3506L20.7425 25.3447L20.7417 25.3442L20.7381 25.342L20.7285 25.3357L20.728 25.3354L20.7241 25.333L20.7231 25.3325C20.7187 25.3296 20.7146 25.3266 20.7102 25.3237L20.7092 25.3232L20.7058 25.321L20.7048 25.3203L20.6962 25.3146L20.6874 25.3087L20.6867 25.308L20.6822 25.3053L20.6818 25.3048L20.6783 25.3026L20.6695 25.2967L20.6683 25.2958L20.6644 25.2931L20.6629 25.2923L20.66 25.2901L20.6556 25.2872L20.6543 25.2865L20.6504 25.2835L20.6492 25.2828L20.6463 25.2808L20.6445 25.2796L20.6421 25.2779L20.6404 25.2769L20.6365 25.274L20.6325 25.2713L20.6311 25.2703L20.6284 25.2683L20.6269 25.2674L20.6242 25.2654L20.6225 25.2644L20.6186 25.2617L20.6176 25.261L20.6147 25.259L20.613 25.2576L20.6105 25.2561L20.6088 25.2549L20.6049 25.2519C20.1911 24.9593 19.6186 25.0575 19.326 25.4713C19.0337 25.8851 19.1319 26.4576 19.5454 26.7502C19.5457 26.7502 19.5457 26.7504 19.5459 26.7504C22.0297 28.5035 25.4642 27.9115 27.2175 25.4277C28.9707 22.944 28.3786 19.5092 25.8949 17.7561C24.9745 17.1065 23.8773 16.7547 22.7507 16.7485C22.7446 16.7476 22.7387 16.7476 22.7326 16.7476Z" fill="#FFFC74"/>
<path d="M33.7416 16.7476C33.7375 16.7476 33.7333 16.7476 33.7291 16.7476C33.7206 16.7476 33.7122 16.7478 33.7039 16.748L33.5786 16.7495C33.08 16.7549 32.6802 17.1633 32.6856 17.6618C32.6856 17.6675 32.6858 17.6733 32.6861 17.6792C32.701 18.1821 33.1124 18.5825 33.6155 18.5839C33.6197 18.5839 33.6239 18.5839 33.628 18.5839C33.6356 18.5837 33.6432 18.5834 33.6508 18.5834H33.6525L33.6554 18.5832H33.6608L33.6652 18.583H33.6853L33.6905 18.5827H33.7291C35.756 18.5827 37.399 20.2257 37.399 22.2525C37.399 24.2791 35.756 25.9221 33.7291 25.9221H33.675L33.6709 25.9218H33.6569L33.653 25.9216H33.6456L33.6408 25.9214H33.6354L33.6334 25.9211H33.628L33.6229 25.9209H33.6172L33.6158 25.9206H33.6101L33.605 25.9204H33.6048L33.5996 25.9201H33.5979L33.594 25.9199H33.5925L33.5884 25.9196H33.5869L33.5815 25.9194H33.5761L33.5746 25.9192H33.5705L33.569 25.9189L33.5582 25.9184H33.557L33.5529 25.9182H33.5514L33.5462 25.9179H33.546L33.5404 25.9177H33.5391L33.535 25.9174H33.5335L33.5293 25.9172L33.5281 25.917L33.5171 25.9165H33.5159L33.5115 25.9162L33.5105 25.916L33.5053 25.9157H33.5049L33.4992 25.9155H33.4985L33.4941 25.9152L33.4924 25.915L33.4882 25.9147H33.487L33.4762 25.914L33.4752 25.9138L33.4708 25.9135H33.4694L33.4645 25.913H33.464L33.4586 25.9125H33.4578L33.453 25.9123L33.452 25.9121L33.4473 25.9118H33.4463L33.4351 25.9108H33.4346L33.4297 25.9103H33.429C33.4233 25.9099 33.4177 25.9094 33.4123 25.9089H33.4111L33.4067 25.9084H33.4057L33.3947 25.9074H33.3937L33.389 25.9069H33.3881L33.377 25.9059H33.3768L33.3714 25.9054L33.3707 25.9052L33.3655 25.9047H33.3653L33.3543 25.9037L33.3531 25.9035L33.3486 25.903H33.3477L33.3423 25.9025L33.3366 25.9018H33.3359L33.3313 25.9013L33.3303 25.901L33.3254 25.9005H33.3249L33.3136 25.8993H33.3131L33.308 25.8988L33.3075 25.8986C33.3019 25.8981 33.2962 25.8974 33.2906 25.8966H33.2904C33.2847 25.8961 33.2789 25.8954 33.2732 25.8947L33.2676 25.8939H33.2674C33.2617 25.8932 33.2561 25.8925 33.2505 25.8917H33.2502C33.2235 25.8883 33.1968 25.8846 33.1702 25.8805C32.6834 25.806 32.2165 25.6339 31.798 25.3741H31.7978C31.7916 25.3702 31.7855 25.3665 31.7794 25.3626L31.7792 25.3624L31.7699 25.3565L31.7654 25.3538L31.765 25.3533L31.7608 25.3509L31.7603 25.3506L31.7508 25.3442L31.7471 25.342L31.7463 25.3416L31.7373 25.3357L31.737 25.3354L31.7331 25.333L31.7321 25.3325C31.7277 25.3296 31.7233 25.3266 31.7189 25.3237L31.7182 25.3232L31.7148 25.321L31.7138 25.3203L31.705 25.3146L31.7045 25.3141L31.7008 25.3117L31.6998 25.3112L31.6964 25.3087L31.6954 25.308L31.6913 25.3053L31.6908 25.3048L31.6871 25.3026L31.6856 25.3016L31.6829 25.2997L31.6785 25.2967L31.6773 25.2958L31.6731 25.2931L31.6719 25.2923L31.669 25.2901L31.6646 25.2872L31.6633 25.2865L31.6594 25.2835L31.658 25.2828L31.655 25.2808L31.6535 25.2796L31.6511 25.2779L31.6494 25.2769L31.6464 25.2747L31.6452 25.274L31.6413 25.2713L31.6398 25.2703L31.6371 25.2683L31.6357 25.2674L31.633 25.2654L31.6315 25.2644L31.6276 25.2617L31.6266 25.261L31.6237 25.259L31.6217 25.2576L31.6195 25.2561L31.6178 25.2549L31.6139 25.2519C31.2003 24.9591 30.6276 25.057 30.3348 25.4703C30.0419 25.8839 30.1399 26.4566 30.5534 26.7494C30.5539 26.7497 30.5544 26.7499 30.5547 26.7504C33.0384 28.5035 36.4732 27.9113 38.2263 25.4277C39.9797 22.944 39.3874 19.5092 36.9036 17.7559C35.9835 17.1063 34.8861 16.7547 33.7597 16.7485C33.7536 16.7476 33.7475 16.7476 33.7416 16.7476Z" fill="#FFFC74"/>
<path d="M22.7201 18.5825C20.6932 18.5825 19.0503 20.2255 19.0503 22.2523V22.3003L19.0505 22.3038V22.3189L19.0508 22.3229V22.3312L19.051 22.3344V22.34L19.0513 22.3424V22.3513L19.0515 22.3539V22.3596L19.0518 22.363V22.3686L19.052 22.3708V22.3775L19.0523 22.3821V22.3838L19.0525 22.3877V22.3899L19.0527 22.3934V22.3958L19.053 22.399V22.4014L19.0532 22.4046V22.4071L19.0535 22.4105V22.4127L19.0537 22.4161V22.4183L19.054 22.4223V22.424L19.0542 22.4279V22.4298L19.0545 22.4347V22.4352L19.0549 22.4409V22.4426L19.0552 22.4467V22.4485L19.0554 22.4524V22.4543L19.0557 22.458L19.0559 22.46V22.4636L19.0562 22.4658L19.0564 22.4695V22.4715L19.0567 22.4751L19.0569 22.4771L19.0571 22.4808V22.4827L19.0574 22.4864L19.0576 22.4884L19.0579 22.4928V22.494L19.0586 22.5053V22.5067L19.0591 22.5109V22.5126L19.0594 22.5165L19.0596 22.5185L19.0598 22.5222L19.0601 22.5244L19.0603 22.5278V22.53L19.0606 22.5334L19.0608 22.5356L19.0611 22.5391V22.5413L19.0616 22.5449V22.5469L19.062 22.5511V22.5523L19.0625 22.5574V22.5579L19.0635 22.5692V22.5709L19.064 22.5748V22.577L19.0645 22.5804L19.0647 22.5826L19.065 22.5861L19.0652 22.5883L19.0655 22.5917L19.0657 22.5939L19.066 22.5976L19.0662 22.5995L19.0665 22.6032L19.0667 22.6052L19.0672 22.6088V22.6108L19.0677 22.615L19.0679 22.6162L19.0682 22.6211L19.0684 22.6235L19.0689 22.6274L19.0691 22.6296L19.0694 22.6328L19.0696 22.6353L19.0701 22.6387L19.0704 22.6412L19.0706 22.6441L19.0714 22.6522L19.0718 22.6551L19.0721 22.6578L19.0723 22.661L19.0726 22.6632L19.0731 22.6666L19.0733 22.6688L19.0736 22.6723L19.0738 22.6742L19.0753 22.6852V22.6867L19.0758 22.6909L19.076 22.6926L19.0765 22.6962L19.0767 22.6985L19.077 22.7021L19.0772 22.7041L19.0777 22.7075L19.078 22.7097L19.0785 22.7131L19.0787 22.7153L19.0792 22.7185L19.0794 22.7207L19.0799 22.7244L19.0807 22.7303L19.0809 22.7318L19.0814 22.7362V22.7374L19.0831 22.7486V22.7489L19.0838 22.754V22.7553L19.0846 22.7597V22.7611L19.0853 22.7653L19.0856 22.767L19.086 22.7707L19.0863 22.7724L19.0868 22.7763L19.087 22.778L19.0875 22.7819L19.0878 22.7837L19.0885 22.7876L19.0887 22.7893L19.0892 22.7937L19.0895 22.7947C19.0902 22.8003 19.0912 22.8057 19.0919 22.8113L19.0922 22.8128L19.0929 22.817V22.8182L19.0936 22.8223L19.0939 22.8241L19.0946 22.828L19.0949 22.8297L19.0953 22.8334L19.0956 22.8353L19.0963 22.839L19.0966 22.8407L19.0973 22.8449V22.8461L19.098 22.8507L19.0983 22.8517L19.099 22.8564L19.0993 22.8574C19.1002 22.8627 19.101 22.8684 19.102 22.874L19.1022 22.875L19.1032 22.8809L19.1039 22.885L19.1042 22.8863L19.1049 22.8904L19.1051 22.8919L19.1059 22.896L19.1061 22.8975L19.1069 22.9014L19.1071 22.9031L19.1078 22.9071L19.1091 22.9132V22.9139C19.1105 22.9213 19.1118 22.9286 19.1132 22.936L19.1135 22.9369L19.1144 22.9428L19.1152 22.9467L19.1154 22.9484L19.1162 22.9524L19.1166 22.9541L19.1174 22.9577L19.1176 22.9595L19.1184 22.9634L19.1186 22.9648L19.1196 22.9695L19.1198 22.9702L19.123 22.9866L19.1233 22.9871L19.1242 22.992L19.1245 22.9937L19.1255 22.9974L19.1257 22.9991L19.1264 23.003L19.1269 23.0048L19.1277 23.0084L19.1282 23.0099L19.1289 23.0141L19.1291 23.0153L19.1301 23.0197L19.1304 23.0207L19.1313 23.0251L19.1326 23.0312V23.0314C19.1338 23.0371 19.135 23.0425 19.1362 23.0481V23.0483L19.1375 23.0537L19.1377 23.0542L19.1387 23.0589L19.1389 23.0601L19.1399 23.0643L19.1402 23.0655L19.1411 23.0696L19.1414 23.0711L19.1424 23.0753L19.1426 23.0765L19.1436 23.0807L19.1438 23.0819L19.145 23.0868V23.0873C19.1468 23.0946 19.1485 23.102 19.1502 23.1093L19.1514 23.1147L19.1517 23.1152L19.1529 23.1201V23.1211L19.1541 23.1252L19.1544 23.1264L19.1553 23.1311L19.1556 23.1318L19.1568 23.1365L19.157 23.1372L19.1583 23.1421V23.1426L19.1595 23.148C19.161 23.1536 19.1624 23.159 19.1637 23.1644L19.1639 23.1649L19.1654 23.1708L19.1666 23.1752L19.1668 23.1762L19.1681 23.1806L19.1683 23.1818L19.1693 23.1859L19.1695 23.1872L19.1708 23.1913L19.1722 23.1972L19.1725 23.1977L19.1737 23.2028L19.1739 23.2031C19.1759 23.2104 19.1776 23.2175 19.1798 23.2249V23.2251L19.1813 23.23L19.1815 23.2308L19.1828 23.2354L19.183 23.2361L19.1842 23.2408L19.1845 23.2415L19.1857 23.2462L19.1859 23.2469L19.1874 23.2518V23.2523L19.1889 23.2572V23.2577C19.1916 23.2667 19.194 23.2756 19.1967 23.2846V23.2849L19.1982 23.29L19.1984 23.2905L19.1999 23.2952V23.2959L19.2014 23.3005L19.2016 23.3013L19.2028 23.3059L19.2031 23.3067C19.2068 23.3191 19.2107 23.3316 19.2146 23.3439V23.3446L19.2161 23.3493L19.2163 23.35L19.2178 23.3546L19.218 23.3554L19.2195 23.36L19.2197 23.3605L19.2212 23.3654L19.2214 23.3659C19.2259 23.3801 19.2305 23.3946 19.2352 23.4085L19.2388 23.4193C19.2442 23.4352 19.2496 23.4511 19.2552 23.467L19.2569 23.4722L19.2572 23.4727C19.2621 23.4869 19.2672 23.5006 19.2724 23.5145V23.5148C19.6112 24.4371 20.3049 25.1859 21.1989 25.5938C21.216 25.6016 21.2329 25.6092 21.2498 25.6166L21.25 25.6168L21.2549 25.6188L21.2552 25.619L21.2598 25.621L21.2603 25.6212C21.2706 25.6256 21.2806 25.63 21.2909 25.6342L21.2912 25.6344L21.2961 25.6364L21.2963 25.6367L21.301 25.6386L21.3017 25.6389L21.3061 25.6406L21.3068 25.6408L21.311 25.6428L21.312 25.643L21.3164 25.645L21.3169 25.6452L21.3218 25.6472H21.322C21.3306 25.6509 21.3389 25.6543 21.3477 25.6577L21.3482 25.658L21.3526 25.6597L21.3536 25.6599L21.3578 25.6616L21.3585 25.6621L21.3629 25.6638L21.3639 25.6641L21.3678 25.6658L21.369 25.6663L21.3729 25.6677L21.3742 25.6682L21.3783 25.67L21.3791 25.6702C21.3876 25.6734 21.3962 25.6768 21.4048 25.6802L21.4055 25.6805L21.4099 25.6822L21.4109 25.6824L21.4148 25.6839L21.4163 25.6846L21.4202 25.6859L21.4212 25.6864L21.4251 25.6878L21.4266 25.6883L21.4305 25.6898L21.4315 25.6903L21.4359 25.6917L21.4366 25.6922L21.4415 25.6939H21.4417L21.452 25.6979L21.453 25.6981L21.4572 25.6996L21.4589 25.7003L21.4623 25.7015L21.4638 25.702L21.4675 25.7035L21.4689 25.704L21.4726 25.7055L21.4829 25.7089L21.4843 25.7096L21.4939 25.7128L21.4946 25.7133L21.4998 25.715L21.5052 25.717H21.5054L21.5103 25.7187L21.5113 25.7192L21.5154 25.7204L21.5167 25.7209L21.5203 25.7221L21.5223 25.7228L21.5255 25.7241L21.5274 25.7246L21.5306 25.7258L21.5326 25.7263L21.5358 25.7275L21.5377 25.7282L21.5407 25.729L21.5429 25.7299L21.5463 25.7309L21.548 25.7317L21.5529 25.7331L21.5634 25.7368L21.5651 25.7373L21.5686 25.7385L21.5705 25.739L21.5737 25.7402L21.5759 25.741L21.5786 25.7417L21.5813 25.7427L21.5838 25.7434L21.5865 25.7441L21.5889 25.7451L21.5913 25.7459L21.594 25.7468L21.5967 25.7476L21.5992 25.7483L21.6019 25.7493L21.6041 25.7498L21.6085 25.7512L21.62 25.7549L21.622 25.7556L21.6251 25.7566L21.6271 25.7571L21.6303 25.7581L21.6325 25.7588L21.6352 25.7598L21.6376 25.7603L21.6403 25.7613L21.6428 25.762L21.6457 25.7627L21.6477 25.7635L21.6508 25.7645L21.6528 25.7652L21.656 25.7659L21.6579 25.7667L21.6611 25.7676L21.6626 25.7679L21.6761 25.7721L21.6797 25.773L21.6812 25.7735L21.6849 25.7745L21.6863 25.775L21.6915 25.7765L21.6952 25.7774L21.6966 25.7779L21.7103 25.7818L21.7121 25.7826L21.7157 25.7836H21.7162C21.7243 25.786 21.7321 25.7882 21.7402 25.7904H21.7407L21.7449 25.7916L21.7458 25.7919L21.7498 25.7931L21.7512 25.7934L21.7549 25.7943L21.7564 25.7948L21.7613 25.796L21.7654 25.7973L21.7664 25.7975L21.7706 25.7985L21.7713 25.7987C21.7811 25.8014 21.7909 25.8039 21.8007 25.8066H21.8009L21.8056 25.8078H21.8058L21.8102 25.809L21.8112 25.8093L21.8154 25.8103L21.8164 25.8105L21.8205 25.8115L21.8215 25.8117L21.8257 25.8127L21.8264 25.8129L21.8308 25.8142H21.8313C21.8396 25.8164 21.8477 25.8183 21.856 25.8203L21.8604 25.8213L21.8614 25.8215L21.8656 25.8225L21.8666 25.8227L21.8707 25.8237L21.8719 25.824L21.8759 25.8249L21.8766 25.8252L21.8813 25.8262L21.8817 25.8264C21.895 25.8293 21.9084 25.8325 21.9217 25.8355H21.9221L21.9268 25.8364L21.927 25.8367L21.9319 25.8377H21.9322C22.0203 25.857 22.1095 25.8729 22.2 25.8859C22.7017 25.9574 23.1662 25.6087 23.2377 25.107C23.3092 24.6053 22.9605 24.1409 22.4589 24.0694C22.4584 24.0694 22.4579 24.0694 22.4574 24.0691C21.4542 23.9244 20.7584 22.994 20.9031 21.9908C21.0333 21.0881 21.8071 20.4179 22.7191 20.4177C23.226 20.4177 23.6366 20.0071 23.6366 19.5005C23.6366 18.9936 23.2267 18.5825 22.7201 18.5825Z" fill="#F98B00"/>
<path d="M37.399 22.2523C37.399 24.279 35.756 25.9219 33.7294 25.9219C31.7025 25.9219 30.0596 24.279 30.0596 22.2523C30.0596 20.2255 31.7025 18.5825 33.7294 18.5825C35.756 18.5825 37.399 20.2255 37.399 22.2523Z" fill="#FFA300"/>
<path d="M33.7294 18.5825C31.7025 18.5825 30.0596 20.2255 30.0596 22.2523V22.3003L30.0598 22.3038V22.3189L30.0601 22.3229V22.3312L30.0603 22.3344V22.3424L30.0605 22.3456V22.3539L30.0608 22.3571V22.363L30.061 22.3652V22.3708L30.0613 22.3752V22.3775L30.0615 22.3821V22.3838L30.0618 22.3877V22.3899L30.062 22.3934V22.3958L30.0623 22.399V22.4014L30.0625 22.4046V22.4071L30.0628 22.4105V22.4127L30.063 22.4161V22.4183L30.0632 22.4223V22.424L30.0635 22.4279V22.4298L30.0637 22.4347V22.4352L30.0642 22.4409V22.4426L30.0645 22.4467V22.4485L30.0647 22.4524V22.4543L30.065 22.458L30.0652 22.46V22.4636L30.0654 22.4658L30.0657 22.4695V22.4715L30.0659 22.4751V22.4771L30.0662 22.4808L30.0664 22.4827L30.0667 22.4864L30.0669 22.4884L30.0672 22.4928V22.494L30.0679 22.5053V22.5067L30.0684 22.5109V22.5126L30.0686 22.5165L30.0689 22.5185L30.0691 22.5222L30.0694 22.5244L30.0696 22.5278V22.53L30.0699 22.5334L30.0701 22.5356L30.0703 22.5391V22.5413L30.0708 22.5449V22.5469L30.0713 22.5511V22.5523L30.0718 22.5574V22.5579L30.0728 22.5692V22.5709L30.0733 22.5748L30.0735 22.577L30.0738 22.5804L30.074 22.5826L30.0743 22.5861L30.0745 22.5883L30.0748 22.5917L30.075 22.5939L30.0752 22.5976L30.0755 22.5995L30.0757 22.6032L30.076 22.6052L30.0765 22.6088V22.6108L30.077 22.615L30.0772 22.6162L30.0779 22.6235L30.0782 22.6274L30.0784 22.6296L30.0787 22.6328L30.0789 22.6353L30.0794 22.6387L30.0796 22.6412L30.0799 22.6441L30.0801 22.6468L30.0806 22.6495L30.0809 22.6522L30.0811 22.6551L30.0814 22.6578L30.0816 22.661L30.0819 22.6632L30.0823 22.6666L30.0826 22.6688L30.0831 22.6723L30.0833 22.6742L30.0845 22.6852V22.6867L30.085 22.6909L30.0853 22.6926L30.0858 22.6962L30.086 22.6985L30.0865 22.7021L30.0867 22.7041L30.087 22.7075L30.0872 22.7097L30.0877 22.7131L30.088 22.7153L30.0885 22.7185L30.0887 22.7207L30.0892 22.7244L30.0899 22.7303L30.0902 22.7318L30.0907 22.7362L30.0909 22.7374L30.0924 22.7486V22.7489L30.0931 22.754L30.0934 22.7553L30.0938 22.7597L30.0941 22.7611L30.0946 22.7653L30.0948 22.767L30.0953 22.7707L30.0956 22.7724L30.0963 22.7763L30.0965 22.778L30.097 22.7819L30.0973 22.7837L30.0978 22.7876L30.098 22.7893L30.0987 22.7937L30.099 22.7947C30.0997 22.8003 30.1005 22.8057 30.1014 22.8113L30.1017 22.8128L30.1022 22.817L30.1024 22.8182L30.1032 22.8223L30.1034 22.8241L30.1039 22.828L30.1041 22.8297L30.1049 22.8334L30.1051 22.8353L30.1056 22.839L30.1058 22.8407L30.1066 22.8449L30.1068 22.8461L30.1076 22.8507L30.1078 22.8517L30.1085 22.8564V22.8574C30.1095 22.8627 30.1105 22.8684 30.1115 22.874V22.875L30.1125 22.8794L30.1127 22.8809L30.1134 22.885L30.1137 22.8863L30.1144 22.8904L30.1147 22.8919L30.1154 22.896L30.1156 22.8975L30.1161 22.9014L30.1166 22.9031L30.1174 22.9071L30.1176 22.9083L30.1183 22.9132L30.1186 22.9139C30.1198 22.9213 30.1213 22.9286 30.1227 22.936V22.9369L30.1237 22.9413L30.124 22.9428L30.1247 22.9467L30.1249 22.9484L30.1257 22.9524L30.1259 22.9541L30.1267 22.9577L30.1271 22.9595L30.1279 22.9634L30.1281 22.9648L30.1291 22.9695V22.9702L30.1325 22.9866V22.9871L30.1338 22.992L30.134 22.9937L30.1347 22.9974L30.1352 22.9991L30.136 23.003L30.1365 23.0048L30.1372 23.0084L30.1374 23.0099L30.1384 23.0141L30.1387 23.0153L30.1396 23.0197L30.1399 23.0207L30.1409 23.0251L30.1421 23.0312V23.0314C30.1433 23.0371 30.1445 23.0425 30.1458 23.0481V23.0483L30.147 23.0537L30.1472 23.0542L30.1482 23.0589L30.1485 23.0601L30.1494 23.0643L30.1497 23.0655L30.1507 23.0696L30.1509 23.0711L30.1519 23.0753L30.1521 23.0765L30.1531 23.0807L30.1533 23.0819L30.1546 23.0868V23.0873C30.1563 23.0946 30.158 23.102 30.1597 23.1093L30.1609 23.1147L30.1612 23.1152L30.1624 23.1201V23.1211L30.1636 23.1252L30.1639 23.1264L30.1649 23.1311L30.1651 23.1318L30.1663 23.1365L30.1666 23.1372L30.1678 23.1421V23.1426L30.169 23.148C30.1705 23.1536 30.172 23.159 30.1732 23.1644L30.1734 23.1649L30.1749 23.1708L30.1761 23.1752L30.1764 23.1762L30.1773 23.1806L30.1778 23.1818L30.1788 23.1859L30.1791 23.1872L30.1803 23.1913L30.1818 23.1972L30.182 23.1977L30.1832 23.2028L30.1835 23.2031C30.1852 23.2104 30.1871 23.2175 30.1893 23.2249V23.2251L30.1908 23.23V23.2308L30.1923 23.2354L30.1925 23.2361L30.1937 23.2408L30.194 23.2415L30.1952 23.2462L30.1955 23.2469L30.1969 23.2518V23.2523L30.1984 23.2572V23.2577C30.2011 23.2667 30.2035 23.2756 30.2062 23.2846V23.2849L30.2077 23.29L30.2079 23.2905L30.2092 23.2952L30.2094 23.2959L30.2109 23.3005L30.2111 23.3013L30.2124 23.3059L30.2126 23.3067C30.2163 23.3191 30.2202 23.3316 30.2241 23.3439V23.3446L30.2256 23.3493L30.2258 23.35L30.2273 23.3546L30.2275 23.3554L30.229 23.36L30.2293 23.3605L30.2307 23.3654L30.231 23.3659C30.2354 23.3801 30.24 23.3946 30.2447 23.4085L30.2483 23.4193C30.2537 23.4352 30.2591 23.4511 30.2648 23.467L30.2665 23.4722L30.2667 23.4727C30.2716 23.4869 30.2768 23.5006 30.2819 23.5145V23.5148C30.6208 24.4371 31.3144 25.1859 32.2084 25.5938C32.2255 25.6016 32.2424 25.6092 32.2593 25.6166L32.2595 25.6168L32.2644 25.6188L32.2647 25.619L32.2693 25.621L32.2698 25.6212C32.2801 25.6256 32.2902 25.63 32.3004 25.6342L32.3007 25.6344L32.3056 25.6364L32.3058 25.6367L32.3105 25.6386L32.3112 25.6389L32.3156 25.6406L32.3164 25.6408L32.3205 25.6428L32.3215 25.643L32.3259 25.645L32.3264 25.6452L32.3313 25.6472H32.3315C32.3401 25.6509 32.3484 25.6543 32.3572 25.6577L32.3577 25.658L32.3621 25.6597L32.3631 25.6599L32.3673 25.6616L32.368 25.6621L32.3724 25.6638L32.3732 25.6641L32.3773 25.6658L32.3783 25.6663L32.3825 25.6677L32.3834 25.6682L32.3879 25.67L32.3886 25.6702C32.3972 25.6734 32.4057 25.6768 32.4143 25.6802L32.415 25.6805L32.4194 25.6822L32.4204 25.6824L32.4243 25.6839L32.4258 25.6846L32.4297 25.6859L32.4307 25.6864L32.4346 25.6878L32.4361 25.6883L32.44 25.6898L32.441 25.6903L32.4454 25.6917L32.4461 25.6922L32.451 25.6939H32.4513L32.4616 25.6979L32.4625 25.6981L32.4667 25.6996L32.4684 25.7003L32.4718 25.7015L32.4733 25.702L32.477 25.7035L32.4784 25.704L32.4821 25.7055L32.4924 25.7089L32.4939 25.7096L32.5034 25.7128L32.5042 25.7133L32.5093 25.715L32.5147 25.717H32.5149L32.5198 25.7187L32.5208 25.7192L32.525 25.7204L32.5262 25.7209L32.5299 25.7221L32.5318 25.7228L32.535 25.7241L32.537 25.7246L32.5401 25.7258L32.5421 25.7263L32.5453 25.7275L32.5472 25.7282L32.5502 25.729L32.5524 25.7299L32.5556 25.7309L32.5575 25.7317L32.5624 25.7331L32.573 25.7368L32.5781 25.7385L32.5801 25.739L32.5832 25.7402L32.5854 25.741L32.5881 25.7417L32.5908 25.7427L32.5933 25.7434L32.596 25.7441L32.5984 25.7451L32.6009 25.7459L32.6036 25.7468L32.6063 25.7476L32.6087 25.7483L32.6114 25.7493L32.6136 25.7498L32.618 25.7512L32.6295 25.7549L32.6315 25.7556L32.6347 25.7566L32.6366 25.7571L32.6398 25.7581L32.642 25.7588L32.6447 25.7598L32.6471 25.7603L32.6498 25.7613L32.6523 25.762L32.6552 25.7627L32.6572 25.7635L32.6604 25.7645L32.6623 25.7652L32.6655 25.7659L32.6675 25.7667L32.6707 25.7676L32.6721 25.7679L32.6853 25.7721H32.6856L32.6893 25.773L32.6907 25.7735L32.6944 25.7745L32.6959 25.775L32.701 25.7765L32.7047 25.7774L32.7062 25.7779L32.7199 25.7818L32.7216 25.7826L32.7253 25.7836H32.7257C32.7338 25.786 32.7417 25.7882 32.7497 25.7904H32.7502L32.7544 25.7916L32.7554 25.7919L32.7593 25.7931L32.7608 25.7934L32.7644 25.7943L32.7659 25.7948L32.7708 25.796L32.775 25.7973L32.7757 25.7975L32.7801 25.7985L32.7808 25.7987C32.7906 25.8014 32.8004 25.8039 32.8102 25.8066L32.8151 25.8078H32.8154L32.8198 25.809L32.8207 25.8093L32.8249 25.8103L32.8259 25.8105L32.83 25.8115L32.831 25.8117L32.8352 25.8127L32.8359 25.8129L32.8403 25.8142H32.8411C32.8491 25.8164 32.8572 25.8183 32.8656 25.8203L32.87 25.8213L32.8709 25.8215L32.8753 25.8225L32.8761 25.8227L32.8802 25.8237L32.8815 25.824L32.8856 25.8249L32.8864 25.8252L32.8908 25.8262L32.8913 25.8264C32.9045 25.8293 32.918 25.8325 32.9312 25.8355H32.9317L32.9363 25.8364L32.9366 25.8367L32.9415 25.8377H32.9417C33.0298 25.857 33.119 25.8729 33.2096 25.8859C33.7113 25.9574 34.1757 25.6087 34.2472 25.107C34.3187 24.6053 33.9701 24.1409 33.4684 24.0694C33.4679 24.0694 33.4674 24.0694 33.4669 24.0691C32.4638 23.9244 31.7679 22.994 31.9126 21.9908C32.0429 21.0881 32.8166 20.4179 33.7286 20.4177C34.2355 20.4177 34.6461 20.0071 34.6461 19.5005C34.6461 18.9936 34.236 18.5825 33.7294 18.5825Z" fill="#F98B00"/>
<path d="M6.2079 20.4172C5.19446 20.4182 4.37201 19.5977 4.37103 18.5843C4.3703 17.8884 4.76304 17.252 5.38544 16.9408L5.77329 16.7474L5.38544 16.554C4.47901 16.1007 4.11149 14.9984 4.56471 14.092C5.01792 13.1856 6.12024 12.818 7.02667 13.2712L10.6965 15.1062C11.6029 15.5596 11.9702 16.6622 11.5167 17.5686C11.3392 17.9234 11.0513 18.2113 10.6965 18.3889L7.02667 20.2238C6.77252 20.3511 6.49217 20.4172 6.2079 20.4172Z" fill="#163969"/>
<path d="M10.2367 18.7266C10.0945 18.7268 9.95418 18.7599 9.8271 18.8238C9.8271 18.8238 7.40186 20.0363 7.06543 20.2045L7.06299 20.2057L7.05931 20.2077L7.05784 20.2084L7.04683 20.2138L7.0456 20.2145L7.02699 20.2238C6.77284 20.3511 6.49248 20.4173 6.20821 20.4173H6.17345L6.17075 20.417H6.15826L6.15459 20.4168H6.14627L6.14284 20.4165H6.13917L6.13794 20.4163H6.13451L6.13084 20.416H6.12619L6.12325 20.4158H6.12252L6.11517 20.4155H6.11444L6.1115 20.4153H6.11076L6.10342 20.4148H6.10268L6.09975 20.4146H6.09901L6.09167 20.4141H6.08799L6.08726 20.4138L6.08383 20.4136H6.08359L6.07991 20.4133H6.07918L6.07624 20.4131H6.07526L6.07208 20.4128H6.07183L6.06791 20.4126H6.06767L6.06424 20.4124H6.06375L6.06008 20.4119L6.05616 20.4116H6.05592L6.05249 20.4114H6.052L6.04882 20.4104H6.04857L6.04098 20.4099H6.04074C6.03682 20.4094 6.0329 20.4092 6.02923 20.4087H6.02898L6.02531 20.4084H6.02507L6.01748 20.4077H6.01723C6.01209 20.407 6.00695 20.4065 6.00181 20.406C5.98638 20.4043 5.97071 20.4023 5.95528 20.4001H5.95504C5.5312 20.3418 5.14091 20.1371 4.85174 19.8215C4.51091 19.4467 3.93062 19.4192 3.55575 19.7603C3.18113 20.1014 3.15371 20.6817 3.49478 21.0563C3.49552 21.0573 3.49625 21.058 3.49699 21.0588C4.6042 22.2691 6.3801 22.5981 7.84749 21.8651L10.6476 20.465C11.1008 20.2383 11.2844 19.6871 11.058 19.2339C10.9025 18.9227 10.5844 18.7266 10.2367 18.7266Z" fill="#5E7599"/>
<path d="M31.8945 29.5918H24.5551C23.5417 29.5918 22.7202 30.4133 22.7202 31.4267C22.7202 34.4668 25.1846 36.9312 28.2247 36.9312H28.2418C28.2431 36.9312 28.244 36.9312 28.2453 36.9312H28.2626C28.2644 36.9312 28.2661 36.9309 28.2678 36.9309H28.2881C28.2903 36.9307 28.2918 36.9307 28.294 36.9307H28.2969C28.2989 36.9307 28.3011 36.9307 28.303 36.9307H28.3052C28.3077 36.9304 28.3101 36.9304 28.3126 36.9304H28.3138C28.3314 36.9302 28.3488 36.9297 28.3667 36.9295H28.3672C28.3699 36.9292 28.3728 36.9292 28.3755 36.9292H28.3758C28.5014 36.9258 28.6258 36.9182 28.7492 36.9064C29.2536 36.8567 29.6221 36.4077 29.5723 35.9035C29.5261 35.4344 29.1319 35.0764 28.6605 35.076C28.6316 35.076 28.6027 35.0774 28.5738 35.0801C28.4588 35.0909 28.3425 35.0963 28.2247 35.0963C26.199 35.0941 24.5573 33.4523 24.5551 31.4267H31.8945C32.4011 31.4267 32.812 31.0158 32.812 30.5093C32.812 30.0027 32.4011 29.5918 31.8945 29.5918Z" fill="#F98B00"/>
<path d="M39.2338 13.0781C39.2338 14.0915 38.4123 14.913 37.3989 14.913C36.3857 14.913 35.564 14.0915 35.564 13.0781C35.564 12.0646 36.3857 11.2432 37.3989 11.2432C38.4123 11.2432 39.2338 12.0646 39.2338 13.0781Z" fill="#FFEA21"/>
<path d="M10.7926 16.7476C10.6506 16.7476 10.5103 16.7143 10.3832 16.6509L6.71342 14.816C6.2602 14.5895 6.07657 14.0383 6.30305 13.5851C6.52978 13.1319 7.08094 12.948 7.53416 13.1747L11.204 15.0094C11.6572 15.2361 11.8408 15.787 11.6143 16.2403C11.4589 16.5517 11.1406 16.7481 10.7926 16.7476Z" fill="#002755"/>
<path d="M8.0411 6.65592C8.0411 8.1762 6.80901 9.40828 5.28874 9.40828C3.76871 9.40828 2.53662 8.1762 2.53662 6.65592C2.53662 5.13589 3.76871 3.90381 5.28874 3.90381C6.80901 3.90381 8.0411 5.13589 8.0411 6.65592Z" fill="#5E7599"/>
</svg>
