<svg width="42" height="37" viewBox="0 0 42 37" fill="none" xmlns="http://www.w3.org/2000/svg">
<path d="M1.96313 8.31641H39.8072C40.5038 8.31641 41.0686 8.88123 41.0686 9.57787C41.0686 10.2745 40.5038 10.8393 39.8072 10.8393H1.96313C1.26649 10.8393 0.70166 10.2745 0.70166 9.57787C0.70166 8.88123 1.26649 8.31641 1.96313 8.31641Z" fill="#D7DEE2"/>
<path d="M34.7615 2.00879C36.8514 2.00879 38.5459 3.70327 38.5459 5.79319V13.362C38.5459 15.4519 36.8514 17.1464 34.7615 17.1464C32.6715 17.1464 30.9771 15.4519 30.9771 13.362V5.79319C30.9771 3.70327 32.6715 2.00879 34.7615 2.00879Z" fill="#57565C"/>
<path d="M7.00901 2.00879C9.09894 2.00879 10.7934 3.70327 10.7934 5.79319V13.362C10.7934 15.4519 9.09894 17.1464 7.00901 17.1464C4.91909 17.1464 3.22461 15.4519 3.22461 13.362V5.79319C3.22461 3.70327 4.91909 2.00879 7.00901 2.00879Z" fill="#57565C"/>
<path d="M13.3164 5.79346H15.8393V36.0687H13.3164V5.79346Z" fill="#77959E"/>
<path d="M10.7934 36.0688H8.27051V24.7156C8.27051 24.0189 8.83534 23.4541 9.53198 23.4541C10.2286 23.4541 10.7934 24.0189 10.7934 24.7156V36.0688Z" fill="#BFC9D1"/>
<path d="M25.9312 5.79346H28.4541V36.0687H25.9312V5.79346Z" fill="#77959E"/>
<path d="M33.5 36.0688H30.9771V24.7156C30.9771 24.0189 31.5419 23.4541 32.2385 23.4541C32.9352 23.4541 33.5 24.0189 33.5 24.7156V36.0688Z" fill="#BFC9D1"/>
<path d="M4.48608 25.9771H37.2842C37.9809 25.9771 38.5457 26.5419 38.5457 27.2385C38.5457 27.9352 37.9809 28.5 37.2842 28.5H4.48608C3.78944 28.5 3.22461 27.9352 3.22461 27.2385C3.22461 26.5419 3.78944 25.9771 4.48608 25.9771Z" fill="#D7DEE2"/>
<path d="M13.3164 0.747559H15.8393V3.27049H13.3164V0.747559Z" fill="#77959E"/>
<path d="M25.9312 0.747559H28.4541V3.27049H25.9312V0.747559Z" fill="#77959E"/>
<path d="M34.7615 14.6238C32.6715 14.6238 30.9771 12.9293 30.9771 10.8394V13.3623C30.9771 15.4522 32.6715 17.1467 34.7615 17.1467C36.8514 17.1467 38.5459 15.4522 38.5459 13.3623V10.8394C38.5459 12.9293 36.8514 14.6238 34.7615 14.6238Z" fill="#2D2D2D"/>
<path d="M7.00901 14.6238C4.91909 14.6238 3.22461 12.9293 3.22461 10.8394V13.3623C3.22461 15.4522 4.91909 17.1467 7.00901 17.1467C9.09894 17.1467 10.7934 15.4522 10.7934 13.3623V10.8394C10.7934 12.9293 9.09894 14.6238 7.00901 14.6238Z" fill="#2D2D2D"/>
<path opacity="0.24" d="M4.06543 8.47489V5.16146C4.06543 4.55055 4.57081 4.05871 5.18673 4.05871C5.80793 4.05871 6.30804 4.55573 6.30804 5.16146V8.47489C6.30804 9.0858 5.80266 9.57764 5.18673 9.57764C4.56554 9.57764 4.06543 9.08062 4.06543 8.47489Z" fill="white"/>
<path opacity="0.24" d="M13.5964 13.6377V8.03216C13.5964 7.66561 13.8491 7.37051 14.1571 7.37051C14.4677 7.37051 14.7178 7.66872 14.7178 8.03216V13.6377C14.7178 14.0042 14.4651 14.2993 14.1571 14.2993C13.8465 14.2993 13.5964 14.0011 13.5964 13.6377Z" fill="white"/>
<path opacity="0.24" d="M26.0711 13.6377V8.03216C26.0711 7.66561 26.3237 7.37051 26.6317 7.37051C26.9423 7.37051 27.1924 7.66872 27.1924 8.03216V13.6377C27.1924 14.0042 26.9397 14.2993 26.6317 14.2993C26.3211 14.2993 26.0711 14.0011 26.0711 13.6377Z" fill="white"/>
<path opacity="0.24" d="M32.0981 8.47489V5.16146C32.0981 4.55055 32.6035 4.05871 33.2194 4.05871C33.8406 4.05871 34.3408 4.55573 34.3408 5.16146V8.47489C34.3408 9.0858 33.8354 9.57764 33.2194 9.57764C32.5983 9.57764 32.0981 9.08062 32.0981 8.47489Z" fill="white"/>
</svg>






