
<svg width="44" height="44" viewBox="0 0 44 44" fill="none" xmlns="http://www.w3.org/2000/svg">
<path fill-rule="evenodd" clip-rule="evenodd" d="M7.27197 39.9201C7.27197 38.8162 8.17512 37.9131 9.27897 37.9131C10.3828 37.9131 11.286 38.8162 11.286 39.9201V41.2581C11.286 42.3619 10.3828 43.2651 9.27897 43.2651C8.17512 43.2651 7.27197 42.3619 7.27197 41.2581V39.9201ZM32.0247 39.9201C32.0247 38.8162 32.9279 37.9131 34.0317 37.9131C35.1355 37.9131 36.0386 38.8162 36.0387 39.9201V41.2581C36.0387 42.3619 35.1355 43.2651 34.0317 43.2651C32.9279 43.2651 32.0247 42.3619 32.0247 41.2581V39.9201Z" fill="#2B414D"/>
<path d="M21.6555 0.449707C31.2555 0.449707 39.0493 8.24344 39.0493 17.8435V21.8575C39.0493 31.4575 31.2555 39.2512 21.6555 39.2512C12.0555 39.2512 4.26172 31.4575 4.26172 21.8575V17.8435C4.26172 8.24344 12.0555 0.449707 21.6555 0.449707Z" fill="#465765"/>
<path fill-rule="evenodd" clip-rule="evenodd" d="M34.6313 25.8712C32.9735 24.7109 28.6319 23.3291 21.4878 23.3291C14.3722 23.3291 10.23 24.7192 8.65023 25.8712H3.25781V38.6155C3.25781 39.8866 4.29473 40.9235 5.59926 40.9235H37.7109C39.0154 40.9235 40.0523 39.8866 40.0523 38.6155V25.8712H34.6313ZM34.6313 25.8712H8.65023C8.15063 26.2356 7.90733 26.5761 7.90733 26.8413V33.2971C7.90733 34.4883 8.79985 34.4802 9.94818 34.4698C10.0574 34.4688 10.1689 34.4678 10.2822 34.4678H33.0279C33.1412 34.4678 33.2528 34.4688 33.362 34.4698C34.5103 34.4802 35.4028 34.4883 35.4028 33.2971V26.8413C35.4028 26.5715 35.1468 26.2321 34.6313 25.8712Z" fill="#324D5B"/>
<path d="M21.4879 24.5332C30.8538 24.5332 35.3695 26.8747 35.3695 28.012V34.4009C35.3695 35.6719 34.2991 35.5716 33.028 35.5716H10.2824C8.97783 35.5716 7.94092 35.7054 7.94092 34.4009V28.012C7.94092 26.9416 12.122 24.5332 21.4879 24.5332Z" fill="#74868F"/>
<path d="M5.934 30.5545C9.07453 30.5545 11.6204 28.0086 11.6204 24.8681C11.6204 21.7275 9.07453 19.1816 5.934 19.1816C2.79346 19.1816 0.247559 21.7275 0.247559 24.8681C0.247559 28.0086 2.79346 30.5545 5.934 30.5545Z" fill="#324D5B"/>
<path d="M37.3769 30.5545C40.5174 30.5545 43.0633 28.0086 43.0633 24.8681C43.0633 21.7275 40.5174 19.1816 37.3769 19.1816C34.2363 19.1816 31.6904 21.7275 31.6904 24.8681C31.6904 28.0086 34.2363 30.5545 37.3769 30.5545Z" fill="#324D5B"/>
<path fill-rule="evenodd" clip-rule="evenodd" d="M28.8469 11.8225C29.4825 11.8225 30.0177 11.2873 30.0177 10.6517C30.0177 10.0162 29.4825 9.48096 28.8469 9.48096C28.2114 9.48096 27.6762 10.0162 27.6762 10.6517C27.6762 11.2873 28.2114 11.8225 28.8469 11.8225ZM23.1606 14.8329L24.0637 13.9298C24.3982 13.5953 24.3982 13.0936 24.0637 12.759C23.7293 12.4246 23.2275 12.4246 22.893 12.759L21.9898 13.6622L21.0866 12.759C20.7522 12.4246 20.2504 12.4246 19.9159 12.759C19.5814 13.0935 19.5814 13.5952 19.9159 13.9298L20.8525 14.8329L19.9159 15.7696C19.5814 16.104 19.5814 16.6058 19.9159 16.9403C20.2503 17.2748 20.7521 17.2748 21.0866 16.9403L22.0233 16.0037L22.9599 16.9403C23.2943 17.2748 23.7961 17.2748 24.1306 16.9403C24.4651 16.6059 24.4651 16.1041 24.1306 15.7696L23.1606 14.8329ZM13.9619 19.0142C13.9619 18.3786 14.4971 17.8434 15.1327 17.8434C15.7682 17.8434 16.3034 18.3786 16.3034 19.0142C16.3034 19.6497 15.7682 20.1849 15.1327 20.1849C14.4971 20.1849 13.9619 19.6497 13.9619 19.0142ZM28.8469 17.8434C28.2114 17.8434 27.6762 18.3786 27.6762 19.0142C27.6762 19.6497 28.2114 20.1849 28.8469 20.1849C29.4825 20.1849 30.0177 19.6497 30.0177 19.0142C30.0177 18.3786 29.4825 17.8434 28.8469 17.8434ZM13.9619 10.6517C13.9619 10.0162 14.4971 9.48096 15.1327 9.48096C15.7682 9.48096 16.3034 10.0162 16.3034 10.6517C16.3034 11.2873 15.7682 11.8225 15.1327 11.8225C14.4971 11.8225 13.9619 11.2873 13.9619 10.6517Z" fill="#324D5B"/>
<path d="M5.93411 28.7818C8.09553 28.7818 9.8477 27.0296 9.8477 24.8682C9.8477 22.7068 8.09553 20.9546 5.93411 20.9546C3.77269 20.9546 2.02051 22.7068 2.02051 24.8682C2.02051 27.0296 3.77269 28.7818 5.93411 28.7818Z" fill="#516873"/>
<path d="M37.377 28.7818C39.5384 28.7818 41.2906 27.0296 41.2906 24.8682C41.2906 22.7068 39.5384 20.9546 37.377 20.9546C35.2156 20.9546 33.4634 22.7068 33.4634 24.8682C33.4634 27.0296 35.2156 28.7818 37.377 28.7818Z" fill="#516873"/>
<path d="M7.94092 34.4009C7.94092 35.371 8.57645 35.5382 9.44614 35.5717H33.8978C34.7675 35.5382 35.403 35.4044 35.403 34.4009V30.8887H7.94092V34.4009Z" fill="#67757D"/>
</svg>
