<svg width="41" height="41" viewBox="0 0 41 41" fill="none" xmlns="http://www.w3.org/2000/svg">
<path d="M38.6015 3.89892V36.8793C38.6015 38.9031 36.9608 40.5438 34.937 40.5438H5.6206C3.59676 40.5438 1.95605 38.9031 1.95605 36.8793V3.89892C1.95605 1.87499 3.59676 0.234375 5.6206 0.234375H34.937C36.9608 0.234375 38.6015 1.87499 38.6015 3.89892Z" fill="#CD162D"/>
<path d="M5.62129 35.0474H34.9375C35.9494 35.0474 36.7697 35.8677 36.7697 36.8796V36.8797C36.7697 37.8916 35.9494 38.7119 34.9375 38.7119H5.62129C4.60937 38.7119 3.78906 37.8916 3.78906 36.8797V36.8796C3.78906 35.8677 4.60937 35.0474 5.62129 35.0474Z" fill="#AB002B"/>
<path d="M40.4344 3.89892V33.2153C40.4344 35.2392 38.7937 36.8799 36.7699 36.8799H3.78955C1.7657 36.8799 0.125 35.2392 0.125 33.2153V3.89892C0.125 1.87508 1.7657 0.234375 3.78955 0.234375H36.7699C38.7937 0.234375 40.4344 1.87499 40.4344 3.89892Z" fill="#DD1E34"/>
<path d="M5.62129 33.2148H34.9375C35.9494 33.2148 36.7697 34.0352 36.7697 35.0471V35.0472C36.7697 36.0591 35.9494 36.8794 34.9375 36.8794H5.62129C4.60937 36.8794 3.78906 36.0591 3.78906 35.0472V35.0471C3.78906 34.0352 4.60937 33.2148 5.62129 33.2148Z" fill="#D01130"/>
<path d="M40.4335 3.89843V24.0532C40.4335 26.0771 38.7927 27.7178 36.7689 27.7178H3.78857C1.76473 27.7178 0.124023 26.0771 0.124023 24.0532V3.89843C0.124023 1.8745 1.76473 0.233887 3.78857 0.233887H36.7689C38.7927 0.233887 40.4335 1.8745 40.4335 3.89843Z" fill="#FF4957"/>
<path d="M4.70493 13.0605H35.8536C37.3715 13.0605 38.602 14.2911 38.602 15.8089C38.602 17.3268 37.3715 18.5573 35.8536 18.5573H4.70493C3.18705 18.5573 1.95654 17.3268 1.95654 15.8089C1.95654 14.291 3.18705 13.0605 4.70493 13.0605Z" fill="#FF2939"/>
<path d="M3.78877 2.06641H36.7698C37.7817 2.06641 38.602 2.88671 38.602 3.89864V3.89872C38.602 4.91065 37.7817 5.73095 36.7698 5.73095H3.78877C2.77685 5.73095 1.95654 4.91065 1.95654 3.89872V3.89864C1.95654 2.88671 2.77685 2.06641 3.78877 2.06641Z" fill="#FF8791"/>
<path d="M39.5181 5.73096C39.0122 5.73096 38.602 6.14115 38.602 6.64712V24.0536C38.6009 25.0651 37.7811 25.8847 36.7697 25.8858H4.70522C4.19926 25.8858 3.78906 26.296 3.78906 26.802C3.78906 27.308 4.19926 27.7182 4.70522 27.7182H36.7697C38.7936 27.7182 40.4343 26.0775 40.4343 24.0536V6.64712C40.4343 6.14115 40.0241 5.73096 39.5181 5.73096Z" fill="#FF3241"/>
<path d="M18.4465 40.5441H12.9497V0.234375H18.4465V40.5441Z" fill="#E2C6FF"/>
<path d="M40.4337 11.2275V16.7243H0.124023V11.2275H40.4337Z" fill="#F6EDFF"/>
<path d="M12.034 11.2275H15.6988C17.2167 11.2275 18.4472 12.458 18.4472 13.9759C18.4472 15.4938 17.2167 16.7243 15.6988 16.7243H12.034C10.5162 16.7243 9.28564 15.4938 9.28564 13.9759C9.28564 12.458 10.5162 11.2275 12.034 11.2275Z" fill="#E2C6FF"/>
<path d="M18.4465 27.7183H12.9497V0.234375H18.4465V27.7183Z" fill="#F6EDFF"/>
<path d="M14.7829 14.8926H16.6152C17.6272 14.8926 18.4475 15.7129 18.4475 16.7248V16.7249C18.4475 17.7368 17.6272 18.5571 16.6152 18.5571H14.7829C13.771 18.5571 12.9507 17.7368 12.9507 16.7249V16.7248C12.9507 15.7129 13.771 14.8926 14.7829 14.8926Z" fill="#E2C6FF"/>
<path d="M23.2624 3.89893C22.5401 3.89893 21.8624 4.24771 21.4425 4.83544L12.9502 16.7247H18.447L25.0823 7.43524C26.1395 5.95498 25.0815 3.89893 23.2624 3.89893Z" fill="#E2C6FF"/>
<path d="M8.13448 3.89893C8.85679 3.89893 9.53453 4.24771 9.95435 4.83544L18.4467 16.7247H12.9499L6.31453 7.43524C5.25726 5.95498 6.31539 3.89893 8.13448 3.89893Z" fill="#FAF5FF"/>
<path d="M14.7824 27.7178H16.6147C17.6267 27.7178 18.447 28.5381 18.447 29.55V29.5501C18.447 30.562 17.6267 31.3823 16.6147 31.3823H14.7824C13.7705 31.3823 12.9502 30.562 12.9502 29.5501V29.55C12.9502 28.5382 13.7705 27.7178 14.7824 27.7178Z" fill="#D6AEFF"/>
<path d="M14.7824 36.8794H16.6147C17.6267 36.8794 18.447 37.6997 18.447 38.7116V38.7117C18.447 39.7236 17.6267 40.5439 16.6147 40.5439H14.7824C13.7705 40.5439 12.9502 39.7236 12.9502 38.7117V38.7116C12.9502 37.6997 13.7705 36.8794 14.7824 36.8794Z" fill="#D1A5F5"/>
<path d="M14.7824 2.06641H16.6147C17.6267 2.06641 18.447 2.88671 18.447 3.89864V3.89872C18.447 4.91065 17.6267 5.73095 16.6147 5.73095H14.7824C13.7705 5.73095 12.9502 4.91065 12.9502 3.89872V3.89864C12.9502 2.88671 13.7705 2.06641 14.7824 2.06641Z" fill="#FCF8FF"/>
<path d="M3.78877 18.5571C4.80078 18.5571 5.62109 19.3774 5.62109 20.3894V22.2217C5.62109 23.2336 4.80078 24.0539 3.78886 24.0539H3.78877C2.77685 24.0539 1.95654 23.2336 1.95654 22.2217V20.3894C1.95654 19.3774 2.77685 18.5571 3.78877 18.5571Z" fill="#FF8791"/>
<path d="M13.8668 35.0474H17.5313C18.0373 35.0474 18.4475 35.4576 18.4475 35.9635C18.4475 36.4695 18.0373 36.8797 17.5313 36.8797H13.8668C13.3609 36.8797 12.9507 36.4695 12.9507 35.9635C12.9507 35.4575 13.3609 35.0474 13.8668 35.0474Z" fill="#EFDEFF"/>
<path d="M39.5177 11.2275C40.0237 11.2275 40.4339 11.6377 40.4339 12.1437V15.8082C40.4339 16.3141 40.0237 16.7243 39.5177 16.7243C39.0118 16.7243 38.6016 16.3141 38.6016 15.8082V12.1437C38.6016 11.6377 39.0118 11.2275 39.5177 11.2275Z" fill="#EFDEFF"/>
<path d="M18.4465 26.8019C18.4465 27.3079 18.0363 27.7181 17.5303 27.7181H13.8659C13.3599 27.7181 12.9497 27.3079 12.9497 26.8019C12.9497 26.2959 13.3599 25.8857 13.8659 25.8857H17.5303C18.0363 25.8858 18.4465 26.2959 18.4465 26.8019Z" fill="#EFDEFF"/>
<path d="M18.4475 1.15005C18.4475 1.65601 18.0373 2.0662 17.5313 2.0662H13.8668C13.3609 2.0662 12.9507 1.65601 12.9507 1.15005C12.9507 0.644084 13.3609 0.233887 13.8668 0.233887H17.5313C18.0373 0.233973 18.4475 0.644084 18.4475 1.15005Z" fill="#EFDEFF"/>
</svg>


