<svg width="34" height="41" viewBox="0 0 34 41" fill="none" xmlns="http://www.w3.org/2000/svg">
<path d="M29.6212 40.6398H4.17777C2.17035 40.6398 0.542969 38.9991 0.542969 36.9752V16.5061C0.542969 15.5342 0.925898 14.6021 1.60759 13.9149L14.0176 1.40341C14.6992 0.716141 15.6237 0.330078 16.5877 0.330078H29.6212C31.6286 0.330078 33.256 1.97078 33.256 3.99463V36.9753C33.256 38.9991 31.6286 40.6398 29.6212 40.6398Z" fill="#EBEBEB"/>
<path d="M4.17771 13.1562H13.2644C14.2681 13.1562 15.0818 13.9766 15.0818 14.9885V14.9886C15.0818 16.0005 14.2681 16.8208 13.2644 16.8208H4.17771C3.174 16.8208 2.36035 16.0005 2.36035 14.9886V14.9885C2.36035 13.9766 3.174 13.1562 4.17771 13.1562Z" fill="#E9D1FF"/>
<path d="M5.99518 18.6528H27.8038C28.8075 18.6528 29.6212 19.4731 29.6212 20.4851V22.3174H4.17773V20.4851C4.17773 19.4732 4.99147 18.6528 5.99518 18.6528Z" fill="#559AFF"/>
<path d="M16.8994 22.3174H7.8125V18.6528H16.8995V22.3174H16.8994Z" fill="#1876FF"/>
<path d="M29.6212 22.3174H16.8994V18.6528H27.8037C28.8074 18.6528 29.6211 19.4731 29.6211 20.4851V22.3174H29.6212Z" fill="#1876FF"/>
<path d="M4.17773 22.3174V35.1432C4.17773 36.1551 4.99138 36.9754 5.99509 36.9754H27.8037C28.8075 36.9754 29.6211 36.1551 29.6211 35.1432V22.3174H4.17773Z" fill="#FCF9FF"/>
<path d="M22.352 22.3174H15.0825V18.6528H22.352V22.3174Z" fill="#559AFF"/>
<path d="M15.082 22.3174V25.9819V29.6465V33.3109V36.9755H20.5342H22.3516V33.3109V29.6465V25.9819V22.3174H15.082Z" fill="#D1EEFF"/>
<path d="M4.17773 22.3174V35.1432C4.17773 36.1551 4.99138 36.9754 5.99509 36.9754H7.81254V22.3174H4.17773Z" fill="#D1EEFF"/>
<path fill-rule="evenodd" clip-rule="evenodd" d="M23.7215 3.9375C24.1586 3.9375 24.5131 4.29611 24.5131 4.73844V5.5393H26.8879C27.3251 5.5393 27.6795 5.89783 27.6795 6.34016C27.6795 6.78249 27.3251 7.1411 26.8879 7.1411H23.7324L23.7215 7.14117L23.7105 7.1411H22.1383C21.7017 7.14162 21.3479 7.49956 21.3475 7.94121C21.347 8.38354 21.7011 8.74252 22.1383 8.74297H25.3047C26.6163 8.74297 27.6795 9.8188 27.6795 11.1458C27.6795 12.4728 26.6163 13.5485 25.3047 13.5485H24.5131V14.3496C24.5131 14.7919 24.1586 15.1505 23.7215 15.1505C23.2843 15.1505 22.9298 14.7919 22.9298 14.3496V13.5485H20.5551H20.5535C20.1162 13.5481 19.7623 13.1891 19.7627 12.7468C19.7631 12.3044 20.1179 11.9462 20.5551 11.9466H25.3047C25.7419 11.9466 26.0963 11.588 26.0963 11.1457C26.0963 10.7034 25.7419 10.3448 25.3047 10.3448H22.1383C20.8267 10.3448 19.7635 9.26902 19.7635 7.94204C19.7635 6.61505 20.8267 5.5393 22.1383 5.5393H22.9298V4.73844C22.9299 4.29603 23.2843 3.9375 23.7215 3.9375Z" fill="#19E77C"/>
<path d="M11.4473 14.9881H3.70548C2.98204 14.9881 2.39551 14.3968 2.39551 13.6674C2.39551 13.3172 2.53352 12.9813 2.7792 12.7336L12.8458 2.58457C13.3573 2.06882 14.1867 2.06882 14.6983 2.58457C14.944 2.83227 15.082 3.16817 15.082 3.51842V11.3236C15.082 13.3474 13.4547 14.9881 11.4473 14.9881Z" fill="#FCFCFC"/>
</svg>










