<svg width="41" height="42" viewBox="0 0 41 42" fill="none" xmlns="http://www.w3.org/2000/svg">
<path d="M37.2086 41.3301L4.22792 41.3301C2.20098 41.3301 0.560535 39.6896 0.560535 37.6627V26.6691L40.876 26.6691V37.6627C40.876 39.6896 39.2355 41.3301 37.2086 41.3301Z" fill="#5F7BCE"/>
<path d="M35.3791 35.833H9.7246C8.71113 35.833 7.8952 35.0085 7.8952 34.0036C7.8952 32.9901 8.71972 32.1742 9.7246 32.1742H35.3791C36.3926 32.1742 37.2085 32.9987 37.2085 34.0036C37.2085 35.0085 36.384 35.833 35.3791 35.833Z" fill="#90A3DD"/>
<path d="M4.22773 37.6626C3.21426 37.6626 2.39834 36.8381 2.39834 35.8332V34.0038C2.39834 32.9903 3.22285 32.1744 4.22773 32.1744C5.2412 32.1744 6.05713 32.9989 6.05713 34.0038L6.05713 35.8332C6.05713 36.8381 5.2412 37.6626 4.22773 37.6626Z" fill="#90A3DD"/>
<path d="M37.2086 30.3364L4.22792 30.3364C2.20098 30.3364 0.560535 28.696 0.560535 26.669C0.560535 24.6421 2.20098 23.0017 4.22792 23.0017L37.2086 23.0017C39.2355 23.0017 40.876 24.6421 40.876 26.669C40.876 28.696 39.2355 30.3364 37.2086 30.3364Z" fill="#385BC3"/>
<path d="M37.2087 28.4985L4.22801 28.4985C3.21454 28.4985 2.39862 27.674 2.39862 26.6691C2.39862 25.6557 3.22313 24.8397 4.22801 24.8397L37.2087 24.8397C38.2222 24.8397 39.0381 25.6643 39.0381 26.6691C39.0381 27.6826 38.2222 28.4985 37.2087 28.4985Z" fill="#1B43BA"/>
<path d="M37.2087 28.4985H31.7119C30.6984 28.4985 29.8825 27.674 29.8825 26.6691C29.8825 25.6557 30.707 24.8397 31.7119 24.8397H37.2087C38.2222 24.8397 39.0381 25.6643 39.0381 26.6691C39.0381 27.6826 38.2222 28.4985 37.2087 28.4985Z" fill="#002BAD"/>
<path d="M37.2085 28.4985L4.22782 28.4985V17.505C4.22782 15.478 5.86827 13.8376 7.8952 13.8376L33.5411 13.8376C35.5681 13.8376 37.2085 15.478 37.2085 17.505V28.4985Z" fill="#F0E1FF"/>
<path d="M32.631 21.1724L8.81449 21.1724C7.29429 21.1724 6.0661 19.9442 6.0661 18.424C6.0661 16.9038 7.29429 15.6756 8.81449 15.6756L32.631 15.6756C34.1512 15.6756 35.3794 16.9038 35.3794 18.424C35.3794 19.9442 34.1426 21.1724 32.631 21.1724Z" fill="#E3C9FF"/>
<path d="M37.2085 28.4985L4.22782 28.4985V21.1724C4.22782 19.1454 5.86827 17.505 7.8952 17.505L33.5411 17.505C35.5681 17.505 37.2085 19.1454 37.2085 21.1724V28.4985Z" fill="#F6EDFF"/>
<path d="M35.3791 28.4985L6.06581 28.4985C5.05234 28.4985 4.23641 27.674 4.23641 26.6691C4.23641 25.6557 5.06092 24.8397 6.06581 24.8397L35.3791 24.8397C36.3926 24.8397 37.2085 25.6643 37.2085 26.6691C37.2085 27.6826 36.384 28.4985 35.3791 28.4985Z" fill="#F0E1FF"/>
<path d="M6.05751 28.4985H15.2217C15.2217 25.4667 17.6866 23.0018 20.7185 23.0018C23.7503 23.0018 26.2152 25.4667 26.2152 28.4985H35.3794V23.0018C33.3525 23.0018 31.712 21.3613 31.712 19.3344L9.7249 19.3344C9.7249 21.3613 8.08445 23.0018 6.05751 23.0018V28.4985Z" fill="#19E77C"/>
<path d="M33.5416 28.4985H28.0449C27.0314 28.4985 26.2155 27.674 26.2155 26.6691C26.2155 25.6557 27.04 24.8397 28.0449 24.8397H33.5416C34.5551 24.8397 35.371 25.6643 35.371 26.6691C35.3796 27.6826 34.5551 28.4985 33.5416 28.4985Z" fill="#00D16E"/>
<path d="M13.3923 28.4985H7.8955C6.88204 28.4985 6.06611 27.674 6.06611 26.6691C6.06611 25.6557 6.89062 24.8397 7.8955 24.8397H13.3923C14.4058 24.8397 15.2217 25.6643 15.2217 26.6691C15.2217 27.6826 14.3972 28.4985 13.3923 28.4985Z" fill="#00D16E"/>
<path fill-rule="evenodd" clip-rule="evenodd" d="M25.9347 8.06897L22.5851 11.7363C21.8722 12.4492 20.7127 12.4492 19.9913 11.7363C19.2698 11.0235 19.2784 9.86401 19.9913 9.14256L20.4855 8.60147L16.7967 8.60147C15.7832 8.60147 14.9673 7.77695 14.9673 6.77207C14.9673 5.7586 15.7918 4.94267 16.7967 4.94267L20.4855 4.94267L19.9913 4.40158C19.2784 3.68013 19.2698 2.52065 19.9913 1.80779C20.7127 1.09493 21.8722 1.09493 22.5851 1.80779L25.9347 5.47517C26.2919 5.83242 26.4701 6.30183 26.4693 6.77207C26.4701 7.24231 26.2919 7.71172 25.9347 8.06897Z" fill="#19E77C"/>
</svg>



