<svg width="41" height="41" viewBox="0 0 41 41" fill="none" xmlns="http://www.w3.org/2000/svg">
<path fill-rule="evenodd" clip-rule="evenodd" d="M1.95605 20.3836C1.95605 30.4856 10.1742 38.7037 20.2762 38.7037C30.3782 38.7037 38.5963 30.4856 38.5963 20.3836C38.5963 10.2816 30.3782 2.06348 20.2762 2.06348C10.1742 2.06348 1.95605 10.2816 1.95605 20.3836ZM5.61993 20.3836C5.61993 12.3024 12.195 5.7276 20.2762 5.7276C28.3574 5.72736 34.9322 12.3024 34.9322 20.3836C34.9322 28.4648 28.3574 35.0399 20.2762 35.0399C12.195 35.0399 5.61993 28.4648 5.61993 20.3836Z" fill="#DAE0FF"/>
<path fill-rule="evenodd" clip-rule="evenodd" d="M11.1162 20.3836C11.1162 30.8284 15.0539 38.7037 20.2763 38.7037C25.4987 38.7037 29.4363 30.8281 29.4363 20.3836C29.4363 9.93909 25.4987 2.06348 20.2763 2.06348C15.0539 2.06348 11.1162 9.93885 11.1162 20.3836ZM14.7803 20.3836C14.7803 11.4375 18.0355 5.7276 20.2763 5.7276C22.5171 5.72736 25.7722 11.4375 25.7722 20.3836C25.7722 29.33 22.5171 35.0399 20.2763 35.0399C18.0355 35.0399 14.7803 29.33 14.7803 20.3836Z" fill="#DAE0FF"/>
<path d="M18.4442 6.64336C18.4442 8.16127 17.214 9.39145 15.6961 9.39145C14.1784 9.39145 12.9482 8.16127 12.9482 6.64336C12.9482 5.12568 14.1784 3.89551 15.6961 3.89551C17.214 3.89551 18.4442 5.12568 18.4442 6.64336Z" fill="#B8C2FF"/>
<path d="M14.7803 18.5515C14.7803 19.5634 13.9601 20.3836 12.9483 20.3836C11.9364 20.3836 11.1162 19.5634 11.1162 18.5515C11.1162 17.5399 11.9364 16.7197 12.9483 16.7197C13.9601 16.7197 14.7803 17.5399 14.7803 18.5515Z" fill="#B8C2FF"/>
<path d="M29.4361 22.2159C29.4361 23.2277 28.6159 24.0479 27.604 24.0479C26.5924 24.0479 25.772 23.2277 25.772 22.2159C25.772 21.204 26.5924 20.3838 27.604 20.3838C28.6159 20.3838 29.4361 21.204 29.4361 22.2159Z" fill="#B8C2FF"/>
<path d="M25.7723 35.0398C25.7723 36.0517 24.9521 36.8719 23.9405 36.8719C22.9286 36.8719 22.1084 36.0517 22.1084 35.0398C22.1084 34.0282 22.9286 33.208 23.9405 33.208C24.9521 33.208 25.7723 34.0282 25.7723 35.0398Z" fill="#B8C2FF"/>
<path fill-rule="evenodd" clip-rule="evenodd" d="M1.95605 20.3837C1.95605 25.6061 9.83143 29.5438 20.2762 29.5438C30.7209 29.5438 38.5963 25.6061 38.5963 20.3837C38.5963 15.1613 30.7209 11.2236 20.2762 11.2236C9.83143 11.2236 1.95605 15.1613 1.95605 20.3837ZM5.61993 20.3837C5.61993 18.1429 11.3298 14.8878 20.2762 14.8878C29.2226 14.8878 34.9322 18.1429 34.9322 20.3837C34.9322 22.6245 29.2223 25.8796 20.2762 25.8796C11.3298 25.8796 5.61993 22.6245 5.61993 20.3837Z" fill="#DAE0FF"/>
<path d="M36.7645 24.9639C36.7645 26.4816 35.5343 27.7118 34.0166 27.7118C32.4987 27.7118 31.2686 26.4816 31.2686 24.9639C31.2686 23.4462 32.4987 22.2158 34.0166 22.2158C35.5343 22.2158 36.7645 23.4462 36.7645 24.9639Z" fill="#B8C2FF"/>
<path d="M17.2983 13.7416C18.04 12.411 18.4341 10.9148 18.4442 9.39151C18.4442 4.33244 14.3432 0.231445 9.28409 0.231445C4.22526 0.231445 0.124023 4.33244 0.124023 9.39151C0.124023 14.4506 4.22502 18.5516 9.28409 18.5516C10.8074 18.5416 12.3038 18.1475 13.6342 17.4057L14.0214 17.7927C15.0331 18.8046 16.6735 18.8046 17.6851 17.793C17.6851 17.7927 17.6851 17.7927 17.6853 17.7927C18.6972 16.7809 18.6972 15.1405 17.6853 14.1286L17.2983 13.7416Z" fill="#079CFF"/>
<path d="M9.28406 2.06348C5.2388 2.06812 1.9607 5.34623 1.95605 9.39148V9.43549L1.9563 9.44526V9.46751L1.95654 9.47705V9.47851L1.95679 9.48805V9.50027L1.95703 9.51029V9.52129L1.95728 9.53107V9.5323L1.95752 9.54159V9.54354L1.95777 9.55259V9.5543L1.95801 9.56359V9.56505L1.95825 9.57483V9.57508L1.9585 9.5851V9.58583L1.95874 9.59561V9.59684L1.95899 9.60613L1.95923 9.60808L1.95948 9.61713V9.61884L1.95972 9.62813L1.95997 9.62935L1.96021 9.63888V9.63986L1.96046 9.64891L1.9607 9.65062L1.96094 9.65966V9.66162L1.96119 9.67067L1.96143 9.67238L1.96168 9.68167V9.68313L1.96217 9.69267V9.69389L1.96266 9.70318V9.70391L1.96314 9.71345V9.71491L1.96363 9.72421V9.72592L1.96412 9.73496V9.73692L1.96461 9.74596V9.74743L1.9651 9.75696V9.7577C1.96559 9.7643 1.96583 9.7709 1.96608 9.7775L1.96632 9.77897L1.96681 9.78826V9.78972L1.9673 9.79901V9.80072L1.96779 9.81001L1.96803 9.81124L1.96852 9.82102V9.82175L1.96901 9.83128L1.96926 9.83202L1.96975 9.84179V9.84302L1.97048 9.85231V9.85377L1.97097 9.86331L1.97121 9.86453L1.9717 9.87407V9.87504L1.97243 9.88507V9.88531L1.97317 9.89485V9.89607L1.97366 9.90511L1.9739 9.90707L1.97439 9.91611L1.97463 9.91783L1.97537 9.92687V9.92858L1.9761 9.93787V9.93885L1.97683 9.94863V9.94887L1.97757 9.9589V9.95987L1.9783 9.96916L1.97855 9.97088L1.97928 9.97992V9.98163L1.98001 9.99068L1.98026 9.99239L1.98099 10.0017V10.0024L1.98172 10.0119L1.98197 10.0127L1.9827 10.022V10.0234L1.98368 10.0325V10.0344L1.98466 10.0435V10.045L1.98539 10.0542L1.98564 10.056L1.98637 10.065L1.98661 10.0662L1.98735 10.0748L1.98759 10.0762L1.98832 10.0855L1.98857 10.087L1.9893 10.096L1.98955 10.098L1.99053 10.1068V10.1085L1.9915 10.1176L1.99175 10.119L1.99248 10.1286L1.99346 10.1388L1.9937 10.1393L1.99468 10.1491V10.1501L1.99566 10.1594L1.9959 10.1608L1.99688 10.1701L1.99713 10.1716L1.9981 10.1809V10.1821L1.99908 10.1916L1.99933 10.1921L2.0003 10.2014V10.2026L2.00128 10.2119L2.00153 10.2134L2.0025 10.2224L2.00275 10.2241L2.00373 10.2334L2.00397 10.2347L2.00495 10.2439L2.00519 10.2454L2.00617 10.2545L2.00642 10.255L2.00739 10.2642L2.00764 10.2657L2.00862 10.2748L2.00886 10.2765L2.01008 10.2853L2.01033 10.2872L2.0113 10.296L2.01155 10.2975L2.01277 10.3068V10.3078L2.01399 10.317V10.3178L2.01522 10.3271L2.01546 10.3285L2.01668 10.3376V10.3393L2.01791 10.3481L2.01815 10.3498L2.01937 10.3589L2.01962 10.3603L2.02084 10.3696V10.3703L2.02206 10.3794L2.02231 10.3804L2.02353 10.3897L2.02377 10.3914L2.025 10.4002L2.02524 10.4019L2.02646 10.4107L2.02671 10.4124L2.02817 10.4214V10.4224L2.02964 10.4322V10.4324L2.03086 10.4417L2.03111 10.4429L2.03233 10.452L2.03257 10.4537L2.03404 10.4628L2.03429 10.4642L2.03551 10.473L2.03575 10.4747L2.03722 10.4838V10.485L2.03869 10.4943V10.4948L2.04015 10.5046V10.5053L2.04162 10.5146L2.04186 10.516L2.04333 10.5251L2.04504 10.5354L2.04529 10.5373L2.04675 10.5461V10.5473L2.04822 10.5564L2.04846 10.5571L2.04993 10.5662L2.05018 10.5679L2.0514 10.5767L2.05189 10.5786L2.05335 10.5872L2.0536 10.5889L2.05507 10.5979L2.05531 10.5992L2.05678 10.6085L2.05702 10.6094L2.05849 10.618L2.05873 10.6192L2.0602 10.6283L2.06044 10.63L2.06191 10.6388L2.06215 10.6405L2.06362 10.6493L2.06411 10.651L2.06582 10.6613L2.06753 10.6703V10.671L2.06924 10.6801L2.06949 10.6813L2.07096 10.6906L2.0712 10.6916L2.07291 10.7006L2.07316 10.7023L2.07462 10.7111L2.07511 10.7128L2.07682 10.7231L2.07853 10.7322L2.07878 10.7326L2.08025 10.7414L2.08073 10.7432L2.0822 10.752L2.08269 10.7537L2.08416 10.7622L2.08465 10.7642L2.08636 10.7727L2.0866 10.7745L2.08831 10.7833L2.08856 10.7847L2.09027 10.793V10.7943L2.09198 10.8028L2.09247 10.8048L2.09418 10.8133L2.09442 10.8153L2.09614 10.8236L2.09663 10.8258L2.09834 10.8341L2.09858 10.8358L2.10054 10.8449V10.8456L2.10249 10.8549V10.8554L2.10445 10.8647L2.10469 10.8659L2.1064 10.8747L2.10689 10.8764L2.1086 10.8852L2.10909 10.8869L2.1108 10.8955L2.11129 10.8972L2.113 10.906L2.11325 10.9072L2.11496 10.9155L2.1152 10.9167L2.11716 10.9255L2.11741 10.9272L2.11936 10.936L2.11985 10.9375L2.12156 10.9463L2.12205 10.9478L2.12401 10.9568L2.12425 10.9578L2.12621 10.9671V10.9676L2.12816 10.9766L2.12865 10.9778L2.13036 10.9864L2.13085 10.9884L2.13281 10.9969L2.13305 10.9986L2.13501 11.0072L2.1355 11.0089L2.13745 11.0177L2.1399 11.0275V11.0282L2.1421 11.0375L2.14234 11.0385L2.1443 11.0473L2.14479 11.049L2.14674 11.0575L2.14723 11.0595L2.14919 11.0678L2.14968 11.0698L2.15163 11.0783L2.15188 11.0795L2.15383 11.0881L2.15408 11.0888L2.15628 11.0979L2.15652 11.0991L2.15872 11.1077L2.15921 11.1096L2.16117 11.1179L2.16165 11.1199L2.16361 11.1284L2.1641 11.1299L2.16654 11.1397L2.1685 11.148L2.16899 11.1495L2.17094 11.1583L2.17143 11.1597L2.17363 11.168L2.17388 11.17L2.17608 11.1786L2.17657 11.18L2.17852 11.1888L2.17901 11.1903L2.18121 11.1993H2.18146L2.18366 11.2086L2.1839 11.2096L2.18635 11.2187L2.18659 11.2199L2.18879 11.2284L2.18928 11.2304L2.19148 11.2387L2.19197 11.2404L2.19417 11.249L2.19441 11.2504L2.19686 11.259V11.2597L2.19979 11.27L2.20199 11.2783L2.20248 11.2803L2.20468 11.2886L2.20517 11.2905L2.20737 11.2986L2.20786 11.3006L2.2103 11.3091L2.21055 11.3103L2.21275 11.3184L2.21324 11.3199L2.21544 11.3282L2.21593 11.3299L2.21813 11.3382L2.21886 11.3402L2.22082 11.3482L2.22155 11.3504L2.22375 11.3582L2.22424 11.3604L2.22668 11.3688L2.22717 11.3702L2.22913 11.378L2.22962 11.3795L2.23206 11.3876L2.23255 11.3898L2.23475 11.3979L2.23548 11.4001L2.23768 11.4079L2.23842 11.4101L2.24062 11.4181L2.24355 11.4284L2.2438 11.4294L2.24624 11.4379L2.24649 11.4389L2.24942 11.4492L2.25186 11.4573L2.2526 11.4592L2.2548 11.4673L2.25553 11.4695L2.25798 11.4775L2.25846 11.479L2.26091 11.4876L2.26115 11.4885L2.26384 11.4969L2.26409 11.4981L2.26678 11.5066L2.26727 11.5084L2.26971 11.5167L2.2702 11.5184L2.27289 11.5269L2.27313 11.5282L2.27582 11.537L2.27607 11.5379L2.27876 11.5465L2.279 11.5472L2.28193 11.5563L2.28218 11.5572L2.28487 11.566L2.28536 11.5673L2.28805 11.5761L2.28853 11.5773L2.29122 11.5858L2.29147 11.5873L2.29465 11.5968L2.29734 11.6056L2.29758 11.6061L2.30027 11.6149L2.30076 11.6164L2.30345 11.6247L2.30418 11.6264L2.30687 11.6347L2.30711 11.6362L2.31005 11.6448L2.31029 11.6457C2.31225 11.6519 2.31445 11.6582 2.3164 11.6641L2.31665 11.6648L2.31934 11.6736L2.32007 11.6743L2.32276 11.6827L2.32325 11.6846L2.32594 11.6927L2.32667 11.6944L2.32936 11.7025L2.32985 11.7042L2.33254 11.7122L2.33303 11.7135L2.33621 11.723L2.3389 11.7313L2.33963 11.733L2.34232 11.7411L2.34305 11.7428L2.34574 11.7511L2.34623 11.7526L2.34916 11.7611L2.34965 11.7624L2.35259 11.7709V11.7712L2.35552 11.78L2.35625 11.7812L2.35894 11.7895L2.35968 11.7912L2.36236 11.7993L2.3631 11.801L2.36603 11.8093L2.36652 11.8108L2.36945 11.8193L2.3697 11.8203L2.37288 11.8291V11.8293L2.37606 11.8379L2.37654 11.8394L2.37948 11.8477L2.38021 11.8494L2.3829 11.8572L2.38363 11.8594L2.38657 11.8675L2.38706 11.8687L2.38999 11.8773L2.39048 11.8782L2.39366 11.8865L2.3939 11.8873L2.39683 11.8958L2.39732 11.8973L2.4005 11.9056L2.40099 11.9068L2.40417 11.9154L2.40466 11.9166L2.40759 11.9252L2.40808 11.9264L2.41126 11.9347L2.4115 11.9359L2.41468 11.944L2.41493 11.945L2.4181 11.9535L2.41859 11.955L2.42177 11.9631L2.42226 11.9648L2.42544 11.9728L2.42593 11.9743L2.42911 11.9826L2.42959 11.9838L2.43277 11.9922L2.43302 11.9929L2.43619 12.001L2.43668 12.0027L2.43962 12.0105L2.4406 12.0127L2.44353 12.0203L2.4472 12.0301L2.44793 12.0318L2.45111 12.0398L2.4516 12.0408L2.45477 12.0491L2.45502 12.0501L2.45844 12.0584L2.45869 12.0596L2.4626 12.0694L2.46578 12.0777L2.46626 12.0789L2.46969 12.0873L2.47018 12.0887L2.4736 12.097L2.47384 12.098L2.47702 12.1063L2.47751 12.1071L2.48093 12.1156L2.48142 12.1166L2.4846 12.1247L2.48533 12.1266L2.48851 12.1344L2.489 12.1359L2.49242 12.1442L2.49633 12.154L2.49658 12.1547L2.5 12.1628L2.50049 12.164L2.50391 12.1721L2.5044 12.1736L2.50782 12.1816L2.50831 12.1831L2.51174 12.1914L2.51223 12.1924L2.51589 12.2009L2.51614 12.2017C2.51858 12.2078 2.52103 12.2139 2.52372 12.2198V12.2202L2.52738 12.2288L2.52787 12.23L2.53129 12.2383L2.53178 12.2393L2.53545 12.2479L2.53594 12.2486L2.53961 12.2574L2.53985 12.2579C2.54229 12.264 2.54498 12.2699 2.54743 12.2757L2.54792 12.2767L2.55134 12.285L2.55207 12.2863L2.5555 12.2943L2.55623 12.2958L2.55965 12.3041L2.56014 12.3051L2.56381 12.3134L2.5643 12.3146C2.56674 12.3202 2.56919 12.3259 2.57188 12.3317L2.57236 12.3327L2.57603 12.341L2.57652 12.3422L2.58019 12.3503L2.58068 12.3518L2.58434 12.3601L2.58483 12.3608L2.5885 12.3696L2.58874 12.3699L2.59266 12.3787L2.5929 12.3792L2.59657 12.3872L2.5973 12.3887L2.60097 12.397L2.60146 12.398L2.60512 12.4063L2.60561 12.4075L2.60952 12.4158L2.60977 12.4166L2.61368 12.4254H2.61392L2.61784 12.4342L2.61808 12.4346L2.62175 12.443L2.62248 12.4442L2.62615 12.4523L2.62688 12.4537L2.6303 12.4615L2.63128 12.4633L2.63495 12.4711L2.63544 12.4723L2.63935 12.4806L2.64351 12.4894L2.64375 12.4899L2.64766 12.4982L2.64815 12.4997L2.65206 12.5075L2.65255 12.5087L2.65646 12.5168L2.65695 12.518L2.66086 12.5263L2.66111 12.5268L2.66502 12.5354L2.66551 12.5359L2.66942 12.5444L2.66991 12.5451L2.67382 12.5532L2.67431 12.5547L2.67822 12.5628L2.67871 12.5635L2.68287 12.572L2.68311 12.573L2.68751 12.5818L2.69167 12.5904L2.69191 12.5906L2.69582 12.5989L2.69631 12.6002L2.70022 12.608L2.7012 12.6097L2.70487 12.6173L2.7056 12.619L2.70951 12.6266L2.71 12.628L2.71416 12.6361L2.7144 12.6366L2.71856 12.6446L2.7188 12.6454L2.72345 12.6547L2.72736 12.6627L2.72809 12.664L2.732 12.672L2.73274 12.6733L2.73665 12.6811L2.73738 12.6823C2.74032 12.6879 2.74301 12.6933 2.74569 12.6989L2.75034 12.7082L2.75083 12.7089L2.75498 12.717L2.75572 12.7182L2.76012 12.727L2.76452 12.7356L2.76476 12.7361C2.7677 12.7417 2.77063 12.7473 2.77356 12.7529L2.77405 12.7542L2.77821 12.762L2.7787 12.763L2.7831 12.771L2.78359 12.7723L2.78774 12.7801L2.78823 12.7813L2.79263 12.7894L2.79288 12.7899L2.79728 12.7982L2.79752 12.7987L2.80192 12.807L2.80217 12.808L2.80657 12.8158L2.80706 12.817L2.81121 12.8248L2.81195 12.826L2.8161 12.8341L2.81659 12.8351L2.82588 12.8522L2.83053 12.8605L2.83077 12.8615L2.83517 12.8696L2.83566 12.8703L2.84006 12.8786L2.84055 12.8793L2.84495 12.8877L2.84544 12.8881L2.84984 12.8967H2.85008L2.85473 12.9053L2.85497 12.9057L2.85937 12.9138L2.85986 12.915L2.86426 12.9229L2.86475 12.9238L2.86915 12.9317L2.86989 12.9329L2.87429 12.9409L2.87453 12.9414C2.87771 12.9471 2.88089 12.9529 2.88406 12.9585L2.88431 12.9588L2.88871 12.9669L2.88944 12.9681L2.89384 12.9759L2.89433 12.9769L2.89898 12.9847L2.89947 12.9857L2.90411 12.9938V12.994L2.909 13.0026L2.90925 13.0028L2.91389 13.0111L2.91413 13.0116L2.91878 13.0197L2.91927 13.0206L2.92391 13.0285L2.9244 13.0294L2.92905 13.0375L2.92954 13.0382C2.93418 13.0468 2.93932 13.0551 2.94396 13.0634L2.94445 13.0642L2.94909 13.072L2.94958 13.0732L2.95423 13.081L2.95472 13.082L2.95936 13.0898L2.95985 13.0906C2.96303 13.0962 2.96621 13.1016 2.96939 13.1072L2.96987 13.1079L2.97452 13.1157L2.97501 13.1167L2.97965 13.1245L2.98039 13.1255L2.98503 13.1333L2.98576 13.1343L2.99016 13.1421L2.9909 13.1429C2.99408 13.1483 2.99725 13.1536 3.00043 13.159L3.00092 13.16L3.00557 13.1676L3.0107 13.1761L3.01168 13.1776L3.01632 13.1852L3.01681 13.1862L3.0217 13.194L3.02195 13.1945L3.02708 13.2028L3.03197 13.2108L3.03246 13.2118L3.0371 13.2196L3.03759 13.2204L3.04248 13.2282L3.04322 13.2292L3.04786 13.2368L3.04835 13.2377L3.05324 13.2456L3.05348 13.246L3.05862 13.2544L3.06375 13.2624L3.064 13.2629L3.06913 13.271L3.06962 13.2717L3.07451 13.2795L3.075 13.2805L3.08013 13.2883L3.08037 13.2888C3.08551 13.2969 3.09089 13.3052 3.09602 13.3135L3.09675 13.3145L3.10164 13.3223L3.10213 13.3228L3.10702 13.3309L3.10751 13.3316C3.11436 13.3426 3.12169 13.3539 3.12878 13.3646L3.12927 13.3653L3.1344 13.3732L3.13465 13.3739L3.13978 13.3815L3.14027 13.3827L3.1454 13.3903L3.14565 13.3908C3.14932 13.3964 3.15274 13.4015 3.1564 13.4072L3.15665 13.4074L3.16178 13.4155L3.16227 13.416L3.16741 13.4238L3.1679 13.4245L3.17303 13.4323L3.17352 13.4328L3.1789 13.4409L3.18965 13.4573L3.19014 13.458L3.19528 13.4658L3.19576 13.4663L3.2009 13.4741L3.20139 13.4746L3.20677 13.4827C3.21239 13.4913 3.21801 13.4993 3.22363 13.5076L3.22388 13.5079L3.22926 13.5157L3.22975 13.5164L3.23512 13.5243V13.5245C3.24466 13.5384 3.25395 13.5519 3.26373 13.5656L3.26397 13.5661L3.26935 13.5739L3.26959 13.5744L3.27522 13.5822L3.27546 13.5827L3.28695 13.5988V13.5991L3.29258 13.6069L3.29282 13.6074L3.2982 13.6152L3.29869 13.6157C3.30627 13.6264 3.31384 13.637 3.32167 13.648L3.32191 13.6482L3.32753 13.656L3.32778 13.6565L3.3334 13.6643L3.33365 13.6646C3.34147 13.6756 3.34905 13.6861 3.35687 13.6969L3.35712 13.6973L3.36274 13.7052L3.36298 13.7054L3.36861 13.713L3.36934 13.714L3.37472 13.7213L3.37496 13.7215C3.38083 13.7299 3.3867 13.7374 3.39256 13.7455L3.39281 13.746L3.39868 13.7536L3.39892 13.7541L3.40479 13.7616L3.40503 13.7621C3.41285 13.7729 3.42068 13.7831 3.42875 13.7939L3.42899 13.7942L3.43486 13.802L3.4351 13.8022L3.44097 13.81L3.44121 13.8103C3.44928 13.821 3.4571 13.8313 3.46542 13.8421V13.8423L3.47153 13.8501L3.47764 13.8582C3.48595 13.8687 3.49402 13.879 3.50209 13.8897L3.50233 13.89L3.50844 13.8978L3.5148 13.9056V13.9059C3.52091 13.9137 3.52702 13.9215 3.53338 13.9293L3.53949 13.9369L3.53973 13.9374L3.54585 13.945C3.5522 13.9531 3.55831 13.9606 3.56467 13.9685V13.9687L3.57078 13.9763L3.57103 13.9765L3.57714 13.9841L3.57738 13.9846L3.58349 13.9922H3.58374C3.59205 14.0027 3.60036 14.013 3.60892 14.0235L3.61528 14.031L3.61552 14.0313C3.62823 14.0469 3.64095 14.0623 3.65366 14.0777H3.6539C3.66246 14.088 3.67102 14.098 3.67957 14.1083V14.1085L3.68593 14.1161H3.68617L3.69253 14.1237L3.69277 14.1239C3.70133 14.1342 3.70989 14.144 3.71869 14.1543V14.1545L3.72504 14.1621H3.72529C3.73604 14.1748 3.74705 14.1873 3.75805 14.2V14.2002L3.7644 14.2076L3.76465 14.2078L3.771 14.2151L3.77149 14.2154C3.78005 14.2254 3.78909 14.2354 3.7979 14.2452V14.2454C4.95009 15.5502 6.52936 16.4017 8.25239 16.6476C9.25423 16.7894 10.1813 16.0922 10.3231 15.0903C10.4646 14.0885 9.76738 13.1615 8.76554 13.0197C6.76235 12.7334 5.37033 10.8771 5.65661 8.87394C5.91452 7.06877 7.46031 5.72809 9.28381 5.72785C9.49919 5.72785 9.71433 5.74642 9.92628 5.78383C10.9227 5.95985 11.8732 5.29489 12.0493 4.29843C12.225 3.3027 11.5611 2.35293 10.5656 2.17593C10.5037 2.16518 10.4416 2.15491 10.3795 2.14562H10.3793C10.3729 2.14464 10.3666 2.14366 10.36 2.14269H10.3595L10.3504 2.14122H10.3492L10.3407 2.13975L10.3389 2.13951L10.3311 2.13853L10.3294 2.13828L10.3216 2.13706L10.3194 2.13682L10.3116 2.13584L10.3089 2.13535L10.3013 2.13437L10.2986 2.13388L10.2927 2.13315L10.2886 2.13266L10.2827 2.13168L10.2791 2.13119L10.2725 2.13046L10.2683 2.12973L10.2639 2.12924L10.2578 2.12826L10.2541 2.12777L10.247 2.12679L10.2438 2.12655L10.239 2.12582L10.2358 2.12533L10.2282 2.12435L10.2253 2.12411L10.2177 2.12313L10.2148 2.12264L10.2047 2.12142H10.2042L10.1986 2.12068L10.1876 2.11946L10.1864 2.11922L10.1761 2.11799H10.1754C10.1659 2.11677 10.1568 2.11555 10.1473 2.11457H10.1468C10.0243 2.0999 9.90135 2.08866 9.77716 2.08035H9.77691C9.76713 2.07986 9.7576 2.07912 9.74806 2.07839H9.74757L9.73682 2.0779H9.7356L9.72484 2.07717H9.72459C9.71897 2.07692 9.71335 2.07643 9.70773 2.07619L9.70601 2.07594L9.69624 2.07546H9.69477L9.6845 2.07497L9.68352 2.07472L9.6779 2.07448H9.67668L9.66714 2.07399L9.66445 2.07374L9.65663 2.0735L9.65345 2.07326L9.64808 2.07301L9.64245 2.07277L9.63781 2.07252L9.63414 2.07228L9.62705 2.07203L9.62338 2.07179L9.61654 2.07154L9.61263 2.0713L9.60774 2.07106L9.60163 2.07081L9.59698 2.07057H9.59331L9.58647 2.07032L9.58231 2.07008L9.57742 2.06983L9.57156 2.06959H9.5674L9.56055 2.06934L9.55664 2.0691L9.552 2.06885H9.54613L9.54124 2.06861L9.53733 2.06837L9.53073 2.06812H9.52657L9.51948 2.06788L9.51631 2.06763H9.51044L9.50628 2.06739L9.49993 2.06714H9.49675L9.48941 2.0669H9.48599L9.47866 2.06665H9.47597L9.46937 2.06641H9.46692L9.4591 2.06617H9.45617L9.44834 2.06592H9.44541L9.43832 2.06568H9.43563L9.4283 2.06543H9.4261L9.41778 2.06519H9.40532L9.39676 2.06494H9.38527L9.37647 2.0647H9.35496L9.3464 2.06445H9.2931L9.28406 2.06348Z" fill="#5CBEFF"/>
<path d="M9.28395 0.231445H9.19961L9.1957 0.23169H9.17076L9.16636 0.231934H9.15585L9.15169 0.232179H9.14118L9.13703 0.232423H9.12676L9.12236 0.232668H9.11209L9.10769 0.232912H9.09718L9.09302 0.233157H9.08275L9.07835 0.233401H9.07542L9.07102 0.233646H9.06833L9.06368 0.23389H9.05635L9.05342 0.234135H9.04584L9.04168 0.234623H9.03875L9.03435 0.234868H9.02701L9.02408 0.235112H9.0165L9.01235 0.235357H9.00941L9.00501 0.235601H9.00208L8.99768 0.235846H8.99034L8.98765 0.23609H8.98056L8.97543 0.236335L8.97323 0.236579H8.96785L8.96614 0.236824H8.96076L8.95832 0.237068L8.95343 0.237313H8.95147L8.94634 0.237557L8.94389 0.237802H8.93876L8.93656 0.238046H8.93143L8.92923 0.23829L8.92434 0.238535H8.92189L8.91725 0.238779H8.91456L8.90942 0.239024L8.90747 0.239268H8.90233L8.89989 0.239513L8.895 0.239757H8.8928L8.88791 0.240002H8.88547L8.87984 0.240246L8.87838 0.240491L8.87275 0.240735H8.8708L8.86542 0.24098H8.86371L8.85808 0.241224H8.85637L8.84953 0.241713H8.84928L8.84317 0.241958H8.84171L8.82777 0.242691H8.82728L8.81359 0.243424H8.81261C8.78328 0.244891 8.75418 0.246602 8.72509 0.248314H8.72485C8.71507 0.248803 8.70578 0.249536 8.696 0.25027H8.69502L8.68867 0.250514L8.68769 0.250758L8.68158 0.251003L8.68011 0.251247L8.67424 0.251492H8.67302L8.66715 0.251981H8.66544L8.65982 0.25247H8.6586L8.65273 0.252959H8.65126L8.6454 0.253448H8.64393L8.63855 0.253937H8.63611L8.63097 0.254426H8.62926L8.62413 0.254914L8.62193 0.255159L8.61655 0.255403L8.61508 0.255648L8.60946 0.255892L8.6075 0.256137L8.60212 0.256381L8.60017 0.256626L8.59503 0.25687L8.59283 0.257115L8.5877 0.257359L8.5855 0.257604L8.58086 0.258093L8.57792 0.258337L8.57352 0.258582L8.57083 0.258826L8.56643 0.25907L8.5635 0.259315L8.55885 0.259804L8.55665 0.260048L8.55176 0.260293L8.54907 0.260537L8.54467 0.261026L8.54198 0.261271L8.53734 0.261515L8.53465 0.26176L8.53001 0.262249H8.52756L8.52316 0.262738L8.51998 0.262982L8.51583 0.263471L8.51314 0.263715L8.50825 0.26396L8.50605 0.264204L8.50091 0.264693H8.49896L8.49407 0.265182L8.49138 0.265427L8.48673 0.265916L8.48429 0.26616L8.4794 0.266405L8.4772 0.266649L8.47231 0.267138L8.46962 0.267382L8.46571 0.267627L8.46253 0.267871L8.45813 0.26836L8.45544 0.268605L8.45104 0.269094L8.44811 0.269338L8.44395 0.269583L8.44077 0.269827L8.43711 0.270072L8.43344 0.270561L8.42977 0.270805L8.42635 0.271294L8.42244 0.271538L8.41926 0.271783L8.41535 0.272272L8.41193 0.272516L8.40875 0.272761L8.40459 0.27325L8.40166 0.273494L8.3975 0.273983L8.39432 0.274228L8.39041 0.274472L8.38699 0.274961L8.38332 0.275206L8.38039 0.27545L8.37599 0.275939L8.36865 0.276672L8.36597 0.276917L8.36181 0.277406L8.35863 0.27765L8.35448 0.278139L8.35276 0.278384L8.34005 0.279606H8.33956L8.33296 0.280339H8.33272C8.26647 0.287185 8.20046 0.294763 8.13445 0.303075C7.90832 0.331189 7.68512 0.36786 7.46436 0.412354C6.96833 0.511853 6.64709 0.994682 6.74659 1.49071C6.84634 1.98674 7.32892 2.30798 7.82495 2.20848C7.82544 2.20848 7.82593 2.20823 7.82642 2.20823C8.30656 2.11167 8.79477 2.06326 9.28444 2.06326C13.3297 2.06791 16.608 5.34626 16.6124 9.39151C16.6124 10.5718 16.302 11.7409 15.6898 12.8657C15.3013 13.579 15.429 14.4628 16.0032 15.0371L16.3902 15.4241C16.6873 15.7196 16.6885 16.2 16.3929 16.497C16.0971 16.7941 15.6167 16.7953 15.3197 16.4997C15.3187 16.4988 15.318 16.498 15.3172 16.497L14.93 16.1103C14.356 15.5358 13.472 15.4082 12.7589 15.7966C11.8191 16.3208 10.7755 16.6315 9.70224 16.7066C9.19717 16.7379 8.81335 17.1728 8.84464 17.6776C8.87471 18.1602 9.27466 18.5364 9.75823 18.5369C9.77729 18.5369 9.79661 18.5362 9.81592 18.535C11.0735 18.4501 12.2997 18.1047 13.4167 17.5209L13.417 17.5206L13.4307 17.5138V17.5136C13.4444 17.5067 13.4578 17.4996 13.4715 17.4925L13.4717 17.4923L13.4783 17.4889L13.4786 17.4886L13.4849 17.4854L13.4857 17.485L13.4925 17.4815C13.5035 17.4757 13.5145 17.4698 13.5255 17.4642L13.5265 17.4637L13.5319 17.4608L13.5333 17.4598L13.5385 17.4573L13.5407 17.4559L13.548 17.4522L13.5524 17.4497L13.5553 17.4483L13.5619 17.4446L13.5668 17.4419L13.5678 17.4414L13.5783 17.4358L13.5808 17.4346L13.5849 17.4324L13.5879 17.4309L13.5918 17.4287L13.5952 17.4268L13.5989 17.4248L13.6023 17.4229L13.6133 17.417L13.6167 17.415L13.6204 17.4131L13.6245 17.4106L13.6275 17.4092L13.6345 17.4053L14.0215 17.7923C15.0334 18.8041 16.6738 18.8041 17.6857 17.7923C18.6975 16.7806 18.6975 15.14 17.6857 14.1284L17.2987 13.7411C18.0404 12.4107 18.4345 10.9143 18.4445 9.39102C18.444 4.33244 14.343 0.231445 9.28395 0.231445Z" fill="#0784FF"/>
<path d="M31.2685 22.2159C29.7452 22.2259 28.2488 22.62 26.9182 23.3617L26.5312 22.9747C25.5196 21.9629 23.8792 21.9629 22.8673 22.9747C21.8554 23.9863 21.8554 25.6267 22.8673 26.6386L23.2543 27.0256C22.5126 28.3562 22.1185 29.8527 22.1085 31.3759C22.1085 36.4348 26.2095 40.536 31.2685 40.536C36.3274 40.536 40.4286 36.435 40.4286 31.3759C40.4286 26.3169 36.3276 22.2159 31.2685 22.2159Z" fill="#FFBE00"/>
<path d="M31.14 35.0377C29.1742 34.954 27.6191 33.3437 27.6045 31.376C27.6045 30.8066 27.7604 30.2433 28.0822 29.6532L28.598 28.7051L29.5465 28.1891C30.136 27.8678 30.6992 27.7119 31.2686 27.7119C32.2804 27.7116 33.1004 26.8909 33.0999 25.8793C33.0997 24.8679 32.28 24.0482 31.2686 24.048C30.0878 24.048 28.9195 24.3582 27.7942 24.9711L26.5911 25.6258L25.2358 24.2697C24.9392 23.9737 24.4586 23.9739 24.1623 24.2704C23.8665 24.5667 23.8665 25.0464 24.1621 25.3429L24.1623 25.3432L25.5184 26.6985L24.8637 27.9016C24.2511 29.0271 23.9406 30.1952 23.9406 31.376V31.3994C23.9406 31.4031 23.9406 31.4065 23.9406 31.4102V31.4227C23.9408 31.4263 23.9408 31.4298 23.9408 31.4332V31.4344C23.9408 31.4378 23.9408 31.441 23.9408 31.4447V31.4459C23.9408 31.4493 23.9411 31.453 23.9411 31.4562V31.4576C23.9411 31.4608 23.9411 31.4642 23.9411 31.4677V31.4691C23.9413 31.4725 23.9413 31.476 23.9413 31.4794V31.4806C23.9413 31.484 23.9413 31.4875 23.9416 31.4909V31.4923C23.9416 31.4955 23.9416 31.4989 23.9418 31.5024V31.5038C23.9418 31.5073 23.9418 31.5104 23.9418 31.5139L23.942 31.5156C23.942 31.519 23.942 31.5222 23.942 31.5253L23.9423 31.5271C23.9423 31.5305 23.9423 31.5337 23.9425 31.5371V31.5388C23.9425 31.5422 23.9425 31.5454 23.9428 31.5486V31.5503C23.9428 31.5537 23.943 31.5566 23.943 31.5601L23.9433 31.5618C23.9433 31.5652 23.9433 31.5684 23.9435 31.5718V31.5733L23.9438 31.5833V31.5848L23.944 31.595V31.5962L23.9442 31.6065V31.6077L23.9447 31.618V31.619L23.945 31.6297V31.6305L23.9455 31.6412V31.642L23.946 31.6525V31.6532C23.946 31.6566 23.9462 31.6605 23.9462 31.664V31.6647C23.9464 31.6681 23.9467 31.6715 23.9467 31.6752V31.6762C23.9469 31.6799 23.9469 31.683 23.9472 31.6865V31.6877L23.9477 31.6977V31.6992C23.9479 31.7026 23.9479 31.7063 23.9482 31.7094V31.7107C23.9484 31.7141 23.9487 31.7175 23.9487 31.7209V31.7224C23.9489 31.7256 23.9491 31.729 23.9494 31.7324V31.7336C23.9496 31.7371 23.9496 31.7405 23.9499 31.7437V31.7451C23.9501 31.7486 23.9501 31.752 23.9504 31.7554V31.7566C23.9506 31.76 23.9506 31.7632 23.9511 31.7666V31.7684C23.9513 31.7718 23.9513 31.7747 23.9516 31.7781C23.9516 31.7786 23.9516 31.7794 23.9516 31.7801C23.9518 31.7833 23.9521 31.7862 23.9523 31.7896V31.7916C23.9526 31.7948 23.9526 31.7979 23.9528 31.8011L23.9531 31.8028C23.9533 31.8062 23.9533 31.8094 23.9535 31.8126L23.9538 31.8143C23.954 31.8177 23.954 31.8207 23.9543 31.8241L23.9545 31.8258C23.9548 31.8292 23.9548 31.8322 23.955 31.8356V31.837L23.9557 31.8471L23.956 31.8485C23.9562 31.8517 23.9565 31.8551 23.9565 31.8586L23.9567 31.86L23.9572 31.8701L23.9575 31.871L23.9582 31.8813V31.8828L23.9589 31.893L23.9592 31.8938C23.9594 31.8972 23.9594 31.9009 23.9599 31.9043V31.905C23.9601 31.9087 23.9604 31.9123 23.9606 31.916V31.9163C23.9609 31.9199 23.9611 31.9233 23.9614 31.927L23.9616 31.9275C23.9619 31.9312 23.9621 31.9348 23.9623 31.9387C23.9628 31.9424 23.9631 31.9458 23.9633 31.9495V31.9505C23.9636 31.9539 23.9638 31.9573 23.9643 31.9608V31.9617C23.9645 31.9652 23.9648 31.9683 23.965 31.9718L23.9653 31.9732C23.9655 31.9766 23.9658 31.9801 23.966 31.9835V31.9845C23.9663 31.9879 23.9667 31.9913 23.967 31.9945V31.9962C23.9675 31.9994 23.9677 32.0026 23.968 32.0057V32.0074C23.9685 32.0109 23.9687 32.0138 23.9689 32.0172V32.0189C23.9692 32.0221 23.9697 32.0255 23.9699 32.0287L23.9702 32.0302C23.9704 32.0334 23.9707 32.0365 23.9709 32.04L23.9711 32.0417C23.9714 32.0451 23.9716 32.048 23.9719 32.0512L23.9721 32.0529C23.9724 32.0561 23.9726 32.0593 23.9729 32.0625L23.9731 32.0642C23.9733 32.0676 23.9738 32.0708 23.9741 32.0742V32.0754L23.9753 32.0854V32.0869C23.9755 32.0901 23.976 32.0935 23.9763 32.0967L23.9765 32.0981C23.9768 32.1013 23.977 32.1047 23.9773 32.1079L23.9775 32.1096L23.9785 32.1194L23.9787 32.1206C23.979 32.1238 23.9795 32.1275 23.9797 32.1309V32.1319C23.9802 32.1353 23.9804 32.1387 23.9809 32.1421V32.1429C23.9814 32.1463 23.9817 32.15 23.9821 32.1531V32.1546C23.9826 32.158 23.9831 32.161 23.9834 32.1646V32.1656C23.9839 32.1693 23.9843 32.1725 23.9846 32.1759V32.1769C23.9851 32.1803 23.9856 32.1835 23.9858 32.1871L23.9861 32.1879C23.9863 32.1913 23.9868 32.1947 23.987 32.1981L23.9873 32.1991C23.9875 32.2023 23.988 32.2062 23.9883 32.2096L23.9885 32.2101C23.989 32.2135 23.9892 32.2172 23.9897 32.2206V32.2214C23.9902 32.225 23.9907 32.2282 23.9909 32.2316L23.9912 32.2328C23.9914 32.236 23.9919 32.2394 23.9924 32.2429V32.2441C23.9929 32.2475 23.9934 32.2509 23.9936 32.2541L23.9939 32.2553C23.9944 32.2588 23.9946 32.2622 23.9951 32.2654L23.9953 32.2668C23.9956 32.27 23.9961 32.2732 23.9966 32.2766L23.9968 32.2781C23.9971 32.2813 23.9975 32.2842 23.998 32.2876L23.9983 32.2893C23.9985 32.2927 23.999 32.2957 23.9993 32.2989L23.9995 32.3006C24 32.304 24.0005 32.3069 24.0007 32.3103L24.001 32.3118C24.0015 32.315 24.0019 32.3182 24.0024 32.3216L24.0027 32.3231C24.0029 32.3265 24.0034 32.3294 24.0039 32.3326L24.0041 32.3345L24.0054 32.3441L24.0056 32.3453L24.0068 32.3553L24.0071 32.3568C24.0076 32.36 24.0078 32.3632 24.0083 32.3663L24.0085 32.368L24.01 32.3776L24.0103 32.3793L24.0115 32.3891L24.0117 32.39C24.0122 32.3935 24.0127 32.3969 24.0129 32.4003L24.0132 32.4013C24.0137 32.4047 24.0142 32.4081 24.0147 32.4116V32.4123L24.0161 32.4226L24.0164 32.4238C24.0169 32.4272 24.0173 32.4304 24.0178 32.434L24.0181 32.4348C24.0186 32.4382 24.0191 32.4416 24.0195 32.445V32.4455C24.02 32.449 24.0208 32.4526 24.021 32.4558L24.0213 32.457C24.0217 32.4602 24.0222 32.4634 24.0227 32.4668L24.023 32.4678C24.0235 32.4712 24.0239 32.4746 24.0244 32.4781L24.0247 32.4788C24.0252 32.4822 24.0257 32.4856 24.0261 32.4893L24.0264 32.49C24.0269 32.4935 24.0274 32.4969 24.0279 32.5003L24.0281 32.501L24.0296 32.5111L24.0298 32.5125C24.0303 32.5157 24.0308 32.5189 24.0313 32.5221L24.0315 32.5235C24.032 32.5269 24.0325 32.5299 24.033 32.5331L24.0335 32.5348C24.0337 32.5379 24.0345 32.5411 24.0347 32.5443L24.0352 32.5458C24.0354 32.5492 24.0359 32.5519 24.0367 32.5553L24.0369 32.557C24.0374 32.5604 24.0379 32.5634 24.0384 32.5665L24.0386 32.5683C24.0393 32.5714 24.0396 32.5746 24.0403 32.5778L24.0406 32.5793C24.0411 32.5824 24.0415 32.5854 24.042 32.5888L24.0423 32.5905L24.044 32.5998L24.0442 32.6018L24.0457 32.6108L24.0462 32.6128C24.0467 32.6159 24.0472 32.6189 24.0477 32.622L24.0479 32.6238C24.0486 32.6269 24.0491 32.6299 24.0496 32.633L24.0499 32.635C24.0503 32.6379 24.0511 32.6411 24.0516 32.6443L24.0518 32.646C24.0523 32.6489 24.0528 32.6524 24.0535 32.6555L24.0538 32.6568C24.0543 32.6602 24.0548 32.6634 24.0555 32.6665L24.0557 32.668C24.0562 32.6714 24.057 32.6744 24.0577 32.6778V32.6785C24.0584 32.6819 24.0589 32.6851 24.0596 32.6888L24.0599 32.6898C24.0604 32.6932 24.0611 32.6964 24.0616 32.6998L24.0618 32.7005C24.0623 32.7039 24.0631 32.7076 24.0636 32.7108L24.0638 32.7115C24.0643 32.7149 24.065 32.7186 24.0658 32.722L24.0677 32.7325V32.7333C24.0684 32.7367 24.0689 32.7399 24.0697 32.7433L24.0699 32.7443C24.0706 32.7477 24.0711 32.7506 24.0716 32.7541L24.0721 32.7553C24.0726 32.7587 24.0733 32.7619 24.0738 32.7651L24.0741 32.7663C24.0748 32.7695 24.0755 32.7729 24.076 32.7758L24.0763 32.7775C24.0768 32.7807 24.0775 32.7839 24.0782 32.7868L24.0785 32.7885C24.079 32.7915 24.0797 32.7946 24.0802 32.7978L24.0807 32.7998C24.0812 32.8027 24.0819 32.8056 24.0824 32.8088L24.0829 32.8108C24.0834 32.8137 24.0841 32.8166 24.0846 32.8196L24.0851 32.822C24.0856 32.8247 24.0863 32.8279 24.0868 32.8308L24.0873 32.8328C24.0878 32.836 24.0885 32.8386 24.0892 32.8418L24.0895 32.8435C24.0902 32.847 24.0907 32.8499 24.0914 32.8531L24.0917 32.8545C24.0924 32.8577 24.0929 32.8606 24.0936 32.8638L24.0941 32.8655C24.0946 32.8687 24.0953 32.8716 24.0958 32.8748L24.0961 32.8765C24.0968 32.8797 24.0975 32.8826 24.098 32.8858L24.0985 32.8875C24.0992 32.8907 24.0997 32.8937 24.1005 32.8968L24.1007 32.8983C24.1014 32.9017 24.1019 32.9044 24.1027 32.9078L24.1029 32.9095C24.1036 32.9125 24.1044 32.9159 24.1051 32.9188L24.1054 32.9203L24.1073 32.9298L24.1076 32.9311C24.1083 32.9345 24.109 32.9374 24.1098 32.9408L24.11 32.9418C24.1107 32.945 24.1112 32.9482 24.1122 32.9516L24.1124 32.9528L24.1146 32.9628V32.9636C24.1156 32.967 24.1164 32.9702 24.1171 32.9736L24.1173 32.9743C24.1181 32.9777 24.1188 32.9812 24.1195 32.9846C24.1203 32.988 24.121 32.9914 24.122 32.9949L24.1222 32.9958L24.1244 33.0061L24.1247 33.0066L24.1271 33.0169V33.0174L24.1296 33.0276L24.1298 33.0284L24.132 33.0381L24.1322 33.0396C24.133 33.0425 24.1337 33.046 24.1347 33.0491L24.1349 33.0504C24.1357 33.0533 24.1364 33.0567 24.1371 33.0596L24.1374 33.0611C24.1381 33.0643 24.1391 33.0675 24.1398 33.0709L24.1401 33.0719C24.1408 33.075 24.1415 33.0782 24.1423 33.0814L24.1428 33.0831C24.1435 33.086 24.1442 33.0892 24.145 33.0924L24.1452 33.0936C24.1459 33.0968 24.1467 33.0997 24.1476 33.1029L24.1479 33.1046C24.1486 33.1078 24.1494 33.1107 24.1501 33.1139L24.1506 33.1151C24.1513 33.1183 24.152 33.1215 24.1528 33.1244L24.1533 33.1264L24.1555 33.1354L24.1557 33.1371C24.1567 33.1403 24.1574 33.143 24.1582 33.1462L24.1587 33.1479C24.1594 33.1508 24.1601 33.1543 24.1609 33.1572L24.1611 33.1587C24.1621 33.1618 24.1628 33.1645 24.1635 33.1677L24.164 33.1697C24.1648 33.1726 24.1655 33.1758 24.1665 33.1787L24.1667 33.1802L24.1692 33.1897L24.1694 33.1909L24.1719 33.2005L24.1721 33.2014C24.1728 33.2046 24.1738 33.208 24.1745 33.2112L24.1748 33.2122C24.1758 33.2156 24.1767 33.2188 24.1775 33.2222L24.1777 33.2225C24.1785 33.2259 24.1794 33.2293 24.1802 33.2327L24.1804 33.2335C24.1814 33.2369 24.1824 33.2401 24.1831 33.2435V33.2437C24.1841 33.2472 24.1851 33.2503 24.1858 33.2538L24.186 33.2547L24.1887 33.2643L24.189 33.2655C24.1899 33.2687 24.1907 33.2718 24.1914 33.2748L24.1919 33.2762C24.1926 33.2794 24.1936 33.2826 24.1943 33.2858L24.1946 33.2868C24.1956 33.2899 24.1963 33.2931 24.1973 33.2963L24.1975 33.2975C24.1985 33.3007 24.1992 33.3036 24.2002 33.3068L24.2005 33.3085L24.2029 33.3176C24.2031 33.3181 24.2034 33.3185 24.2034 33.3193C24.2041 33.3222 24.2051 33.3251 24.2058 33.3281L24.2063 33.33C24.2073 33.3327 24.208 33.3359 24.2088 33.3386L24.2095 33.3408C24.2102 33.3437 24.211 33.3464 24.2119 33.3493L24.2124 33.3513C24.2134 33.3545 24.2139 33.3569 24.2149 33.3601L24.2154 33.3621C24.2163 33.365 24.2171 33.3679 24.2178 33.3709L24.2185 33.3726C24.2193 33.3757 24.22 33.3784 24.221 33.3816L24.2215 33.3833C24.2222 33.3865 24.2232 33.3892 24.2239 33.3921L24.2244 33.3941C24.2254 33.3968 24.2264 33.3999 24.2271 33.4029L24.2276 33.4046C24.2283 33.4075 24.2293 33.4107 24.23 33.4134L24.2305 33.4154C24.2315 33.4183 24.2325 33.4212 24.2332 33.4242L24.2337 33.4261C24.2347 33.429 24.2354 33.432 24.2361 33.4349L24.2366 33.4364C24.2376 33.4393 24.2386 33.4425 24.2393 33.4454L24.2401 33.4471C24.2408 33.4501 24.2418 33.4532 24.2425 33.4562L24.243 33.4576L24.2457 33.4669L24.2462 33.4682C24.2469 33.4713 24.2479 33.4743 24.2489 33.4774L24.2491 33.4787C24.2503 33.4818 24.2511 33.4848 24.252 33.488L24.2523 33.4892C24.2533 33.4921 24.2542 33.4953 24.2552 33.4982L24.2555 33.4994C24.2564 33.5026 24.2574 33.5056 24.2584 33.5087L24.2586 33.51C24.2596 33.5131 24.2606 33.5163 24.2616 33.5193L24.2618 33.5205C24.2628 33.5239 24.2638 33.5266 24.2648 33.5298L24.2652 33.5312C24.266 33.5342 24.267 33.5373 24.2679 33.5405L24.2684 33.5417C24.2694 33.5447 24.2704 33.5479 24.2714 33.5508L24.2716 33.5523C24.2726 33.5554 24.2736 33.5584 24.2745 33.5613L24.275 33.5628C24.2758 33.5659 24.277 33.5689 24.2777 33.5718L24.2782 33.5733C24.2792 33.5765 24.2802 33.5794 24.2811 33.5823L24.2816 33.584C24.2826 33.587 24.2833 33.5899 24.2843 33.5928L24.285 33.5945C24.286 33.5977 24.2868 33.6004 24.2877 33.6033L24.2882 33.6051L24.2912 33.6139L24.2916 33.6156C24.2926 33.6187 24.2936 33.6214 24.2946 33.6246L24.2951 33.6261C24.296 33.6293 24.297 33.632 24.298 33.6349L24.2985 33.6366C24.2995 33.6398 24.3004 33.6427 24.3012 33.6456L24.3019 33.6471C24.3026 33.65 24.3036 33.653 24.3046 33.6562L24.3051 33.6576L24.3083 33.6664L24.3088 33.6681C24.3095 33.6711 24.3105 33.6742 24.3117 33.6769L24.3122 33.6786C24.3132 33.6816 24.3141 33.6845 24.3151 33.6877L24.3156 33.6887C24.3166 33.6918 24.3176 33.695 24.3185 33.698L24.319 33.6992L24.3222 33.7085L24.3224 33.7097L24.3256 33.719L24.3259 33.72L24.3293 33.7297L24.3295 33.73C24.3305 33.7334 24.3315 33.7363 24.3327 33.74L24.333 33.7405C24.3339 33.7437 24.3354 33.7471 24.3364 33.7503L24.3366 33.7508L24.3398 33.7603L24.3403 33.7613L24.3437 33.7715C24.3449 33.7747 24.3459 33.7777 24.3469 33.7808L24.3474 33.7821C24.3486 33.7852 24.3496 33.7882 24.3506 33.7911L24.351 33.7926C24.352 33.7955 24.3532 33.7984 24.3542 33.8014L24.3547 33.8028C24.3557 33.806 24.3569 33.8089 24.3579 33.8121L24.3584 33.8131C24.3594 33.8163 24.3603 33.8192 24.3616 33.8224L24.362 33.8236C24.363 33.8268 24.3642 33.8295 24.3652 33.8327L24.3657 33.8341L24.3689 33.8427L24.3696 33.8446C24.3706 33.8478 24.3716 33.8503 24.3726 33.8534L24.3733 33.8549C24.3743 33.8578 24.3753 33.8605 24.3762 33.8637L24.377 33.8652C24.3779 33.8681 24.3792 33.871 24.3801 33.8742L24.3806 33.8754C24.3816 33.8784 24.3828 33.8813 24.3841 33.8845L24.3845 33.886C24.3855 33.8889 24.3867 33.8918 24.3877 33.895L24.3882 33.896C24.3892 33.8989 24.3904 33.9021 24.3916 33.905L24.3921 33.9065L24.3955 33.9155L24.3958 33.9165L24.3992 33.9258L24.3997 33.927C24.4009 33.9302 24.4021 33.9331 24.4031 33.9361L24.4036 33.9371C24.4046 33.9402 24.4058 33.9434 24.407 33.9463L24.4075 33.9476C24.4087 33.951 24.4097 33.9534 24.4109 33.9569L24.4112 33.9578C24.4124 33.9608 24.4136 33.9637 24.4149 33.9671L24.4151 33.9681C24.4163 33.971 24.4175 33.9742 24.4185 33.9774L24.4188 33.9779C24.42 33.9808 24.4212 33.9842 24.4224 33.9874L24.4227 33.9881C24.4239 33.9911 24.4251 33.9945 24.4263 33.9974L24.4266 33.9982C24.4278 34.0013 24.429 34.004 24.4303 34.0075L24.4305 34.0084C24.4317 34.0114 24.4329 34.0145 24.4339 34.0177L24.4344 34.0187C24.4356 34.0219 24.4369 34.0246 24.4381 34.028L24.4386 34.029C24.4395 34.0319 24.4408 34.0351 24.442 34.0383L24.4422 34.0392C24.4437 34.0422 24.4447 34.0451 24.4459 34.048L24.4464 34.0495C24.4476 34.0524 24.4488 34.0556 24.4501 34.0586L24.4503 34.0598C24.4515 34.0627 24.4527 34.0656 24.454 34.0686L24.4545 34.0698C24.4557 34.073 24.4569 34.0759 24.4579 34.0788L24.4584 34.0801C24.4596 34.083 24.4608 34.0857 24.462 34.0889L24.4625 34.0906C24.4637 34.0933 24.465 34.0962 24.4659 34.0991L24.4667 34.1006C24.4677 34.1035 24.4689 34.1062 24.4701 34.1092L24.4708 34.1109C24.4721 34.1138 24.473 34.1165 24.4743 34.1194L24.475 34.1211C24.476 34.1241 24.4772 34.1268 24.4784 34.1297L24.4789 34.1314C24.4804 34.1341 24.4814 34.1368 24.4823 34.1397L24.4831 34.1412L24.4865 34.15L24.4872 34.1517C24.4884 34.1544 24.4897 34.1576 24.4909 34.1603L24.4914 34.1615C24.4926 34.1647 24.4938 34.1671 24.4948 34.17L24.4955 34.172L24.4992 34.1805L24.4997 34.1815C24.5009 34.1847 24.5021 34.1876 24.5034 34.1906L24.5038 34.1915C24.5051 34.1947 24.5063 34.1979 24.5078 34.2008L24.508 34.2013C24.5092 34.2047 24.5104 34.2077 24.5119 34.2111L24.5122 34.2116C24.5163 34.2214 24.5207 34.2314 24.5246 34.2412L24.5249 34.2414C24.5261 34.2446 24.5278 34.2478 24.529 34.251L24.5293 34.2514L24.5334 34.2612V34.2617C24.5349 34.2646 24.5364 34.2678 24.5376 34.271L24.5378 34.2717C24.5393 34.2749 24.5405 34.2778 24.542 34.281L24.5422 34.2818C24.5434 34.2849 24.5447 34.2879 24.5461 34.291L24.5466 34.292C24.5478 34.295 24.5493 34.2981 24.5505 34.3008L24.551 34.3018C24.5522 34.3047 24.5537 34.3082 24.5549 34.3111L24.5554 34.3118C24.5566 34.3148 24.5579 34.3179 24.5593 34.3209L24.5598 34.3221C24.561 34.325 24.5623 34.3277 24.5637 34.3306L24.5645 34.3324C24.5657 34.3353 24.5669 34.338 24.5681 34.3409L24.5689 34.3421C24.5701 34.3451 24.5713 34.348 24.5728 34.3509L24.5733 34.3522C24.5745 34.3549 24.576 34.358 24.5772 34.361L24.5777 34.3619C24.5789 34.3649 24.5804 34.3681 24.5816 34.3707L24.5821 34.3722C24.5835 34.3749 24.585 34.3781 24.5862 34.381L24.5865 34.3817C24.5877 34.3847 24.5894 34.3881 24.5906 34.391L24.5911 34.3918L24.595 34.4008L24.5955 34.4018L24.5997 34.4108L24.5999 34.4118C24.6014 34.4147 24.6029 34.4177 24.6041 34.4209L24.6046 34.4213C24.6058 34.4245 24.6073 34.4277 24.6087 34.4309L24.609 34.4314C24.6104 34.4343 24.6119 34.4377 24.6134 34.4409V34.4411C24.6151 34.4443 24.6165 34.4475 24.618 34.4507V34.4509C24.6227 34.4607 24.6271 34.4705 24.6319 34.4803V34.4805C24.6334 34.4834 24.6349 34.4866 24.6363 34.4896L24.6366 34.4905C24.6381 34.4935 24.6395 34.4966 24.641 34.4996L24.6412 34.5003C24.6427 34.5032 24.6442 34.5064 24.6456 34.5096L24.6459 34.5101C24.6473 34.5133 24.6488 34.5162 24.6503 34.5194L24.6505 34.5201C24.652 34.523 24.6535 34.526 24.6549 34.5292L24.6554 34.5299C24.6566 34.5328 24.6583 34.536 24.6596 34.5389L24.6601 34.5397C24.6613 34.5426 24.663 34.546 24.6645 34.549L24.6647 34.5494L24.6691 34.5585L24.6696 34.5595C24.6708 34.5624 24.6723 34.5653 24.6737 34.5683L24.6742 34.5695C24.6757 34.5724 24.6772 34.5754 24.6786 34.5781L24.6791 34.5793C24.6804 34.5822 24.6821 34.5851 24.6833 34.5878L24.6838 34.5891C24.6852 34.592 24.6867 34.5949 24.6882 34.5976L24.6887 34.5991C24.6901 34.6018 24.6916 34.6047 24.6928 34.6076L24.6936 34.6086C24.695 34.6115 24.6965 34.6147 24.698 34.6174L24.6982 34.6184C24.6997 34.6211 24.7011 34.6243 24.7026 34.6272L24.7033 34.6282C24.7046 34.6309 24.706 34.634 24.7077 34.6367L24.708 34.6377C24.7094 34.6406 24.7109 34.6438 24.7124 34.6465L24.7131 34.6477C24.7143 34.6507 24.7158 34.6533 24.7173 34.6563L24.7178 34.6573C24.7192 34.6602 24.7207 34.6631 24.7224 34.6661L24.7226 34.6668C24.7241 34.67 24.7258 34.6729 24.7273 34.6761L24.7275 34.6763C24.729 34.6795 24.7305 34.6824 24.7322 34.6856L24.7324 34.6859C24.7388 34.6986 24.7454 34.7113 24.7517 34.724L24.7522 34.7245C24.7539 34.7279 24.7552 34.7306 24.7569 34.7338L24.7571 34.7343L24.7618 34.7433L24.762 34.7438L24.7669 34.7531L24.7671 34.7536C24.7686 34.7565 24.7701 34.7592 24.7718 34.7624L24.7723 34.7636C24.7737 34.7663 24.7754 34.7695 24.7769 34.7722L24.7772 34.7731C24.7786 34.7758 24.7803 34.7788 24.7818 34.7817L24.7825 34.7829C24.7838 34.7856 24.7855 34.7885 24.7869 34.7912L24.7874 34.7925C24.7889 34.7954 24.7904 34.7978 24.7918 34.8005L24.7928 34.8022C24.7943 34.8052 24.7957 34.8079 24.7972 34.8105L24.7977 34.8118C24.7992 34.8145 24.8006 34.8171 24.8021 34.8201L24.8031 34.8213C24.8045 34.8242 24.806 34.8272 24.8075 34.8299L24.808 34.8306C24.8094 34.8335 24.8111 34.8367 24.8126 34.8394L24.8131 34.8404C24.8148 34.8433 24.8163 34.846 24.8177 34.8492L24.8182 34.8497C24.8197 34.8526 24.8214 34.8555 24.8229 34.8587L24.8234 34.8592C24.8251 34.8621 24.8268 34.8653 24.8283 34.8682V34.8685C24.83 34.8717 24.8317 34.8746 24.8334 34.8778L24.8336 34.8783C24.8353 34.8812 24.8371 34.8844 24.8385 34.8873L24.8388 34.8876C24.8405 34.8907 24.8422 34.8937 24.8439 34.8968V34.8971L24.8544 34.9159V34.9162C24.8578 34.9225 24.8613 34.9286 24.8649 34.9347V34.935C24.8683 34.9411 24.8718 34.9472 24.8752 34.9536L24.8757 34.954C24.8774 34.9572 24.8789 34.9599 24.8806 34.9631L24.8808 34.9633C24.8825 34.9663 24.8842 34.9694 24.886 34.9724L24.8862 34.9729C24.8882 34.9761 24.8896 34.979 24.8913 34.9822L24.8916 34.9824C24.8933 34.9853 24.8948 34.9883 24.8965 34.9912L24.897 34.9919C24.8987 34.9949 24.9004 34.9978 24.9018 35.0007L24.9023 35.0015L24.9072 35.01L24.9075 35.0108C24.9094 35.0137 24.9111 35.0169 24.9126 35.0198L24.9128 35.0201C24.9146 35.023 24.9163 35.0259 24.918 35.0289L24.9185 35.0296C24.9202 35.0323 24.9219 35.0357 24.9234 35.0384L24.9238 35.0389C24.9256 35.0418 24.9273 35.0447 24.929 35.0477L24.9292 35.0484C24.9309 35.0513 24.9326 35.0543 24.9344 35.0572L24.9346 35.0577L24.9397 35.0663L24.9402 35.0672C24.9417 35.0699 24.9436 35.0731 24.9451 35.0758L24.9456 35.0765C24.9473 35.0792 24.949 35.0824 24.9507 35.0851L24.9512 35.0861C24.9527 35.0888 24.9544 35.0917 24.9564 35.0946L24.9566 35.0951C24.9581 35.098 24.96 35.101 24.9617 35.1037L24.9622 35.1046C24.9639 35.1076 24.9656 35.1105 24.9674 35.1132V35.1137C24.9693 35.1166 24.971 35.1193 24.9727 35.1225L24.973 35.123C24.9859 35.1445 24.9989 35.166 25.0121 35.1875C25.0141 35.1905 25.0158 35.1934 25.0177 35.1968C25.0197 35.1997 25.0214 35.2027 25.0233 35.2059L25.0236 35.2061L25.029 35.2147L25.0295 35.2154C25.0312 35.2181 25.0329 35.2213 25.0346 35.2239L25.0348 35.2247C25.0368 35.2276 25.0385 35.2303 25.0402 35.2332L25.0407 35.234C25.0427 35.2369 25.0444 35.2396 25.0461 35.2425L25.0463 35.243C25.0483 35.2459 25.05 35.2486 25.0517 35.2516L25.0524 35.2523C25.0539 35.255 25.0559 35.2582 25.0576 35.2609L25.0578 35.2616C25.0598 35.2643 25.0615 35.2672 25.0634 35.2701L25.0637 35.2706C25.0656 35.2736 25.0671 35.2763 25.0693 35.2794L25.0695 35.2797C25.0713 35.2829 25.073 35.2856 25.0752 35.2885L25.0754 35.2887L25.0808 35.2975L25.081 35.2978C25.083 35.301 25.0847 35.3039 25.0867 35.3068L25.0869 35.3071C25.0886 35.31 25.0906 35.3129 25.0925 35.3159V35.3161C25.0945 35.319 25.0964 35.322 25.0984 35.3252C25.114 35.3494 25.1294 35.3733 25.1453 35.3975L25.1456 35.3978L25.1514 35.4066C25.1534 35.4097 25.1554 35.4127 25.1576 35.4156C25.1595 35.4188 25.1615 35.4217 25.1634 35.4247V35.4249C25.1656 35.4276 25.1676 35.4305 25.1695 35.4335V35.4337C25.1715 35.4366 25.1734 35.4396 25.1754 35.4425L25.1756 35.4427C25.1776 35.4457 25.1796 35.4486 25.1815 35.4515V35.4518C25.1837 35.4547 25.1854 35.4577 25.1876 35.4606C25.1937 35.4696 25.1999 35.4784 25.2057 35.4875C25.2079 35.4904 25.2099 35.4934 25.2118 35.4963V35.4965C25.214 35.4995 25.216 35.5024 25.2179 35.5053C25.2546 35.5586 25.2918 35.6117 25.3299 35.664V35.6642C25.3319 35.6672 25.3338 35.6701 25.336 35.673H25.3363C25.3382 35.676 25.3402 35.6784 25.3424 35.6813L25.3426 35.6818C25.3468 35.6877 25.3509 35.6933 25.3551 35.6989V35.6992C25.3595 35.7048 25.3636 35.7107 25.3678 35.7163L25.368 35.7166C25.402 35.7628 25.4367 35.8087 25.4719 35.8539C25.4763 35.8598 25.4807 35.8652 25.4851 35.8711V35.8713C25.4895 35.8769 25.4939 35.8825 25.4983 35.8882C25.5074 35.8994 25.5162 35.9107 25.5252 35.9219V35.9222C25.534 35.9334 25.5431 35.9444 25.5519 35.9559C25.5859 35.9979 25.6199 36.0395 25.6546 36.0806L25.6614 36.0889L25.6617 36.0891C25.7724 36.2209 25.8878 36.3485 26.0078 36.4725C26.4684 36.9482 26.9911 37.3599 27.5617 37.6963L27.5622 37.6965C27.5651 37.6985 27.568 37.6999 27.571 37.7019H27.5715C27.5746 37.7039 27.5773 37.7053 27.5803 37.7073L27.5807 37.7075C27.5839 37.7095 27.5866 37.7109 27.5898 37.7129H27.59L27.5991 37.718L27.5996 37.7185C27.6028 37.7202 27.6054 37.7219 27.6086 37.7237L27.6089 37.7239C27.612 37.7256 27.6147 37.7273 27.6179 37.729L27.6184 37.7293C27.6216 37.7312 27.6243 37.7327 27.6274 37.7344L27.6277 37.7347C27.6306 37.7364 27.6336 37.7381 27.6365 37.7398L27.6372 37.7403L27.646 37.7452L27.6465 37.7454C27.6494 37.7471 27.6524 37.7488 27.6556 37.7505L27.656 37.7508C27.659 37.7525 27.6622 37.7542 27.6651 37.7559C27.6683 37.7579 27.6712 37.7593 27.6744 37.7613L27.6749 37.7615L27.6839 37.7667L27.6934 37.7721C27.6998 37.7755 27.7059 37.7792 27.7123 37.7826H27.7125C27.7375 37.7965 27.7629 37.8104 27.7881 37.8241L27.7885 37.8244C27.7915 37.8261 27.7947 37.8278 27.7976 37.8295L27.7981 37.8298C27.801 37.8315 27.8042 37.8329 27.8071 37.8346L27.8076 37.8349C27.811 37.8366 27.8137 37.8381 27.8167 37.8398L27.8172 37.84C27.8203 37.8417 27.8233 37.8432 27.8262 37.8449L27.8269 37.8452C27.8299 37.8469 27.833 37.8486 27.836 37.85L27.8365 37.8503C27.8392 37.8518 27.8426 37.8535 27.8453 37.8552L27.8462 37.8554C27.8492 37.8571 27.8521 37.8586 27.855 37.8603L27.8558 37.8606C27.8585 37.862 27.8616 37.8637 27.8643 37.8652L27.8656 37.8657C27.8685 37.8672 27.8714 37.8689 27.8741 37.8703L27.8751 37.8708C27.8778 37.872 27.881 37.8738 27.8836 37.8752L27.8849 37.876C27.8878 37.8774 27.8905 37.8789 27.8934 37.8804L27.8942 37.8806C27.8971 37.8823 27.9 37.8838 27.903 37.8853L27.9039 37.8857L27.9127 37.8904L27.9135 37.8906L27.9225 37.8953L27.923 37.8958C27.9262 37.8972 27.9291 37.8987 27.9323 37.9004H27.9325C27.9357 37.9021 27.9387 37.9036 27.9418 37.9053L27.9426 37.9055C27.9455 37.907 27.9487 37.9087 27.9516 37.9102L27.9519 37.9104C27.955 37.9119 27.958 37.9134 27.9611 37.9151L27.9616 37.9153C27.9648 37.9168 27.9677 37.9183 27.9709 37.92L27.9712 37.9202C27.9743 37.9217 27.9773 37.9231 27.9802 37.9246L27.9812 37.9251C27.9844 37.9266 27.9871 37.928 27.9902 37.9295L27.991 37.93C27.9939 37.9315 27.9966 37.9329 27.9998 37.9344L28.0007 37.9349C28.0034 37.9363 28.0064 37.9378 28.0093 37.9393L28.0105 37.9398C28.0132 37.941 28.0164 37.9427 28.0188 37.9439L28.0286 37.9488L28.0301 37.9498C28.0328 37.951 28.0357 37.9525 28.0384 37.9537L28.0399 37.9544C28.0428 37.9559 28.0452 37.9571 28.0482 37.9586L28.0496 37.9593C28.0526 37.9605 28.055 37.962 28.058 37.9632L28.0597 37.9642C28.0624 37.9657 28.0648 37.9667 28.0677 37.9681L28.0694 37.9689C28.0721 37.9703 28.0748 37.9715 28.0775 37.9728L28.0792 37.9737C28.0822 37.975 28.0844 37.9764 28.0873 37.9777C28.0878 37.9779 28.0883 37.9781 28.089 37.9786C28.0917 37.9799 28.0941 37.9811 28.0971 37.9825C28.0978 37.9828 28.0983 37.983 28.0988 37.9833C28.1015 37.9845 28.1042 37.986 28.1068 37.9872C28.1076 37.9874 28.1083 37.9879 28.1088 37.9882C28.1115 37.9894 28.1139 37.9906 28.1166 37.9921L28.1186 37.9928C28.1213 37.994 28.124 37.9955 28.1264 37.9967L28.1284 37.9975C28.1311 37.9987 28.1337 38.0002 28.1364 38.0014L28.1384 38.0021C28.1411 38.0036 28.1438 38.0048 28.1465 38.006C28.1469 38.0063 28.1474 38.0065 28.1482 38.0068C28.1509 38.0082 28.1538 38.0094 28.1562 38.0109L28.1579 38.0116C28.1606 38.0129 28.1636 38.0141 28.1663 38.0156L28.1677 38.0163L28.1758 38.02C28.1765 38.0202 28.177 38.0204 28.1777 38.0209L28.1856 38.0246L28.1873 38.0253C28.1897 38.0266 28.1927 38.0278 28.1951 38.029L28.1971 38.03L28.2049 38.0334C28.2056 38.0339 28.2061 38.0341 28.2066 38.0344L28.2147 38.038L28.2166 38.0388L28.2247 38.0427L28.2266 38.0434C28.2291 38.0446 28.2318 38.0459 28.2345 38.0471C28.2352 38.0473 28.2359 38.0478 28.2367 38.0481C28.2394 38.0493 28.2416 38.0503 28.2442 38.0515C28.2447 38.0517 28.246 38.0522 28.2467 38.0527L28.254 38.0559C28.255 38.0564 28.2557 38.0566 28.2567 38.0571L28.264 38.0605L28.2667 38.0618C28.2689 38.0627 28.2716 38.064 28.2741 38.0652C28.275 38.0654 28.2758 38.0659 28.2768 38.0664C28.2792 38.0674 28.2816 38.0686 28.2841 38.0696C28.2851 38.0701 28.2858 38.0703 28.2868 38.0708C28.2892 38.0718 28.2917 38.073 28.2941 38.0742C28.2951 38.0745 28.2958 38.075 28.2968 38.0754C28.2992 38.0764 28.3017 38.0774 28.3044 38.0786C28.3051 38.0791 28.3058 38.0794 28.3066 38.0798L28.3142 38.083L28.3168 38.0842C28.3193 38.0855 28.3217 38.0864 28.3242 38.0874C28.3252 38.0879 28.3259 38.0884 28.3269 38.0886C28.3293 38.0899 28.3318 38.0908 28.3342 38.0921L28.3369 38.0931C28.3393 38.0943 28.3418 38.0955 28.3445 38.0965C28.3452 38.0967 28.3462 38.0972 28.3469 38.0975C28.3496 38.0987 28.3521 38.0997 28.3545 38.1009C28.3552 38.1011 28.3562 38.1016 28.3569 38.1021C28.3594 38.1031 28.3621 38.1041 28.3645 38.1053L28.367 38.1063C28.3697 38.1075 28.3719 38.1085 28.3748 38.1097L28.377 38.1107C28.3797 38.1119 28.3821 38.1129 28.3848 38.1141L28.387 38.1148C28.3897 38.1163 28.3924 38.1173 28.3951 38.1182L28.397 38.1192C28.3995 38.1202 28.4019 38.1212 28.4046 38.1224L28.4073 38.1236C28.4097 38.1246 28.4119 38.1256 28.4141 38.1265L28.4173 38.1278C28.4195 38.1287 28.422 38.1297 28.4242 38.1307L28.4276 38.1319C28.4296 38.1329 28.432 38.1339 28.4342 38.1349L28.4445 38.1393L28.4472 38.1405C28.4496 38.1412 28.4518 38.1422 28.454 38.1432L28.4574 38.1446C28.4596 38.1456 28.4621 38.1466 28.4645 38.1476L28.467 38.1485C28.4694 38.1498 28.4716 38.1505 28.4743 38.1515L28.4775 38.1529C28.4797 38.1539 28.4821 38.1549 28.4846 38.1559L28.4872 38.1571C28.4897 38.1578 28.4921 38.1588 28.4943 38.1598C28.4953 38.1603 28.4965 38.1608 28.4978 38.1613C28.5 38.162 28.5024 38.163 28.5048 38.1642L28.5078 38.1654C28.5102 38.1661 28.5124 38.1671 28.5149 38.1681C28.5158 38.1686 28.5171 38.1691 28.5183 38.1696C28.5205 38.1705 28.5227 38.1713 28.5249 38.1723L28.5283 38.1737C28.5305 38.1745 28.533 38.1754 28.5349 38.1764C28.5364 38.1769 28.5374 38.1774 28.5386 38.1779C28.5408 38.1786 28.5432 38.1796 28.5452 38.1806C28.5467 38.1811 28.5476 38.1813 28.5486 38.1818C28.5508 38.1828 28.5533 38.1837 28.5555 38.1845C28.5567 38.1852 28.5579 38.1857 28.5591 38.1859L28.5657 38.1886C28.5669 38.1891 28.5679 38.1896 28.5694 38.1901C28.5716 38.1908 28.5738 38.1918 28.5757 38.1925C28.5772 38.193 28.5784 38.1938 28.5797 38.1943C28.5819 38.195 28.5841 38.196 28.5863 38.1967C28.5875 38.1972 28.5887 38.1977 28.5899 38.1982C28.5921 38.1992 28.5941 38.1999 28.5963 38.2006C28.5977 38.2014 28.599 38.2018 28.6004 38.2023L28.6065 38.2048C28.6078 38.205 28.6092 38.2058 28.6107 38.2062L28.6156 38.2082L28.621 38.2104C28.6227 38.2111 28.6239 38.2116 28.6256 38.2121C28.6276 38.2128 28.6293 38.2136 28.6312 38.2143C28.6327 38.2148 28.6339 38.2155 28.6356 38.216C28.6376 38.2168 28.6396 38.2175 28.6415 38.2185C28.643 38.2187 28.6444 38.2194 28.6459 38.2199C28.6476 38.2207 28.6498 38.2216 28.652 38.2224C28.6532 38.2229 28.6545 38.2234 28.6557 38.2238C28.6579 38.2248 28.6603 38.2256 28.6623 38.2263C28.6638 38.2268 28.665 38.2273 28.6662 38.2278C28.6684 38.2287 28.6701 38.2292 28.6723 38.2302C28.6735 38.2307 28.6752 38.2312 28.6765 38.2317C28.6787 38.2326 28.6806 38.2334 28.6828 38.2341C28.684 38.2346 28.6855 38.2351 28.6867 38.2356C28.6889 38.2366 28.6911 38.2373 28.6933 38.238C28.6946 38.2385 28.6955 38.239 28.6968 38.2392C28.6992 38.2402 28.7014 38.241 28.7036 38.2419L28.7073 38.2432C28.7095 38.2441 28.7112 38.2449 28.7134 38.2456L28.7175 38.2471C28.7197 38.248 28.7219 38.2488 28.7239 38.2495L28.728 38.2512C28.73 38.2517 28.7322 38.2527 28.7342 38.2534L28.7381 38.2549L28.7449 38.2573L28.7486 38.2586C28.7503 38.2593 28.7523 38.26 28.754 38.2605C28.7557 38.2612 28.7571 38.262 28.7589 38.2625L28.7645 38.2647L28.7694 38.2664C28.7708 38.2669 28.7725 38.2676 28.774 38.2681C28.776 38.2688 28.7777 38.2693 28.7796 38.27C28.7813 38.2708 28.7828 38.2713 28.7845 38.2718C28.7862 38.2725 28.7884 38.2732 28.7901 38.274L28.7948 38.2757L28.7997 38.2774C28.8016 38.2781 28.8036 38.2786 28.8055 38.2796C28.8065 38.2798 28.8075 38.2801 28.8085 38.2806C28.8109 38.2813 28.8136 38.2823 28.8161 38.2832C28.817 38.2835 28.8178 38.2837 28.8187 38.284C28.8212 38.285 28.8239 38.2859 28.8266 38.2869L28.829 38.2876C28.8317 38.2889 28.8344 38.2896 28.8371 38.2906C28.8378 38.2908 28.8388 38.2913 28.8398 38.2916C28.8425 38.2925 28.8451 38.2935 28.8478 38.2945L28.8496 38.295C28.8525 38.2962 28.8554 38.2972 28.8584 38.2982L28.8601 38.2986C28.863 38.2996 28.8662 38.3008 28.8691 38.3018L28.8703 38.3023C28.8733 38.3033 28.8762 38.3043 28.8794 38.3053L28.8811 38.306C28.884 38.307 28.8872 38.3079 28.8899 38.3089L28.8916 38.3097C28.8948 38.3106 28.8977 38.3119 28.9009 38.3128L28.9021 38.3131C28.905 38.3141 28.9082 38.3153 28.9114 38.3163L28.9126 38.3167C28.9158 38.318 28.9187 38.3189 28.9217 38.3199L28.9234 38.3204C28.9266 38.3214 28.9295 38.3226 28.9327 38.3236L28.9336 38.3238C28.9368 38.3251 28.9402 38.326 28.9434 38.327L28.9442 38.3275C28.9473 38.3285 28.9508 38.3295 28.9537 38.3307L28.9549 38.3309C28.9579 38.3319 28.9613 38.3331 28.9642 38.3341L28.9657 38.3346L28.9755 38.3378L28.9759 38.338C28.9794 38.339 28.9828 38.3402 28.9862 38.3414H28.9867C29.6448 38.5578 30.3306 38.679 31.0231 38.7018C31.0422 38.7023 31.0613 38.7025 31.0806 38.7025C32.0922 38.7018 32.9119 37.8811 32.9112 36.8692C32.9087 35.8806 32.1264 35.0716 31.14 35.0377Z" fill="#FFEA21"/>
<path d="M31.2684 22.2158C29.7451 22.2258 28.2487 22.6199 26.918 23.3617L26.5311 22.9747C26.0458 22.4879 25.3864 22.2148 24.699 22.2158C24.1932 22.2158 23.7832 22.6258 23.7832 23.1319C23.7832 23.6377 24.1932 24.0479 24.699 24.0479C24.9004 24.0474 25.0936 24.1273 25.2356 24.2701L25.6226 24.6571C26.1969 25.2314 27.0806 25.359 27.794 24.9708C28.919 24.3584 30.0879 24.0479 31.2684 24.0479C35.3156 24.0479 38.5964 27.3287 38.5964 31.3759C38.5964 33.2109 37.908 34.9789 36.6673 36.3308C36.325 36.7034 36.3495 37.2828 36.7218 37.625C37.0944 37.9675 37.6738 37.9431 38.016 37.5705C38.0163 37.5703 38.0165 37.5703 38.0165 37.57C39.1878 36.2973 39.9735 34.7178 40.282 33.0158C40.2877 32.9847 40.293 32.9537 40.2984 32.9229V32.9224L40.2996 32.9158L40.3006 32.9095L40.3009 32.909L40.3018 32.9026L40.3031 32.896V32.8958C40.3082 32.8647 40.3131 32.8337 40.318 32.8024L40.3182 32.8019L40.3192 32.7955C40.3243 32.7623 40.3292 32.7288 40.3341 32.6953L40.3343 32.6943L40.3351 32.6885V32.6877L40.3361 32.6819L40.3363 32.6806L40.337 32.675V32.674L40.338 32.6682V32.6672L40.339 32.6611V32.6608L40.34 32.6542L40.3407 32.6476V32.6474L40.3417 32.6408V32.6405C40.3441 32.6227 40.3466 32.6051 40.349 32.5872V32.5868L40.3497 32.5804L40.35 32.5799L40.3507 32.5736V32.5731L40.3515 32.5667L40.3517 32.5662L40.3524 32.5603V32.5591L40.3532 32.5533L40.3534 32.5525L40.3541 32.5467V32.5457L40.3551 32.5398V32.5391L40.3559 32.5332L40.3561 32.5317L40.3568 32.5261V32.5251L40.3576 32.5193L40.3578 32.5185C40.36 32.5007 40.3622 32.4829 40.3642 32.465L40.3652 32.4584V32.4582L40.3659 32.4525V32.4508L40.3666 32.4454L40.3669 32.444L40.3673 32.4384L40.3676 32.4374L40.3683 32.4315V32.4305L40.3691 32.4249V32.4234L40.3698 32.4181L40.37 32.4166L40.3705 32.4112L40.3708 32.4095L40.3713 32.4044L40.3715 32.4024L40.372 32.3975L40.3722 32.3956L40.373 32.3904L40.3732 32.389L40.3737 32.3836V32.3831C40.3752 32.3699 40.3766 32.3567 40.3781 32.3435V32.3425L40.3788 32.3367V32.3357L40.3796 32.3303V32.3286L40.3803 32.3232V32.3217L40.381 32.3166V32.3147L40.3815 32.3095L40.3818 32.3078L40.3823 32.3027L40.3825 32.3005L40.383 32.2956L40.3832 32.2936L40.3837 32.2887L40.384 32.2865L40.3845 32.2819L40.3847 32.2795L40.3852 32.2751L40.3854 32.2724L40.3857 32.268L40.3859 32.265L40.3864 32.2611L40.3867 32.2584C40.3874 32.2511 40.3881 32.2435 40.3889 32.2362L40.3891 32.2332L40.3896 32.2288V32.2264L40.3901 32.2222L40.3903 32.2193L40.3906 32.2154L40.3908 32.2122L40.3913 32.2086L40.3916 32.2051L40.392 32.201L40.3923 32.1985L40.3925 32.1939L40.3928 32.1914L40.3933 32.1873L40.3935 32.1841L40.3938 32.1804L40.3942 32.177L40.3945 32.1734L40.3947 32.1702L40.395 32.1663L40.3952 32.1628L40.3957 32.1594L40.396 32.1558L40.3962 32.1523L40.3964 32.1487L40.3969 32.1452L40.3972 32.1423L40.3974 32.1381L40.3977 32.1359L40.3982 32.1311V32.1306L40.3996 32.1122L40.3999 32.1103L40.4001 32.1061L40.4004 32.1032L40.4006 32.099L40.4008 32.0961L40.4011 32.0919L40.4013 32.089L40.4018 32.0849V32.0822L40.4023 32.0778L40.4026 32.0751L40.4028 32.0709L40.403 32.068L40.4033 32.0638L40.4035 32.0609L40.4038 32.057L40.404 32.0538L40.4043 32.0499L40.4045 32.0462L40.4048 32.0433L40.4052 32.0391L40.4055 32.036L40.4057 32.032L40.406 32.0289L40.4065 32.0215L40.4067 32.0176L40.407 32.0147L40.4072 32.0103L40.4074 32.0076L40.4084 31.9934V31.9912L40.4087 31.9861L40.4089 31.9836L40.4092 31.9792L40.4094 31.9756L40.4096 31.9722L40.4099 31.9685L40.4101 31.9653L40.4104 31.9616L40.4106 31.9577L40.4109 31.9548L40.4111 31.9506V31.9477L40.4114 31.9435L40.4116 31.9406L40.4118 31.9365L40.4121 31.9335L40.4123 31.9291V31.9264L40.4128 31.922V31.9191L40.4131 31.9152L40.4133 31.912L40.4136 31.9081L40.4138 31.9049L40.414 31.9005L40.4143 31.8978L40.4145 31.8934V31.8905L40.4148 31.8859L40.415 31.8837L40.4153 31.8783L40.4155 31.8756L40.4158 31.8692L40.416 31.8656V31.8624L40.4162 31.858L40.4165 31.8553L40.4167 31.8509V31.8482L40.417 31.8441L40.4172 31.8411L40.4175 31.8374V31.8338L40.4177 31.8306L40.418 31.8264L40.4182 31.8235V31.8194L40.4184 31.8162L40.4187 31.812V31.8091L40.4189 31.8049V31.8018L40.4192 31.7978L40.4194 31.7947V31.791L40.4197 31.7873L40.4199 31.7839V31.7805L40.4202 31.7761L40.4204 31.7734V31.7685L40.4206 31.7661L40.4209 31.7612V31.759L40.4214 31.7448L40.4216 31.7419L40.4219 31.7375V31.7343L40.4221 31.7306V31.7272L40.4224 31.7233V31.7203L40.4226 31.7159V31.7133L40.4228 31.7086L40.4231 31.7059V31.7018L40.4233 31.6986V31.6944L40.4236 31.6915V31.6873L40.4238 31.6842V31.6803L40.4241 31.6768V31.6734L40.4243 31.6697V31.6661L40.4246 31.6627V31.6587L40.4248 31.6556V31.6514L40.425 31.6482V31.6451L40.4253 31.6409V31.6377L40.4255 31.6338L40.4258 31.6199L40.426 31.616V31.6125L40.4263 31.6089V31.6025L40.4265 31.5981V31.5908L40.4268 31.5881V31.5808L40.427 31.5766V31.5661L40.4272 31.5627V31.5514L40.4275 31.548V31.5375L40.4277 31.5333V31.5228L40.428 31.5184V31.5084L40.4282 31.5028V31.4844L40.4285 31.4798V31.4693L40.4287 31.4656V31.3756C40.4285 26.3168 36.3275 22.2158 31.2684 22.2158Z" fill="#FFA300"/>
<path fill-rule="evenodd" clip-rule="evenodd" d="M11.7006 3.79995L14.6423 12.5405C14.732 12.75 14.7785 12.9759 14.7785 13.2038C14.7785 14.1337 14.0248 14.8877 13.0946 14.8879C12.4208 14.8879 11.8121 14.4865 11.5468 13.8672L11.3031 13.0558H7.26541L7.02168 13.8672C6.75643 14.4865 6.14745 14.8879 5.47393 14.8879C5.24584 14.8879 5.0202 14.8415 4.81069 14.7517C3.95577 14.3853 3.55973 13.3954 3.92619 12.5405L6.8679 3.79995C7.12215 3.04429 7.71524 2.4512 8.4709 2.19695C9.80546 1.74762 11.2515 2.46538 11.7006 3.79995ZM9.28425 6.33829L8.36675 9.39172H10.2017L9.28425 6.33829Z" fill="white"/>
<path d="M9.28393 2.06348H9.25142L9.24604 2.06372H9.2387L9.23333 2.06397H9.22599L9.22037 2.06421H9.21352L9.2079 2.06445H9.20692L9.2013 2.0647H9.20032L9.1947 2.06494H9.19397L9.18834 2.06519H9.1881L9.18248 2.06543H9.18125L9.17587 2.06568H9.17465L9.16927 2.06592H9.16854L9.16292 2.06617H9.16243L9.15681 2.06641L9.15558 2.06665L9.15021 2.0669H9.14923L9.1436 2.06714H9.14312L9.13749 2.06739L9.13676 2.06763L9.13138 2.06788H9.13016L9.12478 2.06812L9.1238 2.06837L9.11842 2.06861H9.11769L9.11256 2.0691H9.11133L9.10596 2.06959H9.10473L9.09936 2.07008H9.09838L9.09324 2.07032L9.09251 2.07057L9.08738 2.07081L9.08591 2.07106L9.08078 2.0713L9.07931 2.07154L9.07393 2.07203H9.0732L9.06806 2.07252H9.06709L9.06171 2.07301H9.06073L9.05535 2.0735L9.05413 2.07374L9.04851 2.07423L9.04264 2.07472H9.0419L9.03653 2.07521L9.0353 2.07546L9.03017 2.07594H9.0287L9.02357 2.07643H9.02332L9.01795 2.07717H9.01672L9.01135 2.0779H9.01012L9.00499 2.07839L9.00377 2.07863L8.99888 2.07912H8.99814L8.99277 2.07986L8.99154 2.0801L8.98641 2.08059L8.98494 2.08083L8.97981 2.08132L8.97883 2.08157L8.97394 2.08206H8.97296L8.96783 2.08279L8.96636 2.08303L8.96123 2.08352L8.96001 2.08377L8.95487 2.08426L8.95414 2.0845L8.94901 2.08523H8.94778L8.94265 2.08597L8.94143 2.08621L8.93629 2.08695H8.93532L8.93043 2.08768L8.9292 2.08792L8.92407 2.08866L8.92285 2.0889L8.91771 2.08963H8.91649L8.91111 2.09061H8.91038L8.90549 2.09135L8.90451 2.09159L8.89938 2.09232L8.89791 2.09257L8.89302 2.0933L8.89156 2.09355L8.88691 2.09428L8.88104 2.09526L8.87933 2.0955L8.87469 2.09624L8.87298 2.09648L8.86809 2.09721L8.86686 2.09746L8.86222 2.09844H8.861L8.85635 2.09941L8.85464 2.09966L8.84975 2.10039L8.84828 2.10064L8.84339 2.10161L8.83753 2.10259L8.83655 2.10284L8.83142 2.10381L8.82995 2.10406L8.82506 2.10479L8.82359 2.10504L8.81846 2.10601L8.81773 2.10626L8.81284 2.10724H8.81186L8.80697 2.10821L8.8055 2.10846L8.80061 2.10944L8.79915 2.10968L8.7945 2.11066L8.79328 2.1109L8.78863 2.11188L8.78717 2.11213L8.78252 2.1131L8.78081 2.11335L8.7747 2.11457L8.7703 2.11555L8.76419 2.11677L8.76272 2.11702L8.75783 2.11824L8.75636 2.11848L8.75025 2.1197L8.74585 2.12068L8.74463 2.12093L8.73974 2.12215L8.73803 2.12239L8.73338 2.12337L8.73192 2.12386L8.72727 2.12484L8.7258 2.12508L8.72165 2.12606L8.72018 2.12655L8.71529 2.12753L8.71383 2.12802L8.70894 2.12899L8.70747 2.12924L8.70307 2.13046L8.70185 2.13071L8.69745 2.13168L8.69573 2.13217L8.69109 2.13315L8.68938 2.13364L8.68473 2.13462L8.68302 2.13511L8.67911 2.13608L8.67789 2.13633L8.673 2.13755L8.67153 2.13804L8.66689 2.13902L8.66542 2.13951L8.66078 2.14073L8.65931 2.14097L8.65515 2.1422L8.65369 2.14244L8.64904 2.14366L8.64733 2.14415L8.64268 2.14513L8.64122 2.14562L8.63706 2.1466L8.63535 2.14709L8.63119 2.14806L8.62973 2.14855L8.62508 2.14977L8.62337 2.15026L8.61873 2.15149L8.61726 2.15197L8.6131 2.15295L8.61164 2.15344L8.60699 2.15466L8.60577 2.15515L8.60088 2.15638L8.59941 2.15686L8.59452 2.15809L8.59355 2.15858L8.58939 2.15955L8.58792 2.16004L8.58328 2.16126L8.58181 2.16175L8.57717 2.16322L8.57545 2.16371L8.57105 2.16493L8.56983 2.16542L8.56543 2.16664L8.56396 2.16713L8.55932 2.16835L8.55785 2.16884L8.55321 2.17031L8.55174 2.1708L8.54759 2.17202L8.54612 2.17251L8.54196 2.17373L8.54025 2.17422L8.53561 2.17569L8.53414 2.17618L8.52949 2.17764L8.52827 2.17789L8.52412 2.17911L8.52289 2.1796L8.51825 2.18107L8.51654 2.18156L8.51189 2.18302L8.51043 2.18351L8.50578 2.18498L8.5048 2.18522L8.5004 2.18669L8.49918 2.18693L8.49454 2.18865L8.49282 2.18913L8.48818 2.1906L8.48696 2.19109L8.48231 2.19256L8.48109 2.1928L8.47669 2.19427L8.47547 2.19476L8.47082 2.19622L8.46935 2.19696L8.46471 2.19842L8.46349 2.19891L8.45909 2.20038L8.45811 2.20062L8.45346 2.20234L8.452 2.20282L8.44735 2.20429L8.44589 2.20478L8.44124 2.20649L8.44026 2.20674L8.43586 2.20845L8.43464 2.20869L8.42975 2.2104L8.42877 2.21089L8.42388 2.2126L8.42266 2.21309L8.41777 2.2148L8.41264 2.21652L8.41142 2.21725L8.40677 2.21872L8.4053 2.2192L8.40066 2.22092L8.39944 2.2214L8.39504 2.22312L8.39406 2.22336L8.38941 2.22532L8.38819 2.22556L8.38355 2.22727L8.37743 2.22972L8.37646 2.22996L8.37206 2.23167L8.37132 2.23192L8.36521 2.23436L8.36057 2.23607L8.35445 2.23852L8.35372 2.23876L8.34932 2.24047L8.3481 2.24096L8.34345 2.24267L8.34199 2.24341L8.33734 2.24512L8.33636 2.24561L8.33172 2.24732L8.33098 2.24781L8.32634 2.24952L8.32536 2.25001L8.32072 2.25196L8.31925 2.25245L8.31485 2.25441L8.31338 2.2549L8.30947 2.25636L8.308 2.2571L8.3036 2.25881L8.30238 2.2593L8.29774 2.26125L8.29651 2.26174L8.29162 2.26394L8.29065 2.26419L8.28649 2.2659L8.28551 2.26639L8.28062 2.26834L8.27965 2.26883L8.27476 2.27103L8.27378 2.27152L8.26889 2.27348L8.2684 2.27372L8.264 2.27568L8.26278 2.27617L8.25813 2.27837L8.25691 2.27886L8.25226 2.28081L8.25129 2.2813L8.24664 2.2835H8.24615L8.24151 2.2857L8.24029 2.28619L8.23589 2.28814L8.23442 2.28888L8.22977 2.29083L8.2288 2.29157L8.22464 2.29328L8.22366 2.29377L8.21902 2.29597L8.21779 2.2967L8.21315 2.29866L8.21193 2.29915L8.20728 2.30135L8.20655 2.30184L8.20215 2.30379L8.20117 2.30428L8.19677 2.30624L8.19555 2.30697L8.1909 2.30917L8.18992 2.30966L8.18528 2.31186L8.18455 2.3121L8.1799 2.3143L8.17917 2.31479L8.17452 2.31699L8.1733 2.31748L8.16866 2.31968L8.16792 2.32017L8.16352 2.32237L8.16279 2.32262L8.15814 2.32506L8.15692 2.32555L8.14665 2.33068L8.14592 2.33117L8.14152 2.33313L8.13614 2.33582L8.13492 2.33655L8.12905 2.33948L8.1249 2.34168L8.12392 2.34217L8.11976 2.34437L8.10852 2.35L8.10729 2.35073L8.10338 2.35269L8.10216 2.35342L8.098 2.35562L8.09678 2.35611L8.09238 2.35855L8.09116 2.35904L8.08676 2.36149L8.08554 2.36198L8.08162 2.36418L8.08138 2.36491L8.07674 2.36711L8.07576 2.36784L8.07136 2.37029L8.07013 2.37078L8.06573 2.37322L8.06476 2.37371L8.0606 2.37615L8.05987 2.37664L8.05547 2.37909L8.054 2.37958L8.04984 2.38202L8.04862 2.38276L8.04446 2.38496L8.04324 2.38544L8.03958 2.38764L8.03811 2.38838L8.03395 2.39082L8.03249 2.3918L8.02833 2.394L8.02344 2.39693L8.02222 2.39742L8.01806 2.39987L8.01684 2.4006L8.01268 2.40305L8.01122 2.40378L8.00682 2.40622L8.00608 2.40696L8.00242 2.40891L8.00095 2.40965L7.99679 2.41209L7.99557 2.41307L7.99141 2.41527L7.98995 2.41625L7.98604 2.41869L7.98481 2.41918L7.97992 2.42211L7.97577 2.4248L7.9743 2.42554L7.97015 2.42798L7.96526 2.43092L7.96379 2.43189L7.96012 2.43409L7.95866 2.43483L7.95474 2.43727L7.95328 2.43825L7.94937 2.44069L7.9479 2.44143L7.94448 2.44363L7.94301 2.44436L7.93934 2.44681L7.93763 2.44778L7.9325 2.45121L7.92859 2.45365L7.92712 2.45438L7.92394 2.45659L7.92272 2.45732L7.91881 2.45976L7.91685 2.46074L7.91318 2.46319L7.91147 2.46416L7.90341 2.46954L7.90169 2.47052L7.89803 2.47296L7.89607 2.47419L7.89094 2.47761L7.88825 2.47932L7.8858 2.48079L7.88287 2.48274L7.88116 2.48397L7.87749 2.48641L7.87554 2.48763L7.87236 2.48959L7.8704 2.49106L7.86771 2.49277L7.86527 2.49423L7.86233 2.49619L7.86038 2.49766L7.8572 2.49986L7.855 2.50132L7.85256 2.50303L7.84987 2.50475L7.84742 2.50646L7.84473 2.50817L7.84229 2.50988L7.84009 2.51159L7.83789 2.51306L7.83471 2.51526L7.82958 2.51893L7.82762 2.52039L7.82444 2.52259L7.82224 2.52406L7.8198 2.52577L7.81809 2.52699L7.81442 2.52968L7.81295 2.53066L7.80904 2.53335L7.80757 2.53433L7.80513 2.53604L7.80439 2.53677L7.79975 2.53995L7.79853 2.54093L7.79437 2.54386L7.79315 2.54484L7.78899 2.54777L7.78777 2.54875L7.78508 2.55046L7.78361 2.55168L7.77995 2.55437L7.77873 2.55511L7.77433 2.55853L7.77335 2.55902L7.76504 2.56513L7.7599 2.56904L7.75917 2.56953L7.75403 2.5732L7.75379 2.57369C7.74914 2.57711 7.7445 2.58053 7.73985 2.58395L7.73961 2.5842C7.69365 2.61916 7.64916 2.65558 7.60564 2.69348C7.22476 3.02645 7.18588 3.60511 7.51885 3.98599C7.85182 4.36688 8.43048 4.40575 8.81137 4.07278C8.94216 3.95837 9.11011 3.89529 9.28393 3.89529C9.59221 3.89505 9.86601 4.09185 9.96405 4.38399L12.7153 12.5588C12.8769 13.0382 13.3964 13.2959 13.8758 13.1343C14.3542 12.9732 14.6122 12.4552 14.4523 11.9763L11.991 4.66342L11.9907 4.6622L11.9888 4.65658L11.9878 4.65389L11.9682 4.59546L11.9653 4.5869L11.9631 4.58006L11.9623 4.5781L11.9614 4.57492L11.9599 4.57101L11.9579 4.56514V4.5649L11.9509 4.54339L11.9506 4.5429L11.9487 4.53703L11.9477 4.53385L11.946 4.52921L11.9457 4.52823L11.9435 4.52163L11.9425 4.51894L11.9394 4.5094L11.9374 4.50378V4.50354L11.9345 4.49474L11.9264 4.47078L11.9245 4.4654L11.9215 4.45611L11.9191 4.44926L11.9174 4.44438L11.9132 4.43191L11.9076 4.41528L11.9064 4.41113L11.9029 4.4011L11.9025 4.39988L11.899 4.38986L11.8978 4.3857L11.89 4.36297L11.889 4.36052L11.8856 4.35025L11.8844 4.34683L11.8836 4.34439L11.8797 4.33314L11.8783 4.32874L11.877 4.32532L11.8763 4.32263L11.8719 4.30943L11.8646 4.28767L11.8636 4.28522L11.8487 4.24049L11.8477 4.2378L11.8406 4.21653L11.8404 4.21604L11.8333 4.19477L11.8328 4.19306L11.8257 4.17252L11.8254 4.17179L11.8191 4.15297L11.8162 4.14392L11.8154 4.14172L11.8147 4.14001C11.7418 3.92341 11.7003 3.79971 11.7003 3.79971C11.3512 2.76217 10.3787 2.06348 9.28393 2.06348Z" fill="#EFF2FF"/>
<path d="M25.772 27.7115C25.772 28.7233 26.5922 29.5435 27.604 29.5435H30.6575L26.7491 32.4747C26.134 32.936 25.772 33.6599 25.772 34.4288C25.772 35.778 26.8657 36.8715 28.2147 36.8715H34.932C35.9439 36.8715 36.7641 36.0513 36.7641 35.0395C36.7641 34.0278 35.9439 33.2076 34.932 33.2076H32.1842L35.8354 30.2865C36.4223 29.8168 36.7641 29.1059 36.7641 28.3542C36.7641 26.9873 35.6562 25.8794 34.2896 25.8794H27.604C26.5922 25.8794 25.772 26.6998 25.772 27.7115Z" fill="white"/>
<path d="M34.2898 25.8794H27.6043C27.0985 25.8794 26.6885 26.2896 26.6885 26.7954C26.6885 27.3015 27.0985 27.7115 27.6043 27.7115H34.2898C34.6448 27.7115 34.9325 27.9992 34.9325 28.3542C34.9325 28.5493 34.8438 28.7341 34.6912 28.8558L31.0398 31.777C30.2499 32.409 30.1218 33.5619 30.7538 34.352C31.1014 34.7864 31.6278 35.0395 32.1844 35.0395H33.5845C34.0903 35.0395 34.5005 34.6295 34.5005 34.1234C34.5005 33.6176 34.0903 33.2076 33.5845 33.2076H32.1844C32.1844 33.2076 33.4791 32.1718 34.5264 31.3338L34.5291 31.3318L34.5311 31.3301L34.5345 31.3274L34.5372 31.3252L34.5387 31.324L34.5528 31.3128L34.5543 31.3118C34.5619 31.3054 34.5697 31.2993 34.5773 31.2932L34.5995 31.2753L34.6093 31.2675L34.611 31.2661L34.6132 31.2646L34.6162 31.2621L34.6345 31.2472L34.636 31.2463L34.6499 31.235L34.6516 31.2338L34.6541 31.2318L34.6558 31.2304L34.6592 31.2277L34.6616 31.2257L34.6695 31.2194L34.6722 31.2174L34.6734 31.2162L34.6805 31.2106L34.6854 31.2067L34.6946 31.1993L34.701 31.1942L34.7076 31.1888L34.7113 31.1859L34.7179 31.1807L34.7345 31.1673L34.7389 31.1639L34.7616 31.1458L34.7721 31.1372L34.81 31.1069L34.8249 31.0952L34.8274 31.093L34.8286 31.092L34.8377 31.0849L34.8381 31.0844L34.8465 31.0778L34.8487 31.0759L34.8511 31.0741L34.8579 31.0685L34.8809 31.0502L34.8834 31.0482L34.9401 31.003L34.9863 30.9658L34.9887 30.9639L34.9941 30.9595L35.0024 30.9529L35.123 30.8566L35.1259 30.8541L35.1291 30.8517L35.1423 30.8412L35.1648 30.8231L35.1711 30.8179L35.1765 30.8138L35.1848 30.8069L35.1948 30.7989L35.1985 30.7962L35.2 30.7947L35.2078 30.7886L35.211 30.7862L35.2212 30.7779L35.2327 30.7688L35.2388 30.7639L35.253 30.7524L35.2559 30.75L35.265 30.7426L35.2691 30.7395L35.2755 30.7343L35.2797 30.7312L35.2968 30.7175L35.3154 30.7026L35.3171 30.7011L35.3202 30.6986L35.3273 30.693L35.3283 30.692L35.3317 30.6894L35.344 30.6796L35.3462 30.6779L35.3488 30.6759L35.384 30.6475L35.3902 30.6427L35.3919 30.6412L35.4141 30.6236L35.4175 30.6209L35.4202 30.6187L35.4249 30.615L35.4263 30.6138L35.4518 30.5935L35.5019 30.5534L35.5051 30.5507L35.5146 30.5434L35.5151 30.5429L35.5173 30.541L35.5192 30.5395L35.5197 30.539L35.5222 30.537L35.5244 30.5353L35.5278 30.5326L35.5364 30.5258L35.5373 30.5251L35.5518 30.5136L35.5525 30.5128L35.5552 30.5109L35.5581 30.5084L35.5801 30.4908L35.5806 30.4904L35.5828 30.4886L35.5835 30.4879L35.5877 30.4847L35.5901 30.4828L35.5918 30.4816L35.6031 30.4725L35.6065 30.4696L35.6168 30.4615L35.6195 30.4593L35.6241 30.4556L35.6266 30.4534L35.6285 30.4522L35.629 30.4515L35.6315 30.4498L35.6393 30.4434L35.6483 30.4363L35.6495 30.4353L35.6715 30.4175L35.6786 30.4119L35.6818 30.4094L35.6879 30.4045L35.7055 30.3904L35.7119 30.3852L35.7354 30.3664L35.7378 30.3645L35.7412 30.3618L35.7488 30.3556L35.75 30.3547L35.7527 30.3527L35.7539 30.3517L35.7544 30.3512L35.7618 30.3454L35.771 30.338L35.7735 30.3361L35.7737 30.3356L35.7877 30.3246L35.7894 30.3234L35.7906 30.3224L35.7908 30.3219L35.7994 30.3153L35.8026 30.3126L35.8033 30.3121L35.804 30.3114L35.8077 30.3085L35.8116 30.3055L35.8119 30.305L35.8177 30.3006L35.8187 30.2997L35.8192 30.2994L35.8199 30.2987L35.8207 30.2982L35.8214 30.2975L35.8221 30.297L35.8278 30.2926V30.2923H35.828L35.829 30.2916L35.8295 30.2911L35.8302 30.2906L35.8314 30.2896L35.8329 30.2884L35.8334 30.2882L35.8349 30.2867L35.8356 30.2862C36.9027 29.4325 37.0758 27.8753 36.2221 26.8079C35.7525 26.2212 35.0415 25.8794 34.2898 25.8794Z" fill="#EFF2FF"/>
<path d="M8.36818 9.3916H10.2002C10.7061 9.3916 11.1163 9.80182 11.1163 10.3076C11.1163 10.8134 10.7061 11.2237 10.2002 11.2237H8.36818C7.86237 11.2237 7.45215 10.8134 7.45215 10.3076C7.45215 9.80182 7.86237 9.3916 8.36818 9.3916Z" fill="#EFF2FF"/>
</svg>



