<svg width="41" height="30" viewBox="0 0 41 30" fill="none" xmlns="http://www.w3.org/2000/svg">
<path d="M7.64551 7.78467H36.9619C38.9857 7.78467 40.6264 9.40056 40.6264 11.3938V25.8301C40.6264 27.8234 38.9857 29.4393 36.9619 29.4393H7.64551C5.62166 29.4393 3.98096 27.8234 3.98096 25.8301V11.3938C3.98096 9.40047 5.62166 7.78467 7.64551 7.78467Z" fill="#EBD5FF"/>
<path d="M35.1292 9.58887C37.153 9.58887 38.7936 11.2048 38.7936 13.198V16.807C38.7936 18.8003 37.153 20.4162 35.1292 20.4162C33.1055 20.4162 31.4648 18.8003 31.4648 16.807V13.198C31.4648 11.2047 33.1055 9.58887 35.1292 9.58887Z" fill="#DCB5FF"/>
<path d="M18.6384 20.416H25.9675C26.9794 20.416 27.7997 21.2239 27.7997 22.2205V22.2206C27.7997 23.2172 26.9794 24.0251 25.9675 24.0251H18.6384C17.6265 24.0251 16.8062 23.2172 16.8062 22.2206V22.2205C16.8062 21.2239 17.6265 20.416 18.6384 20.416Z" fill="#DCB5FF"/>
<path fill-rule="evenodd" clip-rule="evenodd" d="M9.47754 9.58887H35.1292C35.1292 11.5821 36.7698 13.1979 38.7938 13.198V24.0253H38.7937C36.7698 24.0254 35.1292 25.6412 35.1292 27.6344H9.47754V27.6343C9.47745 25.6411 7.83683 24.0253 5.81299 24.0253V13.198C7.83683 13.1979 9.47754 11.5821 9.47754 9.58887ZM16.8065 18.6116C16.8065 21.6014 19.2676 24.0252 22.3033 24.0252C25.3392 24.0252 27.8001 21.6014 27.8001 18.6116C27.8001 15.6217 25.3391 13.1979 22.3033 13.1979C19.2676 13.1979 16.8065 15.6217 16.8065 18.6116Z" fill="#00C864"/>
<path d="M35.1292 9.58887H9.47754C9.47754 11.5821 7.83683 13.1979 5.81299 13.198V20.4162C5.81299 22.4094 7.45369 24.0252 9.47754 24.0253H22.3033C19.2676 24.0253 16.8065 21.6015 16.8065 18.6116C16.8065 15.6218 19.2676 13.198 22.3033 13.198C25.3391 13.198 27.8001 15.6218 27.8001 18.6116C27.8001 21.6015 25.3391 24.0253 22.3033 24.0253H35.1291C37.153 24.0253 38.7936 22.4094 38.7937 20.4162V13.198C36.7698 13.1979 35.1292 11.5821 35.1292 9.58887Z" fill="#00A84F"/>
<path d="M3.98095 0.565918H33.2973C35.3212 0.565918 36.9619 2.18181 36.9619 4.17504V18.6114C36.9619 20.6046 35.3212 22.2205 33.2973 22.2205H3.98095C1.95711 22.2205 0.316406 20.6046 0.316406 18.6114V4.17504C0.316406 2.18172 1.95711 0.565918 3.98095 0.565918Z" fill="#F6EDFF"/>
<path fill-rule="evenodd" clip-rule="evenodd" d="M5.81299 2.37061H31.4647C31.4647 4.36384 33.1054 5.97973 35.1292 5.97973V16.807H35.1291C33.1053 16.8071 31.4647 18.4229 31.4647 20.4161H5.81299V20.4161C5.8129 18.4228 4.17228 16.807 2.14844 16.807V5.97973C4.17228 5.97965 5.81299 4.36384 5.81299 2.37061ZM13.1421 11.3934C13.1421 14.3832 15.6031 16.807 18.6389 16.807C21.6746 16.807 24.1356 14.3832 24.1356 11.3934C24.1356 8.40352 21.6746 5.97973 18.6389 5.97973C15.6031 5.97973 13.1421 8.40352 13.1421 11.3934Z" fill="#19E77C"/>
<path opacity="0.24" d="M14.2796 16.104H30.5663C31.4657 16.104 32.195 16.8107 32.195 17.6824C32.195 18.5541 31.4657 19.2608 30.5663 19.2608H14.2796C13.3801 19.2608 12.6509 18.5541 12.6509 17.6824C12.6509 16.8107 13.3801 16.104 14.2796 16.104Z" fill="white"/>
</svg>



