<svg width="34" height="41" viewBox="0 0 34 41" fill="none" xmlns="http://www.w3.org/2000/svg">
<path d="M4.39312 3.88721H26.2018C28.2092 3.88721 29.8366 5.52707 29.8366 7.54982V33.1878C29.8366 35.2106 28.2092 36.8504 26.2018 36.8504H4.39312C2.38571 36.8504 0.758301 35.2106 0.758301 33.1878V7.54974C0.758379 5.52691 2.38571 3.88721 4.39312 3.88721Z" fill="#2B315B"/>
<path d="M4.39301 5.71826C5.39672 5.71826 6.21035 6.53811 6.21035 7.54949V31.3562C6.21035 32.3675 5.39672 33.1874 4.39301 33.1874C3.38931 33.1875 2.57568 32.3676 2.57568 31.3562V7.54957C2.57568 6.53819 3.38931 5.71826 4.39301 5.71826Z" fill="#1D2350"/>
<path d="M8.02788 3.88721H29.8366C31.844 3.88721 33.4714 5.52707 33.4714 7.54982V36.8504C33.4714 38.8732 31.844 40.513 29.8366 40.513H8.02788C6.02048 40.513 4.39307 38.8733 4.39307 36.8504V7.54974C4.39307 5.52691 6.02048 3.88721 8.02788 3.88721Z" fill="#E0E2FF"/>
<path d="M33.4713 36.8504V7.54982C33.4713 5.52707 31.8439 3.88729 29.8365 3.88721H29.8365H18.0234C15.5141 3.88729 13.48 5.93703 13.48 8.46551C13.48 10.994 15.5142 13.0437 18.0234 13.0437H28.9277C30.4333 13.0437 31.6538 14.2736 31.6538 15.7907C31.6538 17.3078 30.4333 18.5376 28.9277 18.5376H22.5668C20.5595 18.5376 18.9321 20.1774 18.9321 22.2002C18.9321 24.223 20.5595 25.8628 22.5669 25.8628H28.019C29.0227 25.8628 29.8364 26.6827 29.8364 27.694C29.8364 28.7054 29.0227 29.5253 28.019 29.5253H17.1147C16.111 29.5257 15.2976 30.3458 15.298 31.3573C15.2984 32.3682 16.1115 33.1875 17.1147 33.1879H20.7496C21.7533 33.1883 22.5667 34.0085 22.5663 35.0199C22.5659 36.0308 21.7528 36.8501 20.7496 36.8505H13.4799C12.4762 36.8505 11.6626 37.6703 11.6626 38.6817C11.6626 39.6931 12.4762 40.513 13.4799 40.513H29.8365C31.8439 40.513 33.4712 38.8732 33.4713 36.8504Z" fill="#CDD0F5"/>
<path d="M8.93701 11.2126C10.4426 11.2126 11.6631 9.98275 11.6631 8.46567C11.6631 6.94859 10.4426 5.71875 8.93701 5.71875C7.43144 5.71875 6.21094 6.94859 6.21094 8.46567C6.21094 9.98275 7.43144 11.2126 8.93701 11.2126Z" fill="#2B315B"/>
<path d="M18.0234 11.2126C19.529 11.2126 20.7495 9.98275 20.7495 8.46567C20.7495 6.94859 19.529 5.71875 18.0234 5.71875C16.5179 5.71875 15.2974 6.94859 15.2974 8.46567C15.2974 9.98275 16.5179 11.2126 18.0234 11.2126Z" fill="#2B315B"/>
<path d="M27.1104 11.2126C28.6159 11.2126 29.8364 9.98275 29.8364 8.46567C29.8364 6.94859 28.6159 5.71875 27.1104 5.71875C25.6048 5.71875 24.3843 6.94859 24.3843 8.46567C24.3843 9.98275 25.6048 11.2126 27.1104 11.2126Z" fill="#2B315B"/>
<path d="M8.93652 0.224609C7.43093 0.224609 6.21045 1.45442 6.21045 2.97153V3.88722H8.02778V2.97153C8.02778 2.4658 8.43463 2.05584 8.93652 2.05584C9.43841 2.05584 9.84527 2.4658 9.84527 2.97153V6.63414C9.84527 7.13987 9.43841 7.54976 8.93652 7.54984C8.43463 7.54929 8.02739 7.95886 8.02684 8.46459C8.0263 8.97031 8.43276 9.38067 8.93465 9.38122C8.93527 9.38122 8.9359 9.38122 8.93652 9.38122C10.4421 9.38122 11.6626 8.15141 11.6626 6.6343V2.97153C11.6626 1.45442 10.442 0.224609 8.93652 0.224609Z" fill="#F2F3FF"/>
<path d="M18.0234 0.224609C16.5178 0.224609 15.2974 1.45442 15.2974 2.97153V3.88722H17.1147V2.97153C17.1147 2.4658 17.5215 2.05584 18.0234 2.05584C18.5253 2.05584 18.9322 2.4658 18.9322 2.97153V6.63414C18.9322 7.13987 18.5253 7.54976 18.0234 7.54984C17.5215 7.54984 17.1147 7.9598 17.1147 8.46553C17.1147 8.97126 17.5215 9.38122 18.0234 9.38122C19.529 9.38122 20.7495 8.15141 20.7495 6.6343V2.97153C20.7495 1.45442 19.529 0.224609 18.0234 0.224609Z" fill="#F2F3FF"/>
<path d="M27.1104 0.224609C25.6048 0.224609 24.3843 1.45442 24.3843 2.97153V3.88722H26.2016V2.97153C26.2016 2.4658 26.6085 2.05584 27.1104 2.05584C27.6122 2.05584 28.0191 2.4658 28.0191 2.97153V6.63414C28.0191 7.13987 27.6122 7.54976 27.1104 7.54984C26.6085 7.54984 26.2016 7.9598 26.2016 8.46553C26.2016 8.97126 26.6085 9.38122 27.1104 9.38122C28.6159 9.38122 29.8364 8.15141 29.8364 6.6343V2.97153C29.8364 1.45442 28.6159 0.224609 27.1104 0.224609Z" fill="#F2F3FF"/>
<path d="M8.93658 14.8745H28.9279C29.4298 14.8745 29.8367 15.2845 29.8367 15.7902C29.8367 16.2959 29.4298 16.7059 28.9279 16.7059H8.93658C8.43469 16.7059 8.02783 16.2959 8.02783 15.7902C8.02783 15.2844 8.43469 14.8745 8.93658 14.8745Z" fill="#9DA2D5"/>
<path d="M8.93658 20.3687H28.9279C29.4298 20.3687 29.8367 20.7786 29.8367 21.2843C29.8367 21.7901 29.4298 22.2 28.9279 22.2H8.93658C8.43469 22.2 8.02783 21.7901 8.02783 21.2843C8.02783 20.7785 8.43469 20.3687 8.93658 20.3687Z" fill="#9DA2D5"/>
<path d="M8.93658 25.8623H28.9279C29.4298 25.8623 29.8367 26.2723 29.8367 26.778C29.8367 27.2837 29.4298 27.6937 28.9279 27.6937H8.93658C8.43469 27.6937 8.02783 27.2837 8.02783 26.778C8.02783 26.2722 8.43469 25.8623 8.93658 25.8623Z" fill="#9DA2D5"/>
<path d="M8.93658 31.3564H28.9279C29.4298 31.3564 29.8367 31.7664 29.8367 32.2721C29.8367 32.7779 29.4298 33.1878 28.9279 33.1878H8.93658C8.43469 33.1878 8.02783 32.7779 8.02783 32.2721C8.02783 31.7663 8.43469 31.3564 8.93658 31.3564Z" fill="#9DA2D5"/>
</svg>










