<svg width="42" height="41" viewBox="0 0 42 41" fill="none" xmlns="http://www.w3.org/2000/svg">
<path d="M22.6888 4.09619C32.8081 4.09619 41.0113 12.2995 41.0113 22.4188C41.0113 32.538 32.8081 40.7413 22.6888 40.7413H19.0242C8.905 40.7413 0.70166 32.5381 0.70166 22.4188C0.70166 12.2994 8.905 4.09619 19.0242 4.09619H22.6888Z" fill="#F5BFC9"/>
<path d="M22.6885 40.7408C32.8077 40.7408 41.0108 32.5376 41.0108 22.4185C41.0108 12.2994 32.8077 4.09619 22.6885 4.09619C12.5694 4.09619 4.36621 12.2994 4.36621 22.4185C4.36621 32.5376 12.5694 40.7408 22.6885 40.7408Z" fill="#E7455F"/>
<path d="M41.0115 22.3759V22.3434C41.0114 22.339 41.0114 22.3346 41.0114 22.3303V22.3284C41.0114 22.3247 41.0114 22.3207 41.0113 22.317V22.3009L41.0112 22.2984V22.2843C41.0112 22.2799 41.0112 22.2757 41.0112 22.2714V22.2688C41.0111 22.2651 41.0111 22.2612 41.0111 22.2575C41.0111 22.2566 41.0111 22.2556 41.011 22.2547C41.011 22.251 41.011 22.2455 41.0109 22.2418V22.2389C41.0109 22.2353 41.0109 22.2316 41.0108 22.2279V22.2252C41.0108 22.221 41.0107 22.2166 41.0107 22.2123C41.0107 22.2113 41.0107 22.2103 41.0106 22.2093C41.0106 22.2056 41.0106 22.2018 41.0106 22.1982V22.1958C41.0106 22.1915 41.0105 22.1872 41.0105 22.1829C41.0104 22.1817 41.0104 22.1808 41.0104 22.1797C41.0104 22.176 41.0103 22.1723 41.0103 22.1686V22.1663C41.0102 22.1621 41.0102 22.1578 41.01 22.1536V22.1503C41.01 22.1466 41.01 22.1427 41.0098 22.139V22.1368C41.0097 22.1324 41.0097 22.1284 41.0095 22.1241V22.1208C41.0094 22.1164 41.0093 22.1123 41.0093 22.1081V22.1078C41.0092 22.1036 41.009 22.0986 41.009 22.0944C41.009 22.0935 41.009 22.0926 41.0089 22.0917C41.0089 22.0874 41.0088 22.0828 41.0087 22.0785V22.0784C41.0086 22.074 41.0086 22.0695 41.0084 22.0651C41.0084 22.064 41.0084 22.0631 41.0083 22.0618C41.0083 22.0575 41.0082 22.0533 41.0081 22.049V22.0489C41.008 22.0445 41.008 22.0397 41.0078 22.0355L41.0077 22.0328C41.0076 22.0243 41.0074 22.0147 41.0071 22.0061V22.0034C41.0069 21.9949 41.0067 21.9852 41.0064 21.9766V21.974L41.0061 21.9607L41.006 21.9596C41.006 21.9553 41.0059 21.9517 41.0057 21.9474C41.0057 21.9464 41.0056 21.9454 41.0057 21.9444L41.0053 21.9313V21.9301L41.005 21.9182L41.0049 21.9152L41.0045 21.9021V21.9006L41.0042 21.8885C41.0041 21.8877 41.004 21.8867 41.0041 21.8859L41.0038 21.8728L41.0037 21.8708L41.0033 21.8593C41.0033 21.8585 41.0033 21.8575 41.0033 21.8567L41.0029 21.8437C41.0028 21.8428 41.0027 21.8421 41.0028 21.8412L41.0025 21.8298L41.0024 21.8273C41.0023 21.8224 41.0021 21.8191 41.002 21.8142V21.8117C41.0019 21.8081 41.0016 21.8036 41.0015 21.8V21.7981C41.0013 21.7939 41.0012 21.7892 41.0011 21.785C41.001 21.7842 41.0009 21.7832 41.001 21.7824C41.0009 21.7787 41.0007 21.7745 41.0006 21.7708V21.7688C41.0003 21.7646 41.0003 21.76 41.0002 21.7558C41.0001 21.7549 41.0001 21.7539 41.0001 21.753C40.9998 21.7486 40.9997 21.7452 40.9997 21.7408L40.9996 21.7397C40.9995 21.7353 40.9992 21.7308 40.9991 21.7265L40.9991 21.7236C40.999 21.7199 40.9987 21.7156 40.9986 21.7119V21.71C40.9984 21.7058 40.9983 21.7015 40.998 21.6973C40.998 21.6962 40.998 21.6952 40.9979 21.6942C40.9978 21.69 40.9976 21.6857 40.9975 21.6815L40.9974 21.6811C40.9973 21.6769 40.9971 21.6723 40.997 21.6679C40.9969 21.6669 40.9968 21.6659 40.9969 21.665C40.9966 21.6608 40.9966 21.6567 40.9963 21.6524V21.6516C40.996 21.6472 40.996 21.643 40.9957 21.6387L40.9956 21.6356C40.9954 21.6314 40.9953 21.6268 40.995 21.6226V21.622C40.9948 21.6178 40.9947 21.6139 40.9944 21.6096C40.9943 21.6084 40.9943 21.6074 40.9943 21.6062C40.9941 21.602 40.9939 21.5978 40.9937 21.5936C40.9936 21.5929 40.9936 21.5922 40.9936 21.5914C40.9934 21.5878 40.9933 21.5841 40.993 21.5805L40.993 21.5768C40.9927 21.5725 40.9926 21.5685 40.9923 21.5642L40.9923 21.5621C40.992 21.5584 40.9919 21.5548 40.9917 21.5511L40.9916 21.5475C40.9913 21.5433 40.9912 21.5394 40.991 21.5352L40.9907 21.5322C40.9906 21.5285 40.9905 21.5254 40.9903 21.5218L40.9902 21.5184L40.9895 21.5058L40.9894 21.5032C40.9892 21.4996 40.9891 21.4959 40.9888 21.4922L40.9887 21.4895C40.9885 21.4859 40.9883 21.4806 40.9881 21.4769L40.988 21.4735C40.9877 21.4698 40.9876 21.467 40.9874 21.4635L40.9871 21.4601C40.987 21.4564 40.9867 21.4512 40.9865 21.4475L40.9863 21.4447C40.9862 21.441 40.9859 21.4375 40.9857 21.4338L40.9856 21.4312L40.9849 21.4185L40.9846 21.4156C40.9845 21.4119 40.9843 21.4076 40.984 21.4039L40.9839 21.4021L40.9832 21.3892C40.9832 21.3884 40.9832 21.387 40.983 21.3863C40.9827 21.3826 40.9826 21.3781 40.9823 21.3745V21.373C40.982 21.3688 40.9817 21.3643 40.9815 21.3601C40.9815 21.3593 40.9814 21.3578 40.9813 21.357L40.9806 21.3448V21.344C40.9803 21.3398 40.98 21.3347 40.9798 21.3304L40.9797 21.3283C40.9794 21.3241 40.9791 21.3195 40.979 21.3153L40.9789 21.3149C40.9786 21.3105 40.9784 21.306 40.9781 21.3017C40.9781 21.3007 40.9781 21.2998 40.978 21.2988C40.9777 21.2944 40.9774 21.2899 40.9772 21.2856C40.9769 21.2814 40.9766 21.2764 40.9764 21.2722C40.9764 21.2714 40.9764 21.2707 40.9763 21.27C40.9757 21.2614 40.9752 21.2518 40.9746 21.2433L40.9745 21.2406C40.9739 21.2321 40.9733 21.2224 40.9727 21.2139L40.9726 21.2119L40.9708 21.1848L40.9707 21.183C40.9701 21.1738 40.9695 21.1651 40.9689 21.1559L40.9686 21.1534C40.9684 21.1492 40.968 21.1444 40.9678 21.1401V21.1393C40.9674 21.1351 40.9672 21.1312 40.9669 21.1269L40.9667 21.1244C40.9664 21.1202 40.9661 21.1155 40.9658 21.1112L40.9657 21.1096L40.965 21.0975C40.9649 21.0967 40.9648 21.096 40.9647 21.0953L40.9638 21.082L40.9637 21.0803C40.9634 21.0767 40.9631 21.0722 40.9629 21.0685L40.9626 21.0662L40.9618 21.0532L40.9615 21.051C40.9613 21.0474 40.9609 21.0429 40.9607 21.0392L40.9605 21.0372C40.9601 21.0324 40.9599 21.029 40.9595 21.0242C40.9595 21.0235 40.9595 21.0227 40.9594 21.022C40.9591 21.0184 40.9588 21.0143 40.9585 21.0106L40.9584 21.008L40.9574 20.9954L40.9571 20.9927C40.9569 20.989 40.9565 20.9848 40.9563 20.9812L40.9562 20.9792L40.9552 20.9664C40.9551 20.9655 40.955 20.9646 40.9549 20.9637C40.9546 20.9595 40.9542 20.9558 40.9539 20.9515V20.9505C40.9535 20.9463 40.9531 20.9417 40.9528 20.9375L40.9525 20.9346L40.9515 20.922V20.9216C40.9511 20.9174 40.9507 20.9123 40.9504 20.908L40.9503 20.9059C40.9495 20.8975 40.9487 20.8874 40.948 20.879L40.9478 20.8771C40.9471 20.8681 40.9463 20.8593 40.9455 20.8501L40.9453 20.8479C40.9446 20.8394 40.9438 20.8297 40.9431 20.8213L40.9428 20.819C40.9424 20.8148 40.942 20.81 40.9417 20.8057L40.9416 20.8046C40.9412 20.8005 40.9409 20.7966 40.9405 20.7923L40.9404 20.7899C40.94 20.7857 40.9396 20.7813 40.9392 20.777L40.9391 20.7751C40.9388 20.7714 40.9383 20.767 40.938 20.7633L40.9379 20.7611L40.9367 20.7481C40.9367 20.7473 40.9366 20.7467 40.9364 20.7459C40.9362 20.7423 40.9358 20.7381 40.9354 20.7345L40.9352 20.7321C40.9347 20.7273 40.9344 20.7239 40.934 20.7191L40.9338 20.7173C40.9334 20.7137 40.933 20.7091 40.9327 20.7054L40.9326 20.7035C40.9321 20.6986 40.9318 20.6953 40.9314 20.6905C40.9312 20.6897 40.9312 20.6889 40.9311 20.6882L40.93 20.6766L40.9297 20.6746C40.9294 20.6705 40.929 20.666 40.9285 20.6617L40.9283 20.6591C40.9279 20.6549 40.9276 20.6513 40.9272 20.6472L40.9271 20.6461C40.9266 20.6419 40.9262 20.6372 40.9259 20.6329C40.9257 20.632 40.9257 20.6311 40.9256 20.6303C40.9252 20.6262 40.9248 20.6224 40.9244 20.6181L40.9243 20.6172C40.9239 20.613 40.9235 20.6082 40.9231 20.604L40.9228 20.6014C40.9224 20.5972 40.922 20.5936 40.9217 20.5893L40.9216 20.5882C40.9212 20.5841 40.9207 20.5793 40.9202 20.5751L40.9199 20.5728L40.9186 20.5599V20.5595C40.9181 20.5554 40.9177 20.5509 40.9172 20.5468L40.9169 20.5434C40.9161 20.5349 40.9151 20.5261 40.9143 20.5177L40.9139 20.5148L40.9126 20.502V20.5019C40.9121 20.4977 40.9117 20.493 40.9112 20.4888L40.9108 20.4862C40.9104 20.482 40.91 20.4773 40.9095 20.4732V20.4728L40.9081 20.4601L40.9078 20.4576C40.9073 20.4534 40.9069 20.4486 40.9064 20.4443L40.9063 20.4437C40.9059 20.4396 40.9054 20.4356 40.9049 20.4313L40.9047 20.4284C40.9038 20.42 40.9027 20.4107 40.9017 20.4023L40.9015 20.4C40.9011 20.3958 40.9004 20.3911 40.9 20.3868L40.8999 20.3856C40.8995 20.3815 40.8991 20.3777 40.8986 20.3734C40.8985 20.3726 40.8984 20.3719 40.8983 20.3712C40.8977 20.3663 40.8973 20.3627 40.8968 20.3579L40.8967 20.3569L40.8953 20.3444L40.895 20.3426C40.8944 20.3377 40.8942 20.3343 40.8936 20.3295L40.8933 20.3275C40.8929 20.3239 40.8925 20.3197 40.8919 20.3161C40.8919 20.3153 40.8918 20.3145 40.8917 20.3136C40.8911 20.3088 40.8907 20.3057 40.8901 20.3009C40.8901 20.3001 40.8901 20.2994 40.8899 20.2987C40.8895 20.2951 40.889 20.2904 40.8885 20.2868L40.8883 20.2853C40.8877 20.2805 40.8874 20.2768 40.8868 20.272L40.8865 20.2705C40.8861 20.2663 40.8855 20.2617 40.885 20.2575V20.2568C40.8844 20.2519 40.8839 20.2479 40.8833 20.2432L40.8832 20.2417C40.8821 20.2322 40.881 20.2243 40.8799 20.2148L40.8797 20.2128C40.8791 20.2086 40.8786 20.2043 40.8781 20.2002L40.878 20.1994L40.8765 20.186L40.8762 20.1843C40.8752 20.1759 40.874 20.1658 40.873 20.1574L40.8727 20.1555C40.8716 20.1465 40.8705 20.1376 40.8694 20.1286L40.8691 20.1268C40.868 20.1179 40.8669 20.1091 40.8658 20.1002L40.8655 20.098C40.8649 20.0938 40.8643 20.089 40.8638 20.0847C40.8637 20.0844 40.8638 20.0848 40.8637 20.0845C40.8633 20.0803 40.8626 20.0757 40.8621 20.0716L40.8618 20.0693C40.8612 20.0651 40.8607 20.0602 40.8601 20.056V20.056C40.8594 20.0511 40.859 20.0474 40.8583 20.0426L40.8582 20.0411C40.8575 20.0363 40.857 20.0322 40.8564 20.0274L40.8563 20.0272C40.8557 20.0224 40.8552 20.0183 40.8546 20.0136L40.8543 20.0126L40.8507 19.9848L40.8506 19.9841C40.8499 19.9793 40.8494 19.975 40.8487 19.9702V19.9698L40.8469 19.9562V19.9556C40.8462 19.9507 40.8457 19.9465 40.845 19.9417L40.8449 19.941C40.8442 19.9362 40.8438 19.9322 40.8431 19.9275L40.843 19.927C40.8423 19.9223 40.8418 19.9181 40.8412 19.9134L40.8409 19.912C40.8402 19.9072 40.8398 19.9035 40.8391 19.8987L40.839 19.8984C40.8384 19.8937 40.8378 19.8892 40.8372 19.8844L40.8371 19.8837C40.8364 19.8789 40.8359 19.875 40.8353 19.8702L40.8352 19.8698C40.8345 19.865 40.834 19.8612 40.8333 19.8564L40.833 19.8545C40.8318 19.8456 40.8305 19.8366 40.8293 19.8276L40.8292 19.8264C40.8278 19.8168 40.8266 19.8089 40.8252 19.7993L40.825 19.7976C40.8238 19.7887 40.8224 19.7796 40.821 19.7706L40.8207 19.7693C40.8195 19.7603 40.8182 19.7514 40.817 19.7424L40.8166 19.7406C40.8154 19.7316 40.814 19.7225 40.8127 19.7136L40.8124 19.7122C40.811 19.7027 40.8098 19.6945 40.8084 19.6851L40.8081 19.684C40.8067 19.6744 40.8055 19.6662 40.8041 19.6568L40.8038 19.6555L40.7998 19.6286C40.7996 19.628 40.7995 19.6274 40.7994 19.6268C40.7988 19.6221 40.7981 19.6182 40.7975 19.6134C40.7974 19.613 40.7975 19.6136 40.7974 19.6131C40.7967 19.6084 40.796 19.6044 40.7954 19.5997L40.7953 19.5987C40.7938 19.5893 40.7924 19.5806 40.7909 19.571L40.7909 19.5703C40.7902 19.5656 40.7895 19.5613 40.7887 19.5566L40.7886 19.5562C40.7879 19.5515 40.7873 19.5472 40.7865 19.5424V19.5422C40.7857 19.5374 40.785 19.5329 40.7842 19.5282L40.7842 19.5277C40.7835 19.523 40.7827 19.5187 40.782 19.514C40.7819 19.5136 40.782 19.5143 40.782 19.5137C40.7812 19.509 40.7805 19.5047 40.7798 19.4999L40.7797 19.4992C40.7781 19.4899 40.7768 19.481 40.7752 19.4716L40.7751 19.4709C40.7736 19.4615 40.7722 19.4528 40.7707 19.4432L40.7706 19.4425C40.769 19.4329 40.7676 19.4243 40.766 19.4148L40.766 19.4142C40.7644 19.4048 40.7629 19.3957 40.7614 19.3864V19.386C40.7581 19.3671 40.7551 19.3486 40.7519 19.3297V19.3296C40.7501 19.3201 40.7486 19.311 40.7471 19.3014V19.3013C40.7453 19.2918 40.7438 19.2829 40.7422 19.2735L40.7422 19.2729C40.7404 19.2634 40.7389 19.2545 40.7374 19.2452L40.7373 19.2447C40.7365 19.24 40.7357 19.2355 40.7348 19.2307C40.7331 19.2214 40.7315 19.2121 40.7299 19.2027L40.7298 19.2023C40.729 19.1976 40.7282 19.1935 40.7275 19.1888L40.7274 19.1881C40.7266 19.1834 40.7258 19.1792 40.7249 19.1745L40.7248 19.1736L40.7199 19.1462C40.7198 19.1458 40.7199 19.1464 40.7198 19.1459L40.7149 19.1182L40.7147 19.1172C40.713 19.1078 40.7114 19.0993 40.7098 19.0899L40.7095 19.0892C40.7078 19.0798 40.7062 19.0711 40.7045 19.0617L40.7044 19.0613C40.7027 19.0519 40.701 19.0429 40.6992 19.0336V19.0332C40.6974 19.0238 40.6958 19.0151 40.694 19.0057L40.6939 19.0049C40.6921 18.9955 40.6905 18.9868 40.6887 18.9775L40.6887 18.9769C40.6868 18.9675 40.6852 18.959 40.6834 18.9496L40.6833 18.9487C40.6796 18.9299 40.6762 18.9118 40.6725 18.8931V18.8929C40.6625 18.8414 40.6522 18.7903 40.6418 18.739V18.7387C40.64 18.7294 40.6381 18.7206 40.6362 18.7113L40.6361 18.7104C40.6342 18.7012 40.6324 18.6924 40.6304 18.6831V18.6828C40.6284 18.6735 40.6266 18.6644 40.6246 18.6551V18.6549C40.6206 18.6363 40.6168 18.6179 40.6128 18.5992C40.5902 18.4923 40.5667 18.3858 40.5421 18.2797L40.542 18.2795C39.502 13.8025 36.8191 9.87918 33.0243 7.28616L33.0242 7.28608C33.009 7.27568 32.9942 7.26563 32.979 7.25524L32.9782 7.25481C32.9706 7.24966 32.9642 7.24528 32.9567 7.24004L32.9549 7.23901C32.9516 7.23669 32.948 7.23429 32.9446 7.23205L32.9444 7.2318C32.941 7.22956 32.9372 7.22699 32.9339 7.22467C32.9331 7.22424 32.9324 7.22381 32.9318 7.22329C32.9251 7.21883 32.9178 7.21376 32.9111 7.20929L32.9092 7.20792L32.888 7.19383L32.8863 7.19263L32.8652 7.17855C32.8647 7.17812 32.8641 7.17777 32.8635 7.17743C32.8568 7.17296 32.8493 7.16781 32.8426 7.16334C32.8418 7.16291 32.8411 7.1624 32.8404 7.16188C32.8337 7.15742 32.8264 7.15261 32.8197 7.14814C32.819 7.14763 32.8183 7.1472 32.8175 7.14677C32.8142 7.14453 32.8106 7.14204 32.8072 7.13981L32.8061 7.13912C32.8032 7.13723 32.7998 7.135 32.7971 7.13311L32.7942 7.13122C32.7909 7.12907 32.7875 7.12676 32.7841 7.12452L32.7834 7.12409C32.7801 7.12186 32.7774 7.12006 32.7741 7.11791L32.7715 7.11611C32.7681 7.11396 32.7649 7.1119 32.7615 7.10958C32.7609 7.10906 32.7603 7.10872 32.7596 7.10838C32.7567 7.10649 32.754 7.1046 32.751 7.10271C32.7502 7.10202 32.7493 7.10159 32.7485 7.10099C32.7451 7.09876 32.7419 7.09678 32.7386 7.09446L32.7364 7.093L32.7279 7.08742C32.7271 7.08699 32.7263 7.08647 32.7256 7.08587C32.7227 7.08407 32.7186 7.08132 32.7157 7.07952C32.7148 7.07883 32.7141 7.0784 32.7132 7.0778C32.7102 7.07591 32.7081 7.07445 32.7053 7.07256C32.7042 7.07196 32.7034 7.07136 32.7023 7.07076C32.6994 7.06887 32.6956 7.06629 32.6927 7.0644L32.6899 7.0626C32.6871 7.06071 32.685 7.05933 32.6821 7.05744C32.6812 7.05684 32.6804 7.05633 32.6794 7.05573L32.6698 7.04946C32.6689 7.04877 32.6678 7.04808 32.6669 7.04757L32.6591 7.0425L32.6561 7.04052C32.6532 7.03872 32.6496 7.0364 32.6468 7.03451C32.6459 7.03383 32.6446 7.03314 32.6438 7.03254C32.6409 7.03065 32.6382 7.02893 32.6353 7.02704L32.6336 7.02592C32.6302 7.02378 32.6269 7.02172 32.6236 7.01957C32.6227 7.01888 32.6216 7.01819 32.6207 7.01768L32.6128 7.01253C32.6117 7.01192 32.6108 7.01132 32.6098 7.01064C32.6069 7.00875 32.6036 7.0066 32.6007 7.0048C32.5995 7.00394 32.5983 7.00316 32.5971 7.00248C32.5947 7.00093 32.5925 6.99956 32.5901 6.99801C32.5884 6.99698 32.5867 6.99578 32.585 6.99475C32.5831 6.99354 32.58 6.99148 32.578 6.99028C32.5768 6.98942 32.575 6.98831 32.5738 6.98745L32.567 6.98307L32.5611 6.97937C32.5593 6.97817 32.5569 6.97671 32.555 6.97534C32.5538 6.97456 32.5517 6.97336 32.5504 6.97242L32.5436 6.96804C32.5419 6.96701 32.5398 6.96555 32.5381 6.9646C32.5362 6.9634 32.5338 6.96177 32.5318 6.96056L32.5274 6.95773C32.5245 6.95584 32.5227 6.95472 32.5198 6.95283C32.5184 6.95206 32.5165 6.95086 32.5153 6.95L32.5082 6.94545C32.507 6.94467 32.5056 6.9439 32.5044 6.94296C32.5015 6.94115 32.4991 6.93961 32.4962 6.9378C32.4945 6.93677 32.493 6.93583 32.4914 6.9348L32.4855 6.93102L32.4811 6.92818C32.4782 6.92638 32.476 6.92509 32.4732 6.92312C32.4713 6.92191 32.4699 6.92114 32.468 6.91985C32.4661 6.91865 32.4641 6.91736 32.4622 6.91616C32.4608 6.91539 32.4592 6.91427 32.4578 6.9135C32.4549 6.91161 32.4518 6.90972 32.4489 6.90783L32.4452 6.90551C32.4432 6.90431 32.4407 6.90285 32.4388 6.90156L32.4347 6.8989C32.4317 6.89709 32.4289 6.8952 32.426 6.8934L32.4214 6.89057C32.4195 6.88936 32.4178 6.88825 32.4158 6.88696L32.4113 6.88404C32.4083 6.88223 32.4058 6.8806 32.4028 6.8788L32.3979 6.87571C32.396 6.8745 32.3948 6.87382 32.3927 6.87262C32.3912 6.87158 32.3897 6.87064 32.3882 6.8697C32.3852 6.86781 32.3828 6.86626 32.3798 6.86446C32.3779 6.86325 32.3764 6.86231 32.3743 6.86111L32.3696 6.85819C32.367 6.85664 32.3646 6.85509 32.362 6.85346C32.3601 6.85226 32.3584 6.85114 32.3564 6.84986C32.3545 6.84874 32.3527 6.84762 32.3508 6.84642L32.3466 6.84376C32.344 6.84221 32.3412 6.84049 32.3387 6.83886L32.3332 6.83551C32.3317 6.83448 32.3294 6.83319 32.3278 6.83216C32.3258 6.83096 32.3245 6.83019 32.3226 6.8289C32.3203 6.82752 32.3179 6.82606 32.3157 6.82469C32.3138 6.82357 32.3116 6.8222 32.3097 6.821L32.3042 6.81765L32.2997 6.81481L32.2903 6.80897L32.2867 6.80683C32.2849 6.80562 32.2825 6.80416 32.2805 6.80287L32.277 6.80073L32.2677 6.79489C32.2661 6.79403 32.2646 6.793 32.2631 6.79205C32.2611 6.79085 32.2593 6.78973 32.2575 6.78862C32.256 6.78776 32.2549 6.7869 32.2533 6.78604C32.2502 6.78415 32.247 6.78209 32.2437 6.78011L32.2401 6.77797C32.2381 6.77677 32.2359 6.77531 32.2338 6.77419C32.2328 6.77342 32.2317 6.77281 32.2306 6.77221C32.2273 6.77024 32.2233 6.76775 32.2201 6.76586C32.2186 6.76483 32.2181 6.76448 32.2167 6.76362C32.2143 6.76225 32.2126 6.76131 32.2104 6.75985L32.2076 6.75813C32.2036 6.75581 32.1997 6.7534 32.196 6.75108C32.1953 6.75057 32.1945 6.75014 32.1937 6.74971C32.1869 6.74559 32.1794 6.74095 32.1727 6.73683C32.1721 6.73648 32.1705 6.73563 32.1701 6.73528C32.1633 6.73124 32.1564 6.72704 32.1495 6.72283C32.1485 6.72223 32.1473 6.72163 32.1464 6.72094C32.1442 6.71956 32.1423 6.71845 32.1399 6.71699C31.2733 6.19454 30.1472 6.4735 29.6248 7.34018C29.1025 8.20644 29.3811 9.33208 30.247 9.85479C34.6927 12.5367 37.3468 17.2329 37.3468 22.4172C37.3468 30.4996 30.7712 37.0753 22.6887 37.0753C21.6768 37.0753 20.8564 37.8956 20.8564 38.9075C20.8564 39.9194 21.6768 40.7397 22.6887 40.7397C32.8079 40.7397 41.0112 32.5364 41.0112 22.4172V22.3868C41.0115 22.3841 41.0115 22.3803 41.0115 22.3759Z" fill="#E22241"/>
<path d="M19.4038 20.9673L19.4044 20.9667C19.9101 20.461 20.7302 20.461 21.236 20.9667L34.4093 34.14C34.9151 34.6458 34.9151 35.4659 34.4093 35.9717L34.4087 35.9723C33.9029 36.4781 33.0828 36.4781 32.577 35.9723L19.4038 22.799C18.898 22.2932 18.898 21.4731 19.4038 20.9673Z" fill="#961233"/>
<path d="M15.3962 5.79102C15.117 5.7911 14.8415 5.85526 14.5909 5.97859C13.8853 6.32687 13.2029 6.72032 12.5478 7.15645L12.5475 7.15671C12.5437 7.15928 12.5401 7.16178 12.5362 7.16418V7.16427C12.517 7.17698 12.4984 7.18943 12.4794 7.20231L12.4787 7.20274C12.4753 7.20498 12.4717 7.20747 12.4684 7.2097C12.4677 7.21013 12.467 7.21056 12.4664 7.21107C12.4631 7.21331 12.4599 7.21545 12.4565 7.21769L12.455 7.2188C12.4516 7.22104 12.4479 7.22353 12.4447 7.22576L12.4446 7.22585C12.4298 7.23581 12.4147 7.24594 12.4001 7.25591L12.3986 7.25702L12.3883 7.26398L12.3871 7.26484C12.3833 7.26742 12.3804 7.26939 12.3766 7.27197L12.3758 7.27257C12.3573 7.2852 12.3389 7.29782 12.3204 7.31045L12.319 7.3113C12.3157 7.31362 12.3128 7.31569 12.3094 7.31792L12.3067 7.31981C12.3038 7.32178 12.3005 7.32419 12.2976 7.32608L12.2951 7.3278C12.2918 7.33011 12.2889 7.33218 12.2855 7.33441L12.2843 7.33527C12.2702 7.34497 12.2558 7.35494 12.2416 7.36481L12.2394 7.36636L12.2301 7.37289C12.2294 7.37349 12.2284 7.37409 12.2276 7.37469C12.2247 7.37666 12.2214 7.37907 12.2185 7.38096C12.2175 7.38173 12.2168 7.38216 12.2157 7.38293C12.2124 7.38517 12.2098 7.38706 12.2064 7.38946L12.205 7.39049C12.1909 7.40037 12.1765 7.41042 12.1625 7.42038L12.1606 7.42176C12.1572 7.42399 12.1547 7.42579 12.1514 7.42811L12.1485 7.43026C12.1456 7.43215 12.1424 7.43438 12.1396 7.43644C12.1386 7.43722 12.1378 7.43764 12.1367 7.43842C12.1339 7.44039 12.1308 7.44263 12.1278 7.44469C12.1271 7.44529 12.1259 7.44615 12.1249 7.44666L12.0849 7.47509C12.0835 7.47612 12.0828 7.47664 12.0813 7.47767C12.0791 7.47939 12.0755 7.48179 12.0731 7.48351L12.0695 7.48609C12.0667 7.48806 12.0641 7.48986 12.0614 7.49193C12.0602 7.49287 12.059 7.49373 12.0577 7.4945C12.0548 7.49648 12.0522 7.49854 12.0494 7.50051L12.0462 7.50275L12.0376 7.50893L12.0356 7.51039C12.0253 7.51778 12.0157 7.52456 12.0055 7.53195C12.0048 7.53238 12.0041 7.53289 12.0034 7.53349C12.0006 7.53547 11.9977 7.53753 11.9949 7.53951L11.9912 7.54217L11.983 7.5481L11.9797 7.55041L11.9712 7.5566L11.9683 7.55875C11.965 7.56106 11.9624 7.56287 11.9592 7.56527L11.9586 7.56587C11.9478 7.5736 11.9385 7.58056 11.9277 7.5882L11.9252 7.59001C11.9224 7.59198 11.9198 7.59396 11.9171 7.59602C11.9157 7.59688 11.9146 7.59782 11.9133 7.59868C11.911 7.6004 11.9081 7.60263 11.9057 7.60427C11.9039 7.60538 11.9028 7.60624 11.9012 7.60753C11.8989 7.60925 11.896 7.61131 11.8937 7.61303L11.8896 7.61603L11.8819 7.62162L11.8779 7.62454C11.8686 7.63132 11.8602 7.63742 11.8509 7.6442L11.8473 7.64687C11.8445 7.64884 11.8425 7.6503 11.8399 7.65245C11.8385 7.65331 11.8366 7.65477 11.8353 7.6558C11.833 7.65752 11.8306 7.65915 11.8283 7.66095C11.8267 7.66207 11.8248 7.66344 11.8232 7.66464C11.8209 7.66636 11.8188 7.66791 11.8166 7.66954C11.8147 7.67091 11.8129 7.6722 11.811 7.67366C11.8091 7.67504 11.8065 7.67701 11.8047 7.67839C11.8028 7.67976 11.801 7.68096 11.7992 7.68234C11.7969 7.68414 11.7949 7.6856 11.7926 7.68723C11.7904 7.68878 11.7882 7.6905 11.786 7.69204C11.7828 7.69453 11.7791 7.6972 11.7759 7.69969C11.7737 7.70123 11.7717 7.70278 11.7695 7.7045C11.7676 7.70587 11.7653 7.70759 11.7633 7.70896C11.7615 7.71042 11.7596 7.71188 11.7577 7.71317L11.7513 7.71798C11.7494 7.71935 11.7477 7.72064 11.7458 7.72202C11.744 7.72339 11.7413 7.72545 11.7393 7.72683C11.7374 7.72829 11.7353 7.72983 11.7335 7.73121L11.7276 7.73559C11.7255 7.73731 11.7232 7.73885 11.7211 7.7404C11.7193 7.74186 11.7173 7.74332 11.7155 7.74461C11.7128 7.74658 11.7103 7.74838 11.7077 7.75045C11.7046 7.75294 11.7021 7.75465 11.6988 7.75715C11.6967 7.75869 11.6946 7.76024 11.6925 7.76195C11.6902 7.76367 11.6887 7.76479 11.6865 7.76642L11.6805 7.77097C11.6786 7.77235 11.6764 7.77398 11.6746 7.77535C11.6727 7.77681 11.6704 7.77845 11.6686 7.77991C11.6667 7.78128 11.6645 7.783 11.6626 7.78437C11.6608 7.78583 11.6584 7.78763 11.6564 7.7891L11.6508 7.7933C11.6483 7.79511 11.6467 7.79631 11.6443 7.7982L11.6388 7.80232C11.6359 7.80455 11.6334 7.80636 11.6306 7.80859C11.6287 7.80997 11.626 7.81203 11.6242 7.8134L11.6156 7.82001C11.6142 7.82105 11.6118 7.82293 11.6104 7.82397C11.6081 7.82577 11.6062 7.82723 11.6037 7.82903C11.6019 7.83049 11.6002 7.83187 11.5983 7.83316C11.5959 7.83496 11.5941 7.83625 11.5917 7.83822C11.5899 7.8396 11.5878 7.84114 11.5861 7.8426C11.5839 7.84415 11.582 7.84561 11.5799 7.84733C11.578 7.8487 11.5761 7.85025 11.5742 7.85154C11.5721 7.85325 11.57 7.8548 11.5679 7.85643C11.5661 7.8578 11.5642 7.85935 11.5623 7.86064L11.5542 7.86691C11.553 7.86777 11.5518 7.86863 11.5506 7.86957C11.5466 7.87258 11.5433 7.87515 11.5393 7.87816C11.537 7.87996 11.5357 7.88099 11.5334 7.88271C11.5313 7.88426 11.5295 7.88572 11.5274 7.88726C11.5255 7.88872 11.5234 7.89027 11.5216 7.89173C11.5194 7.89328 11.5176 7.89474 11.5156 7.89645C11.5137 7.89783 11.5118 7.89937 11.51 7.90066C11.5078 7.90238 11.5054 7.90427 11.5033 7.90582C11.5015 7.90728 11.4999 7.90848 11.4981 7.90985L11.4915 7.91501C11.4896 7.91638 11.4879 7.91767 11.4861 7.91913C11.4834 7.9211 11.4809 7.92317 11.4782 7.92514C11.4768 7.92626 11.4759 7.92703 11.4744 7.92806C11.4707 7.93098 11.4665 7.93433 11.4628 7.93708C11.4614 7.9382 11.4606 7.93888 11.4592 7.93991C11.4566 7.94206 11.4536 7.94429 11.4511 7.94627C11.4493 7.94773 11.4481 7.9485 11.4463 7.94996C11.4438 7.95185 11.4418 7.95357 11.4393 7.95537C11.4375 7.95683 11.4359 7.95821 11.4339 7.95958C11.4319 7.9613 11.4293 7.96319 11.4272 7.96482C11.4258 7.96585 11.4238 7.9674 11.4225 7.96851C11.4198 7.97049 11.4172 7.97255 11.4146 7.9747C11.4132 7.97573 11.412 7.97667 11.4106 7.97779L11.4006 7.98561L11.3988 7.98698C11.3949 7.98999 11.3909 7.99325 11.3869 7.99625C11.386 7.99703 11.3852 7.99771 11.3843 7.9984C11.3812 8.00089 11.3781 8.0033 11.3748 8.00579C11.3734 8.0069 11.3728 8.00751 11.3714 8.00845C11.3685 8.01068 11.366 8.01266 11.3632 8.01498C11.3618 8.01609 11.3602 8.0173 11.3588 8.01841C11.3562 8.02039 11.354 8.02219 11.3513 8.02434C11.35 8.02537 11.3481 8.02692 11.3468 8.02795C11.3445 8.02984 11.342 8.03173 11.3397 8.03362C11.3378 8.03508 11.3368 8.03585 11.3349 8.03731C11.3321 8.03954 11.3291 8.04186 11.3262 8.04409C11.3248 8.04521 11.3246 8.04547 11.3233 8.04641C11.3193 8.04951 11.3154 8.05268 11.3114 8.05577L11.3095 8.05732C11.3062 8.05998 11.303 8.06247 11.2996 8.06514C11.2983 8.06617 11.2974 8.06694 11.296 8.06797C11.2931 8.07029 11.2905 8.07235 11.2878 8.07458C11.2864 8.0757 11.2849 8.07673 11.2837 8.07785C11.2811 8.07982 11.2784 8.08197 11.2758 8.08412C11.2745 8.08523 11.2732 8.08626 11.2718 8.08738C11.2689 8.08961 11.2667 8.0915 11.2637 8.09374C11.2624 8.09485 11.2612 8.09571 11.2598 8.09683C11.2568 8.09932 11.2534 8.1019 11.2503 8.10447C11.2498 8.10482 11.2487 8.10568 11.2483 8.10619C11.2442 8.10945 11.2405 8.11246 11.2363 8.11581L11.2351 8.11667C11.2314 8.11967 11.2281 8.12225 11.2245 8.12517C11.2236 8.12594 11.2223 8.12706 11.2214 8.12775C11.2185 8.13007 11.2155 8.13247 11.2126 8.13479C11.2118 8.13548 11.2101 8.13677 11.2092 8.13763C11.2063 8.13986 11.2035 8.14209 11.2007 8.14441C11.1993 8.14553 11.1984 8.14621 11.197 8.14733C11.1942 8.14956 11.1916 8.15171 11.1888 8.15403C11.1879 8.15472 11.1861 8.15618 11.1851 8.15695L11.176 8.16434C11.1751 8.16502 11.1742 8.16571 11.1734 8.16648C11.1657 8.17275 11.1575 8.17937 11.1497 8.18564L11.1468 8.18813L11.1382 8.19508L11.1341 8.19843C11.1312 8.20067 11.129 8.20256 11.1262 8.20479C11.1254 8.20556 11.1234 8.20711 11.1225 8.2078C11.1197 8.21011 11.117 8.21235 11.114 8.21475C11.1132 8.21544 11.1115 8.21673 11.1107 8.21759C11.1076 8.22008 11.1042 8.22283 11.1012 8.22532C11.1003 8.22609 11.1 8.22635 11.0992 8.22703C11.0911 8.23356 11.0829 8.24026 11.075 8.24679L11.0743 8.24739C11.0707 8.2504 11.067 8.25332 11.0634 8.25632C11.0626 8.25701 11.0616 8.25778 11.0608 8.25855L11.0515 8.2662L11.0487 8.26843C11.0457 8.27101 11.0425 8.27358 11.0395 8.27608C11.0386 8.27685 11.0378 8.27754 11.0369 8.27822C11.0333 8.28123 11.0299 8.28406 11.0263 8.28707L11.0252 8.28784C11.0131 8.2978 11.0012 8.30777 10.9892 8.31773L10.987 8.31953C10.9839 8.32211 10.9807 8.32495 10.9775 8.32744C10.9766 8.32812 10.9757 8.32898 10.9748 8.32967C10.9717 8.33225 10.9686 8.33482 10.9655 8.3374L10.9629 8.33963C10.9593 8.34264 10.9563 8.34513 10.9527 8.34813L10.9514 8.34925C10.9394 8.35921 10.9276 8.36918 10.9155 8.37923L10.9137 8.38077C10.9103 8.38361 10.907 8.38644 10.9037 8.38919C10.9033 8.38962 10.9019 8.39073 10.9015 8.39108C10.8984 8.39365 10.8949 8.39649 10.8919 8.39898C10.8915 8.39941 10.8898 8.40078 10.8894 8.40113C10.8858 8.40413 10.8827 8.4068 10.8791 8.40989L10.8778 8.41092C10.8658 8.42105 10.854 8.43119 10.8419 8.44124L10.8404 8.44261C10.8371 8.44544 10.8336 8.44845 10.8303 8.4512L10.8281 8.45309L10.8185 8.46125C10.8181 8.46168 10.8167 8.46279 10.8163 8.46314L10.8061 8.47173L10.8047 8.4731C10.7927 8.48315 10.7809 8.49346 10.769 8.50359L10.7679 8.50445C10.7645 8.50746 10.7609 8.51046 10.7573 8.51347L10.7555 8.51501C10.7521 8.51793 10.7489 8.5206 10.7457 8.52343L10.7434 8.52541C10.7398 8.5285 10.7368 8.53107 10.7333 8.53417L10.7319 8.53528C10.7164 8.54885 10.7001 8.56294 10.6845 8.57642C10.6841 8.57668 10.6837 8.57702 10.6834 8.57745C10.6798 8.58046 10.6764 8.58338 10.6729 8.58639L10.6711 8.5881C10.6677 8.59111 10.6642 8.59412 10.6606 8.59712L10.6596 8.59798C10.6556 8.60142 10.652 8.60459 10.648 8.60812L10.6479 8.6082C10.636 8.61859 10.6241 8.62899 10.612 8.63964C10.6116 8.63998 10.6121 8.63955 10.6117 8.63989C10.6079 8.64324 10.6044 8.64642 10.6006 8.6496L10.5991 8.65097C10.5957 8.65398 10.592 8.65724 10.5884 8.66033L10.5875 8.66111C10.5717 8.67519 10.5561 8.68885 10.5401 8.70302C10.5397 8.70336 10.5402 8.70293 10.5399 8.70328C10.5358 8.70689 10.5324 8.70989 10.5284 8.71341L10.5277 8.71401C10.5242 8.71711 10.52 8.7208 10.5165 8.72398L10.5158 8.72458C10.4962 8.7421 10.4766 8.75962 10.457 8.77714L10.456 8.77817C10.4523 8.78144 10.4487 8.7847 10.445 8.78805L10.4444 8.78848C10.4246 8.80626 10.4054 8.82369 10.3855 8.84156L10.3849 8.84216L10.3737 8.85229L10.3733 8.85264C10.3536 8.87067 10.3344 8.88811 10.3148 8.90606L10.3141 8.90666C10.3101 8.91027 10.3068 8.91336 10.3029 8.91697L10.3025 8.91731C10.2829 8.93535 10.2636 8.95321 10.244 8.97133C10.24 8.97494 10.2362 8.97846 10.2322 8.98215C10.2127 9.00028 10.1934 9.01831 10.174 9.03652L10.1737 9.03678L10.1622 9.04751L10.1621 9.0476C9.73099 9.45161 9.32002 9.87572 8.92924 10.3197L8.92881 10.3203C8.84438 10.4162 8.76098 10.5129 8.67879 10.6105L8.6787 10.6106C8.65465 10.6391 8.63086 10.6675 8.6069 10.6961L8.60682 10.6962C8.56585 10.7453 8.52531 10.7945 8.48503 10.8439L8.48468 10.8443C8.48133 10.8484 8.47816 10.8523 8.47481 10.8565L8.47472 10.8566C8.46132 10.8731 8.4481 10.8894 8.4347 10.9059L8.4341 10.9066C8.43083 10.9106 8.42774 10.9144 8.42456 10.9182L8.42413 10.9189C8.42078 10.923 8.41778 10.9268 8.41443 10.931H8.41434C8.40103 10.9477 8.38772 10.9643 8.37441 10.9809L8.37432 10.981L8.36479 10.9929L8.36375 10.994C8.36083 10.9977 8.35791 11.0014 8.35499 11.0051L8.35388 11.0064C8.34082 11.0228 8.32785 11.0393 8.31471 11.0557L8.31403 11.0565C8.31111 11.0602 8.30784 11.0643 8.30509 11.0679L8.30398 11.0693C8.30106 11.073 8.29831 11.0764 8.29547 11.0801L8.2941 11.0817C8.29109 11.0856 8.28783 11.0897 8.28474 11.0936L8.25519 11.1312L8.25494 11.1316C8.25184 11.1356 8.24867 11.1395 8.24566 11.1435L8.2448 11.1446C8.24188 11.1483 8.23913 11.1519 8.2363 11.1554C8.23578 11.156 8.23518 11.1566 8.23475 11.1573C8.23192 11.161 8.22891 11.1648 8.22616 11.1685L8.22548 11.1694C8.2156 11.1819 8.20615 11.1941 8.19636 11.2067L8.19567 11.2076C8.19275 11.2113 8.18975 11.2153 8.18683 11.219L8.18563 11.2205C8.1827 11.2242 8.18013 11.2276 8.17738 11.2313L8.17601 11.2331C8.17309 11.2368 8.17034 11.2404 8.1675 11.2441L8.16647 11.2453C8.15685 11.2577 8.14715 11.2705 8.13753 11.283C8.13452 11.2869 8.13134 11.2911 8.12834 11.2949C8.12765 11.296 8.12765 11.2958 8.12696 11.2967C8.1243 11.3002 8.12172 11.3035 8.11915 11.307C8.11838 11.3079 8.11777 11.3088 8.11717 11.3096C8.11451 11.313 8.11176 11.3167 8.1091 11.3201L8.10807 11.3215C8.09854 11.334 8.08883 11.3467 8.0793 11.3593L8.07921 11.3593C8.0762 11.3634 8.07303 11.3676 8.07002 11.3715L8.06899 11.3729C8.06616 11.3766 8.06358 11.38 8.06083 11.3837C8.06014 11.3846 8.0598 11.3849 8.05911 11.386L8.05121 11.3964L8.04984 11.3982C8.047 11.4019 8.04391 11.406 8.04108 11.4098L8.04048 11.4105C8.03086 11.4232 8.02158 11.4356 8.01196 11.4484L8.01136 11.4492L8.00277 11.4606L8.00157 11.4624C7.99873 11.4662 7.99607 11.4697 7.99332 11.4734L7.99221 11.4749C7.98937 11.4786 7.98628 11.4828 7.98345 11.4865L7.98285 11.4873C7.97649 11.4958 7.97031 11.5041 7.96404 11.5127L7.96361 11.5132C7.96069 11.5172 7.95794 11.521 7.95485 11.525L7.95339 11.527C7.95081 11.5304 7.94815 11.5339 7.94557 11.5375L7.94402 11.5397C7.94119 11.5434 7.93896 11.5464 7.93629 11.5501L7.93475 11.5522L7.92693 11.5627L7.92547 11.5647C7.9162 11.5773 7.90701 11.5899 7.89773 11.6025L7.8967 11.6039C7.89404 11.6076 7.89155 11.6109 7.8888 11.6147L7.88691 11.6173C7.88459 11.6205 7.88184 11.624 7.87952 11.6273L7.87781 11.6296C7.87531 11.6331 7.87257 11.6368 7.86999 11.6404L7.86879 11.6422C7.85977 11.6544 7.85024 11.6676 7.8413 11.68L7.8401 11.6817C7.83752 11.6853 7.83503 11.6887 7.83246 11.6922C7.83177 11.6932 7.83091 11.6943 7.83022 11.6952C7.8279 11.6984 7.82584 11.7012 7.82352 11.7045C7.82249 11.7059 7.82206 11.7065 7.82103 11.708C7.81889 11.7109 7.81648 11.7142 7.81433 11.7172L7.81219 11.7202C7.80935 11.7239 7.80669 11.7278 7.80403 11.7316L7.80334 11.7324C7.79733 11.7408 7.79106 11.7494 7.78513 11.7579L7.78393 11.7596C7.78135 11.7632 7.77869 11.7669 7.7762 11.7703L7.77431 11.773C7.77199 11.7762 7.7695 11.7797 7.76727 11.7829C7.76658 11.7838 7.76589 11.7847 7.76529 11.7858C7.76297 11.789 7.76048 11.7925 7.75816 11.7957L7.75627 11.7983L7.74786 11.8102L7.7476 11.8106C7.74133 11.8192 7.73549 11.8276 7.72922 11.8363L7.72819 11.8377C7.72553 11.8415 7.72312 11.8448 7.72046 11.8486L7.71848 11.8514C7.71625 11.8547 7.71393 11.858 7.71153 11.8613C7.71084 11.8622 7.71015 11.8632 7.70955 11.8643C7.70723 11.8675 7.70509 11.8705 7.70277 11.8738C7.70208 11.8748 7.70122 11.876 7.70053 11.8769C7.69804 11.8805 7.69547 11.884 7.69306 11.8876L7.69195 11.8893C7.68602 11.8978 7.68009 11.9063 7.67408 11.9148C7.67348 11.9156 7.67305 11.9162 7.67236 11.9171C7.67013 11.9204 7.66781 11.9237 7.66558 11.927C7.66489 11.928 7.66343 11.93 7.66274 11.9309C7.66077 11.9339 7.65871 11.9368 7.65656 11.9398C7.65587 11.9406 7.65476 11.9423 7.65407 11.9434C7.65192 11.9464 7.64986 11.9496 7.64771 11.9524C7.64703 11.9534 7.64591 11.9551 7.64522 11.956C7.6429 11.9593 7.64041 11.963 7.63809 11.9663C7.63758 11.9669 7.63715 11.9676 7.63672 11.9683L7.61868 11.9941C7.61576 11.9983 7.6131 12.0023 7.61018 12.0064L7.60821 12.0092C7.60597 12.0126 7.60383 12.0156 7.60159 12.0189L7.5991 12.0225L7.59283 12.0314C7.59206 12.0327 7.59129 12.0339 7.59034 12.0351C7.58819 12.0381 7.58579 12.0417 7.58373 12.0447C7.58304 12.0457 7.58227 12.0467 7.58175 12.0476C7.57583 12.0562 7.56999 12.0646 7.56423 12.0732L7.56389 12.0737C7.56123 12.0776 7.55831 12.0818 7.55564 12.0856C7.55504 12.0866 7.55444 12.0876 7.55375 12.0885C7.55161 12.0915 7.54929 12.0951 7.54714 12.0981C7.54637 12.0993 7.54559 12.1005 7.54465 12.1017C7.54267 12.1048 7.54061 12.1077 7.53847 12.1108L7.53589 12.1145C7.53374 12.1176 7.53151 12.1211 7.52936 12.1241C7.52867 12.1249 7.52799 12.126 7.52739 12.127C7.52489 12.1306 7.52249 12.1343 7.52 12.138L7.5188 12.1398C7.51296 12.1483 7.50737 12.1565 7.50153 12.1652C7.50085 12.1662 7.50016 12.1671 7.49964 12.1681L7.49286 12.1781C7.492 12.1796 7.49174 12.1798 7.49071 12.1812C7.48874 12.1842 7.48659 12.1875 7.48444 12.1905C7.48358 12.1919 7.4829 12.1928 7.48187 12.1942C7.47989 12.1973 7.47766 12.2006 7.4756 12.2038C7.47482 12.2048 7.47414 12.2058 7.47345 12.2069C7.47096 12.2105 7.46855 12.2142 7.46606 12.2177L7.46495 12.2194C7.46194 12.2239 7.45928 12.228 7.45619 12.2325C7.45584 12.2329 7.45627 12.2322 7.45593 12.2327C7.45309 12.2368 7.45069 12.2406 7.44785 12.2448C7.44682 12.2463 7.44614 12.2473 7.44528 12.2488C7.44339 12.2516 7.44124 12.2548 7.43935 12.2575C7.43849 12.259 7.43755 12.2602 7.43669 12.2617C7.4348 12.2645 7.43274 12.2676 7.43085 12.2704C7.42982 12.2718 7.42896 12.2733 7.42801 12.2746C7.42604 12.2776 7.42424 12.2802 7.42217 12.2833C7.42149 12.2843 7.42028 12.2863 7.4196 12.2873C7.41762 12.2904 7.41547 12.2934 7.41341 12.2965C7.41281 12.2975 7.4117 12.2991 7.41109 12.3001C7.40551 12.3084 7.40001 12.3167 7.39452 12.3251C7.39349 12.3265 7.39263 12.328 7.3916 12.3293C7.38979 12.3321 7.3879 12.3348 7.3861 12.3377C7.38507 12.3391 7.38395 12.341 7.38301 12.3424C7.38129 12.345 7.37957 12.3478 7.37786 12.3502L7.37459 12.3553C7.37287 12.3578 7.3709 12.3608 7.36935 12.3632C7.36798 12.3651 7.36755 12.366 7.36626 12.3679C7.36446 12.3707 7.36257 12.3735 7.36076 12.3763C7.35973 12.3778 7.35896 12.3792 7.35793 12.3805C7.35535 12.3845 7.35286 12.3882 7.35046 12.392L7.34926 12.3939C7.34668 12.3978 7.3441 12.4017 7.34161 12.4056C7.34058 12.407 7.33964 12.4086 7.33869 12.41C7.3368 12.4128 7.33526 12.4154 7.33328 12.4182L7.32993 12.4233L7.32512 12.4307L7.32151 12.4362C7.3198 12.4388 7.31842 12.441 7.31679 12.4436C7.31576 12.445 7.3143 12.4473 7.31335 12.4487C7.31181 12.4512 7.31001 12.454 7.30829 12.4565L7.30502 12.4616C7.30288 12.465 7.30064 12.4683 7.2985 12.4717L7.29695 12.4739C7.29429 12.4781 7.29171 12.4821 7.28888 12.4864C7.28767 12.4883 7.28733 12.4889 7.28596 12.4908C7.28415 12.4937 7.28252 12.4963 7.28072 12.4991L7.27737 12.5042C7.27582 12.5068 7.27428 12.509 7.27264 12.5116L7.26904 12.5171C7.26749 12.5197 7.26595 12.522 7.26423 12.5246L7.26096 12.5297C7.25907 12.5326 7.25761 12.5349 7.25581 12.5378C7.25478 12.5392 7.25366 12.5409 7.2528 12.5423C7.25066 12.5457 7.24903 12.5484 7.24679 12.5517C7.24619 12.5527 7.24533 12.554 7.24465 12.5551C7.24207 12.559 7.23941 12.5632 7.23692 12.5672C7.23571 12.5691 7.23442 12.5711 7.23322 12.573L7.22876 12.58L7.22506 12.5858C7.2236 12.588 7.22214 12.5904 7.22068 12.5926C7.21948 12.5946 7.21802 12.5967 7.21673 12.5988C7.21536 12.601 7.21407 12.603 7.21261 12.6053C7.21115 12.6076 7.21029 12.609 7.20883 12.6115L7.20462 12.6181C7.20342 12.6201 7.20205 12.6222 7.20067 12.6241C7.19913 12.6267 7.19766 12.6289 7.19612 12.6315L7.19277 12.6367C7.19028 12.6407 7.1877 12.6448 7.18513 12.6488C7.18392 12.6507 7.18246 12.6531 7.18117 12.655C7.17971 12.6573 7.17868 12.6591 7.17722 12.6613L7.17284 12.6681C7.17164 12.6701 7.17052 12.6719 7.16924 12.6738L7.16486 12.6807C7.16365 12.6826 7.16254 12.6845 7.16125 12.6866L7.15687 12.6933C7.15584 12.6951 7.15438 12.6974 7.15326 12.699C7.15206 12.701 7.15025 12.7039 7.14905 12.7058C7.14759 12.7081 7.14648 12.7098 7.1451 12.7121C7.1439 12.714 7.14227 12.7164 7.14107 12.7184C7.13935 12.7213 7.13737 12.7243 7.13565 12.7272C7.13351 12.7306 7.13162 12.7335 7.12947 12.7371C7.12827 12.7389 7.12698 12.741 7.12578 12.743C7.12457 12.7449 7.12277 12.7478 7.12157 12.7498C7.12037 12.7517 7.11925 12.7535 7.11796 12.7554C7.11642 12.7579 7.11496 12.7602 7.1135 12.7626C7.11238 12.7644 7.11126 12.7663 7.11015 12.768C7.10869 12.7705 7.10714 12.7728 7.10568 12.7753C7.10456 12.777 7.10353 12.7786 7.10259 12.7803L7.09769 12.7882C7.09692 12.7894 7.09615 12.7908 7.09537 12.7919C7.09357 12.7949 7.09194 12.7978 7.08996 12.8007L7.08893 12.8024C7.08532 12.8083 7.08189 12.8139 7.0782 12.8199L7.0751 12.825C7.07356 12.8275 7.0721 12.8299 7.07055 12.8324C7.06952 12.8341 7.06858 12.8357 7.06746 12.8375C7.066 12.8399 7.06437 12.8426 7.06274 12.8451C7.06171 12.8468 7.06076 12.8485 7.05964 12.8503C7.05818 12.8527 7.05664 12.8553 7.05509 12.8577C7.05406 12.8594 7.05312 12.8611 7.052 12.8628L7.04753 12.8703C7.04642 12.872 7.0453 12.8739 7.04427 12.8755C7.04272 12.878 7.04118 12.8807 7.03972 12.883C7.03912 12.8838 7.03852 12.8849 7.038 12.8858C7.03431 12.8917 7.03061 12.8979 7.02701 12.9037C7.02632 12.9049 7.02555 12.906 7.02486 12.9073C7.02331 12.9098 7.02194 12.912 7.02048 12.9144C7.01928 12.9164 7.01816 12.9181 7.01704 12.9201C7.0155 12.9226 7.01421 12.9246 7.01266 12.9271L7.00931 12.9327C7.00811 12.9347 7.00622 12.9379 7.00511 12.9398C7.0039 12.9417 7.00296 12.9433 7.00176 12.9453C7.00021 12.9478 6.99875 12.9504 6.9972 12.9528C6.99617 12.9545 6.99523 12.9561 6.9942 12.9579C6.99274 12.9604 6.99119 12.9629 6.98965 12.9653C6.98887 12.9668 6.98784 12.9684 6.98698 12.9698C6.98338 12.9757 6.9796 12.9821 6.97599 12.988L6.97513 12.9896C6.97333 12.9926 6.97152 12.9955 6.96972 12.9984L6.96749 13.0021L6.96259 13.0103C6.96156 13.0122 6.96079 13.0133 6.95976 13.0151C6.95795 13.018 6.95675 13.02 6.95495 13.023C6.95417 13.0243 6.95314 13.0261 6.95229 13.0275C6.95083 13.03 6.94894 13.033 6.94748 13.0356C6.94662 13.037 6.94567 13.0386 6.94481 13.0401C6.94301 13.043 6.94155 13.0455 6.93975 13.0485C6.93932 13.0493 6.93889 13.05 6.93837 13.0507C6.93219 13.0611 6.92643 13.0707 6.92025 13.0811C6.91948 13.0826 6.91879 13.0837 6.91793 13.0852L6.91303 13.0934C6.91226 13.0949 6.91123 13.0964 6.91037 13.0979C6.90891 13.1004 6.90728 13.1034 6.90582 13.1058L6.9029 13.1105L6.898 13.1189C6.89732 13.1201 6.89654 13.1214 6.89586 13.1225C6.89414 13.1255 6.89225 13.1285 6.89062 13.1315C6.8901 13.1323 6.88959 13.1332 6.88916 13.134C6.88263 13.1448 6.87628 13.1558 6.86992 13.1667L6.86923 13.1679C6.86708 13.1713 6.86554 13.174 6.86356 13.1775C6.86288 13.1787 6.86236 13.1795 6.86167 13.1807C6.85996 13.1838 6.85824 13.1868 6.85644 13.1897L6.85429 13.1934C6.85257 13.1964 6.85085 13.1993 6.84913 13.2022C6.84845 13.2034 6.84767 13.2047 6.84699 13.2058C6.84527 13.2088 6.84329 13.2124 6.84149 13.2154L6.84106 13.2161C6.83436 13.2276 6.82783 13.2388 6.82114 13.2503L6.82045 13.2515L6.81478 13.2614L6.81323 13.2641C6.81143 13.2671 6.80954 13.2706 6.80774 13.2736L6.80585 13.2769C6.80413 13.2799 6.80215 13.2832 6.80044 13.2862C6.80001 13.287 6.79923 13.2885 6.79863 13.2892C6.79666 13.2928 6.79528 13.2951 6.79322 13.2986C6.79254 13.2997 6.79219 13.3004 6.7915 13.3016C6.78309 13.316 6.77458 13.331 6.76625 13.3456L6.76488 13.3479C6.7629 13.3513 6.76119 13.3544 6.75921 13.3578C6.75878 13.3587 6.75835 13.3595 6.75784 13.3603C6.75612 13.3633 6.75389 13.3673 6.75217 13.3703L6.75079 13.3728C6.74882 13.3764 6.74684 13.3796 6.74487 13.3831L6.74427 13.3841C6.73542 13.3997 6.72657 13.4153 6.71773 13.431L6.7173 13.4318C6.71541 13.4352 6.71326 13.4389 6.71129 13.4425L6.71026 13.4444C6.70828 13.4479 6.70622 13.4516 6.70424 13.4551L6.70347 13.4565C6.70149 13.46 6.69926 13.464 6.69729 13.4675L6.69668 13.4684C6.68767 13.4845 6.67916 13.4997 6.67015 13.5158L6.67006 13.5161C6.66808 13.5197 6.66568 13.5239 6.66379 13.5275L6.66302 13.5287C6.66113 13.5323 6.65907 13.5358 6.65709 13.5394L6.65597 13.5414C6.654 13.545 6.65194 13.5487 6.64996 13.5522L6.6497 13.5526C6.63854 13.5729 6.62789 13.592 6.61681 13.6122L6.61621 13.6134L6.61002 13.6244L6.60934 13.6258L6.60315 13.6369L6.60255 13.6381C6.59173 13.6578 6.58082 13.6777 6.57009 13.6974L6.56966 13.6982C6.56742 13.7023 6.56571 13.7055 6.56347 13.7096L6.56279 13.7109C6.56064 13.715 6.55884 13.7182 6.55677 13.7223L6.55635 13.723C6.54535 13.7432 6.53487 13.7629 6.52388 13.7832L6.52379 13.7836C6.52156 13.7877 6.51967 13.7913 6.51744 13.7954L6.51709 13.7961C6.51495 13.8002 6.51306 13.8038 6.51083 13.8077L6.51057 13.8083C6.49751 13.8327 6.48506 13.8563 6.47209 13.8808L6.4714 13.8819C6.46926 13.8861 6.46745 13.8896 6.46522 13.8937V13.8938C6.45225 13.9183 6.43954 13.9427 6.42666 13.9674C6.42451 13.9715 6.42253 13.9753 6.42039 13.9795L6.42013 13.9799C5.6693 15.4235 5.1155 16.9614 4.77376 18.5523C4.56351 19.5422 5.19555 20.5151 6.1854 20.7252C7.1737 20.9352 8.14543 20.3054 8.35749 19.3176C9.28824 14.9922 12.2228 11.2351 16.2073 9.26713C17.1147 8.8188 17.4869 7.71978 17.0385 6.81239C16.7311 6.18635 16.0938 5.79067 15.3962 5.79102Z" fill="#EC697E"/>
<path d="M22.6886 37.077C30.7842 37.077 37.347 30.5142 37.347 22.4186C37.347 14.323 30.7842 7.76025 22.6886 7.76025C14.593 7.76025 8.03027 14.323 8.03027 22.4186C8.03027 30.5142 14.593 37.077 22.6886 37.077Z" fill="#F9D9DF"/>
<path d="M33.0538 32.7835L21.2361 20.9659C20.7302 20.4599 19.9098 20.4599 19.4039 20.9659C18.8979 21.4719 18.8979 22.2922 19.4039 22.7981L31.0531 34.4473C31.7677 33.9528 32.4373 33.3961 33.0538 32.7835Z" fill="#F1A9B7"/>
<path d="M22.6884 33.4124C28.76 33.4124 33.6819 28.4904 33.6819 22.4189C33.6819 16.3473 28.76 11.4253 22.6884 11.4253C16.6168 11.4253 11.6948 16.3473 11.6948 22.4189C11.6948 28.4904 16.6168 33.4124 22.6884 33.4124Z" fill="#E7455F"/>
<path d="M30.4623 14.6452L30.4546 14.6375L30.4517 14.6346L30.447 14.63C30.4418 14.6248 30.4369 14.6199 30.4316 14.6147L30.4301 14.6132C30.4249 14.6079 30.4192 14.6024 30.414 14.5972L30.4104 14.5938L30.4072 14.5905L30.3906 14.5741L30.39 14.5735C30.3858 14.5694 30.381 14.5647 30.3768 14.5605C29.6572 13.8611 28.5078 13.875 27.8053 14.5915C27.0985 15.3125 27.1037 16.468 27.8168 17.1826C27.8188 17.1846 27.8208 17.1865 27.8228 17.1885L27.8711 17.2363C30.7333 20.1 30.7321 24.7417 27.8684 27.6038C25.7584 29.7127 22.581 30.3327 19.8329 29.1717C19.8217 29.1669 19.8103 29.1622 19.799 29.1577C19.7898 29.1535 19.7806 29.1494 19.7713 29.1454L19.71 29.1185C18.7821 28.7124 17.7003 29.1316 17.2883 30.0569C16.8794 30.9734 17.2892 32.0478 18.2044 32.4594C18.2102 32.462 18.2159 32.4646 18.2217 32.4671L18.2224 32.4674C18.2532 32.4811 18.2839 32.4945 18.3148 32.5079L18.3155 32.5083C18.3216 32.5109 18.327 32.5133 18.3331 32.5158C18.3442 32.5206 18.3553 32.5252 18.3665 32.5297C18.3792 32.5354 18.3922 32.5411 18.4051 32.5466C19.006 32.8005 19.6283 33.0001 20.2647 33.1432L20.2654 33.1433C20.2976 33.1506 20.3297 33.1577 20.3621 33.1646C20.3944 33.1716 20.4266 33.1784 20.4589 33.1851L20.4598 33.1852C20.4811 33.1896 20.5027 33.194 20.524 33.1982H20.5241C20.5319 33.1998 20.5401 33.2014 20.5479 33.2029L20.5487 33.2031L20.5719 33.2077L20.5733 33.2079C20.5811 33.2095 20.5885 33.2109 20.5963 33.2124L20.5976 33.2126C20.6051 33.2141 20.6133 33.2157 20.6208 33.2171L20.622 33.2174C20.6295 33.2187 20.6378 33.2204 20.6452 33.2218L20.6464 33.222C20.6539 33.2234 20.6622 33.225 20.6696 33.2264L20.6708 33.2266C20.6786 33.2281 20.6865 33.2296 20.6943 33.2309L20.695 33.2311L20.7186 33.2354L20.7196 33.2356C20.7356 33.2385 20.7517 33.2413 20.7677 33.2442H20.768C20.7762 33.2456 20.7839 33.247 20.7921 33.2484L20.7926 33.2485C20.8008 33.2498 20.8082 33.2512 20.8163 33.2526L20.8175 33.2528C20.8226 33.2537 20.8274 33.2546 20.8325 33.2554L20.8332 33.2555L20.8408 33.2568L20.8423 33.257L20.8563 33.2594L20.8578 33.2596L20.8654 33.2608L20.8663 33.261C20.871 33.2618 20.8758 33.2625 20.8806 33.2634L20.8825 33.2637L20.89 33.265L20.8904 33.265L20.9054 33.2675L20.9069 33.2678C20.9144 33.269 20.9225 33.2703 20.9299 33.2715L20.9314 33.2717C20.9389 33.2729 20.9468 33.2742 20.9543 33.2753L20.9561 33.2756C20.9635 33.2768 20.971 33.278 20.9785 33.2791L20.9809 33.2795L21.0035 33.283L21.005 33.2832C21.0125 33.2844 21.0206 33.2857 21.0281 33.2868L21.0295 33.2869C21.037 33.2881 21.045 33.2893 21.0525 33.2905L21.0542 33.2907C21.0617 33.2918 21.0695 33.293 21.0771 33.2942L21.0789 33.2944C21.0867 33.2956 21.0939 33.2966 21.1018 33.2978L21.1033 33.298L21.1265 33.3014L21.1276 33.3015L21.1427 33.3037L21.1433 33.3038L21.151 33.3049L21.1521 33.3051C21.1573 33.3058 21.1624 33.3065 21.1674 33.3072L21.1678 33.3073L21.1755 33.3084L21.1769 33.3086C21.1817 33.3093 21.1867 33.31 21.1915 33.3106L21.1925 33.3107C21.2007 33.3118 21.2085 33.313 21.2167 33.314H21.2168C21.2246 33.315 21.232 33.3161 21.2398 33.3171L21.2421 33.3174L21.2494 33.3184H21.2496C21.2547 33.3191 21.2596 33.3197 21.2647 33.3203L21.2665 33.3206C21.274 33.3216 21.282 33.3226 21.2895 33.3236L21.291 33.3238L21.314 33.3267L21.3157 33.3269C21.3231 33.3278 21.331 33.3288 21.3385 33.3297L21.3406 33.33L21.363 33.3327L21.3654 33.333C21.373 33.3338 21.3801 33.3347 21.3876 33.3356L21.39 33.3359C21.3978 33.3368 21.4049 33.3376 21.4128 33.3386L21.4139 33.3387C21.4214 33.3396 21.4296 33.3405 21.437 33.3414L21.4392 33.3416C21.447 33.3425 21.4543 33.3434 21.4622 33.3442L21.463 33.3443L21.4788 33.346L21.4865 33.3469L21.488 33.3471C21.4927 33.3476 21.4975 33.3481 21.5022 33.3486L21.5037 33.3488C21.5064 33.3491 21.5086 33.3493 21.5113 33.3496L21.5121 33.3497L21.5275 33.3514L21.5281 33.3514L21.5359 33.3523L21.5369 33.3524C21.5417 33.3529 21.5466 33.3534 21.5514 33.3539L21.5531 33.3541L21.5607 33.3549H21.5609C21.566 33.3554 21.5709 33.3559 21.576 33.3564L21.5777 33.3566L21.5853 33.3574L21.5861 33.3575L21.6 33.3588L21.6029 33.3591L21.6099 33.3598L21.6107 33.3599C21.6152 33.3603 21.6204 33.3608 21.6249 33.3612L21.6276 33.3615L21.6345 33.3622L21.6365 33.3623L21.6494 33.3636L21.6523 33.3638C21.6598 33.3645 21.6669 33.3652 21.6744 33.3659L21.6769 33.3661C21.6845 33.3668 21.6915 33.3675 21.6991 33.3681L21.7017 33.3684L21.7241 33.3703L21.7261 33.3705C21.7336 33.3712 21.7411 33.3718 21.7487 33.3725L21.751 33.3727L21.7651 33.3739L21.7662 33.374L21.7734 33.3746L21.7758 33.3749C21.7803 33.3752 21.7855 33.3757 21.7899 33.3761L21.7909 33.3762L21.7981 33.3768L21.8007 33.377L21.815 33.3782H21.8155L21.8232 33.3788L21.8249 33.3788C21.8297 33.3793 21.834 33.3796 21.8388 33.38L21.8404 33.38L21.8478 33.3806L21.8499 33.3807C21.8547 33.3811 21.8585 33.3813 21.8634 33.3818L21.8654 33.3819L21.8727 33.3824L21.8744 33.3825L21.8879 33.3836L21.8902 33.3837L21.8973 33.3842L21.8994 33.3844C21.9038 33.3848 21.9085 33.3851 21.9129 33.3854L21.9147 33.3855C21.9223 33.3861 21.9298 33.3866 21.9374 33.3871L21.9396 33.3873C21.942 33.3874 21.9446 33.3876 21.947 33.3878H21.9471C21.9519 33.3881 21.957 33.3885 21.9617 33.3888L21.9645 33.389C21.9718 33.3895 21.9793 33.3899 21.9864 33.3904L21.9893 33.3906C21.9968 33.3911 22.0037 33.3916 22.0113 33.392L22.014 33.3922C22.0212 33.3926 22.0286 33.3931 22.0358 33.3934L22.0389 33.3936C22.0465 33.394 22.0531 33.3945 22.0606 33.3949L22.0637 33.3951C22.0709 33.3955 22.0783 33.3959 22.0856 33.3963L22.0884 33.3964C22.0956 33.3968 22.1033 33.3972 22.1105 33.3976L22.1129 33.3977C22.1177 33.398 22.1216 33.3982 22.1264 33.3984L22.1282 33.3985L22.1351 33.3988L22.138 33.399L22.1499 33.3996L22.1532 33.3998L22.1595 33.4001L22.1633 33.4002L22.1754 33.4008L22.1778 33.4009L22.1848 33.4013L22.1873 33.4013L22.2 33.4019L22.2026 33.402L22.2095 33.4023L22.2122 33.4024L22.2244 33.4029L22.2275 33.403L22.2342 33.4032L22.2369 33.4033C22.241 33.4035 22.2456 33.4037 22.2497 33.4038L22.2521 33.4039L22.2592 33.4042L22.2612 33.4043L22.2745 33.4048L22.277 33.4049L22.2842 33.4051H22.2853C22.2901 33.4053 22.2948 33.4055 22.2996 33.4056L22.3016 33.4057C22.3091 33.406 22.3169 33.4062 22.3244 33.4065L22.3264 33.4066C22.3339 33.4068 22.3415 33.4071 22.3491 33.4073L22.3513 33.4074C22.3589 33.4076 22.3661 33.4078 22.3736 33.408L22.3763 33.4081C22.3838 33.4084 22.3906 33.4086 22.3982 33.4087L22.4012 33.4088C22.4084 33.409 22.4155 33.4092 22.4227 33.4093L22.4264 33.4094L22.4391 33.4097H22.4409C22.4433 33.4098 22.4453 33.4098 22.4477 33.4098L22.451 33.4099C22.4555 33.41 22.4598 33.4101 22.4642 33.4102H22.4655L22.4726 33.4104L22.4757 33.4104C22.4795 33.4105 22.4838 33.4106 22.4876 33.4107H22.4907L22.4976 33.4109H22.5L22.5141 33.4111H22.5151L22.5225 33.4112H22.525L22.5374 33.4114H22.5402L22.547 33.4115L22.5506 33.4116L22.5619 33.4116H22.5651L22.5719 33.4117H22.5747L22.5868 33.4118H22.5901L22.5969 33.4119H22.5992C22.6033 33.4119 22.6076 33.412 22.6117 33.412H22.6147H22.6216H22.6243C22.6284 33.412 22.6322 33.4121 22.6364 33.4121H22.6397H22.6466H22.6479C22.6523 33.4121 22.6567 33.4121 22.6611 33.4122H22.6644H22.6712H22.696C22.6966 33.4122 22.697 33.4122 22.6975 33.4122C22.7023 33.4122 22.7063 33.4122 22.711 33.4122H22.7138C22.7214 33.4122 22.7283 33.4121 22.7358 33.4121H22.7388C22.7429 33.4121 22.7478 33.4121 22.752 33.412H22.7539L22.7605 33.4119H22.7638C22.7683 33.4119 22.7727 33.4118 22.7771 33.4118C22.7776 33.4118 22.7781 33.4118 22.7786 33.4118L22.7851 33.4117H22.7889C22.7927 33.4117 22.7965 33.4116 22.8003 33.4116H22.8036L22.81 33.4116H22.8136L22.8249 33.4114C22.8259 33.4114 22.8274 33.4114 22.8284 33.4114L22.8348 33.4113H22.8384L22.8498 33.4111L22.8533 33.411L22.8599 33.411H22.8629L22.8754 33.4107L22.8779 33.4106L22.8846 33.4105L22.8879 33.4104L22.8999 33.4102H22.9027L22.9097 33.41H22.9117C22.9162 33.4099 22.9205 33.4098 22.9249 33.4098L22.9274 33.4097L22.9344 33.4095H22.9369C22.941 33.4094 22.9448 33.4093 22.9489 33.4092L22.9527 33.4092L22.9593 33.409L22.9614 33.4089C22.9656 33.4088 22.9702 33.4086 22.9744 33.4086L22.9773 33.4085C22.9797 33.4084 22.9818 33.4083 22.9842 33.4083L22.9865 33.4082C22.9906 33.4081 22.9949 33.408 22.9991 33.4079L23.0022 33.4078C23.0098 33.4075 23.0166 33.4074 23.0241 33.4071L23.0269 33.407C23.0344 33.4068 23.0413 33.4066 23.0489 33.4063L23.0519 33.4062C23.0594 33.406 23.0664 33.4057 23.0739 33.4055L23.0765 33.4054L23.0988 33.4046L23.1011 33.4045C23.109 33.4043 23.1162 33.4039 23.1241 33.4037L23.1253 33.4036C23.1329 33.4033 23.1407 33.403 23.1482 33.4026L23.1512 33.4025C23.1556 33.4023 23.16 33.4021 23.1645 33.4019L23.166 33.4019L23.1731 33.4015L23.1758 33.4014C23.1799 33.4013 23.1846 33.4011 23.1887 33.4008L23.1908 33.4007L23.1978 33.4004L23.2007 33.4002C23.2045 33.4001 23.2086 33.3999 23.2124 33.3997L23.2159 33.3995L23.2224 33.3992L23.2258 33.399L23.2375 33.3984L23.2406 33.3982L23.2473 33.3979L23.2504 33.3977L23.2626 33.3971L23.2651 33.397L23.2723 33.3966L23.2742 33.3965C23.2784 33.3963 23.2831 33.3961 23.2872 33.3958L23.29 33.3957L23.2972 33.3953L23.2983 33.3952L23.3123 33.3945L23.3146 33.3943L23.3369 33.393L23.3395 33.3928L23.3466 33.3924L23.3475 33.3923L23.3616 33.3915L23.3643 33.3913C23.3719 33.3909 23.3788 33.3904 23.3864 33.3899L23.3892 33.3897C23.3967 33.3892 23.4036 33.3888 23.4111 33.3883L23.4141 33.3881C23.4216 33.3876 23.4283 33.3872 23.4359 33.3867L23.439 33.3865L23.4537 33.3855L23.4605 33.3849L23.4638 33.3847C23.4679 33.3843 23.4723 33.3841 23.4763 33.3837L23.4786 33.3836L23.4854 33.383L23.4884 33.3828C23.4928 33.3824 23.498 33.3821 23.5024 33.3818H23.503L23.5104 33.3812L23.5126 33.3811C23.5177 33.3806 23.5221 33.3803 23.5273 33.38H23.5278L23.5354 33.3794L23.5372 33.3792L23.5512 33.3782L23.5527 33.378L23.5601 33.3774L23.562 33.3772L23.5755 33.3761L23.5776 33.3759L23.5848 33.3753L23.5867 33.3751L23.6001 33.374L23.6024 33.3739L23.6095 33.3733L23.6119 33.373C23.6161 33.3727 23.6207 33.3722 23.6249 33.372L23.6272 33.3718L23.6346 33.3712L23.6356 33.3711C23.6401 33.3707 23.6448 33.3703 23.6493 33.3699L23.6523 33.3696L23.6593 33.369L23.6609 33.3689C23.6654 33.3685 23.6694 33.3681 23.6739 33.3678L23.6773 33.3674L23.684 33.3668L23.6854 33.3667L23.6987 33.3655L23.702 33.3653L23.7087 33.3647L23.7099 33.3646L23.7236 33.3633L23.7269 33.3629L23.7393 33.3617L23.7417 33.3615L23.7479 33.3609L23.7519 33.3605L23.7727 33.3585L23.7767 33.3581L23.7896 33.3568L23.791 33.3566L23.7978 33.3559L23.801 33.3556C23.8082 33.3549 23.8153 33.3541 23.8225 33.3533L23.8257 33.353L23.8381 33.3517L23.8405 33.3514L23.8473 33.3508L23.8505 33.3504L23.8626 33.3491L23.8652 33.3489L23.8719 33.3481L23.8754 33.3477L23.8871 33.3465L23.89 33.3462L23.8969 33.3454L23.8997 33.3452C23.9041 33.3447 23.9086 33.3441 23.9131 33.3437L23.9144 33.3436L23.922 33.3428L23.9234 33.3426L23.9368 33.3411L23.9394 33.3409C23.9418 33.3406 23.9442 33.3404 23.9466 33.34L23.948 33.3398L23.9618 33.3382L23.964 33.338L23.9711 33.3372L23.9738 33.3368L23.9857 33.3355L23.9892 33.335L23.9958 33.3343L23.9995 33.3338C24.0032 33.3333 24.0066 33.333 24.0104 33.3325L24.0137 33.3321L24.0206 33.3313L24.0221 33.3311C24.0265 33.3306 24.0307 33.3301 24.0352 33.3295L24.0385 33.329C24.0457 33.3282 24.0529 33.3272 24.06 33.3264L24.0631 33.3259C24.0703 33.3251 24.0775 33.3241 24.0847 33.3232L24.0877 33.3228C24.0951 33.3218 24.102 33.3209 24.1096 33.3199L24.1122 33.3196C24.1193 33.3186 24.1266 33.3177 24.1338 33.3167L24.1374 33.3162L24.1507 33.3144L24.1519 33.3143L24.159 33.3132L24.1614 33.313C24.1664 33.3123 24.1708 33.3117 24.1759 33.311L24.1764 33.3109L24.1834 33.31L24.1864 33.3095L24.1986 33.3079L24.2014 33.3075L24.2082 33.3065L24.2109 33.3061L24.2231 33.3044L24.226 33.304L24.2325 33.3031L24.236 33.3026C24.2398 33.3021 24.2435 33.3015 24.2472 33.301L24.2507 33.3005L24.2571 33.2996L24.2607 33.299C24.2642 33.2985 24.2683 33.2979 24.2717 33.2975L24.2753 33.297L24.2818 33.296L24.285 33.2955C24.2892 33.2949 24.2926 33.2944 24.2966 33.2938L24.2999 33.2933L24.3067 33.2923L24.3083 33.292C24.3131 33.2913 24.3172 33.2906 24.322 33.2899L24.3242 33.2896L24.3312 33.2886L24.3337 33.2882C24.3378 33.2876 24.3421 33.2869 24.3462 33.2863L24.3489 33.2859C24.3561 33.2849 24.3637 33.2837 24.3708 33.2826L24.3736 33.2821L24.3805 33.281L24.3821 33.2808C24.3861 33.2802 24.3906 33.2795 24.3946 33.2788L24.3988 33.2782L24.405 33.2771H24.4052L24.4197 33.2748L24.4229 33.2743C24.4297 33.2732 24.4373 33.272 24.4441 33.271L24.4476 33.2704C24.4517 33.2697 24.4562 33.269 24.4603 33.2683L24.4621 33.268L24.4686 33.2669L24.4724 33.2663L24.4843 33.2644L24.4866 33.264L24.4932 33.2629L24.4967 33.2623L24.5099 33.2601L24.511 33.2599L24.5181 33.2587L24.5211 33.2582L24.5322 33.2563L24.5358 33.2557L24.5424 33.2546L24.5457 33.254C24.5497 33.2534 24.5533 33.2528 24.5574 33.2521L24.5604 33.2516L24.5671 33.2504L24.5701 33.2498L24.582 33.2478L24.5849 33.2473L24.5914 33.2461L24.5952 33.2455L24.6067 33.2435L24.6093 33.243C24.6117 33.2426 24.6141 33.2422 24.6165 33.2418L24.6181 33.2414C24.6225 33.2406 24.627 33.2399 24.6315 33.239L24.6337 33.2386L24.6409 33.2373L24.6432 33.2369C24.6472 33.2361 24.651 33.2355 24.6551 33.2347L24.6587 33.2341L24.6654 33.2329L24.6667 33.2327C24.6714 33.2318 24.6757 33.231 24.6805 33.2302L24.6828 33.2297L24.6899 33.2284L24.6911 33.2282L24.7048 33.2257L24.7073 33.2252C24.7145 33.2239 24.7219 33.2224 24.729 33.2211L24.7321 33.2205C24.7392 33.2193 24.7462 33.2179 24.7533 33.2165L24.7568 33.2158C24.7635 33.2145 24.771 33.2131 24.7777 33.2118L24.7815 33.2111L24.7907 33.2093L24.7959 33.2083L24.8021 33.2071L24.8059 33.2063C24.8096 33.2056 24.8129 33.2049 24.8167 33.2042L24.8205 33.2035L24.8266 33.2023L24.8307 33.2015L24.8405 33.1995L24.845 33.1986L24.851 33.1974L24.8552 33.1966L24.8656 33.1945L24.8695 33.1938L24.8758 33.1925L24.8794 33.1918C24.8834 33.191 24.8869 33.1902 24.891 33.1895L24.8938 33.1889L24.9004 33.1876L24.9035 33.187C24.9076 33.1861 24.9112 33.1854 24.9152 33.1846L24.9184 33.1839L24.925 33.1825L24.9277 33.1819L24.9399 33.1794L24.9428 33.1788L24.9494 33.1774L24.9524 33.1768C24.9564 33.176 24.9602 33.1752 24.9642 33.1743L24.9672 33.1737L24.9738 33.1724L24.9769 33.1717C24.9809 33.1708 24.9844 33.17 24.9885 33.1692L24.9915 33.1686C24.9939 33.1681 24.996 33.1676 24.9984 33.1671L25.0001 33.1668L25.0129 33.164L25.016 33.1633L25.0226 33.1619L25.0255 33.1613C25.0292 33.1605 25.033 33.1597 25.0367 33.1588L25.0408 33.1579L25.0467 33.1566L25.051 33.1557L25.0612 33.1535L25.0649 33.1527L25.0713 33.1512L25.0721 33.1511C25.0765 33.15 25.0813 33.149 25.0857 33.1481L25.0893 33.1473C25.096 33.1458 25.1034 33.1441 25.1102 33.1426L25.1137 33.1419C25.1207 33.1403 25.1275 33.1388 25.1346 33.1372L25.138 33.1364L25.1499 33.1336L25.1524 33.1331L25.1588 33.1317L25.1626 33.1308L25.1727 33.1285L25.177 33.1274L25.1831 33.1261L25.1869 33.1252L25.1986 33.1225L25.201 33.122L25.2076 33.1204L25.211 33.1196L25.2227 33.1169L25.2254 33.1162L25.232 33.1146L25.2356 33.1138L25.2459 33.1114L25.25 33.1104L25.2563 33.1089L25.2601 33.108C25.2635 33.1072 25.2669 33.1063 25.2703 33.1055L25.2745 33.1045C25.2764 33.104 25.2787 33.1035 25.2807 33.103L25.2841 33.1022L25.2952 33.0995L25.2985 33.0988L25.3049 33.0972L25.3091 33.0962C25.3124 33.0954 25.3156 33.0946 25.319 33.0938L25.323 33.0928L25.3292 33.0913L25.3331 33.0903C25.3368 33.0895 25.3399 33.0887 25.3436 33.0878L25.347 33.0869L25.3537 33.0853L25.3561 33.0847L25.3678 33.0818L25.3715 33.0808L25.378 33.0792L25.3792 33.0789C25.3835 33.0778 25.3883 33.0767 25.3926 33.0756L25.3954 33.0749L25.4023 33.0732L25.4027 33.0731L25.4164 33.0696L25.4201 33.0686L25.4319 33.0656L25.4345 33.0649L25.4405 33.0634L25.4443 33.0624L25.4583 33.0588H25.4584L25.4647 33.0572L25.4684 33.0562L25.4812 33.0529L25.4826 33.0526L25.4893 33.0508L25.4921 33.0501L25.5063 33.0464L25.5065 33.0463L25.5133 33.0445L25.5164 33.0436C25.5201 33.0427 25.524 33.0416 25.5277 33.0406L25.5311 33.0397L25.5374 33.038L25.5407 33.0372L25.5519 33.0342L25.5552 33.0332L25.5611 33.0317L25.5659 33.0304L25.5752 33.0278L25.5794 33.0267L25.5857 33.025L25.589 33.024L25.6002 33.021L25.6034 33.0202C25.6054 33.0196 25.6079 33.019 25.6099 33.0185L25.6131 33.0175L25.6237 33.0146L25.6279 33.0134L25.6339 33.0118L25.6373 33.0108C25.6407 33.0099 25.6447 33.0087 25.6481 33.0078L25.6519 33.0068L25.6578 33.0051L25.6624 33.0039L25.672 33.0012L25.6761 33.0001C25.678 32.9996 25.6801 32.999 25.6821 32.9984L25.6866 32.9971C25.6896 32.9962 25.6931 32.9953 25.6961 32.9944L25.7003 32.9932L25.7061 32.9915L25.7113 32.99L25.7199 32.9876L25.7249 32.9862L25.7303 32.9846L25.7366 32.9828L25.7442 32.9807L25.7489 32.9793L25.7541 32.9778L25.7627 32.9753L25.7681 32.9738L25.773 32.9723L25.7784 32.9708L25.7868 32.9683L25.7923 32.9667L25.7969 32.9653L25.8027 32.9636L25.8107 32.9613L25.8162 32.9596L25.8211 32.9582L25.8292 32.9558L25.8347 32.9541L25.8406 32.9524L25.8448 32.9511L25.8544 32.9483L25.8587 32.947L25.8648 32.9451L25.8686 32.944L25.8794 32.9407L25.8825 32.9398L25.8891 32.9378L25.8921 32.9369C25.896 32.9357 25.9002 32.9345 25.9041 32.9332L25.9063 32.9325L25.9129 32.9305L25.9163 32.9295C25.9202 32.9283 25.9234 32.9273 25.9274 32.926L25.9305 32.9251L25.9368 32.9231L25.9406 32.9219L25.9508 32.9187L25.9545 32.9176L25.9608 32.9156L25.9646 32.9144C25.9678 32.9134 25.9715 32.9123 25.9748 32.9113L25.9786 32.9101L25.9849 32.9081L25.9877 32.9072L25.9988 32.9037L26.0027 32.9025L26.0085 32.9007L26.0134 32.8992L26.0227 32.8962L26.0265 32.895L26.0328 32.8931L26.0365 32.8919L26.0464 32.8887L26.0506 32.8874L26.0567 32.8854L26.0601 32.8844L26.0705 32.881L26.0746 32.8797L26.0806 32.8777L26.0822 32.8772L26.0946 32.8731L26.0983 32.8719C26.1049 32.8698 26.1117 32.8676 26.1183 32.8654L26.1223 32.8641L26.1314 32.8611L26.1363 32.8595L26.1422 32.8576L26.1461 32.8563L26.156 32.853L26.16 32.8517L26.166 32.8497L26.17 32.8484C26.1736 32.8472 26.1766 32.8462 26.1802 32.845L26.1839 32.8438L26.1898 32.8418L26.1939 32.8404C26.1969 32.8394 26.2005 32.8382 26.2034 32.8372L26.2077 32.8358L26.2137 32.8338L26.2175 32.8325C26.2211 32.8313 26.2242 32.8303 26.2278 32.8291L26.2317 32.8278L26.2377 32.8257L26.2414 32.8245C26.2446 32.8234 26.2486 32.822 26.2519 32.8209L26.2553 32.8197L26.2614 32.8177L26.2651 32.8164L26.2757 32.8127L26.279 32.8116L26.2853 32.8094L26.289 32.8081C26.2923 32.807 26.2957 32.8058 26.299 32.8047L26.303 32.8033L26.3089 32.8012L26.3134 32.7997L26.3222 32.7967L26.3272 32.795L26.3325 32.7931L26.3375 32.7914L26.3463 32.7883L26.3505 32.7868L26.3564 32.7848L26.3599 32.7835L26.3706 32.7797L26.3741 32.7785L26.3802 32.7763L26.3849 32.7746L26.3939 32.7714L26.398 32.7699L26.4039 32.7677L26.4069 32.7666L26.4177 32.7628L26.4217 32.7613L26.4275 32.7592L26.4355 32.7563L26.4412 32.7543L26.4454 32.7527L26.4511 32.7507C26.4539 32.7496 26.4564 32.7488 26.459 32.7477L26.4652 32.7455L26.4689 32.7441L26.4786 32.7406L26.4829 32.7391L26.4888 32.7369L26.4928 32.7355C26.496 32.7343 26.4989 32.7332 26.5021 32.732L26.5065 32.7304L26.5122 32.7283L26.5168 32.7266C26.5197 32.7255 26.5227 32.7245 26.5256 32.7233L26.5301 32.7216L26.5361 32.7194L26.5401 32.7179L26.5493 32.7145L26.5538 32.7128L26.5597 32.7106L26.5641 32.7089L26.5723 32.7058L26.5778 32.7038L26.5833 32.7017L26.5879 32.7L26.5966 32.6967L26.6012 32.695L26.6067 32.6929L26.6117 32.691L26.6202 32.6877L26.6249 32.686L26.6304 32.6838L26.6354 32.6819L26.6438 32.6788L26.6482 32.6771L26.654 32.6748L26.6585 32.673C26.6615 32.6719 26.6643 32.6708 26.6672 32.6697L26.6719 32.6678L26.6774 32.6656L26.6832 32.6634C26.6858 32.6624 26.6883 32.6614 26.6908 32.6604L26.6954 32.6586L26.7008 32.6564L26.7074 32.6539L26.7143 32.6511L26.7189 32.6493L26.7244 32.6472L26.7327 32.6439L26.738 32.6418L26.7422 32.6401L26.7479 32.6379L26.7561 32.6346L26.7611 32.6327L26.7662 32.6306L26.7713 32.6285C26.7742 32.6273 26.7766 32.6264 26.7795 32.6253L26.7848 32.6232L26.7894 32.6213L26.7947 32.6193L26.803 32.6159L26.808 32.6138L26.8134 32.6117L26.819 32.6095L26.8266 32.6064L26.8315 32.6044L26.8365 32.6024L26.8441 32.5993L26.8498 32.597L26.8549 32.5949L26.8601 32.5928L26.8674 32.5898L26.8732 32.5874L26.8783 32.5852L26.8833 32.5832C26.8859 32.5821 26.8889 32.5809 26.8915 32.5798L26.8963 32.5779L26.9019 32.5755L26.9062 32.5737L26.9153 32.57L26.9197 32.5681L26.9252 32.5657L26.9295 32.5639C26.9328 32.5626 26.9353 32.5614 26.9385 32.5602L26.943 32.5583L26.9482 32.556L26.9539 32.5536L26.9614 32.5505L26.9664 32.5483L26.9716 32.5462L26.9771 32.5438L26.9851 32.5405L26.9894 32.5387L26.995 32.5363L26.9999 32.5341C27.0025 32.5331 27.0054 32.5318 27.008 32.5307L27.0129 32.5286C27.0145 32.528 27.0165 32.5271 27.0181 32.5264L27.0232 32.5243L27.0317 32.5207L27.0359 32.5189L27.0412 32.5165L27.0482 32.5135L27.0547 32.5107L27.0592 32.5087L27.0646 32.5064L27.0727 32.5029L27.0777 32.5006L27.0826 32.4985L27.0875 32.4963L27.0959 32.4927L27.1009 32.4905L27.1059 32.4884L27.1119 32.4857L27.119 32.4826L27.1246 32.4801L27.1288 32.4782L27.1358 32.4751L27.1421 32.4724L27.1475 32.47L27.1521 32.4679L27.1596 32.4646L27.1653 32.462L27.1707 32.4596L27.1752 32.4575L27.1827 32.4542L27.1885 32.4516L27.1935 32.4493L27.1988 32.4469L27.2062 32.4435L27.2114 32.4412L27.2169 32.4387L27.2217 32.4366L27.2293 32.4331L27.2347 32.4307L27.2397 32.4284L27.2451 32.426L27.2524 32.4227L27.2579 32.4202L27.2628 32.4179L27.2686 32.4154L27.2755 32.4122L27.281 32.4097L27.2858 32.4075L27.2924 32.4044L27.2987 32.4015L27.3041 32.399L27.309 32.3968C27.3119 32.3955 27.3146 32.3942 27.3175 32.3929L27.3214 32.3911L27.3272 32.3883L27.3319 32.3862C27.3346 32.385 27.3376 32.3834 27.3403 32.3822L27.3447 32.3801L27.3502 32.3776L27.3551 32.3752C27.3577 32.374 27.3606 32.3727 27.3632 32.3714L27.3679 32.3692L27.3732 32.3667L27.3778 32.3645L27.3862 32.3606L27.3911 32.3582L27.3957 32.356L27.401 32.3534C27.4037 32.3522 27.4063 32.3509 27.4089 32.3497L27.4141 32.3472L27.4187 32.3449L27.4238 32.3425L27.432 32.3386L27.4367 32.3363L27.4421 32.3338L27.4474 32.3313C27.4498 32.3301 27.4526 32.3288 27.455 32.3277L27.4599 32.3253L27.4649 32.3228L27.4707 32.32L27.4778 32.3166L27.4827 32.3142L27.4877 32.3117C27.4899 32.3107 27.4922 32.3095 27.4944 32.3084L27.5007 32.3053L27.5054 32.3031L27.5111 32.3004L27.5172 32.2973L27.5237 32.2943L27.5282 32.292L27.5339 32.2893L27.5406 32.286L27.5464 32.2831L27.5511 32.2808L27.5573 32.2777L27.5632 32.2748L27.5691 32.2718L27.5739 32.2694L27.5792 32.2668L27.5867 32.263L27.5918 32.2605L27.5967 32.2581L27.6022 32.2553C27.6047 32.2541 27.6072 32.2529 27.6097 32.2516L27.6145 32.2493L27.6194 32.2468L27.625 32.2439C27.6275 32.2426 27.63 32.2414 27.6325 32.2401L27.6372 32.2377L27.6422 32.2353L27.6483 32.2322L27.6553 32.2286L27.6597 32.2263L27.665 32.2237L27.6722 32.22L27.6778 32.2171L27.6829 32.2146L27.6876 32.2121C27.6905 32.2107 27.6928 32.2095 27.6956 32.208L27.7008 32.2054L27.7052 32.203L27.7103 32.2005L27.7182 32.1964L27.7234 32.1938L27.7282 32.1913L27.733 32.1888L27.7411 32.1846L27.7459 32.1821L27.751 32.1794L27.7555 32.1771C27.7581 32.1757 27.761 32.1742 27.7636 32.1729L27.7685 32.1703L27.7736 32.1677L27.7793 32.1647L27.7864 32.161L27.791 32.1586L27.7968 32.1555L27.8005 32.1536L27.809 32.1491L27.8136 32.1466L27.8192 32.1437L27.825 32.1406L27.8315 32.1372L27.8363 32.1346L27.8415 32.1318L27.8485 32.1281L27.8539 32.1253L27.8588 32.1227L27.8642 32.1197L27.8713 32.116L27.8765 32.1132L27.8815 32.1105L27.8871 32.1075L27.8936 32.1041L27.899 32.1012L27.9037 32.0986L27.9102 32.0952L27.9158 32.0922L27.9218 32.0889L27.9262 32.0865L27.933 32.0828L27.9389 32.0795L27.9439 32.0769L27.9487 32.0743L27.9562 32.0702L27.9611 32.0675L27.9667 32.0645L27.9711 32.0621L27.9796 32.0575L27.9836 32.0552C27.9855 32.0542 27.9872 32.0533 27.9891 32.0522L27.9936 32.0498L28.0019 32.0452L28.006 32.0429L28.0118 32.0398L28.016 32.0375L28.0244 32.0328L28.0284 32.0306L28.0343 32.0273L28.0382 32.0251C28.0411 32.0235 28.0439 32.0219 28.0467 32.0204L28.0509 32.018L28.0567 32.0148L28.0606 32.0126L28.0691 32.0078L28.0733 32.0055L28.0788 32.0023L28.0831 32L28.0914 31.9953L28.0956 31.993L28.1014 31.9897L28.1069 31.9865L28.1136 31.9827L28.1183 31.9802L28.1233 31.9772L28.1294 31.9738L28.136 31.97L28.1403 31.9676L28.1463 31.9642L28.1514 31.9613L28.1584 31.9572L28.1624 31.9549L28.1685 31.9514L28.1743 31.948L28.1805 31.9445L28.1846 31.9421L28.1913 31.9383L28.1965 31.9352L28.2027 31.9316L28.2068 31.9292L28.2139 31.9251L28.2188 31.9223L28.2249 31.9188L28.229 31.9164C28.2316 31.9149 28.234 31.9134 28.2366 31.9119L28.2409 31.9094L28.2474 31.9056L28.2511 31.9035L28.2597 31.8984L28.2631 31.8964L28.2697 31.8926L28.273 31.8906L28.2819 31.8853L28.2852 31.8834L28.2917 31.8795L28.2954 31.8774C28.2981 31.8757 28.3011 31.8739 28.304 31.8723L28.3077 31.8701L28.3138 31.8665L28.3174 31.8643L28.3261 31.8591L28.3296 31.8571L28.3363 31.8531L28.3395 31.8512L28.3482 31.8459L28.3519 31.8437L28.3582 31.8399L28.3615 31.8379L28.3701 31.8327L28.374 31.8304L28.3803 31.8266L28.3836 31.8246L28.3923 31.8194L28.3959 31.8172L28.4024 31.8132L28.4056 31.8113C28.4086 31.8095 28.4112 31.8079 28.4142 31.8061L28.4178 31.8038C28.4202 31.8024 28.4221 31.8012 28.4245 31.7997L28.428 31.7976L28.436 31.7926L28.4399 31.7902L28.4465 31.7861L28.4501 31.7839L28.4579 31.7792L28.462 31.7766L28.4683 31.7727L28.4732 31.7697L28.4798 31.7656L28.484 31.763L28.4905 31.7589L28.4951 31.756L28.5018 31.7519L28.5055 31.7496L28.5136 31.7445L28.5168 31.7425L28.5238 31.7381L28.5274 31.7359L28.5362 31.7304L28.5388 31.7288L28.5456 31.7244L28.5493 31.7222L28.5579 31.7167L28.5608 31.7149L28.5675 31.7107L28.571 31.7084C28.574 31.7065 28.5767 31.7048 28.5796 31.7029L28.5828 31.7009L28.5892 31.6967L28.5926 31.6945L28.6014 31.6889L28.6044 31.687L28.6112 31.6827L28.6144 31.6806L28.6232 31.6749L28.6261 31.673L28.6328 31.6687L28.6361 31.6666C28.6388 31.6649 28.6419 31.6628 28.6447 31.6611L28.6481 31.6589L28.6546 31.6547L28.6578 31.6526L28.6667 31.6468L28.6695 31.645L28.677 31.6402L28.6793 31.6387L28.6882 31.6328L28.6914 31.6308L28.6984 31.6263L28.7011 31.6245L28.71 31.6187L28.713 31.6167L28.7203 31.612L28.7227 31.6103L28.7317 31.6044L28.7344 31.6026L28.7423 31.5975L28.7442 31.5962C28.7471 31.5943 28.7502 31.5922 28.7532 31.5902L28.7562 31.5883L28.7641 31.5831L28.7663 31.5816L28.7747 31.5761L28.7779 31.5739L28.786 31.5685L28.7885 31.5669C28.7911 31.5651 28.7937 31.5634 28.7964 31.5616L28.7994 31.5595L28.8078 31.5539L28.8105 31.5521L28.8177 31.5473L28.8211 31.5451L28.8296 31.5393L28.8324 31.5374L28.8393 31.5328L28.8425 31.5306L28.8514 31.5246L28.8536 31.5231L28.8609 31.5181L28.8639 31.516C28.8669 31.5141 28.8699 31.512 28.8728 31.51L28.8755 31.5082L28.8825 31.5034L28.8855 31.5014L28.8942 31.4954L28.8973 31.4934L28.9038 31.4888L28.9069 31.4867L28.9156 31.4808L28.9187 31.4787L28.9255 31.4739L28.9284 31.472L28.9372 31.4659L28.94 31.464L28.9472 31.459L28.9497 31.4573L28.9585 31.4511L28.9613 31.4491C28.9638 31.4474 28.9662 31.4457 28.9686 31.444L28.971 31.4423L28.9797 31.4362L28.983 31.434L28.9898 31.4293L28.9924 31.4275L29.001 31.4215L29.0045 31.419L29.0111 31.4143L29.0137 31.4124C29.0167 31.4104 29.0195 31.4083 29.0223 31.4063L29.0257 31.4039C29.0279 31.4023 29.0301 31.4007 29.0324 31.3991L29.0353 31.3971L29.0434 31.3913L29.0469 31.3888C29.0491 31.3873 29.0518 31.3854 29.054 31.3838L29.0569 31.3817L29.0647 31.3761L29.0681 31.3736L29.0757 31.3681L29.0782 31.3663L29.0856 31.361L29.0893 31.3583C29.0918 31.3566 29.0941 31.3549 29.0965 31.3532L29.1002 31.3505C29.1025 31.349 29.1047 31.3473 29.1069 31.3457L29.1105 31.3431C29.1132 31.3412 29.1159 31.3394 29.1184 31.3374L29.1216 31.3351L29.128 31.3304L29.1315 31.3279C29.1343 31.3259 29.137 31.324 29.1398 31.3218L29.1428 31.3197L29.1493 31.315L29.1525 31.3126C29.1554 31.3105 29.1583 31.3084 29.1611 31.3063L29.1636 31.3045L29.1702 31.2997L29.1737 31.2972L29.182 31.291L29.1847 31.289L29.1915 31.284L29.1945 31.2818C29.1974 31.2798 29.2002 31.2776 29.203 31.2755L29.2059 31.2734L29.2124 31.2687L29.2156 31.2664L29.224 31.2601L29.227 31.2579L29.2335 31.253L29.2366 31.2507L29.245 31.2445L29.2481 31.2422L29.2543 31.2376L29.2577 31.2351L29.2658 31.229L29.2691 31.2265L29.2755 31.2217L29.2784 31.2195L29.2869 31.2131L29.2899 31.2109C29.292 31.2092 29.2947 31.2073 29.2969 31.2056L29.2991 31.2039C29.302 31.2018 29.3049 31.1995 29.3077 31.1974L29.3107 31.1951C29.3131 31.1933 29.3155 31.1915 29.3179 31.1896L29.32 31.188C29.3228 31.1859 29.3258 31.1836 29.3287 31.1815L29.3317 31.1793L29.3388 31.1738L29.3415 31.1717C29.3441 31.1697 29.3469 31.1677 29.3495 31.1656L29.3525 31.1634L29.36 31.1575L29.3627 31.1555L29.3702 31.1497L29.3733 31.1473L29.3813 31.1411L29.3836 31.1393L29.3911 31.1336L29.394 31.1313L29.4027 31.1246L29.4045 31.1232L29.412 31.1173L29.4147 31.1152L29.4232 31.1086L29.4257 31.1067L29.4325 31.1015L29.4355 31.0991C29.4383 31.0969 29.4412 31.0947 29.444 31.0925L29.4463 31.0907L29.4534 31.0852L29.4561 31.0831L29.4647 31.0764L29.4671 31.0745L29.474 31.0691L29.4768 31.0668L29.4853 31.0601L29.488 31.058L29.4947 31.0527L29.4975 31.0504L29.5059 31.0438L29.5089 31.0414L29.5156 31.0362L29.518 31.0343L29.5266 31.0274L29.5293 31.0253L29.5362 31.0198L29.5387 31.0178L29.5472 31.0109L29.5499 31.0088C29.5522 31.0069 29.5546 31.005 29.5569 31.0032L29.5591 31.0015L29.5677 30.9946L29.5704 30.9925C29.5729 30.9904 29.5751 30.9886 29.5777 30.9865L29.5796 30.985C29.5823 30.9828 29.5854 30.9803 29.5881 30.978L29.5909 30.9758C29.5935 30.9737 29.596 30.9717 29.5985 30.9696L29.5999 30.9685L29.6087 30.9614L29.6113 30.9592L29.6196 30.9525L29.6203 30.9519L29.6294 30.9445L29.6316 30.9427C29.6376 30.9378 29.6439 30.9328 29.6498 30.9279L29.652 30.9261C29.655 30.9236 29.6581 30.9211 29.661 30.9187L29.6618 30.9181L29.67 30.9113L29.6727 30.9092L29.6814 30.9019L29.6824 30.901C29.6852 30.8988 29.6877 30.8967 29.6904 30.8944L29.6929 30.8923L29.7017 30.8851L29.7031 30.8839L29.7108 30.8775L29.7133 30.8754L29.722 30.8682L29.7236 30.8668L29.7311 30.8605L29.7335 30.8586C29.7365 30.8561 29.7392 30.8538 29.7422 30.8513L29.7441 30.8496C29.7464 30.8477 29.7488 30.8457 29.7512 30.8437L29.7539 30.8414L29.7624 30.8343L29.7644 30.8325L29.7718 30.8264L29.7739 30.8246C29.7768 30.8221 29.7797 30.8197 29.7827 30.8172L29.7847 30.8154L29.792 30.8093L29.7942 30.8074L29.8027 30.8002L29.8052 30.798C29.8073 30.7962 29.8099 30.794 29.8121 30.7922L29.8144 30.7902C29.8173 30.7877 29.8199 30.7855 29.8229 30.783L29.8255 30.7808L29.8322 30.7751L29.8346 30.7729L29.843 30.7657L29.8455 30.7635L29.8523 30.7576L29.8547 30.7557C29.8574 30.7534 29.8602 30.7509 29.863 30.7485L29.8656 30.7461C29.8681 30.7439 29.8701 30.7422 29.8727 30.74L29.8747 30.7383L29.8831 30.731L29.8857 30.7288L29.8934 30.722L29.8945 30.7211C29.8974 30.7186 29.9002 30.7162 29.903 30.7136L29.9058 30.7112L29.9131 30.7047L29.915 30.7031C29.9178 30.7007 29.9203 30.6986 29.923 30.6962L29.9257 30.6938C29.9284 30.6914 29.931 30.6892 29.9337 30.6868L29.9352 30.6854L29.9431 30.6785L29.9454 30.6765C29.9484 30.6739 29.9512 30.6714 29.9541 30.6688L29.9552 30.6679C29.958 30.6655 29.9602 30.6635 29.963 30.6611L29.9656 30.6588C29.9684 30.6564 29.9714 30.6537 29.974 30.6513L29.9755 30.65C29.978 30.6478 29.9805 30.6457 29.983 30.6434L29.9854 30.6413L29.9938 30.6338L29.9958 30.6321C29.9983 30.6298 30.0003 30.628 30.0028 30.6258L30.0053 30.6236C30.008 30.6212 30.0111 30.6185 30.0137 30.6161L30.0157 30.6144L30.0227 30.6081L30.0251 30.606C30.028 30.6034 30.0306 30.6011 30.0334 30.5985L30.0356 30.5965L30.0427 30.5902L30.0447 30.5883C30.0476 30.5857 30.0505 30.5831 30.0534 30.5805L30.0551 30.5789L30.0625 30.5722L30.0645 30.5704C30.0674 30.5678 30.0701 30.5654 30.0729 30.5628L30.0751 30.5608L30.0823 30.5543L30.0842 30.5525C30.0871 30.55 30.0898 30.5475 30.0927 30.5448L30.0949 30.5428L30.1024 30.536L30.1037 30.5347C30.1064 30.5322 30.1096 30.5294 30.1122 30.5269L30.1146 30.5246C30.1171 30.5224 30.1193 30.5203 30.1218 30.5181L30.1235 30.5166C30.1261 30.5141 30.1292 30.5112 30.1319 30.5088L30.1343 30.5066L30.1415 30.5L30.1431 30.4985L30.1513 30.4908L30.1539 30.4885L30.1614 30.4815L30.1626 30.4804L30.171 30.4726L30.1735 30.4704L30.1813 30.4631L30.1821 30.4623C30.1849 30.4596 30.1876 30.4572 30.1904 30.4545L30.193 30.4521L30.2011 30.4445L30.2021 30.4436C30.2047 30.4411 30.2075 30.4385 30.2101 30.436L30.2125 30.4338C30.2153 30.4311 30.2181 30.4284 30.221 30.4258L30.2216 30.4253L30.2296 30.4178L30.232 30.4156L30.2404 30.4077L30.2416 30.4065C30.2441 30.4041 30.2466 30.4016 30.249 30.3993L30.2514 30.3971C30.2542 30.3944 30.257 30.3918 30.2599 30.389L30.2609 30.388C30.2636 30.3855 30.266 30.3833 30.2685 30.3807L30.2707 30.3786C30.2735 30.376 30.2764 30.3733 30.2792 30.3706L30.2807 30.3692C30.2831 30.3669 30.2856 30.3644 30.288 30.3621L30.2902 30.36L30.2985 30.352L30.3003 30.3503C30.3027 30.348 30.3049 30.3459 30.3073 30.3436L30.3095 30.3414L30.3178 30.3335L30.3197 30.3316L30.3266 30.3249L30.3288 30.3227C30.3317 30.32 30.3342 30.3175 30.3371 30.3147L30.3391 30.3127L30.3459 30.3061L30.3481 30.304C30.3509 30.3012 30.3535 30.2988 30.3563 30.296L30.3583 30.2941L30.3656 30.287L30.3672 30.2854C30.3701 30.2827 30.3728 30.28 30.3756 30.2773L30.3776 30.2753L30.3848 30.2683L30.3864 30.2667L30.3947 30.2586L30.3969 30.2565L30.4043 30.2491L30.4055 30.248C30.4085 30.245 30.411 30.2426 30.414 30.2396L30.416 30.2377C30.4186 30.2351 30.4213 30.2325 30.4238 30.23L30.4247 30.2291C30.4275 30.2263 30.4304 30.2235 30.4331 30.2208L30.4351 30.2188C30.4377 30.2162 30.4405 30.2134 30.4431 30.2108L30.4438 30.2101C30.4465 30.2074 30.4493 30.2045 30.4522 30.2018L30.4543 30.1996L30.4628 30.1911C34.7561 25.8979 34.7561 18.9372 30.4628 14.6439L30.4623 14.6452Z" fill="#E22241"/>
<path d="M30.4625 30.1922L21.2361 20.9659C20.7302 20.4599 19.9098 20.4599 19.4039 20.9659C18.8979 21.4719 18.8979 22.2922 19.4039 22.7981L28.4031 31.7974C29.1506 31.3457 29.8419 30.8069 30.4625 30.1922Z" fill="#961233"/>
<path d="M22.6886 29.7473C26.7362 29.7473 30.0174 26.4662 30.0174 22.4186C30.0174 18.371 26.7362 15.0898 22.6886 15.0898C18.6411 15.0898 15.3599 18.371 15.3599 22.4186C15.3599 26.4662 18.6411 29.7473 22.6886 29.7473Z" fill="#3D068C"/>
<path d="M22.6889 15.0899H22.6828C22.6399 15.0899 22.5968 15.0903 22.554 15.0911C21.5571 15.115 20.7656 15.9378 20.7806 16.935C20.7956 17.9433 21.6165 18.7533 22.6249 18.7548C22.6291 18.7548 22.6334 18.7548 22.6376 18.7547L22.6889 18.7543C22.8432 18.7534 22.9967 18.733 23.146 18.6938C23.2807 18.767 23.424 18.823 23.5726 18.8607L23.6211 18.873C23.7694 18.9108 23.9218 18.93 24.0748 18.93H24.0827C24.1971 19.0398 24.3252 19.1345 24.4639 19.2113C26.2348 20.1922 26.8753 22.4229 25.8945 24.1938C25.2489 25.3596 24.0215 26.083 22.6889 26.0833C22.5476 26.0834 22.4063 26.0754 22.2658 26.0595C22.2573 26.0585 22.2487 26.0576 22.2403 26.0567C22.2322 26.0556 22.2239 26.0545 22.2157 26.0535C21.9142 26.0151 21.6187 25.9388 21.3362 25.8266C20.3959 25.4526 19.3305 25.9116 18.9564 26.8518C18.5827 27.7911 19.0404 28.8557 19.9794 29.2307C20.3095 29.3621 20.6488 29.4692 20.9946 29.551L20.9953 29.5512L21.0005 29.5524L21.0009 29.5525L21.017 29.5563L21.0173 29.5564L21.0222 29.5575L21.0234 29.5577L21.0281 29.5589L21.0292 29.5591C21.034 29.5602 21.0389 29.5613 21.0438 29.5625L21.0456 29.5629L21.0497 29.5638L21.0517 29.5643L21.0559 29.5652L21.0572 29.5656C21.0619 29.5666 21.0671 29.5678 21.0718 29.5688L21.0735 29.5692L21.0774 29.5701L21.0799 29.5707L21.0838 29.5716L21.0857 29.572L21.0931 29.5736L21.0955 29.5742L21.0988 29.5749L21.102 29.5756L21.1051 29.5763L21.1085 29.5771L21.1113 29.5777L21.1165 29.5788L21.1191 29.5794L21.1239 29.5804L21.1264 29.5809L21.1304 29.5818L21.1328 29.5823L21.1375 29.5833L21.1392 29.5837L21.1458 29.5851L21.146 29.5852L21.1522 29.5865L21.154 29.5869L21.159 29.588L21.1606 29.5883L21.1667 29.5896L21.1671 29.5897L21.174 29.5911L21.1746 29.5913L21.1804 29.5925L21.1821 29.5929L21.1874 29.594L21.1886 29.5942C21.1954 29.5956 21.2022 29.5971 21.209 29.5984L21.2097 29.5985C21.2189 29.6004 21.228 29.6023 21.2372 29.6041L21.2379 29.6043C21.2471 29.6061 21.2563 29.608 21.2656 29.6098L21.266 29.6099L21.294 29.6153H21.2942C21.4453 29.6444 21.598 29.6689 21.7523 29.6886C21.769 29.6908 21.7856 29.6927 21.8022 29.6943C21.8173 29.6964 21.8323 29.6983 21.8475 29.7001C22.0242 29.7203 22.2025 29.7342 22.3825 29.7417H22.383L22.3885 29.742H22.3888L22.3942 29.7422H22.395C22.4063 29.7427 22.4177 29.7431 22.4289 29.7435L22.4301 29.7436L22.4348 29.7438H22.4361L22.4406 29.7439L22.4423 29.744L22.4468 29.7442L22.4484 29.7443L22.4528 29.7445L22.4545 29.7445L22.459 29.7447H22.4599C22.4654 29.7449 22.4708 29.7451 22.4762 29.7452H22.4769L22.4816 29.7454H22.483L22.4873 29.7455L22.4892 29.7456L22.4933 29.7457L22.4957 29.7457L22.4991 29.7458L22.502 29.7459L22.5055 29.746L22.5081 29.7461L22.5116 29.7462L22.5146 29.7463L22.5179 29.7463L22.5212 29.7464L22.5272 29.7466L22.5299 29.7467L22.5335 29.7468L22.5363 29.7469L22.5394 29.7469L22.5426 29.747L22.5456 29.7471L22.5489 29.7472L22.5519 29.7473L22.5549 29.7474L22.5583 29.7475L22.5612 29.7475L22.5646 29.7476H22.5675L22.5707 29.7477L22.5739 29.7478L22.5807 29.7479H22.5829L22.5863 29.748H22.5892H22.5921L22.5957 29.7481H22.5984L22.602 29.7481H22.6048H22.6082H22.6111L22.6146 29.7482H22.6172H22.6212H22.6236H22.6276H22.63H22.6347H22.6385H22.6425H22.6447H22.6486H22.6514H22.655H22.6578H22.6641H22.6676H22.674H22.6767H22.6889C26.7366 29.7482 30.0179 26.4669 30.0179 22.4192V22.4097V22.404V22.3943V22.3877V22.3853V22.3796V22.3781L30.0178 22.3709V22.3691V22.3636V22.3612L30.0178 22.3558V22.3539L30.0177 22.3468V22.345L30.0176 22.3396V22.3374L30.0174 22.3229V22.3209L30.0173 22.3154V22.3134L30.0172 22.3063V22.3053L30.0172 22.2989L30.0171 22.2968L30.017 22.2914V22.2894L30.0168 22.2823V22.2807L30.0167 22.2749V22.2729L30.0166 22.2664V22.2657L30.0164 22.2584V22.2565L30.0162 22.2509V22.2489L30.016 22.2419V22.2417L30.0159 22.2344V22.2326L30.0157 22.2269L30.0156 22.2249L30.0154 22.2177V22.2171L30.0153 22.2105L30.0152 22.2085L30.015 22.2029L30.0149 22.201L30.0148 22.1941L30.0147 22.1921L30.0145 22.1866L30.0144 22.1846L30.0142 22.1787L30.0142 22.1771L30.0139 22.1702L30.0138 22.1677L30.0136 22.1632L30.0136 22.1603L30.0134 22.1549L30.0133 22.1529L30.013 22.1464L30.0129 22.1439L30.0128 22.139L30.0127 22.1367L30.0124 22.1297L30.0123 22.1285L30.0121 22.1225L30.012 22.1202L30.0118 22.115L30.0117 22.1129L30.0115 22.106L30.0114 22.104L30.0111 22.0988L30.0111 22.0963L30.0108 22.0908L30.0107 22.0892L30.0104 22.0822L30.0103 22.0801L30.01 22.0751L30.0099 22.0726L30.0097 22.0667L30.0096 22.0655L30.0093 22.0585L30.0092 22.0565L30.0089 22.0509L30.0088 22.0491L30.0081 22.0348L30.008 22.0324L30.0077 22.0272L30.0076 22.0252L30.0072 22.0181L30.0071 22.0168L30.0068 22.011L30.0067 22.0086L30.0063 22.0034L30.0063 22.0014L30.0058 21.9945L30.0057 21.9925L30.0055 21.9875L30.0053 21.9848L30.005 21.9797L30.0049 21.9771L30.0045 21.971L30.0044 21.9682L30.0041 21.9638L30.0039 21.9609L30.0035 21.9547L30.0034 21.9529L30.0031 21.9469L30.0029 21.9448L30.0026 21.9398L30.0024 21.9373L30.002 21.9306L30.0019 21.9286L30.0015 21.9234L30.0014 21.9207L30.001 21.916L30.0008 21.9135L30.0004 21.907L30.0002 21.9043L29.9999 21.8997L29.9997 21.897L29.9994 21.892L29.9992 21.8901L29.9987 21.8833L29.9985 21.881L29.9982 21.876L29.998 21.8736L29.9975 21.8667L29.9974 21.8661L29.9969 21.8596L29.9967 21.8574L29.9963 21.8518L29.9961 21.8501L29.9956 21.8432L29.9954 21.8414L29.995 21.8361L29.9948 21.8336L29.9944 21.8286L29.9942 21.8263L29.9937 21.8197L29.9935 21.8172L29.9932 21.8126L29.9929 21.8099L29.9925 21.8047L29.9923 21.8028L29.9917 21.7962L29.9915 21.7936L29.991 21.7888L29.9909 21.7865L29.9904 21.7807L29.9901 21.778L29.9896 21.7725L29.9894 21.7702L29.989 21.7649L29.9888 21.763L29.9882 21.756L29.9881 21.7547L29.9876 21.749L29.9874 21.7466L29.9868 21.7413L29.9867 21.7396L29.9861 21.7328L29.9858 21.7305L29.9854 21.7257L29.9851 21.723L29.9846 21.718L29.9844 21.7161L29.9838 21.7094L29.9836 21.707L29.9831 21.7022L29.9828 21.6996L29.9822 21.6931L29.9821 21.6925L29.9815 21.6861L29.9813 21.6833L29.9807 21.6786L29.9805 21.6764L29.9798 21.6695L29.9796 21.6682L29.979 21.6627L29.9788 21.66L29.9783 21.6558L29.978 21.6527L29.9773 21.6463L29.977 21.6437L29.9766 21.6394L29.9763 21.6364L29.9758 21.6319L29.9755 21.6294L29.9748 21.623L29.9745 21.62L29.974 21.616L29.9737 21.6131L29.9732 21.6084L29.9728 21.6045L29.9722 21.5996L29.9719 21.5966L29.9715 21.5929L29.971 21.5895L29.9704 21.5838L29.9701 21.581L29.9696 21.5762L29.9692 21.5732L29.9687 21.5691L29.9684 21.5664L29.9677 21.56L29.9673 21.5571L29.9668 21.5531L29.9665 21.5498L29.9661 21.5461L29.9656 21.5429L29.9649 21.5367L29.9646 21.5337L29.9641 21.5299L29.9637 21.5264L29.9632 21.5226L29.9626 21.5178L29.9621 21.5135L29.9617 21.5103L29.9612 21.5064L29.9607 21.5032L29.9602 21.4994L29.9595 21.494L29.959 21.4901L29.9587 21.4871L29.9582 21.483L29.9577 21.4799L29.957 21.4739L29.9564 21.4701L29.9561 21.4673L29.9556 21.4633L29.9551 21.4601L29.9545 21.4551L29.9539 21.4507L29.9533 21.4471L29.9529 21.4438L29.9525 21.4404L29.952 21.4368L29.9511 21.4302L29.9508 21.4277L29.9502 21.4236L29.9498 21.4211L29.9493 21.4171L29.9489 21.4141L29.9479 21.4071L29.9476 21.4047L29.947 21.4003L29.9467 21.3984L29.9461 21.3939L29.946 21.3924C29.9455 21.3896 29.9452 21.3869 29.9448 21.3841L29.9444 21.3816L29.9438 21.3775L29.9435 21.3752C29.9428 21.3705 29.9422 21.3659 29.9415 21.3612L29.9411 21.3586L29.9405 21.3544L29.9402 21.3522L29.9389 21.3434L29.9387 21.3424L29.9381 21.338L29.9377 21.3354L29.9371 21.3314L29.9367 21.3285L29.9357 21.3219L29.9352 21.3191L29.9346 21.3152L29.9342 21.3122L29.9336 21.3085L29.9326 21.3026L29.9321 21.2993L29.9316 21.2962L29.931 21.2922L29.9306 21.2896L29.9292 21.2805L29.9291 21.2799L29.9284 21.2757L29.9281 21.2734L29.9275 21.2693L29.9271 21.2669L29.9259 21.2597L29.9255 21.257L29.9249 21.253L29.9245 21.2505L29.9238 21.2463L29.9234 21.2439L29.9223 21.2367L29.9218 21.2341L29.9211 21.2299L29.9208 21.2276L29.9201 21.2233L29.9199 21.2224L29.9186 21.2139L29.918 21.211L29.9174 21.2071L29.917 21.2047L29.9147 21.191L29.9143 21.1883L29.9136 21.1843L29.9131 21.1818L29.9119 21.1744L29.9114 21.1721L29.9107 21.1681L29.9102 21.1654L29.9095 21.1611L29.9094 21.1602L29.9077 21.151L29.9074 21.1493L29.9067 21.1453L29.9062 21.1425L29.9055 21.1385L29.9051 21.1362L29.9038 21.129L29.9033 21.1264L29.9026 21.1225L29.902 21.1192L29.9014 21.1158L29.901 21.1134C29.9005 21.1108 29.9001 21.1083 29.8996 21.1058L29.8992 21.1037L29.8985 21.0996L29.898 21.0972L29.8965 21.0888L29.8962 21.0875L29.8955 21.0832L29.895 21.0809L29.8943 21.0769L29.8937 21.0741L29.8925 21.0669L29.892 21.0647L29.8912 21.0603L29.8909 21.0585L29.89 21.054L29.8899 21.0532L29.8881 21.0438L29.8877 21.0422L29.8869 21.0377L29.8865 21.0359C29.8857 21.0313 29.8847 21.0262 29.8838 21.0216L29.8833 21.0195L29.8825 21.0151L29.8821 21.0133C29.8812 21.0084 29.8803 21.0037 29.8793 20.9987L29.8789 20.9968L29.878 20.9926L29.8776 20.9903L29.876 20.9822L29.8756 20.9806L29.8748 20.9761L29.8744 20.9743L29.8715 20.9599L29.8711 20.958L29.8702 20.9537L29.8698 20.9517C29.8688 20.947 29.8679 20.9422 29.8669 20.9376L29.8664 20.9355L29.8656 20.9312L29.8651 20.9293L29.8621 20.9146L29.8619 20.9135L29.8608 20.9083C29.8602 20.905 29.8594 20.9015 29.8587 20.8982L29.8584 20.8969L29.8575 20.8923L29.8572 20.8907C29.856 20.8855 29.8551 20.8808 29.854 20.8757L29.8537 20.8745L29.8528 20.8698L29.8524 20.8684C29.8513 20.8632 29.8503 20.8585 29.8492 20.8534L29.8489 20.852L29.8478 20.847L29.8477 20.8466L29.8443 20.8309L29.844 20.8297L29.8429 20.8247L29.8428 20.8246C29.8416 20.8192 29.8405 20.8139 29.8393 20.8086L29.839 20.8074L29.8341 20.7859L29.834 20.7856C29.8328 20.7802 29.8316 20.7752 29.8304 20.7698L29.8302 20.7687L29.8291 20.764L29.8287 20.7627L29.8252 20.7473L29.825 20.7467L29.8238 20.7414V20.7413C29.8225 20.7358 29.8212 20.7306 29.82 20.7251L29.8198 20.7245C29.818 20.7171 29.8164 20.7102 29.8146 20.7028L29.8146 20.7026C29.8133 20.6971 29.812 20.6919 29.8106 20.6864L29.8105 20.6861C29.807 20.6714 29.8034 20.6568 29.7997 20.6422V20.642C29.7979 20.6347 29.7961 20.6274 29.7942 20.6201V20.6201C29.7924 20.6127 29.7905 20.6055 29.7886 20.5982L29.7885 20.5979L29.7844 20.5817V20.5816C29.5464 19.6609 29.1307 18.7955 28.5609 18.0341L28.5603 18.0333L28.5572 18.0292V18.0291C28.5539 18.0247 28.5508 18.0205 28.5475 18.0161L28.5472 18.0158C28.5428 18.0099 28.5385 18.0043 28.5341 17.9984L28.534 17.9984L28.5207 17.9809L28.5207 17.9808C28.5051 17.9604 28.4894 17.94 28.4737 17.9199C28.4692 17.9141 28.4647 17.9084 28.4602 17.9026L28.46 17.9023C28.4555 17.8966 28.4513 17.8912 28.4467 17.8854L28.4464 17.885C28.4373 17.8735 28.4283 17.8622 28.4192 17.8507L28.4191 17.8505C28.4156 17.8462 28.4123 17.842 28.4088 17.8378L28.4055 17.8337L28.4051 17.8332L28.3954 17.8212L28.3947 17.8203L28.3917 17.8164L28.3914 17.8162L28.3849 17.8082L28.3845 17.8078L28.3815 17.8041L28.3808 17.8031L28.3777 17.7994L28.3775 17.7991L28.3716 17.792L28.3704 17.7904L28.3676 17.7871L28.3665 17.7857C28.3636 17.7822 28.3606 17.7785 28.3576 17.775L28.3562 17.7732L28.3535 17.7699L28.3525 17.7687L28.3467 17.7616L28.3461 17.761L28.3438 17.7582L28.3418 17.7558L28.3394 17.7528L28.3382 17.7513L28.3332 17.7452L28.3321 17.7438L28.3295 17.7407L28.3278 17.7386L28.3254 17.7357L28.3235 17.7336L28.3195 17.7287L28.3177 17.7264L28.3154 17.7237L28.3136 17.7215L28.3111 17.7184L28.3105 17.7178L28.3052 17.7114L28.3035 17.7095L28.301 17.7065L28.2994 17.7046L28.2942 17.6984L28.2933 17.6974L28.2908 17.6945L28.2891 17.6924L28.2869 17.6898L28.2849 17.6874L28.2807 17.6824L28.279 17.6804L28.2764 17.6774L28.275 17.6758L28.2723 17.6726L28.271 17.671L28.2662 17.6654L28.2646 17.6636L28.2621 17.6606L28.2603 17.6585L28.2581 17.6559L28.2554 17.6527L28.252 17.6488L28.2499 17.6464L28.2477 17.6437L28.2456 17.6412L28.2435 17.6388L28.2396 17.6344L28.2376 17.632L28.2353 17.6295L28.2332 17.627L28.2302 17.6235L28.2292 17.6223L28.225 17.6174L28.2232 17.6155L28.2206 17.6124L28.2188 17.6103L28.2156 17.6067L28.2131 17.6039L28.2104 17.6009L28.2084 17.5985L28.2061 17.5958L28.204 17.5934L28.2 17.5889L28.1981 17.5867L28.196 17.5844L28.1935 17.5815L28.1915 17.5792L28.1893 17.5766L28.1854 17.5723L28.1835 17.57L28.1811 17.5673L28.1791 17.5651L28.1763 17.5619L28.1746 17.5601L28.1704 17.5553L28.1692 17.5539L28.166 17.5503L28.1644 17.5485L28.1607 17.5444L28.1592 17.5427L28.1558 17.5388L28.1538 17.5366L28.1513 17.5338L28.1495 17.5318L28.1453 17.5272L28.144 17.5258L28.1408 17.5221L28.1391 17.5203L28.1363 17.5172L28.1345 17.5153L28.1304 17.5108L28.1289 17.5091L28.1258 17.5057L28.1242 17.5039L28.1206 17.4999L28.1199 17.4991L28.1158 17.4944L28.1141 17.4925L28.1109 17.489L28.1096 17.4875L28.1006 17.4775L28.0993 17.4762L28.0959 17.4725L28.0944 17.4708L28.09 17.466L28.0893 17.4653L28.0856 17.4612L28.084 17.4595L28.0805 17.4556L28.0794 17.4544L28.0749 17.4496L28.0737 17.4482L28.0703 17.4446L28.0689 17.4431L28.0649 17.4388L28.0643 17.4381L28.0594 17.433L28.0588 17.4324L28.0546 17.4279L28.0538 17.4269L28.0443 17.4168L28.0431 17.4155L28.0394 17.4116L28.0384 17.4105L28.0339 17.4056L28.0328 17.4045L28.0291 17.4006L28.0278 17.3991L28.0237 17.3949L28.0232 17.3943L28.0183 17.3891L28.018 17.3886L28.0137 17.3841L28.0126 17.383C28.0095 17.3797 28.0062 17.3762 28.0031 17.3729L28.0023 17.3721L27.9981 17.3676L27.9975 17.3669C27.9943 17.3636 27.9909 17.36 27.9876 17.3566L27.987 17.356L27.9825 17.3513L27.9821 17.3509L27.9723 17.3406L27.9713 17.3397L27.9669 17.335L27.9666 17.3347C27.9633 17.3313 27.9601 17.328 27.9567 17.3245L27.9559 17.3236L27.9516 17.3192L27.951 17.3186L27.9461 17.3135L27.9456 17.3131L27.9412 17.3084L27.9404 17.3076C27.9371 17.3042 27.9337 17.3008 27.9304 17.2973L27.9301 17.2971L27.9251 17.2919L27.925 17.2918C27.9215 17.2882 27.9181 17.2847 27.9146 17.2811H27.9146L27.9094 17.2759L27.9093 17.2758C27.9058 17.2722 27.9024 17.2687 27.8989 17.2652L27.8988 17.2651C27.8743 17.2403 27.8496 17.2158 27.8247 17.1913L27.8245 17.1911C27.8105 17.1772 27.7962 17.1634 27.7819 17.1496L27.7814 17.1491C27.3204 16.7032 26.803 16.3195 26.2424 16.0077C25.9722 15.857 25.6682 15.7775 25.3587 15.7767C25.1402 15.5673 24.8729 15.4159 24.5809 15.3363C24.5609 15.3309 24.5402 15.3255 24.5201 15.3203L24.5171 15.3195L24.5152 15.319L24.5104 15.3178L24.5096 15.3176L24.504 15.3161L24.5037 15.316L24.4982 15.3146L24.4976 15.3145L24.4938 15.3135C24.4675 15.3068 24.4407 15.3002 24.4142 15.2939C24.2777 15.2618 24.1378 15.2456 23.9975 15.2455C23.8479 15.2455 23.6989 15.264 23.5539 15.3008C23.2972 15.1647 23.0116 15.0922 22.721 15.0894C22.7114 15.0899 22.7001 15.0898 22.6889 15.0899Z" fill="#2A0075"/>
<path d="M19.4039 20.9659C18.8979 21.4719 18.8979 22.2922 19.4039 22.7981L25.6945 29.0888C26.504 28.7284 27.2415 28.2243 27.8713 27.601L21.2361 20.9658C20.7302 20.4599 19.9099 20.4599 19.4039 20.9659Z" fill="#190061"/>
<path d="M22.6885 26.083C24.7123 26.083 26.353 24.4423 26.353 22.4185C26.353 20.3946 24.7123 18.7539 22.6885 18.7539C20.6646 18.7539 19.0239 20.3946 19.0239 22.4185C19.0239 24.4423 20.6646 26.083 22.6885 26.083Z" fill="#F7B236"/>
<path d="M39.7579 5.26445L37.9428 4.65946C37.6729 4.56954 37.4277 4.41794 37.2266 4.2168L26.8901 14.5532C27.2333 14.8974 27.6996 15.0905 28.1857 15.0899H32.9236C33.4096 15.0899 33.8756 14.8969 34.2192 14.5532L40.4741 8.29833C41.1897 7.58272 41.1897 6.42255 40.4741 5.70703C40.2729 5.50588 40.0277 5.35437 39.7579 5.26445Z" fill="#F57F00"/>
<path d="M21.236 20.9659C20.73 20.4599 19.9097 20.4599 19.4038 20.9659C19.3429 21.0381 19.2904 21.1171 19.2475 21.2013C19.1501 21.4806 19.0871 21.7707 19.0601 22.0653C19.0913 22.3407 19.2121 22.5981 19.4039 22.7982L22.6888 26.0832C23.6609 26.0845 24.5934 25.6982 25.2799 25.0099L21.236 20.9659Z" fill="#F59004"/>
<path d="M28.1858 15.09H30.018L36.4219 8.68602C37.5684 7.54286 39.303 7.22903 40.7774 7.89809C41.2715 7.01439 40.9557 5.89743 40.072 5.40332C39.9718 5.34732 39.8667 5.30086 39.7579 5.26453L37.9427 4.65954C37.8313 4.62226 37.7514 4.5356 37.6507 4.479C36.9793 4.70446 36.3685 5.08047 35.865 5.57845L27.2696 14.1739C27.1444 14.2997 27.0467 14.4501 26.9824 14.6155C27.3114 14.9165 27.7399 15.0856 28.1858 15.09Z" fill="#F56A0C"/>
<path d="M19.4037 20.207L38.8002 0.810495C39.306 0.304705 40.1261 0.304705 40.6319 0.810495L40.6325 0.811096C41.1383 1.31689 41.1383 2.13694 40.6325 2.64273L21.2361 22.0392C20.7303 22.545 19.9102 22.545 19.4044 22.0392L19.4038 22.0386C18.898 21.5328 18.898 20.7128 19.4037 20.207Z" fill="#5628B4"/>
<path d="M24.9003 14.7111L38.8 0.811471C39.3058 0.305681 40.1258 0.305681 40.6316 0.811471L40.6322 0.812072C41.138 1.31786 41.138 2.13791 40.6322 2.6437L26.7326 16.5434C26.2269 17.0492 25.4068 17.0492 24.901 16.5434L24.9004 16.5428C24.3945 16.0369 24.3945 15.2169 24.9003 14.7111Z" fill="#4310AC"/>
<path d="M37.7255 1.8854L38.7995 0.811471C39.3053 0.305681 40.1253 0.305681 40.6311 0.811471L40.6317 0.812072C41.1375 1.31786 41.1375 2.13791 40.6317 2.6437L39.5578 3.71764C39.052 4.22342 38.2319 4.22342 37.7261 3.71764L37.7255 3.71703C37.2197 3.21124 37.2197 2.39119 37.7255 1.8854Z" fill="#734EC1"/>
<path d="M36.7836 3.50063L36.1786 1.68549C35.8586 0.72553 34.8209 0.206685 33.8609 0.526615C33.5911 0.616539 33.3458 0.76813 33.1446 0.969278L26.8897 7.22418C26.5461 7.56782 26.353 8.03384 26.353 8.51979V13.2577C26.3524 13.7437 26.5456 14.21 26.8897 14.5533L37.2262 4.21684C37.0251 4.0157 36.8735 3.77049 36.7836 3.50063Z" fill="#F7B236"/>
<path d="M37.2262 4.21684C37.025 4.0157 36.8735 3.77049 36.7835 3.50063L36.1785 1.68549C35.8586 0.72553 34.8209 0.206685 33.8609 0.526615C33.5911 0.616539 33.3458 0.76813 33.1446 0.969278L32.766 1.34795C34.2839 2.86584 34.2839 5.32685 32.766 6.84473L26.353 13.2577C26.3524 13.7437 26.5456 14.21 26.8897 14.5533L37.2262 4.21684Z" fill="#F59004"/>
</svg>






