<svg width="41" height="41" viewBox="0 0 41 41" fill="none" xmlns="http://www.w3.org/2000/svg">
<path d="M36.648 40.0566L3.66737 40.0566C1.64044 40.0566 -1.14441e-05 38.4162 -1.14441e-05 36.3893V36.3893V25.3957V25.3957L40.3154 25.3957V25.3957V36.3893C40.3154 38.4162 38.675 40.0566 36.648 40.0566V40.0566V40.0566Z" fill="#5F7BCE"/>
<path d="M34.8186 34.5596H9.16405C8.15058 34.5596 7.33466 33.7351 7.33466 32.7302V32.7302C7.33466 31.7167 8.15917 30.9008 9.16405 30.9008L34.8186 30.9008C35.832 30.9008 36.6479 31.7253 36.6479 32.7302V32.7302C36.6479 33.7351 35.8234 34.5596 34.8186 34.5596Z" fill="#90A3DD"/>
<path d="M3.66719 36.3892V36.3892C2.65372 36.3892 1.83779 35.5646 1.83779 34.5598V32.7304C1.83779 31.7169 2.66231 30.901 3.66719 30.901V30.901C4.68065 30.901 5.49658 31.7255 5.49658 32.7304L5.49658 34.5598C5.49658 35.5646 4.68065 36.3892 3.66719 36.3892Z" fill="#90A3DD"/>
<path d="M36.648 29.063L3.66737 29.063C1.64044 29.063 -1.14441e-05 27.4225 -1.14441e-05 25.3956V25.3956C-1.14441e-05 23.3687 1.64044 21.7282 3.66737 21.7282L36.648 21.7282C38.675 21.7282 40.3154 23.3687 40.3154 25.3956V25.3956C40.3154 27.4225 38.675 29.063 36.648 29.063Z" fill="#385BC3"/>
<path d="M36.6481 27.2251L3.66747 27.2251C2.654 27.2251 1.83807 26.4006 1.83807 25.3957V25.3957C1.83807 24.3822 2.66259 23.5663 3.66747 23.5663L36.6481 23.5663C37.6616 23.5663 38.4775 24.3908 38.4775 25.3957V25.3957C38.4775 26.4092 37.6616 27.2251 36.6481 27.2251Z" fill="#1B43BA"/>
<path d="M36.6481 27.2251H31.1514C30.1379 27.2251 29.322 26.4006 29.322 25.3957V25.3957C29.322 24.3822 30.1465 23.5663 31.1514 23.5663H36.6481C37.6616 23.5663 38.4775 24.3908 38.4775 25.3957V25.3957C38.4775 26.4092 37.6616 27.2251 36.6481 27.2251Z" fill="#002BAD"/>
<path d="M36.6479 27.2251L3.66727 27.2251V27.2251V16.2315C3.66727 14.2046 5.30772 12.5642 7.33466 12.5642V12.5642L32.9806 12.5642C35.0075 12.5642 36.6479 14.2046 36.6479 16.2315V16.2315V27.2251V27.2251V27.2251Z" fill="#F0E1FF"/>
<path d="M32.0705 19.8989L8.25394 19.8989C6.73374 19.8989 5.50555 18.6707 5.50555 17.1505V17.1505C5.50555 15.6303 6.73374 14.4021 8.25394 14.4021L32.0705 14.4021C33.5907 14.4021 34.8188 15.6303 34.8188 17.1505V17.1505C34.8188 18.6707 33.5821 19.8989 32.0705 19.8989Z" fill="#E3C9FF"/>
<path d="M36.6479 27.2251L3.66727 27.2251V27.2251V19.8989C3.66727 17.872 5.30772 16.2315 7.33466 16.2315V16.2315L32.9806 16.2315C35.0075 16.2315 36.6479 17.872 36.6479 19.8989V19.8989V27.2251V27.2251V27.2251Z" fill="#F6EDFF"/>
<path d="M34.8186 27.2251L5.50526 27.2251C4.49179 27.2251 3.67586 26.4006 3.67586 25.3957V25.3957C3.67586 24.3822 4.50038 23.5663 5.50526 23.5663L34.8186 23.5663C35.832 23.5663 36.6479 24.3908 36.6479 25.3957V25.3957C36.6479 26.4092 35.8234 27.2251 34.8186 27.2251Z" fill="#F0E1FF"/>
<path d="M5.49697 27.2251H14.6611C14.6611 24.1933 17.1261 21.7283 20.1579 21.7283C23.1897 21.7283 25.6547 24.1933 25.6547 27.2251H34.8188V21.7283C32.7919 21.7283 31.1515 20.0879 31.1515 18.0609V18.0609L9.16435 18.0609C9.16435 20.0879 7.5239 21.7283 5.49697 21.7283V21.7283V27.2251Z" fill="#19E77C"/>
<path d="M32.9806 27.2251H27.4838C26.4703 27.2251 25.6544 26.4006 25.6544 25.3957V25.3957C25.6544 24.3822 26.4789 23.5663 27.4838 23.5663H32.9806C33.9941 23.5663 34.81 24.3908 34.81 25.3957V25.3957C34.8186 26.4092 33.9941 27.2251 32.9806 27.2251Z" fill="#00D16E"/>
<path d="M12.8312 27.2251H7.33447C6.321 27.2251 5.50507 26.4006 5.50507 25.3957V25.3957C5.50507 24.3822 6.32959 23.5663 7.33447 23.5663H12.8312C13.8447 23.5663 14.6606 24.3908 14.6606 25.3957V25.3957C14.6606 26.4092 13.8361 27.2251 12.8312 27.2251Z" fill="#00D16E"/>
<path fill-rule="evenodd" clip-rule="evenodd" d="M14.9413 4.20154L18.2909 0.534159C19.0038 -0.178704 20.1632 -0.178704 20.8847 0.534159C21.6062 1.24702 21.5976 2.4065 20.8847 3.12795L20.3905 3.66904L24.0793 3.66904C25.0928 3.66904 25.9087 4.49356 25.9087 5.49844C25.9087 6.51191 25.0842 7.32784 24.0793 7.32784L20.3905 7.32784L20.8847 7.86892C21.5976 8.59038 21.6062 9.74985 20.8847 10.4627C20.1632 11.1756 19.0038 11.1756 18.2909 10.4627L14.9413 6.79533C14.5841 6.43809 14.4058 5.96868 14.4067 5.49844C14.4058 5.0282 14.5841 4.55879 14.9413 4.20154Z" fill="#FF0000" fill-opacity="0.8"/>
</svg>





