<svg width="42" height="39" viewBox="0 0 42 39" fill="none" xmlns="http://www.w3.org/2000/svg">
<rect x="10.4365" y="29.2334" width="6.82059" height="8.0987" fill="#750C41"/>
<rect x="23.3955" y="29.2334" width="6.13853" height="8.0987" fill="#750C41"/>
<path d="M38.7423 23.4291C38.7423 31.7303 30.8304 33.9574 21.0769 33.9574C11.3235 33.9574 3.41162 31.7303 3.41162 23.4291C3.41162 15.0604 11.3235 8.31152 21.0769 8.31152C30.8304 8.31152 38.7423 15.0604 38.7423 23.4291Z" fill="#EF378B"/>
<path d="M38.7423 23.9688C38.7423 31.8651 30.8304 33.9572 21.0769 33.9572C11.3235 33.9572 3.41162 31.8651 3.41162 23.9688C3.41162 16.0726 11.3235 9.66113 21.0769 9.66113C30.8304 9.66113 38.7423 16.0726 38.7423 23.9688Z" fill="#D61E69"/>
<path d="M38.7423 23.4292C39.1515 31.8653 30.8304 33.9575 21.0769 33.9575C11.3235 33.9575 3.41162 31.7304 3.41162 23.4292" fill="#C61867"/>
<rect x="26.8062" y="29.2334" width="6.13853" height="8.0987" fill="#EF378B"/>
<path d="M26.8062 29.2334H32.9447V37.3321" fill="#D61E69"/>
<path d="M12.1416 32.9452C16.9256 32.9452 20.8038 30.4675 20.8038 27.4111C20.8038 24.3547 16.9256 21.877 12.1416 21.877C7.35767 21.877 3.47949 24.3547 3.47949 27.4111C3.47949 30.4675 7.35767 32.9452 12.1416 32.9452Z" fill="#D61E69"/>
<path d="M20.2521 21.315C18.3299 23.6867 13.7537 23.2695 10.0016 20.3987C6.24958 17.5278 4.49825 11.197 6.35917 8.79562C8.28139 6.42392 13.063 8.74283 16.8466 11.7041C20.6302 14.6653 22.113 18.9135 20.2521 21.315Z" fill="#D61E69"/>
<path d="M7.08284 8.62634C9.20563 6.43025 13.7658 9.15472 17.2754 12.4326C20.7851 15.7104 21.8898 20.071 19.8255 22.302" fill="#EF378B"/>
<path d="M3.47949 29.2331C4.79791 29.2331 5.86669 27.269 5.86669 24.8463C5.86669 22.4235 4.79791 20.4595 3.47949 20.4595C2.16107 20.4595 1.09229 22.4235 1.09229 24.8463C1.09229 27.269 2.16107 29.2331 3.47949 29.2331Z" fill="#D61E69"/>
<path d="M2.52461 29.2331C3.31566 29.2331 3.95693 27.269 3.95693 24.8463C3.95693 22.4235 3.31566 20.4595 2.52461 20.4595C1.73356 20.4595 1.09229 22.4235 1.09229 24.8463C1.09229 27.269 1.73356 29.2331 2.52461 29.2331Z" fill="#EF599D"/>
<path d="M2.32021 26.6685C2.5839 26.6685 2.79766 25.762 2.79766 24.6438C2.79766 23.5256 2.5839 22.6191 2.32021 22.6191C2.05653 22.6191 1.84277 23.5256 1.84277 24.6438C1.84277 25.762 2.05653 26.6685 2.32021 26.6685Z" fill="#C61867"/>
<path d="M8.25432 19.7848C8.63101 19.7848 8.93638 19.4827 8.93638 19.11C8.93638 18.7372 8.63101 18.4351 8.25432 18.4351C7.87763 18.4351 7.57227 18.7372 7.57227 19.11C7.57227 19.4827 7.87763 19.7848 8.25432 19.7848Z" fill="#63113A"/>
<path d="M8.11788 19.1773C8.30623 19.1773 8.45891 19.0263 8.45891 18.8399C8.45891 18.6535 8.30623 18.5024 8.11788 18.5024C7.92954 18.5024 7.77686 18.6535 7.77686 18.8399C7.77686 19.0263 7.92954 19.1773 8.11788 19.1773Z" fill="#841E56"/>
<path d="M14.1198 25.4539C16.2293 25.4539 17.9393 24.7891 17.9393 23.9691C17.9393 23.1491 16.2293 22.4844 14.1198 22.4844C12.0104 22.4844 10.3003 23.1491 10.3003 23.9691C10.3003 24.7891 12.0104 25.4539 14.1198 25.4539Z" fill="#EF378B"/>
<path d="M41.2659 22.4845C41.2659 22.8219 40.993 23.1594 40.652 23.1594H35.2638C34.9227 23.1594 34.6499 22.8219 34.6499 22.4845C34.6499 22.147 34.9227 21.8096 35.2638 21.8096H40.652C40.993 21.8096 41.2659 22.147 41.2659 22.4845Z" fill="#D61E69"/>
<path d="M28.9204 12.0912C28.9204 13.9134 26.3285 15.3981 23.0547 15.3981C19.849 15.3981 17.189 13.9134 17.189 12.0912C17.189 10.2689 19.7808 8.78418 23.0547 8.78418C26.2603 8.78418 28.9204 10.2689 28.9204 12.0912Z" fill="#EF378B"/>
<path d="M27.0108 10.6739C27.0108 10.8763 26.8744 11.0113 26.7379 11.0113H19.9174C19.7809 11.0113 19.6445 10.8763 19.6445 10.6739C19.6445 10.4714 19.7809 10.3364 19.9174 10.3364H26.7379C26.8744 10.3364 27.0108 10.4714 27.0108 10.6739Z" fill="#D61E69"/>
<path d="M27.0108 11.3487C27.0108 11.5511 26.8744 11.6861 26.7379 11.6861H19.9174C19.7809 11.6861 19.6445 11.5511 19.6445 11.3487C19.6445 11.1462 19.7809 11.0112 19.9174 11.0112H26.7379C26.8744 11.0112 27.0108 11.1462 27.0108 11.3487Z" fill="#63113A"/>
<rect x="13.8472" y="29.2334" width="6.13853" height="8.0987" fill="#EF378B"/>
<path d="M13.8472 29.2334H19.9857V37.3321" fill="#D61E69"/>
<path d="M22.968 10.8162C25.7932 10.8162 28.0834 8.55005 28.0834 5.75456C28.0834 2.95907 25.7932 0.692871 22.968 0.692871C20.1428 0.692871 17.8525 2.95907 17.8525 5.75456C17.8525 8.55005 20.1428 10.8162 22.968 10.8162Z" fill="#B5750F"/>
<path d="M22.968 10.9007C25.7932 10.9007 28.0834 8.63453 28.0834 5.83903C28.0834 3.04354 25.7932 0.777344 22.968 0.777344C20.1428 0.777344 17.8525 3.04354 17.8525 5.83903C17.8525 8.63453 20.1428 10.9007 22.968 10.9007Z" fill="#DD981D"/>
<path d="M22.9678 0.777344C25.7995 0.777344 28.0832 3.03703 28.0832 5.83903C28.0832 8.64104 25.7995 10.9007 22.9678 10.9007" fill="#CE8106"/>
<path d="M23.0104 9.04466C24.8233 9.04466 26.2928 7.59052 26.2928 5.79675C26.2928 4.00297 24.8233 2.54883 23.0104 2.54883C21.1976 2.54883 19.728 4.00297 19.728 5.79675C19.728 7.59052 21.1976 9.04466 23.0104 9.04466Z" fill="#EFB65B"/>
<path d="M25.3323 3.56104C26.6132 4.82852 26.6132 6.9108 25.3323 8.17828C24.0514 9.44576 21.947 9.44576 20.666 8.17828" fill="#E2A750"/>
</svg>











