<svg width="41" height="39" viewBox="0 0 41 39" fill="none" xmlns="http://www.w3.org/2000/svg">
<path d="M3.13316 20.7279H37.8666C39.4222 20.7279 40.6834 19.476 40.6834 17.9317C40.6834 17.3797 40.5188 16.8401 40.2103 16.3808L33.344 3.12604C32.323 1.60601 30.6044 0.692871 28.7638 0.692871H12.7296C10.7306 0.692871 8.88861 1.76861 7.91778 3.50326L0.670949 16.452C0.438342 16.8673 0.316406 17.3345 0.316406 17.8097V17.9317C0.316406 19.476 1.57763 20.7279 3.13316 20.7279Z" fill="#163969"/>
<path d="M38.8485 37.9297H2.15137V18.9064L10.277 4.38783C10.9243 3.2314 12.1523 2.51416 13.485 2.51416H25.8754C27.1023 2.51416 28.2482 3.12276 28.9289 4.13627L38.8485 18.9064V37.9297Z" fill="#FFBE00"/>
<path d="M27.8395 25.1802H35.1789C37.2057 25.1802 38.8487 26.811 38.8487 28.823V34.287C38.8487 36.299 37.2057 37.9298 35.1789 37.9298H27.8395C25.8129 37.9298 24.1699 36.2987 24.1699 34.287V28.823C24.1699 26.811 25.8129 25.1802 27.8395 25.1802Z" fill="#FFA300"/>
<path d="M24.1698 37.9297H2.15137V18.9064L10.4346 4.10638C10.9846 3.12349 12.0279 2.51416 13.1606 2.51416C14.293 2.51416 15.3363 3.12373 15.8865 4.10638L24.1698 18.9064V37.9297Z" fill="#FFEA21"/>
<path d="M3.98627 24.3706H5.82118C6.83437 24.3706 7.65584 25.186 7.65584 26.1918C7.65584 27.1978 6.83437 28.0132 5.82118 28.0132H3.98627C2.97284 28.0132 2.15137 27.1978 2.15137 26.1918C2.15137 25.186 2.97284 24.3706 3.98627 24.3706Z" fill="#FFFF9D"/>
<path d="M18.665 24.3706H20.4999C21.5133 24.3706 22.3348 25.186 22.3348 26.1918C22.3348 27.1978 21.5133 28.0132 20.4999 28.0132H18.665C17.6518 28.0132 16.8301 27.1978 16.8301 26.1918C16.8301 25.186 17.6518 24.3706 18.665 24.3706Z" fill="#FFFF9D"/>
<path d="M27.8393 29.835H29.6742C30.6876 29.835 31.5091 30.6504 31.5091 31.6564C31.5091 32.6621 30.6876 33.4775 29.6742 33.4775H27.8393C26.8259 33.4775 26.0044 32.6621 26.0044 31.6564C26.0044 30.6504 26.8259 29.835 27.8393 29.835Z" fill="#FFBE00"/>
<path d="M35.1784 29.835H37.0133C38.0268 29.835 38.8482 30.6504 38.8482 31.6564C38.8482 32.6621 38.0268 33.4775 37.0133 33.4775H35.1784C34.1652 33.4775 33.3438 32.6621 33.3438 31.6564C33.3438 30.6504 34.1652 29.835 35.1784 29.835Z" fill="#FFBE00"/>
<path d="M35.1784 17.085H37.0133C38.0268 17.085 38.8482 17.9004 38.8482 18.9064C38.8482 19.9124 38.0268 20.7278 37.0133 20.7278H35.1784C34.1652 20.7278 33.3438 19.9124 33.3438 18.9064C33.3438 17.9006 34.1652 17.085 35.1784 17.085Z" fill="#DEE1C8"/>
<path d="M20.4999 18.9067H22.3349C23.348 18.9067 24.1698 19.7222 24.1698 20.7282C24.1698 21.7341 23.348 22.5496 22.3349 22.5496H20.4999C19.4865 22.5496 18.665 21.7341 18.665 20.7282C18.665 19.7222 19.4865 18.9067 20.4999 18.9067Z" fill="#FFFF9D"/>
<path d="M5.82118 25.1802H20.4999C22.5268 25.1802 24.1698 26.811 24.1698 28.823V34.287C24.1698 36.299 22.5268 37.9298 20.4999 37.9298H5.82118C3.79431 37.9298 2.15137 36.2987 2.15137 34.287V28.823C2.15137 26.811 3.79431 25.1802 5.82118 25.1802Z" fill="#FFBE00"/>
<path d="M2.15131 34.2871H38.8485C39.8619 34.2871 40.6834 35.1025 40.6834 36.1085C40.6834 37.1145 39.8619 37.9299 38.8485 37.9299H2.15131C1.13788 37.9299 0.316406 37.1145 0.316406 36.1085C0.316406 35.1025 1.13788 34.2871 2.15131 34.2871Z" fill="#FFBE00"/>
<path d="M2.15131 34.2871H24.1697C25.1829 34.2871 26.0044 35.1025 26.0044 36.1085C26.0044 37.1145 25.1829 37.9299 24.1697 37.9299H2.15131C1.13788 37.9299 0.316406 37.1145 0.316406 36.1085C0.316406 35.1025 1.13788 34.2871 2.15131 34.2871Z" fill="#FFEA21"/>
<path d="M13.1606 28.8232C14.174 28.8232 14.9955 29.6387 14.9955 30.6444V34.2872H11.3257V30.6444C11.3257 29.6387 12.1472 28.8232 13.1606 28.8232Z" fill="#435E88"/>
<path d="M7.65595 17.085C8.66939 17.085 9.49086 17.9004 9.49086 18.9064V22.5492H5.82129V18.9064C5.82129 17.9006 6.64276 17.085 7.65595 17.085Z" fill="#435E88"/>
<path d="M13.1606 17.085C14.174 17.085 14.9955 17.9004 14.9955 18.9064V22.5492H11.3257V18.9064C11.3257 17.9006 12.1472 17.085 13.1606 17.085Z" fill="#435E88"/>
<path d="M18.665 17.085C19.6784 17.085 20.4999 17.9004 20.4999 18.9064V22.5492H16.8301V18.9064C16.8301 17.9006 17.6518 17.085 18.665 17.085Z" fill="#33527D"/>
<path d="M29.6743 17.085C30.6877 17.085 31.5092 17.9004 31.5092 18.9064V22.5492H27.8394V18.9064C27.8394 17.9006 28.6608 17.085 29.6743 17.085Z" fill="#163969"/>
<path d="M29.6743 24.3706C30.6877 24.3706 31.5092 25.186 31.5092 26.1918V29.8346H27.8394V26.1918C27.8394 25.186 28.6608 24.3706 29.6743 24.3706Z" fill="#163969"/>
<path d="M35.1784 17.085C36.1918 17.085 37.0133 17.9004 37.0133 18.9064V22.5492H33.3438V18.9064C33.3438 17.9006 34.1652 17.085 35.1784 17.085Z" fill="#163969"/>
<path d="M35.1784 24.3706C36.1918 24.3706 37.0133 25.186 37.0133 26.1918V29.8346H33.3438V26.1918C33.3438 25.186 34.1652 24.3706 35.1784 24.3706Z" fill="#163969"/>
<path d="M28.7568 18.9067C29.2636 18.9067 29.6743 19.3146 29.6743 19.8174V21.6389C29.6743 22.1417 29.2636 22.5496 28.7568 22.5496C28.2502 22.5496 27.8394 22.1417 27.8394 21.6389V19.8174C27.8394 19.3146 28.2502 18.9067 28.7568 18.9067Z" fill="#002755"/>
<path d="M34.2612 18.9067C34.7678 18.9067 35.1784 19.3146 35.1784 19.8174V21.6389C35.1784 22.1417 34.7678 22.5496 34.2612 22.5496C33.7544 22.5496 33.3438 22.1417 33.3438 21.6389V19.8174C33.3438 19.3146 33.7544 18.9067 34.2612 18.9067Z" fill="#002755"/>
<path d="M28.7568 26.1919C29.2636 26.1919 29.6743 26.5997 29.6743 27.1026V28.924C29.6743 29.4271 29.2636 29.8347 28.7568 29.8347C28.2502 29.8347 27.8394 29.4271 27.8394 28.924V27.1026C27.8394 26.5997 28.2502 26.1919 28.7568 26.1919Z" fill="#002755"/>
<path d="M34.2612 26.1919C34.7678 26.1919 35.1784 26.5997 35.1784 27.1026V28.924C35.1784 29.4271 34.7678 29.8347 34.2612 29.8347C33.7544 29.8347 33.3438 29.4271 33.3438 28.924V27.1026C33.3438 26.5997 33.7544 26.1919 34.2612 26.1919Z" fill="#002755"/>
<path d="M6.7385 18.9067C7.24534 18.9067 7.65595 19.3146 7.65595 19.8174V21.6389C7.65595 22.1417 7.24534 22.5496 6.7385 22.5496C6.2319 22.5496 5.82129 22.1417 5.82129 21.6389V19.8174C5.82129 19.3146 6.2319 18.9067 6.7385 18.9067Z" fill="#163969"/>
<path d="M12.2431 18.9067C12.7497 18.9067 13.1606 19.3146 13.1606 19.8174V21.6389C13.1606 22.1417 12.7497 22.5496 12.2431 22.5496C11.7363 22.5496 11.3257 22.1417 11.3257 21.6389V19.8174C11.3257 19.3146 11.7363 18.9067 12.2431 18.9067Z" fill="#163969"/>
<path d="M17.7475 18.9067C18.2544 18.9067 18.665 19.3146 18.665 19.8174V21.6389C18.665 22.1417 18.2544 22.5496 17.7475 22.5496C17.2409 22.5496 16.8301 22.1417 16.8301 21.6389V19.8174C16.8301 19.3146 17.2409 18.9067 17.7475 18.9067Z" fill="#163969"/>
<path d="M7.65595 24.3706C8.66939 24.3706 9.49086 25.186 9.49086 26.1918V29.8346H5.82129V26.1918C5.82104 25.186 6.64276 24.3706 7.65595 24.3706Z" fill="#435E88"/>
<path d="M13.1606 24.3706C14.174 24.3706 14.9955 25.186 14.9955 26.1918V29.8346H11.3257V26.1918C11.3257 25.186 12.1472 24.3706 13.1606 24.3706Z" fill="#435E88"/>
<path d="M18.665 24.3706C19.6784 24.3706 20.4999 25.186 20.4999 26.1918V29.8346H16.8301V26.1918C16.8301 25.186 17.6518 24.3706 18.665 24.3706Z" fill="#435E88"/>
<path d="M6.7385 26.1919C7.24534 26.1919 7.65595 26.5997 7.65595 27.1026V28.924C7.65595 29.4271 7.24534 29.8347 6.7385 29.8347C6.2319 29.8347 5.82129 29.4271 5.82129 28.924V27.1026C5.82129 26.5997 6.2319 26.1919 6.7385 26.1919Z" fill="#163969"/>
<path d="M12.2431 26.1919C12.7497 26.1919 13.1606 26.5997 13.1606 27.1026V28.924C13.1606 29.4271 12.7497 29.8347 12.2431 29.8347C11.7363 29.8347 11.3257 29.4271 11.3257 28.924V27.1026C11.3257 26.5997 11.7363 26.1919 12.2431 26.1919Z" fill="#163969"/>
<path d="M12.2431 30.6445C12.7497 30.6445 13.1606 31.0521 13.1606 31.5552V33.3764C13.1606 33.8795 12.7497 34.2871 12.2431 34.2871C11.7363 34.2871 11.3257 33.8795 11.3257 33.3764V31.5552C11.3257 31.0521 11.7363 30.6445 12.2431 30.6445Z" fill="#163969"/>
<path d="M17.7475 26.1919C18.2544 26.1919 18.665 26.5997 18.665 27.1026V28.924C18.665 29.4271 18.2544 29.8347 17.7475 29.8347C17.2409 29.8347 16.8301 29.4271 16.8301 28.924V27.1026C16.8301 26.5997 17.2409 26.1919 17.7475 26.1919Z" fill="#163969"/>
<path d="M4.90354 17.085C5.41038 17.085 5.82099 17.4928 5.82099 17.9957V21.6385C5.82099 22.1414 5.41038 22.5492 4.90354 22.5492C4.39694 22.5492 3.98633 22.1414 3.98633 21.6385V17.9957C3.98633 17.4928 4.39694 17.085 4.90354 17.085Z" fill="#FFFF9D"/>
<path d="M10.4082 17.085C10.9148 17.085 11.3256 17.4928 11.3256 17.9957V21.6385C11.3256 22.1414 10.9148 22.5492 10.4082 22.5492C9.90158 22.5492 9.49072 22.1414 9.49072 21.6385V17.9957C9.49072 17.4928 9.90158 17.085 10.4082 17.085Z" fill="#FFFF9D"/>
<path d="M15.9128 17.085C16.4197 17.085 16.8303 17.4928 16.8303 17.9957V21.6385C16.8303 22.1414 16.4197 22.5492 15.9128 22.5492C15.4062 22.5492 14.9956 22.1414 14.9956 21.6385V17.9957C14.9956 17.4928 15.4062 17.085 15.9128 17.085Z" fill="#FFFF9D"/>
<path d="M26.9218 17.085C27.4287 17.085 27.8393 17.4928 27.8393 17.9957V21.6385C27.8393 22.1414 27.4287 22.5492 26.9218 22.5492C26.4153 22.5492 26.0044 22.1414 26.0044 21.6385V17.9957C26.0044 17.4928 26.4153 17.085 26.9218 17.085Z" fill="#FFEA21"/>
<path d="M32.4267 17.085C32.9333 17.085 33.3442 17.4928 33.3442 17.9957V21.6385C33.3442 22.1414 32.9333 22.5492 32.4267 22.5492C31.9201 22.5492 31.5093 22.1414 31.5093 21.6385V17.9957C31.5093 17.4928 31.9201 17.085 32.4267 17.085Z" fill="#FFEA21"/>
<path d="M26.9218 24.3706C27.4287 24.3706 27.8393 24.7782 27.8393 25.2811V28.9239C27.8393 29.4268 27.4287 29.8346 26.9218 29.8346C26.4153 29.8346 26.0044 29.4268 26.0044 28.9239V25.2811C26.0044 24.7782 26.4153 24.3706 26.9218 24.3706Z" fill="#FFEA21"/>
<path d="M32.4267 24.3706C32.9333 24.3706 33.3442 24.7782 33.3442 25.2811V28.9239C33.3442 29.4268 32.9333 29.8346 32.4267 29.8346C31.9201 29.8346 31.5093 29.4268 31.5093 28.9239V25.2811C31.5093 24.7782 31.9201 24.3706 32.4267 24.3706Z" fill="#FFEA21"/>
<path d="M3.06882 36.1084H23.2523C23.7589 36.1084 24.1698 36.5162 24.1698 37.0191C24.1698 37.522 23.7589 37.9298 23.2523 37.9298H3.06882C2.56198 37.9298 2.15137 37.522 2.15137 37.0191C2.15137 36.5162 2.56198 36.1084 3.06882 36.1084Z" fill="#FFBE00"/>
<path d="M26.9218 36.1084H37.931C38.4379 36.1084 38.8485 36.5162 38.8485 37.0191C38.8485 37.522 38.4379 37.9298 37.931 37.9298H26.9218C26.4153 37.9298 26.0044 37.522 26.0044 37.0191C26.0044 36.5162 26.4153 36.1084 26.9218 36.1084Z" fill="#FFA300"/>
<path d="M20.4999 29.835H22.3349C23.348 29.835 24.1698 30.6504 24.1698 31.6564C24.1698 32.6621 23.348 33.4775 22.3349 33.4775H20.4999C19.4865 33.4775 18.665 32.6621 18.665 31.6564C18.665 30.6504 19.4865 29.835 20.4999 29.835Z" fill="#FFEA21"/>
<path d="M2.15137 29.835C3.1648 29.835 3.98627 30.6504 3.98627 31.6564C3.98627 32.6621 3.1648 33.4775 2.15137 33.4775V29.835Z" fill="#FFEA21"/>
<path d="M7.65595 29.835H9.49086C10.5043 29.835 11.3258 30.6504 11.3258 31.6564C11.3258 32.6621 10.5043 33.4775 9.49086 33.4775H7.65595C6.64276 33.4775 5.82129 32.6621 5.82129 31.6564C5.82129 30.6504 6.64276 29.835 7.65595 29.835Z" fill="#FFEA21"/>
<path d="M16.8301 11.6213C16.8301 13.6331 15.1872 15.2642 13.1605 15.2642C11.1337 15.2642 9.49072 13.6331 9.49072 11.6213C9.49072 9.60938 11.1337 7.97852 13.1605 7.97852C15.1872 7.97852 16.8301 9.60938 16.8301 11.6213Z" fill="#33527D"/>
<path d="M13.1605 7.97852C11.1337 7.97852 9.49072 9.60938 9.49072 11.6213V11.669L9.49097 11.6724V11.6913L9.49121 11.694V11.6996L9.49146 11.7028V11.7108L9.4917 11.7139V11.7222L9.49195 11.7254V11.7278L9.49219 11.7312V11.7368L9.49244 11.739V11.7455L9.49268 11.7502V11.7521L9.49293 11.7558V11.7579L9.49317 11.7613V11.7638L9.49342 11.7669V11.7728L9.49366 11.775L9.49391 11.7784V11.7839L9.49415 11.7861L9.4944 11.79V11.7917L9.49464 11.7956V11.7973L9.49489 11.8022V11.8029L9.49513 11.8085V11.8102L9.49537 11.8143V11.816L9.49562 11.8199L9.49586 11.8219V11.8255L9.49611 11.8277L9.49635 11.8311V11.8333L9.4966 11.8369L9.49684 11.8389L9.49709 11.8425V11.8445L9.49733 11.8481L9.49758 11.8501L9.49782 11.8537V11.8556L9.49807 11.86V11.8612C9.49831 11.8651 9.49856 11.8685 9.4988 11.8724L9.49905 11.8736L9.49929 11.878L9.49954 11.8797L9.49978 11.8836V11.8855L9.50003 11.8892L9.50027 11.8914L9.50052 11.8948L9.50076 11.897L9.50101 11.9004V11.9026L9.50125 11.906L9.5015 11.9081L9.50199 11.9118V11.9137L9.50223 11.9179L9.50248 11.9191L9.50272 11.9242L9.50297 11.9249L9.5037 11.9361L9.50394 11.9376L9.50419 11.9414L9.50443 11.9436L9.50468 11.947L9.50492 11.9492L9.50517 11.9526L9.50541 11.9548L9.50566 11.9582L9.5059 11.9604L9.50615 11.964L9.50639 11.966L9.50688 11.9696L9.50713 11.9713L9.50737 11.9752L9.50762 11.9769L9.50786 11.9811L9.50811 11.9825L9.5086 11.9871L9.50884 11.9896L9.50933 11.9935L9.50958 11.9959L9.50982 11.999L9.51007 12.0015L9.51056 12.0046L9.5108 12.0071L9.51105 12.01L9.51129 12.0127L9.51153 12.0156L9.51178 12.0182L9.51227 12.0212L9.51251 12.0236L9.51276 12.0268L9.513 12.0292L9.51349 12.0323L9.51374 12.0345L9.51398 12.0379L9.51423 12.0401L9.5157 12.0511V12.0523L9.51619 12.0566L9.51643 12.0583L9.51692 12.062L9.51717 12.0642L9.51741 12.0676L9.5179 12.0695L9.51815 12.0729L9.51839 12.0751L9.51888 12.0785L9.51913 12.0807L9.51962 12.0841L9.51986 12.0863L9.52035 12.0899L9.52059 12.0916L9.52108 12.0958L9.52133 12.0972L9.52182 12.1016L9.52206 12.1028L9.52353 12.1138V12.1143L9.52427 12.1194L9.52451 12.1206L9.525 12.1249L9.52525 12.1262L9.52574 12.1303L9.52598 12.132L9.52647 12.1359L9.52672 12.1376L9.52721 12.1415L9.52745 12.1432L9.52818 12.1471L9.52843 12.1488L9.52892 12.1527L9.52916 12.1541L9.5299 12.1587V12.1595C9.53063 12.165 9.53161 12.1706 9.53235 12.176L9.53259 12.1774L9.53333 12.1816L9.53357 12.183L9.53406 12.1872L9.53431 12.1886L9.53504 12.1925L9.53529 12.1942L9.53578 12.1979L9.53626 12.1998L9.53675 12.2037L9.537 12.2052L9.53773 12.2093L9.53798 12.2105L9.53871 12.2151L9.53896 12.2158L9.53969 12.2207V12.2214C9.54067 12.227 9.54165 12.2326 9.54263 12.2382V12.2389L9.54361 12.2436L9.54386 12.2448L9.54459 12.2489L9.54483 12.2501L9.54557 12.2545L9.54581 12.2557L9.5463 12.2598L9.54655 12.2613L9.54728 12.2652L9.54777 12.2669L9.54851 12.271L9.54875 12.2722L9.54949 12.2771L9.54973 12.2776C9.55096 12.2849 9.55242 12.2922 9.55365 12.2995L9.55389 12.3004L9.55487 12.305L9.55512 12.3063L9.55585 12.3101L9.5561 12.3119L9.55683 12.3157L9.55708 12.3174L9.55781 12.3211L9.5583 12.3228L9.55904 12.3267L9.55928 12.3281L9.56026 12.3328V12.3335C9.56148 12.3388 9.56246 12.3444 9.56369 12.3498V12.3503L9.56467 12.3551L9.56491 12.3568L9.56589 12.3605L9.56614 12.3622L9.56687 12.366L9.56736 12.3678L9.5681 12.3714L9.56859 12.3729L9.56932 12.377L9.56956 12.3782L9.57054 12.3826L9.57079 12.3835L9.57177 12.3879L9.57299 12.394V12.3942C9.57422 12.3998 9.57544 12.4054 9.57667 12.4108V12.411L9.57789 12.4164V12.4168L9.57936 12.4227L9.58034 12.4271L9.58058 12.428L9.58156 12.4324L9.58181 12.4336L9.58279 12.438L9.58303 12.439L9.58401 12.4431L9.58426 12.4443L9.58548 12.4492V12.4497C9.58719 12.457 9.58891 12.4642 9.59062 12.4715L9.59209 12.4769V12.4774L9.59331 12.4822L9.59356 12.483L9.59454 12.4873L9.59478 12.4885L9.59576 12.4929L9.59601 12.4937L9.59723 12.4985L9.59748 12.4992L9.5987 12.5041V12.5046L9.60017 12.5097V12.5099C9.60139 12.5153 9.60286 12.5206 9.60433 12.5262V12.5265L9.60556 12.5313L9.6058 12.5325L9.60703 12.5369L9.60727 12.5376L9.60825 12.542L9.60874 12.5432L9.60972 12.5474L9.60996 12.5486L9.61119 12.5527L9.61266 12.5585V12.559L9.61413 12.5641V12.5644C9.61609 12.5717 9.61804 12.5787 9.62 12.586L9.62025 12.5863L9.62147 12.5911L9.62172 12.5918L9.62294 12.5965L9.62319 12.5974L9.6249 12.6025L9.62612 12.6074L9.62637 12.6079L9.62759 12.6127L9.62784 12.6132L9.62931 12.6183V12.6186C9.632 12.6276 9.63445 12.6363 9.63714 12.6453V12.6456L9.63861 12.6507L9.63886 12.6511L9.64008 12.656L9.64033 12.6565L9.64155 12.6611L9.6418 12.6618L9.64326 12.6665L9.64351 12.6672C9.64718 12.6796 9.6511 12.692 9.65477 12.7041L9.65502 12.7049L9.65649 12.7095L9.65673 12.7102L9.6582 12.7148L9.65844 12.7156L9.65991 12.7202L9.66016 12.7207L9.66163 12.7255L9.66187 12.726C9.66628 12.7401 9.67093 12.7542 9.67558 12.7683L9.67926 12.779C9.68464 12.7948 9.69003 12.8108 9.69566 12.8266L9.69738 12.8315L9.69762 12.832C9.70252 12.8461 9.70742 12.8597 9.71256 12.8735L9.7128 12.8738C10.0517 13.7893 10.7453 14.5326 11.6393 14.9378C11.6562 14.9453 11.6733 14.9528 11.6902 14.9601L11.6905 14.9604L11.6954 14.9623L11.6956 14.9626L11.7003 14.9645L11.7007 14.9647C11.7108 14.9691 11.7208 14.9735 11.7311 14.9776L11.7313 14.9779L11.7362 14.9798L11.7367 14.9801L11.7414 14.982L11.7421 14.9822L11.7465 14.9842L11.747 14.9844L11.7514 14.9861L11.7524 14.9866L11.7568 14.9883L11.7573 14.9886L11.7622 14.9905V14.9907C11.7708 14.9941 11.7793 14.9975 11.7882 15.0012H11.7884L11.793 15.0031L11.7938 15.0034L11.7982 15.0051L11.7989 15.0053L11.8033 15.007L11.8043 15.0075L11.8082 15.009L11.8095 15.0095L11.8134 15.0109L11.8146 15.0114L11.8188 15.0131L11.8195 15.0133C11.8281 15.0168 11.8366 15.0202 11.8452 15.0233L11.8459 15.0236L11.8503 15.0253L11.8513 15.0257L11.8552 15.0272L11.8567 15.0277L11.8606 15.0291L11.8655 15.0311L11.867 15.0316L11.8709 15.033L11.8719 15.0333L11.8763 15.035L11.877 15.0352L11.8822 15.0372C11.8858 15.0384 11.889 15.0396 11.8927 15.0411L11.8934 15.0413L11.8976 15.0428L11.8993 15.0435L11.9027 15.0445L11.9045 15.0452L11.9079 15.0464L11.9096 15.0469L11.9145 15.0488L11.9182 15.05L11.9199 15.0508L11.9233 15.052L11.9248 15.0525L11.9287 15.0537L11.9302 15.0544L11.9343 15.0559L11.9395 15.0576L11.9404 15.0581L11.9456 15.0598H11.9458L11.9507 15.0615L11.9517 15.062L11.9559 15.0634L11.9573 15.0639L11.9608 15.0651L11.9627 15.0656L11.9659 15.0668L11.9679 15.0675L11.9711 15.0685L11.973 15.0692L11.9762 15.0702L11.9784 15.071L11.9811 15.0719L11.9835 15.0727L11.9867 15.0736L11.9884 15.0744L11.9933 15.0761H11.9936L12.0039 15.0795L12.0056 15.0799L12.009 15.0812L12.0141 15.0829L12.0166 15.0836L12.0193 15.0843L12.0217 15.0853L12.0244 15.086L12.0269 15.087L12.0296 15.0877L12.032 15.0885L12.0347 15.0894L12.0374 15.0902L12.0396 15.0909L12.0423 15.0919L12.0445 15.0926L12.0477 15.0936L12.0492 15.094L12.0607 15.0977L12.0626 15.0982L12.0658 15.0991L12.0678 15.0999L12.0707 15.1008L12.0729 15.1013L12.0781 15.103L12.081 15.1038L12.0861 15.1055L12.0883 15.1059L12.0964 15.1086L12.0986 15.1091L12.1018 15.1101L12.1033 15.1106C12.1077 15.1118 12.1121 15.113 12.1167 15.1145L12.1204 15.1157L12.1221 15.1159L12.1256 15.1171L12.127 15.1176L12.1305 15.1186L12.1324 15.1191L12.1358 15.12L12.1373 15.1205L12.1527 15.1249L12.1564 15.1259L12.1569 15.1261C12.1647 15.1283 12.1728 15.1305 12.1806 15.1327L12.1814 15.1329L12.1855 15.1339L12.1865 15.1341L12.1904 15.1354L12.1917 15.1356L12.1956 15.1366L12.1968 15.1371L12.2007 15.138L12.2019 15.1385L12.2061 15.1395L12.2068 15.1397L12.211 15.1409H12.212C12.2215 15.1436 12.2313 15.1463 12.2411 15.1487H12.2414L12.246 15.1499H12.2463L12.2507 15.1512L12.2517 15.1514L12.2558 15.1524L12.2568 15.1526L12.261 15.1536L12.2619 15.1538L12.2661 15.155H12.2668L12.2712 15.1563L12.2717 15.1565C12.2801 15.1584 12.2881 15.1604 12.2965 15.1623L12.3009 15.1633L12.3018 15.1636L12.306 15.1645L12.3109 15.1657L12.3121 15.166L12.3163 15.1672H12.317L12.3214 15.1684H12.3219C12.3354 15.1716 12.3486 15.1745 12.3621 15.1774L12.3626 15.1776L12.3672 15.1786H12.3675L12.3724 15.1798H12.3726C12.4608 15.1988 12.5499 15.2148 12.6405 15.2277C13.1422 15.2977 13.6062 14.9506 13.6767 14.4526C13.747 13.9554 13.3985 13.4953 12.8978 13.4243C11.8947 13.2804 11.1988 12.3566 11.3437 11.3608C11.4743 10.4649 12.2475 9.79993 13.1596 9.79969C13.6662 9.7992 14.0765 9.39112 14.076 8.88801C14.0765 8.38611 13.6664 7.979 13.1605 7.97852Z" fill="#163969"/>
<path d="M13.1606 2.51429H13.213C14.3056 2.51429 15.3041 3.12677 15.7925 4.09678L23.3912 19.1824C23.8684 20.1296 24.8437 20.7279 25.9107 20.7279H37.8668C39.4223 20.7279 40.6835 19.476 40.6835 17.9319C40.6835 17.3799 40.519 16.8401 40.2105 16.3808L33.3441 3.12604C32.3231 1.60601 30.6045 0.692871 28.764 0.692871H13.1606V2.51429Z" fill="#163969"/>
<path d="M16.3452 2.3291C15.8386 2.32959 15.4282 2.73791 15.4287 3.24078C15.429 3.42429 15.485 3.60366 15.5896 3.75508C15.665 3.86421 15.7328 3.9782 15.7926 4.0968C15.7926 4.0968 15.8832 4.2769 16.045 4.59797L16.0457 4.59967L16.0501 4.60794L16.0514 4.61061C16.0531 4.61401 16.0545 4.61669 16.0563 4.62009L16.0575 4.62276C16.1189 4.74477 16.1904 4.88647 16.2703 5.04494L16.2712 5.04713C16.2779 5.06001 16.2842 5.07265 16.2908 5.08577L16.2913 5.08699C16.3849 5.27292 16.4904 5.48194 16.6052 5.71017L16.606 5.71163C16.7979 6.09273 17.0175 6.529 17.2573 7.00465L17.2617 7.01364C17.2656 7.02094 17.269 7.02798 17.2729 7.03552L17.2739 7.03746C17.3163 7.12156 17.3594 7.20711 17.4029 7.29364L17.4049 7.29753C17.4169 7.32134 17.4284 7.34443 17.4406 7.3685L17.4431 7.3736L17.4443 7.37603L17.4473 7.38162L17.4499 7.38697L17.4573 7.40179L17.4583 7.40374L17.4615 7.40981L17.4639 7.41468L17.4654 7.41784L17.4695 7.42586C19.7072 11.8683 23.3912 19.1822 23.3912 19.1822L23.3944 19.1885L23.3952 19.1902L23.3976 19.1946L23.3986 19.1968L23.4008 19.2011L23.4018 19.2028L23.4049 19.2092C23.4072 19.2135 23.4094 19.2174 23.4116 19.2218L23.4123 19.223L23.415 19.2281L23.4189 19.2359L23.4218 19.2415L23.4223 19.242C23.4245 19.2461 23.4267 19.2505 23.4292 19.2548L23.4297 19.2556L23.4324 19.2609L23.4331 19.2621L23.436 19.2675L23.4365 19.2685C23.44 19.2748 23.4436 19.2811 23.4471 19.2874L23.4476 19.2881L23.4507 19.2937L23.451 19.2945L23.4544 19.3003L23.4547 19.3008C23.4583 19.3073 23.462 19.3137 23.4657 19.32L23.4691 19.3263L23.4693 19.3265C23.6603 19.6559 23.9169 19.9432 24.2235 20.1707C24.2333 20.1779 24.2428 20.185 24.2526 20.192L24.2529 20.1923C24.2607 20.1979 24.2683 20.2035 24.2761 20.2091H24.2764L24.282 20.2129L24.2825 20.2134C24.2884 20.2176 24.294 20.2215 24.3001 20.2256L24.3055 20.2295L24.3065 20.2302L24.3114 20.2336L24.3124 20.2341L24.3178 20.2377L24.318 20.238C24.3219 20.2407 24.3258 20.2433 24.3297 20.246L24.3305 20.2465L24.3354 20.2496L24.3366 20.2504L24.3413 20.2535L24.3425 20.2545L24.3476 20.2579L24.3481 20.2582C24.352 20.2606 24.3559 20.2633 24.3599 20.2657L24.3611 20.2667L24.3655 20.2696L24.3672 20.2705L24.3714 20.2732L24.3728 20.2742L24.3775 20.2774L24.3785 20.2781L24.3843 20.2817L24.3851 20.2822L24.39 20.2854L24.3917 20.2866L24.3956 20.289L24.3978 20.2902L24.4015 20.2924L24.4037 20.2939L24.4076 20.2963L24.4093 20.2973L24.415 20.3009L24.4167 20.3019L24.4206 20.3043L24.4228 20.3058L24.4262 20.308L24.4287 20.3094L24.4321 20.3116L24.4345 20.3128L24.4382 20.3153L24.4402 20.3165L24.4456 20.3196L24.4483 20.3213L24.4512 20.323L24.4544 20.325L24.4568 20.3265L24.46 20.3284L24.4625 20.3299L24.4656 20.3318L24.4681 20.3333C24.4723 20.3354 24.4762 20.3379 24.4803 20.3403L24.482 20.3413L24.486 20.3435L24.4877 20.3447L24.4916 20.3469L24.4933 20.3478L24.4972 20.35L24.4975 20.3503C24.5024 20.3529 24.5073 20.3559 24.5122 20.3585L24.5134 20.3593L24.5175 20.3617L24.5188 20.3624L24.5232 20.3649L24.5239 20.3653C24.5308 20.3692 24.5374 20.3729 24.5442 20.3765L24.5445 20.3768L24.5494 20.3794L24.5499 20.3797C24.6028 20.4088 24.6566 20.4361 24.7115 20.4616C25.1706 20.6745 25.7166 20.4779 25.9311 20.0222C26.1448 19.5679 25.9487 19.0276 25.4921 18.8132C25.2932 18.7197 25.1316 18.5629 25.0327 18.3677L17.4338 3.2821C17.3363 3.08888 17.2257 2.90246 17.1023 2.7243C16.9311 2.47663 16.6478 2.32862 16.3452 2.3291Z" fill="#5E7599"/>
<path d="M19.5825 2.51416H21.4174C21.924 2.51416 22.3349 2.92175 22.3349 3.42487C22.3349 3.92774 21.924 4.33558 21.4174 4.33558H19.5825C19.0759 4.33558 18.665 3.92774 18.665 3.42487C18.665 2.92175 19.0759 2.51416 19.5825 2.51416Z" fill="#33527D"/>
<path d="M28.7568 2.51416H30.5917C31.0986 2.51416 31.5092 2.92175 31.5092 3.42487C31.5092 3.92774 31.0986 4.33558 30.5917 4.33558H28.7568C28.2502 4.33558 27.8394 3.92774 27.8394 3.42487C27.8394 2.92175 28.2502 2.51416 28.7568 2.51416Z" fill="#33527D"/>
<path d="M25.0874 4.33594H26.9223C27.4289 4.33594 27.8395 4.74353 27.8395 5.2464C27.8395 5.74951 27.4289 6.15711 26.9223 6.15711H25.0874C24.5805 6.15711 24.1699 5.74951 24.1699 5.2464C24.1699 4.74353 24.5805 4.33594 25.0874 4.33594Z" fill="#33527D"/>
<path d="M30.5918 6.15674H32.4267C32.9333 6.15674 33.3441 6.56458 33.3441 7.06745C33.3441 7.57032 32.9333 7.97815 32.4267 7.97815H30.5918C30.0852 7.97815 29.6743 7.57032 29.6743 7.06745C29.6743 6.56458 30.0852 6.15674 30.5918 6.15674Z" fill="#33527D"/>
<path d="M34.2612 13.4424H36.0961C36.6027 13.4424 37.0133 13.85 37.0133 14.3531C37.0133 14.856 36.6027 15.2638 36.0961 15.2638H34.2612C33.7544 15.2638 33.3438 14.856 33.3438 14.3531C33.3438 13.85 33.7544 13.4424 34.2612 13.4424Z" fill="#33527D"/>
<path d="M28.7568 13.4424H30.5917C31.0986 13.4424 31.5092 13.85 31.5092 14.3531C31.5092 14.856 31.0986 15.2638 30.5917 15.2638H28.7568C28.2502 15.2638 27.8394 14.856 27.8394 14.3531C27.8394 13.85 28.2502 13.4424 28.7568 13.4424Z" fill="#33527D"/>
<path d="M30.5918 9.7998H32.4267C32.9333 9.7998 33.3441 10.2074 33.3441 10.7105C33.3441 11.2134 32.9333 11.6212 32.4267 11.6212H30.5918C30.0852 11.6212 29.6743 11.2134 29.6743 10.7105C29.6743 10.2076 30.0852 9.7998 30.5918 9.7998Z" fill="#33527D"/>
<path d="M23.2524 11.6211H25.0873C25.5939 11.6211 26.0045 12.0287 26.0045 12.5318C26.0045 13.0347 25.5939 13.4425 25.0873 13.4425H23.2524C22.7456 13.4425 22.335 13.0347 22.335 12.5318C22.335 12.0287 22.7456 11.6211 23.2524 11.6211Z" fill="#33527D"/>
<path d="M25.0874 7.97852H26.9223C27.4289 7.97852 27.8395 8.38635 27.8395 8.88922C27.8395 9.39209 27.4289 9.79993 26.9223 9.79993H25.0874C24.5805 9.79993 24.1699 9.39209 24.1699 8.88922C24.1699 8.38635 24.5805 7.97852 25.0874 7.97852Z" fill="#33527D"/>
<path d="M26.9218 18.9067H37.931C38.4379 18.9067 38.8485 19.3146 38.8485 19.8174C38.8485 20.3203 38.4379 20.7282 37.931 20.7282H26.9218C26.4153 20.7282 26.0044 20.3203 26.0044 19.8174C26.0044 19.3146 26.4153 18.9067 26.9218 18.9067Z" fill="#002755"/>
</svg>








