<svg width="41" height="38" viewBox="0 0 41 38" fill="none" xmlns="http://www.w3.org/2000/svg">
<path d="M7.39351 6.45459H32.8363C34.8437 6.45459 36.471 8.08739 36.471 10.1015V24.6889C36.471 26.703 34.8437 28.3358 32.8363 28.3358H7.39351C5.38614 28.3358 3.75879 26.703 3.75879 24.6889V10.1015C3.75879 8.0873 5.38614 6.45459 7.39351 6.45459Z" fill="#E1C3FF"/>
<path d="M25.5673 17.3955H34.6538C35.6575 17.3955 36.4711 18.2119 36.4711 19.2189C36.4711 20.226 35.6575 21.0424 34.6538 21.0424H25.5673C24.5636 21.0424 23.75 20.226 23.75 19.219C23.75 18.2119 24.5636 17.3955 25.5673 17.3955Z" fill="#CD9AF3"/>
<path d="M3.75874 2.80762H36.4706C38.478 2.80762 40.1053 4.44041 40.1053 6.45451V13.7485C40.1053 15.7625 38.478 17.3953 36.4706 17.3953H3.75874C1.75137 17.3953 0.124023 15.7625 0.124023 13.7485V6.45451C0.124023 4.44033 1.75137 2.80762 3.75874 2.80762Z" fill="#FF4957"/>
<path d="M4.66749 8.27783H6.48481C6.98665 8.27783 7.39351 8.68605 7.39351 9.18958C7.39351 9.6931 6.98665 10.1013 6.48481 10.1013H4.66749C4.16565 10.1013 3.75879 9.6931 3.75879 9.18958C3.75879 8.68597 4.16565 8.27783 4.66749 8.27783Z" fill="#F22738"/>
<path d="M24.6587 4.63086H26.476C26.9779 4.63086 27.3847 5.03908 27.3847 5.5426C27.3847 6.04613 26.9779 6.45426 26.476 6.45426H24.6587C24.1569 6.45426 23.75 6.04604 23.75 5.5426C23.75 5.03899 24.1569 4.63086 24.6587 4.63086Z" fill="#F22738"/>
<path d="M33.7451 8.27783H35.5624C36.0643 8.27783 36.4711 8.68605 36.4711 9.18958C36.4711 9.6931 36.0643 10.1013 35.5624 10.1013H33.7451C33.2433 10.1013 32.8364 9.6931 32.8364 9.18958C32.8364 8.68597 33.2433 8.27783 33.7451 8.27783Z" fill="#F22738"/>
<path d="M28.293 8.27783H30.1103C30.6121 8.27783 31.019 8.68605 31.019 9.18958C31.019 9.6931 30.6121 10.1013 30.1103 10.1013H28.293C27.7911 10.1013 27.3843 9.6931 27.3843 9.18958C27.3843 8.68597 27.7911 8.27783 28.293 8.27783Z" fill="#F22738"/>
<path d="M35.563 11.9253H37.3803C37.8822 11.9253 38.289 12.3335 38.289 12.837C38.289 13.3406 37.8822 13.7488 37.3803 13.7488H35.563C35.0612 13.7488 34.6543 13.3406 34.6543 12.837C34.6543 12.3334 35.0612 11.9253 35.563 11.9253Z" fill="#F22738"/>
<path d="M30.1108 4.63086H31.9282C32.43 4.63086 32.8369 5.03908 32.8369 5.5426C32.8369 6.04613 32.43 6.45426 31.9282 6.45426H30.1108C29.609 6.45426 29.2021 6.04604 29.2021 5.5426C29.2021 5.03899 29.609 4.63086 30.1108 4.63086Z" fill="#F22738"/>
<path d="M35.563 4.63086H37.3803C37.8822 4.63086 38.289 5.03908 38.289 5.5426C38.289 6.04613 37.8822 6.45426 37.3803 6.45426H35.563C35.0612 6.45426 34.6543 6.04604 34.6543 5.5426C34.6543 5.03899 35.0612 4.63086 35.563 4.63086Z" fill="#F22738"/>
<path d="M24.5023 10.8569L17.233 3.56323C15.8136 2.13908 13.5122 2.13908 12.0927 3.56323L4.82338 10.8569C4.14171 11.5409 3.75879 12.4684 3.75879 13.4357V24.6891C3.75879 26.7032 5.38614 28.336 7.39351 28.336H21.9322C23.9396 28.336 25.5669 26.7032 25.5669 24.6891V13.4357C25.5669 12.4684 25.184 11.5408 24.5023 10.8569Z" fill="#F6EDFF"/>
<path d="M25.0347 11.391L16.4445 2.77184C15.7347 2.05976 14.5841 2.05976 13.8743 2.77193C13.7356 2.91108 13.6203 3.07177 13.5329 3.24784L13.4292 3.45665C13.423 3.46905 13.423 3.48255 13.4172 3.49494C12.9274 3.23955 12.3294 3.33032 11.9369 3.71965L4.13525 11.5475C3.63281 12.0504 3.63187 12.8668 4.13321 13.3709C4.63454 13.8749 5.44817 13.8759 5.95052 13.3729C5.9512 13.3722 5.95189 13.3716 5.95257 13.3709C5.95257 13.3709 10.0813 9.23866 12.2205 7.10252C13.0785 6.24693 14.4654 6.2512 15.3181 7.11209C15.3185 7.11243 15.3188 7.11277 15.3192 7.11311L19.5827 11.391C19.9236 11.7329 20.1151 12.1967 20.1151 12.6803V13.7485C20.1151 14.7555 19.3015 15.5719 18.2978 15.5719H12.8457C11.842 15.5719 11.0284 16.3882 11.0284 17.3953C11.0284 18.4023 11.842 19.2187 12.8457 19.2187H17.3891C18.8946 19.2187 20.1151 20.4433 20.1151 21.9538C20.1151 23.4644 18.8946 24.689 17.3891 24.689H16.4803C15.4766 24.689 14.663 25.5053 14.663 26.5124C14.663 27.5194 15.4766 28.3358 16.4803 28.3358H21.9323C23.9397 28.3358 25.567 26.703 25.567 24.6889V12.6803C25.567 12.1967 25.3755 11.7329 25.0347 11.391Z" fill="#E7CEFF"/>
<path d="M18.2978 21.0419V28.3356H11.0283V21.0419C11.0283 19.0278 12.6557 17.395 14.663 17.395C16.6704 17.395 18.2978 19.0277 18.2978 21.0419Z" fill="#5F7BCE"/>
<path d="M11.9366 21.0415C12.4385 21.0415 12.8452 21.4497 12.8452 21.9532V27.4232C12.8452 27.9267 12.4384 28.3349 11.9365 28.3349C11.4347 28.3349 11.0278 27.9267 11.0278 27.4232V21.9532C11.0279 21.4496 11.4348 21.0415 11.9366 21.0415Z" fill="#2C50BD"/>
<path d="M7.393 17.3955C8.39677 17.3955 9.2104 18.2119 9.2104 19.2189V22.8655C9.2104 23.8726 8.39677 24.6889 7.39309 24.6889C6.38931 24.6889 5.57568 23.8726 5.57568 22.8655V19.2189C5.57568 18.2119 6.38931 17.3955 7.393 17.3955Z" fill="#5F7BCE"/>
<path d="M6.48438 19.2188C6.98623 19.2188 7.393 19.627 7.393 20.1305V21.9539C7.393 22.4574 6.98614 22.8656 6.48438 22.8656C5.98254 22.8656 5.57568 22.4574 5.57568 21.9539V20.1305C5.57568 19.6269 5.98254 19.2188 6.48438 19.2188Z" fill="#2C50BD"/>
<path d="M21.9321 17.395C22.9358 17.395 23.7495 18.2114 23.7495 19.2184V22.8651C23.7495 23.8721 22.9358 24.6885 21.9321 24.6885C20.9284 24.6885 20.1147 23.8721 20.1147 22.8651V19.2184C20.1147 18.2114 20.9284 17.395 21.9321 17.395Z" fill="#5F7BCE"/>
<path d="M31.0195 17.395C32.0232 17.395 32.8369 18.2114 32.8369 19.2184V24.6891C32.8369 25.6961 32.0232 26.5125 31.0196 26.5125C30.0158 26.5125 29.2021 25.6961 29.2021 24.6891V19.2184C29.2021 18.2114 30.0158 17.395 31.0195 17.395Z" fill="#5F7BCE"/>
<path d="M11.9365 11.9253H17.3882C17.8901 11.9253 18.2969 12.3335 18.2969 12.837C18.2969 13.3406 17.8901 13.7488 17.3882 13.7488H11.9365C11.4347 13.7488 11.0278 13.3406 11.0278 12.837C11.0278 12.3334 11.4347 11.9253 11.9365 11.9253Z" fill="#2C50BD"/>
<path d="M2.84995 14.6601L14.6627 2.80786L26.4755 14.6602C26.9773 15.1637 27.791 15.1637 28.2928 14.6602C28.7947 14.1567 28.7947 13.3403 28.2928 12.8368L17.7651 2.27374C16.9423 1.44815 15.8263 0.984375 14.6627 0.984375C13.4991 0.984375 12.3831 1.44815 11.5603 2.27374L1.03263 12.8367C0.530789 13.3402 0.530789 14.1566 1.03263 14.6601C1.53448 15.1636 2.34811 15.1636 2.84995 14.6601Z" fill="#FF747F"/>
<path d="M2.85011 6.45459H4.66742C5.16927 6.45459 5.57613 6.86281 5.57613 7.36633C5.57613 7.86986 5.16927 8.27808 4.66742 8.27808H2.85011C2.34826 8.27808 1.94141 7.86986 1.94141 7.36633C1.94141 6.86272 2.34826 6.45459 2.85011 6.45459Z" fill="#F22738"/>
<path d="M31.019 22.8656C32.0227 22.8656 32.8363 22.0492 32.8363 21.0422C32.8363 20.0351 32.0227 19.2188 31.019 19.2188C30.0153 19.2188 29.2017 20.0351 29.2017 21.0422C29.2017 22.0492 30.0153 22.8656 31.019 22.8656Z" fill="#2C50BD"/>
<path d="M21.0234 21.042C21.5253 21.042 21.9321 21.4502 21.9321 21.9537V23.7771C21.9321 24.2807 21.5253 24.6889 21.0234 24.6889C20.5216 24.6889 20.1147 24.2807 20.1147 23.7771V21.9537C20.1148 21.4501 20.5217 21.042 21.0234 21.042Z" fill="#2C50BD"/>
<path d="M34.8155 22.8818C34.7608 22.8793 34.7091 22.8655 34.6537 22.8655C32.0627 22.8655 30.1048 25.5857 31.4625 28.3353C32.039 29.503 33.3156 30.1592 34.6143 30.1592H36.4711C38.4785 30.1592 40.1058 28.5264 40.1058 26.5123V23.7771C40.1057 22.2666 38.8852 21.042 37.3797 21.042C36.2216 21.0444 35.1923 21.783 34.8155 22.8818Z" fill="#00C76E"/>
<path d="M34.6533 26.5122H36.4707C37.4743 26.5122 38.288 27.3286 38.288 28.3356C38.288 29.3427 37.4743 30.1591 36.4707 30.1591H34.6533C33.6496 30.1591 32.8359 29.3427 32.8359 28.3357C32.8359 27.3286 33.6496 26.5122 34.6533 26.5122Z" fill="#00AA6E"/>
<path d="M34.8154 22.8818L34.7277 22.8717C34.7063 22.8685 34.6847 22.8664 34.6631 22.8656L34.6608 22.8655L34.6559 22.8654H34.646H34.6389H34.6315L34.6241 22.8655L34.6167 22.8656L34.6092 22.8657L34.6017 22.8657H34.6011L34.5943 22.8658L34.587 22.866L34.5795 22.8662H34.5788L34.5721 22.8663L34.5648 22.8665L34.5574 22.8667L34.55 22.8668L34.5426 22.867L34.5351 22.8672L34.5277 22.8674L34.5267 22.8675L34.5202 22.8678L34.5128 22.868L34.5055 22.8683L34.498 22.8686L34.4969 22.8687L34.4906 22.869L34.4833 22.8694L34.4758 22.8698L34.4748 22.8698L34.4684 22.8702L34.461 22.8706L34.4536 22.871L34.4528 22.8711L34.4463 22.8715L34.4388 22.8719L34.4317 22.8723L34.4245 22.8727L34.4172 22.8733L34.416 22.8733L34.4097 22.8738L34.4025 22.8743L34.4015 22.8744L34.3952 22.8748L34.3882 22.8753L34.3805 22.8758L34.3793 22.8759L34.3734 22.8763L34.366 22.8769L34.3587 22.8775L34.3572 22.8776L34.3513 22.8781L34.344 22.8787L34.3367 22.8794L34.335 22.8796L34.3294 22.8801L34.3277 22.8803L34.3221 22.8808L34.3149 22.8815L34.313 22.8816L34.3077 22.8821L34.3056 22.8823L34.3004 22.8828L34.2929 22.8835L34.2856 22.8843L34.2838 22.8845L34.2783 22.8851L34.2711 22.8858L34.2637 22.8866L34.2619 22.8868L34.2565 22.8874L34.2492 22.8882L34.2422 22.8891L34.2399 22.8893L34.2345 22.8899L34.2277 22.8907L34.2254 22.891L34.2204 22.8915L34.2182 22.8918L34.2136 22.8924L34.2061 22.8933L34.1992 22.8942L34.1963 22.8945L34.192 22.8951L34.1891 22.8955L34.185 22.896L34.1818 22.8964L34.1776 22.8969L34.1751 22.8973L34.1705 22.8979L34.1632 22.8988L34.1607 22.8992L34.1562 22.8998L34.153 22.9002L34.1489 22.9008L34.1418 22.9018L34.1388 22.9022L34.1346 22.9028L34.1319 22.9032L34.1274 22.9039L34.1201 22.905L34.1175 22.9054L34.1129 22.9061L34.1102 22.9065L34.1057 22.9072L34.0986 22.9083L34.0957 22.9087L34.0914 22.9094L34.0886 22.9098L34.0842 22.9105L34.0771 22.9117L34.074 22.9122L34.0707 22.9127L34.0667 22.9133L34.0627 22.914L34.0561 22.9151L34.0524 22.9157L34.0496 22.9163L34.0452 22.9169L34.038 22.9182L34.0355 22.9186L34.0309 22.9194L34.0237 22.9207L34.0164 22.922L34.0143 22.9223L34.0091 22.9233L34.0021 22.9245L33.9948 22.9259L33.9931 22.9263L33.9876 22.9273L33.9804 22.9286L33.9734 22.93L33.9715 22.9304L33.9661 22.9314L33.9588 22.9327L33.9573 22.9331L33.9515 22.9342L33.9503 22.9345L33.9447 22.9356L33.9375 22.937L33.936 22.9374L33.9302 22.9386L33.9289 22.9388L33.9226 22.9401L33.9157 22.9416L33.9147 22.9417L33.9081 22.9431C32.4179 23.2573 31.2804 24.469 31.0573 25.98C31.0569 25.9826 31.0566 25.9849 31.0562 25.9874L31.0552 25.9947L31.0541 26.002C31.0518 26.0182 31.0497 26.034 31.0477 26.0499L31.0468 26.0572C31.0463 26.06 31.0461 26.0622 31.0458 26.0645C31.0455 26.0674 31.0452 26.0695 31.045 26.0717L31.0441 26.079C31.0438 26.0821 31.0435 26.0841 31.0434 26.0861L31.0432 26.0876L31.0425 26.0933L31.0417 26.1006C31.0412 26.1041 31.0411 26.1059 31.0409 26.1077L31.0406 26.1096L31.04 26.115C31.0396 26.1188 31.0394 26.1207 31.0393 26.1225L31.0385 26.1293L31.0383 26.1315L31.0377 26.1365L31.0375 26.1388L31.0371 26.1423L31.0368 26.1456L31.0364 26.1496L31.0356 26.157L31.0354 26.1593L31.0348 26.1642L31.0347 26.1663L31.0342 26.1716C31.0338 26.1753 31.0337 26.1773 31.0335 26.1789L31.0328 26.1862L31.0326 26.1883L31.0321 26.1936C31.0319 26.1972 31.0317 26.199 31.0315 26.2007C31.0312 26.2048 31.0311 26.2065 31.0309 26.208L31.0307 26.2106L31.0302 26.2151C31.0299 26.2195 31.0297 26.2211 31.0296 26.2226L31.0291 26.2295L31.0288 26.2325L31.0285 26.2365L31.0283 26.2398L31.0278 26.2473L31.0275 26.2504C31.0274 26.2518 31.0273 26.2531 31.0273 26.2546C31.0272 26.2555 31.0271 26.2568 31.027 26.2577L31.0267 26.2621L31.0262 26.2694L31.026 26.2723C31.0259 26.2738 31.0257 26.2753 31.0257 26.2767L31.0256 26.2795C31.0255 26.281 31.0253 26.2824 31.0253 26.2839C31.025 26.2884 31.0249 26.29 31.0248 26.2915L31.0247 26.2939L31.0245 26.2982L31.0243 26.3013L31.024 26.3054C31.0238 26.3098 31.0237 26.3112 31.0236 26.3124L31.0233 26.3159L31.0232 26.32L31.023 26.3227L31.0228 26.3272L31.0224 26.3346L31.0223 26.3366C31.0222 26.3384 31.0222 26.3401 31.0221 26.3418L31.0217 26.3493C31.0216 26.3531 31.0216 26.3548 31.0214 26.3566L31.0213 26.3588C31.0212 26.3605 31.0211 26.3621 31.021 26.3639L31.021 26.3662L31.0208 26.3712L31.0205 26.3788L31.0205 26.3807L31.0203 26.3861L31.0202 26.3882L31.02 26.3936L31.0198 26.4009L31.0196 26.408L31.0195 26.4103L31.0193 26.4153L31.0192 26.4223L31.0191 26.425C31.019 26.4266 31.019 26.428 31.019 26.4295L31.0189 26.4323L31.0188 26.4371C31.0187 26.441 31.0187 26.4428 31.0187 26.4446L31.0186 26.4519V26.4535C31.0185 26.4554 31.0185 26.4573 31.0185 26.4592L31.0184 26.4666C31.0183 26.4702 31.0183 26.472 31.0183 26.474L31.0182 26.4758C31.0182 26.4776 31.0182 26.4795 31.0182 26.4813C31.0182 26.4851 31.0182 26.4869 31.0181 26.4887V26.4963V26.4978V26.5272C31.0182 26.5293 31.0182 26.5314 31.0182 26.5336C31.0182 26.5366 31.0182 26.5387 31.0182 26.5408C31.0182 26.5437 31.0182 26.5458 31.0183 26.548L31.0184 26.5557L31.0185 26.563L31.0186 26.5703V26.571L31.0187 26.5776C31.0187 26.5806 31.0187 26.5829 31.0187 26.585C31.0188 26.5882 31.0189 26.5903 31.0189 26.5925L31.0191 26.6L31.0193 26.6074L31.0195 26.6149C31.0196 26.618 31.0196 26.6202 31.0198 26.6225V26.6231C31.0199 26.6254 31.0199 26.6277 31.02 26.6299L31.0203 26.6372L31.0205 26.6448V26.6451L31.0208 26.6523C31.021 26.6573 31.0212 26.6621 31.0215 26.667L31.0218 26.6745L31.0221 26.682L31.0225 26.6895L31.0228 26.6969V26.6972L31.0233 26.7044C31.0233 26.7071 31.0235 26.7095 31.0237 26.7119C31.0239 26.717 31.0242 26.7219 31.0245 26.7268L31.025 26.7344C31.0559 27.219 31.1726 27.6941 31.3695 28.1376C31.5709 28.5988 32.1068 28.8089 32.5664 28.6068C33.0261 28.4047 33.2355 27.867 33.0341 27.4058C32.6382 26.499 32.9241 25.834 33.1298 25.5182C33.4509 25.0227 33.9917 24.7144 34.5803 24.6913C34.6368 24.6973 34.6988 24.7028 34.7344 24.7044C34.7616 24.7055 34.7886 24.7061 34.8157 24.7061C35.5887 24.7059 36.2769 24.215 36.5313 23.4826C36.6552 23.1176 36.995 22.8708 37.3792 22.8663C37.8808 22.8669 38.2873 23.2747 38.2879 23.7781V26.5132C38.288 26.6329 38.2765 26.7522 38.2536 26.8696C38.1566 27.3637 38.4771 27.8431 38.9695 27.9404C39.4619 28.0376 39.9397 27.7161 40.0367 27.2221C40.0436 27.1868 40.05 27.1515 40.0559 27.1158L40.0562 27.1139L40.0571 27.1082L40.0573 27.1072C40.0575 27.1056 40.0578 27.1042 40.058 27.1026L40.0582 27.1015L40.0589 27.0969L40.0598 27.0912C40.0837 26.9407 40.0982 26.7889 40.1031 26.6366L40.1034 26.631L40.1035 26.6252L40.1037 26.6195V26.6182L40.1039 26.6137C40.104 26.6108 40.104 26.6095 40.104 26.6081L40.1041 26.6022L40.1042 26.6005L40.1043 26.5965L40.1045 26.5907L40.1046 26.5851V26.5829L40.1047 26.5794L40.1047 26.5737L40.1049 26.5678L40.105 26.5655L40.1051 26.5597L40.1052 26.5562L40.1052 26.5504V26.5483L40.1053 26.5446L40.1054 26.539V26.5307L40.1055 26.5134V23.7782C40.1056 22.2666 38.8851 21.042 37.3796 21.042C36.2214 21.0444 35.1921 21.783 34.8154 22.8818Z" fill="#56DA9F"/>
<path d="M14.6067 28.6879C14.3327 26.4088 12.4074 24.6929 10.1195 24.6886C9.73588 24.6884 9.3539 24.7387 8.98333 24.8381C8.07326 25.081 7.10416 24.7933 6.47241 24.0927C5.29656 22.7596 3.16532 22.2983 1.14432 23.8025C0.479684 24.2971 0.124023 25.1064 0.124023 25.9366V29.7715C0.124023 32.175 1.75137 33.8056 3.75874 33.8056H16.3859C19.9007 33.8056 20.0845 28.3932 16.5703 28.3361C16.5404 28.3357 16.5103 28.3354 16.4801 28.3354C15.8398 28.3406 15.2054 28.46 14.6067 28.6879Z" fill="#19E77C"/>
<path d="M1.20617 23.7571C1.18555 23.772 1.16494 23.7872 1.14424 23.8026C0.479684 24.2972 0.124023 25.1065 0.124023 25.9367V29.7865L0.124109 29.7894V29.8012L0.124194 29.8046L0.124279 29.8119V29.8159L0.124364 29.8192V29.8233L0.124449 29.8265L0.12462 29.834V29.8378L0.124705 29.8412C0.12479 29.8426 0.12479 29.8441 0.12479 29.8454L0.124875 29.8486C0.124875 29.8504 0.124961 29.8523 0.124961 29.8541L0.125046 29.863L0.125131 29.866L0.125216 29.8705L0.125386 29.8777L0.125472 29.8808L0.125557 29.8851L0.125642 29.8883L0.125727 29.8923L0.125898 29.8996L0.125983 29.903L0.126068 29.907L0.126153 29.9102C0.126153 29.9116 0.126238 29.913 0.126238 29.9143C0.126409 29.9189 0.126409 29.9202 0.126409 29.9215L0.126494 29.9248L0.126579 29.9289L0.126664 29.9321C0.126749 29.9336 0.126749 29.9351 0.126749 29.9365L0.12709 29.9464L0.127175 29.9495L0.127346 29.9536L0.127431 29.9571L0.127601 29.9642L0.127772 29.9681L0.127857 29.9715L0.128027 29.9753L0.128283 29.9825L0.128453 29.986L0.128624 29.9899L0.128709 29.993L0.128879 29.9972L0.12922 30.0042L0.12939 30.0077L0.129475 30.0111L0.129731 30.015L0.129816 30.0181L0.130157 30.0246C0.130327 30.0276 0.130413 30.0306 0.130583 30.0336L0.130668 30.036L0.130924 30.0401L0.131264 30.047L0.13152 30.0505L0.13169 30.0542L0.131946 30.0575L0.132372 30.0646L0.132627 30.0686L0.132798 30.0716L0.133053 30.0757L0.133565 30.0828L0.133735 30.0858L0.13399 30.0899L0.134161 30.093L0.134416 30.097L0.134842 30.1041L0.135013 30.1068C0.135268 30.1105 0.135524 30.1141 0.135694 30.1178L0.136035 30.123L0.136546 30.1296L0.136716 30.1321L0.136972 30.1366C0.137313 30.1406 0.137398 30.142 0.137483 30.1435L0.137739 30.1463L0.137994 30.1504L0.13825 30.1534L0.138591 30.1575L0.139187 30.1646L0.139357 30.1674L0.139698 30.1716L0.140294 30.1787L0.14055 30.1811L0.140891 30.1857C0.141487 30.193 0.141998 30.1988 0.142424 30.2045L0.142594 30.2063L0.14302 30.2107L0.143702 30.2178L0.143957 30.2204L0.144383 30.2249L0.144639 30.2274C0.144809 30.229 0.144895 30.2303 0.145065 30.2319L0.145746 30.2388L0.146002 30.2412L0.146428 30.2458L0.147109 30.2528L0.14728 30.2546L0.147791 30.2598C0.148132 30.2629 0.148302 30.2649 0.148472 30.2667C0.149324 30.2755 0.150176 30.2843 0.151113 30.2929L0.151795 30.2993L0.152561 30.3059C0.152902 30.3091 0.153073 30.3109 0.153328 30.3127L0.153499 30.3143L0.154095 30.3194C0.154521 30.3231 0.154691 30.3245 0.154862 30.3264L0.155032 30.3279C0.155287 30.3297 0.155458 30.3315 0.155628 30.3333C0.155969 30.3365 0.156225 30.3384 0.156395 30.3402C0.158013 30.3538 0.159462 30.3669 0.16108 30.3801L0.161762 30.3861L0.162528 30.3928C0.162869 30.3959 0.16304 30.3976 0.163295 30.3995L0.164147 30.4063L0.164999 30.4131C0.16534 30.4159 0.165595 30.4179 0.165851 30.4199C0.16781 30.4353 0.169855 30.4506 0.171984 30.4659C0.172581 30.4704 0.173177 30.4746 0.173773 30.479C0.177607 30.5055 0.18144 30.5314 0.185614 30.5573C0.222756 30.7932 0.278725 31.0257 0.353009 31.2526C0.358291 31.2683 0.363487 31.284 0.368854 31.2996L0.370643 31.3049L0.372602 31.3105L0.373028 31.3117L0.374647 31.3164L0.376691 31.3222C0.377799 31.3252 0.37831 31.3268 0.378821 31.3282L0.379247 31.3296L0.380951 31.3343L0.38308 31.3404C0.385806 31.3481 0.388362 31.3552 0.390918 31.3625L0.391429 31.3639L0.393558 31.3699L0.395007 31.3738L0.395688 31.3759L0.397051 31.3796L0.397988 31.3821L0.399181 31.3855L0.400203 31.3881L0.401396 31.3913L0.402418 31.3943L0.404803 31.4005L0.405826 31.4032L0.40804 31.4093L0.409744 31.4137C0.411022 31.4171 0.411789 31.4191 0.41247 31.4211L0.417241 31.4334C0.418348 31.4362 0.41903 31.4379 0.419626 31.4396L0.421926 31.4456L0.422522 31.4471L0.424311 31.4517L0.426697 31.458C0.427804 31.4608 0.428486 31.4625 0.429167 31.4642L0.431552 31.4705C0.441519 31.4959 0.451401 31.5205 0.461539 31.5449C0.653638 32.01 1.18521 32.2309 1.6488 32.0383C2.1124 31.8456 2.33252 31.3122 2.14051 30.847C2.14042 30.8468 2.14034 30.8465 2.14017 30.8462C2.00438 30.5045 1.93708 30.1392 1.94236 29.7713V25.9364C1.94236 25.6544 2.05183 25.3978 2.22791 25.2667C2.74339 24.8829 3.25886 24.6883 3.75959 24.6884C4.21978 24.6877 4.66267 24.8642 4.99695 25.1815C5.36164 25.5273 5.93675 25.5111 6.2815 25.1451C6.62617 24.7792 6.60999 24.2021 6.2453 23.8562C6.24487 23.8558 6.24436 23.8554 6.24393 23.855C5.63169 23.2739 4.83595 22.9263 3.99488 22.8724L3.98935 22.8721L3.98875 22.872L3.98372 22.8717C3.97222 22.871 3.96149 22.8704 3.95059 22.8698H3.94999L3.94513 22.8695L3.93968 22.8692L3.93389 22.8689L3.93261 22.8688L3.92818 22.8686L3.9223 22.8683C3.91498 22.8679 3.90782 22.8677 3.90067 22.8674L3.89538 22.8672L3.89377 22.8671L3.88806 22.8669L3.88371 22.8667L3.87792 22.8665L3.87213 22.8664H3.87102C3.86582 22.8662 3.8608 22.866 3.85569 22.8659L3.85126 22.8659L3.84913 22.8658L3.84555 22.8657L3.83976 22.8655L3.83729 22.8654L3.83124 22.8653L3.828 22.8652L3.82195 22.865L3.81931 22.8649L3.81343 22.8648L3.80764 22.8647H3.8044H3.80151H3.79546H3.79248H3.7895H3.78353H3.7803H3.77425H3.77161H3.76777L3.75883 22.8653C2.94451 22.8653 2.06648 23.1344 1.20617 23.7571Z" fill="#88F3BC"/>
<path d="M15.8723 31.9824H4.96827C4.46643 31.9824 4.05957 32.3906 4.05957 32.8942C4.05957 33.3977 4.46643 33.8059 4.96827 33.8059H15.8723C16.3742 33.8059 16.781 33.3977 16.781 32.8942C16.781 32.3906 16.3742 31.9824 15.8723 31.9824Z" fill="#00C76E"/>
<path d="M10.1729 25.7309C10.1731 26.1406 10.4459 26.5 10.8395 26.6091C11.8992 26.9058 12.6751 27.8157 12.8032 28.912C12.9265 29.9115 13.8339 30.6214 14.8299 30.4977C14.9678 30.4806 15.1034 30.4476 15.2338 30.3995C15.6498 30.2402 16.0915 30.1589 16.5368 30.1595H16.5409C16.8685 30.1649 17.1845 30.2414 17.2787 30.7612C17.3686 31.2566 17.8417 31.5851 18.3354 31.495C18.8292 31.4048 19.1565 30.9302 19.0667 30.4348C19.0265 30.2102 18.9594 29.9912 18.8669 29.7827L18.8655 29.7796L18.8589 29.765L18.8575 29.7619L18.8561 29.7588C18.8546 29.7554 18.8533 29.7526 18.8521 29.75L18.8509 29.7473L18.8494 29.7442L18.8479 29.741L18.8438 29.7323L18.8426 29.7297L18.8421 29.7286L18.8395 29.7235L18.8355 29.715L18.8343 29.7124L18.8336 29.711L18.8312 29.7061L18.8296 29.7028L18.8288 29.7012L18.8265 29.6966L18.8249 29.6933L18.8227 29.6886L18.8211 29.6854L18.82 29.6832C18.8189 29.6811 18.8185 29.6803 18.818 29.6791L18.8163 29.6757L18.8141 29.6713L18.8125 29.6681L18.8111 29.6654L18.8091 29.6615L18.8075 29.6584L18.8053 29.6539L18.8036 29.6507L18.8022 29.6479L18.8003 29.6441L18.7986 29.6408L18.7964 29.6368L18.7951 29.6343L18.7933 29.6308C18.7917 29.6279 18.7906 29.6259 18.7895 29.6236L18.7873 29.6197L18.7859 29.617L18.7839 29.6134L18.7802 29.6064L18.7765 29.5997L18.7745 29.5961L18.7689 29.5859L18.7671 29.5826C18.4072 28.933 17.768 28.4447 16.8409 28.352C16.8163 28.3496 16.792 28.3475 16.7673 28.3455L16.7624 28.3452C16.7556 28.3446 16.7492 28.3442 16.7426 28.3438H16.7421L16.7377 28.3434C16.7306 28.343 16.7244 28.3426 16.7177 28.3422L16.7128 28.3419L16.708 28.3416L16.7072 28.3415C16.7039 28.3413 16.7009 28.3411 16.6976 28.341L16.6927 28.3407L16.688 28.3405L16.6828 28.3402C16.6788 28.34 16.6757 28.3399 16.6723 28.3397L16.6676 28.3394L16.6666 28.3393L16.6628 28.3392L16.6579 28.3389C16.6535 28.3387 16.6502 28.3386 16.6471 28.3384H16.6465L16.6423 28.3382L16.6376 28.3381L16.6326 28.3379L16.6274 28.3376L16.6216 28.3375L16.6168 28.3373H16.6156L16.6119 28.3372L16.6071 28.3371L16.6018 28.337L16.5912 28.3368H16.5899L16.5847 28.3366L16.5816 28.3365L16.5767 28.3364L16.5703 28.3364H16.5644C15.9058 28.3335 15.252 28.4493 14.6341 28.678L14.625 28.6814L14.614 28.6854C14.6111 28.6865 14.6089 28.6873 14.6065 28.6882L14.6058 28.6821L14.605 28.676L14.6048 28.6737L14.6042 28.6697L14.6033 28.6631L14.6031 28.6614C14.6028 28.6595 14.6025 28.6573 14.6023 28.6554L14.6015 28.6493L14.6013 28.6473L14.6007 28.6432L14.5998 28.637L14.5996 28.6349L14.5979 28.6228L14.5976 28.6213L14.597 28.6167L14.5962 28.6106L14.5959 28.6085L14.5952 28.6034C14.5948 28.6005 14.5945 28.5985 14.5943 28.5963L14.5934 28.5901L14.5926 28.5841L14.5923 28.582L14.5916 28.5776L14.5896 28.5636L14.5887 28.5576L14.5885 28.5558L14.5878 28.5513C14.5873 28.548 14.587 28.5463 14.5868 28.5447L14.5866 28.5435C14.5859 28.5394 14.5853 28.5354 14.5847 28.5313L14.5844 28.5295L14.5837 28.5251L14.5828 28.5187L14.5825 28.5171L14.5817 28.5113L14.5806 28.5048L14.5795 28.4987L14.5786 28.4926L14.5783 28.4906L14.5776 28.4863C14.577 28.4826 14.5766 28.4806 14.5763 28.4786L14.5752 28.4724C14.5747 28.4694 14.5743 28.4679 14.5742 28.4664L14.5738 28.4646L14.5731 28.46C14.5725 28.4568 14.5722 28.4552 14.572 28.4534L14.5718 28.4524L14.5707 28.4464L14.5697 28.4403L14.5693 28.4386L14.5686 28.4342L14.5674 28.4279L14.5671 28.4263C14.5664 28.4222 14.5657 28.4182 14.5649 28.4142L14.5646 28.4127L14.5638 28.408L14.5627 28.4021L14.5623 28.4001C14.5619 28.3985 14.5617 28.397 14.5614 28.3953L14.56 28.388L14.5598 28.3873L14.5588 28.382L14.5576 28.376L14.5571 28.374C14.5569 28.3724 14.5565 28.3711 14.5563 28.3695C14.5553 28.3642 14.5544 28.36 14.5536 28.3559C14.5531 28.3533 14.5526 28.3516 14.5524 28.3499C14.5517 28.3468 14.5513 28.3452 14.5511 28.3435L14.5497 28.3368L14.5472 28.324L14.5459 28.3179L14.5456 28.3163L14.5446 28.3116L14.5418 28.2981L14.5416 28.297L14.5404 28.2919L14.5402 28.2905L14.5392 28.2858L14.5377 28.2791L14.5375 28.2784L14.5362 28.2722L14.5348 28.2662L14.5346 28.2649C14.5342 28.2633 14.5339 28.2617 14.5335 28.2601L14.5322 28.2539C14.5315 28.2506 14.5311 28.2487 14.5306 28.2468C14.5301 28.2444 14.5297 28.2424 14.5292 28.2403L14.5278 28.2344C14.5271 28.2313 14.5268 28.2299 14.5265 28.2282L14.5249 28.2217C14.5238 28.2167 14.5228 28.2126 14.5219 28.2087L14.5204 28.2027L14.519 28.1965L14.5186 28.1952C14.5177 28.1911 14.5168 28.1871 14.5157 28.183L14.5143 28.1771C14.5136 28.1743 14.5133 28.1728 14.5128 28.1711C14.5121 28.1681 14.5116 28.1663 14.5112 28.1646L14.5111 28.1638C14.51 28.1599 14.509 28.1556 14.5081 28.1516L14.5066 28.1457L14.505 28.1395L14.5047 28.1382L14.5033 28.1328L14.5016 28.1262L14.5014 28.1257C14.501 28.124 14.5006 28.1221 14.5001 28.1204L14.4984 28.1143L14.498 28.1127L14.4969 28.1083L14.4935 28.095L14.492 28.0891C14.4911 28.0859 14.4908 28.0846 14.4904 28.0832L14.4899 28.0812C14.4895 28.0797 14.4891 28.0781 14.4887 28.0766C14.488 28.0737 14.4874 28.0715 14.4869 28.0696L14.4866 28.0683C14.4862 28.0669 14.4858 28.0651 14.4854 28.0638L14.4849 28.0619L14.4838 28.0579L14.4833 28.0559L14.4821 28.0516C14.4812 28.0484 14.4808 28.0467 14.4803 28.045C14.4795 28.0422 14.479 28.0404 14.4785 28.0384L14.4769 28.0325L14.4764 28.0308C14.476 28.0293 14.4756 28.0278 14.4752 28.0263L14.4748 28.025C14.4743 28.0233 14.4739 28.0218 14.4734 28.0201C14.472 28.0151 14.4709 28.011 14.4698 28.0072C14.469 28.0044 14.4685 28.0028 14.4681 28.0013L14.4677 27.9998L14.4664 27.9953C14.4654 27.9919 14.465 27.99 14.4643 27.9881L14.4626 27.9821L14.461 27.9763L14.4593 27.9705L14.4587 27.9686L14.4575 27.9643L14.4553 27.9571L14.4536 27.9513L14.4519 27.9456L14.4501 27.9394L14.4497 27.9378L14.448 27.9322C14.4474 27.9303 14.4468 27.9281 14.4462 27.9262L14.4458 27.9249L14.4444 27.9205L14.4427 27.9147C14.4416 27.9112 14.4413 27.91 14.4409 27.9086L14.4403 27.9068C14.4397 27.9048 14.4392 27.903 14.4386 27.9011L14.4369 27.8955L14.4363 27.8934L14.4351 27.8897L14.4334 27.8839L14.4327 27.8817L14.4315 27.8778L14.4292 27.8705L14.4285 27.8683L14.4267 27.8625L14.4257 27.8591L14.4237 27.8529L14.4231 27.8512C14.4225 27.8495 14.4221 27.848 14.4216 27.8464L14.4195 27.8399L14.4188 27.8377L14.417 27.832L14.4158 27.8285L14.4151 27.8262L14.4139 27.8227L14.4133 27.8205L14.4115 27.8151L14.411 27.8136L14.4096 27.8093L14.4089 27.8074L14.4077 27.8037L14.407 27.8015C14.4066 27.8004 14.4062 27.7992 14.4058 27.798L14.4033 27.7904L14.4013 27.7845L14.3994 27.7788L14.3987 27.7768L14.3975 27.7732C14.3963 27.7697 14.3959 27.7684 14.3955 27.767L14.3929 27.7598L14.391 27.7542L14.389 27.7485L14.3883 27.7464L14.3869 27.7426L14.3848 27.7362C14.3838 27.7332 14.3831 27.7313 14.3824 27.7294L14.3805 27.724L14.3784 27.7182L14.3777 27.7162L14.3763 27.7121L14.3737 27.705L14.3718 27.6993L14.3711 27.6975L14.3697 27.6937L14.3677 27.688L14.3669 27.686L14.365 27.6804L14.3631 27.6751L14.3622 27.6727L14.3602 27.667L14.3591 27.664L14.3569 27.658L14.3541 27.6506L14.3522 27.6451L14.3501 27.6397L14.3492 27.6372L14.3472 27.6317L14.3459 27.6285L14.3431 27.6209L14.3424 27.6191L14.341 27.6155L14.3388 27.6097L14.338 27.6077L14.3368 27.6044L14.3359 27.6021L14.3343 27.5979L14.3317 27.5914L14.3308 27.5889L14.3296 27.586L14.3286 27.5832L14.3276 27.5806L14.3253 27.5748L14.3243 27.5723L14.3223 27.5672L14.3201 27.5616L14.319 27.5591L14.3168 27.5536L14.3156 27.5506L14.3132 27.5448L14.3121 27.5417L14.3104 27.5376L14.3082 27.5322L14.3071 27.5295L14.3061 27.5269L14.3049 27.524L14.3027 27.5185L14.2994 27.5102L14.2972 27.5049L14.2965 27.503L14.2943 27.4978L14.293 27.4944L14.2872 27.4803L14.2851 27.4756L14.2829 27.4703L14.2807 27.465L14.2803 27.464L14.2774 27.4573L14.2764 27.455L14.2741 27.4497L14.2718 27.4444L14.2705 27.4413C14.2681 27.4357 14.2664 27.4318 14.2647 27.4279L14.2625 27.4229L14.2615 27.4205L14.2592 27.4151L14.2572 27.4106C14.2562 27.4083 14.2552 27.406 14.2541 27.4037L14.2535 27.4023L14.2511 27.3969L14.2497 27.3938L14.2474 27.3885L14.244 27.3808L14.2416 27.3755L14.2392 27.3702L14.2383 27.3681L14.2368 27.3649L14.2359 27.3628L14.2337 27.3578C14.2327 27.3556 14.2318 27.3535 14.2308 27.3513L14.23 27.3497L14.2285 27.3462L14.2262 27.3412L14.2238 27.336L14.2176 27.3225L14.2152 27.3173L14.2145 27.3158L14.2121 27.3107L14.2104 27.3069C14.2082 27.3023 14.2062 27.2979 14.204 27.2933L14.2017 27.2885L14.1994 27.2835C14.1963 27.2769 14.1935 27.271 14.1907 27.2652L14.19 27.2638L14.1882 27.2601L14.1877 27.259L14.1856 27.2548C14.1835 27.2503 14.1815 27.246 14.1792 27.2416L14.1769 27.237C14.1757 27.2343 14.1751 27.233 14.1745 27.2318L14.1652 27.213L14.1629 27.2084C14.1595 27.2018 14.1565 27.1956 14.1535 27.1898L14.1533 27.1892L14.1511 27.1849L14.1509 27.1845C14.1502 27.1831 14.1494 27.1816 14.1487 27.1802C14.1455 27.1737 14.1424 27.1676 14.1393 27.1615L14.1369 27.1569C14.1328 27.149 14.129 27.1415 14.125 27.1338L14.1249 27.1336C14.1161 27.1167 14.1073 27.0999 14.0982 27.0831L14.0958 27.0784C14.0825 27.0537 14.0692 27.0295 14.0556 27.0053C13.693 26.3582 13.1788 25.8098 12.5575 25.407C12.5516 25.4033 12.5459 25.3996 12.5401 25.3958L12.5358 25.3931C12.5284 25.3884 12.5212 25.3839 12.514 25.3793L12.5095 25.3765C12.4948 25.3673 12.4803 25.3582 12.4657 25.3493L12.4613 25.3467L12.4567 25.3438C12.4508 25.3403 12.4452 25.3368 12.4394 25.3334L12.4349 25.3307L12.4336 25.3298C12.4282 25.3266 12.4229 25.3234 12.4176 25.3203L12.4129 25.3175L12.4115 25.3167L12.4081 25.3147C12.4029 25.3116 12.3992 25.3095 12.3956 25.3073L12.3911 25.3046L12.3893 25.3036L12.3862 25.3018L12.3814 25.299L12.3797 25.298C12.3773 25.2966 12.3747 25.2951 12.3722 25.2937L12.369 25.2918L12.367 25.2907L12.3642 25.2891L12.3619 25.2877L12.3591 25.2861L12.3572 25.285L12.3535 25.2829L12.3469 25.2791L12.3446 25.2779L12.342 25.2763L12.3397 25.275L12.3348 25.2721L12.3321 25.2706L12.3291 25.269L12.3272 25.2679L12.3224 25.2652L12.3199 25.2638L12.3173 25.2624L12.3147 25.2609L12.3123 25.2596L12.3096 25.2581L12.3046 25.2553L12.3009 25.2532L12.2946 25.2498L12.2928 25.2488L12.2896 25.247L12.2875 25.2458L12.2844 25.2441L12.2788 25.241L12.2722 25.2373L12.271 25.2368L12.2652 25.2336L12.2618 25.2317L12.256 25.2285L12.2446 25.2223L12.2394 25.2196L12.2341 25.2168L12.2324 25.2159L12.2272 25.2132L12.2221 25.2104L12.2167 25.2068C12.214 25.2055 12.2128 25.2047 12.2114 25.204L12.21 25.2033L12.2058 25.2011C12.2012 25.1987 12.1976 25.1968 12.194 25.195L12.1933 25.1946L12.1887 25.1922L12.1832 25.1894L12.1774 25.1864L12.1768 25.1861C12.1732 25.1842 12.1696 25.1823 12.1659 25.1805L12.1604 25.1777L12.1596 25.1773L12.1548 25.1748L12.1542 25.1745C12.1487 25.1717 12.1433 25.169 12.1377 25.1662L12.1323 25.1634C11.8716 25.0326 11.5998 24.928 11.3197 24.8507C11.2419 24.8292 11.1616 24.8184 11.081 24.8184C10.5791 24.8187 10.1725 25.2273 10.1729 25.7309Z" fill="#88F3BC"/>
<path d="M1.94134 24.689H3.75874C4.76243 24.689 5.57606 25.5053 5.57606 26.5124C5.57606 27.5195 4.76243 28.3359 3.75874 28.3359H1.94134C0.937655 28.3359 0.124023 27.5195 0.124023 26.5125C0.124023 25.5053 0.937655 24.689 1.94134 24.689Z" fill="#88F3BC"/>
<path d="M9.21087 26.5122H11.0283C12.032 26.5122 12.8456 27.3286 12.8456 28.3356C12.8456 29.3427 12.032 30.1591 11.0283 30.1591H9.21087C8.20719 30.1591 7.39355 29.3427 7.39355 28.3357C7.39355 27.3286 8.20719 26.5122 9.21087 26.5122Z" fill="#88F3BC"/>
<path fill-rule="evenodd" clip-rule="evenodd" d="M23.8143 10.167C26.3233 7.64909 30.3915 7.64875 32.901 10.1661L38.2239 15.5068C40.733 18.0244 40.733 22.1063 38.2237 24.624C35.7145 27.1416 31.6464 27.1416 29.1371 24.624L28.293 23.777L24.6583 27.4239L25.5669 28.3357L27.0079 29.7815C27.5097 30.285 27.5097 31.1012 27.0079 31.6049C26.506 32.1084 25.6924 32.1084 25.1906 31.6049L24.659 31.0715L24.6564 31.0689C23.652 30.0626 22.0247 30.0637 21.0217 31.0715C20.0187 32.0793 20.0199 33.712 21.0243 34.7184L21.5558 35.2517C22.0577 35.7553 22.0577 36.5715 21.5558 37.0751C21.054 37.5787 20.2404 37.5787 19.7385 37.0751L18.2976 35.6294L17.3889 34.7176L15.4156 36.6974C14.4121 37.7036 12.7857 37.7036 11.7822 36.6974C10.7782 35.6907 10.7776 34.0579 11.7809 33.0506L24.6584 20.1302L23.8143 19.2832C21.3056 16.7657 21.3056 12.6845 23.8143 10.167ZM26.3843 16.7045L31.7074 22.0454C32.7972 23.1387 34.564 23.1386 35.6539 22.045C36.7435 20.9516 36.7435 19.1788 35.6537 18.0855L30.3308 12.7447C29.241 11.6513 27.4741 11.6513 26.3843 12.7447C25.2945 13.8382 25.2945 15.611 26.3843 16.7045Z" fill="#D7E816"/>
<path d="M23.6695 14.9859C23.1729 14.9174 22.8256 14.4579 22.8938 13.9595C23.0555 12.7656 23.6044 11.6593 24.4557 10.811C26.5428 8.72054 30.1704 8.72054 32.2575 10.811L32.7421 11.2972C33.097 11.653 33.0973 12.2302 32.7427 12.5864C32.388 12.9426 31.8127 12.9428 31.4578 12.587L30.9726 12.1002C29.5741 10.6988 27.1392 10.6988 25.7406 12.1002C25.1699 12.668 24.8019 13.4087 24.6935 14.2077C24.6319 14.6582 24.2487 14.994 23.7955 14.9948C23.7534 14.995 23.7113 14.992 23.6695 14.9859Z" fill="#F1F7AE"/>
<path d="M36.6727 16.1513C36.6727 16.3931 36.7684 16.6251 36.9389 16.7961C38.7384 18.6018 38.7383 21.5291 36.9387 23.3346C36.0745 24.2016 34.9025 24.6886 33.6804 24.6886C33.4098 24.6886 33.1397 24.6649 32.8733 24.6177C32.379 24.5303 31.9077 24.8614 31.8206 25.3573C31.7336 25.8522 32.0622 26.3244 32.5553 26.4131C32.5625 26.4144 32.5697 26.4156 32.5769 26.4168L32.586 26.4185L32.5953 26.4201L32.6047 26.4217L32.6142 26.4233L32.624 26.425C32.6404 26.4278 32.6563 26.4303 32.6721 26.4328L32.6731 26.433L32.6813 26.4343L32.683 26.4345L32.6905 26.4357L32.6998 26.4372L32.7093 26.4386L32.7112 26.439L32.7186 26.4401L32.7207 26.4404L32.7281 26.4415L32.7299 26.4418L32.7379 26.443L32.7392 26.4432C32.7485 26.4445 32.7581 26.446 32.7675 26.4473L32.7684 26.4474L32.7766 26.4486L32.7787 26.449L32.7859 26.45L32.7951 26.4513L32.8044 26.4526L32.8073 26.4531L32.8137 26.4539L32.8166 26.4544L32.8233 26.4553L32.8259 26.4556L32.8329 26.4566L32.8352 26.4568L32.8434 26.4579C32.8507 26.459 32.857 26.4597 32.8633 26.4606L32.8639 26.4607L32.8726 26.4618L32.8818 26.463L32.8911 26.4642L32.8941 26.4645L32.9003 26.4653L32.9033 26.4656L32.9096 26.4664L32.9128 26.4668L32.9189 26.4676L32.922 26.4679L32.9283 26.4687L32.9313 26.4691L32.9381 26.4698L32.9484 26.471C32.9559 26.4719 32.9622 26.4726 32.9684 26.4733L32.9777 26.4744L32.9869 26.4754L32.9898 26.4757L32.9962 26.4764L32.9993 26.4767L33.0054 26.4773L33.0087 26.4777L33.0148 26.4783L33.018 26.4786L33.0241 26.4792L33.0274 26.4796L33.0337 26.4802L33.0435 26.4811L33.0536 26.4821L33.0551 26.4823L33.0645 26.4832L33.0738 26.4841L33.0763 26.4844L33.083 26.485L33.0862 26.4852L33.0923 26.4858L33.0956 26.4862L33.1016 26.4867L33.105 26.487L33.1108 26.4875L33.1142 26.4878L33.1201 26.4883L33.1296 26.4891L33.1328 26.4893L33.139 26.4898L33.1423 26.4901L33.1488 26.4907L33.1514 26.4909L33.1601 26.4915L33.1702 26.4923L33.1793 26.4931L33.182 26.4932L33.1887 26.4938L33.1915 26.4939L33.1979 26.4944L33.2071 26.4951L33.2163 26.4958L33.22 26.4961L33.2258 26.4965L33.2293 26.4967L33.2352 26.4972L33.2385 26.4974L33.245 26.4979L33.2477 26.498L33.2554 26.4985C33.2631 26.4991 33.2696 26.4995 33.2758 26.4998L33.2771 26.4999L33.285 26.5004L33.2942 26.5009L33.3035 26.5015L33.307 26.5016L33.3128 26.502L33.3163 26.5021L33.3223 26.5025L33.3255 26.5026L33.3317 26.503L33.3351 26.5032L33.341 26.5035L33.3507 26.504L33.3537 26.5042L33.361 26.5045L33.3629 26.5046L33.3722 26.505L33.3816 26.5055L33.3909 26.5059L33.3938 26.506L33.4002 26.5062L33.4034 26.5063L33.4094 26.5066L33.4129 26.5068L33.4186 26.507L33.4224 26.5072L33.4278 26.5074L33.4373 26.5079L33.4409 26.508L33.4467 26.5082L33.4502 26.5083L33.4565 26.5085L33.4594 26.5086L33.4677 26.5089L33.478 26.5091L33.4873 26.5094L33.4904 26.5095L33.4965 26.5097L33.5001 26.5097L33.5059 26.5099L33.5096 26.51L33.5152 26.5102L33.5244 26.5104L33.5283 26.5105L33.5337 26.5106L33.5374 26.5107L33.5432 26.5108L33.5468 26.5109L33.5528 26.5109L33.556 26.511L33.5624 26.5111C33.5715 26.5113 33.5778 26.5114 33.5838 26.5115H33.5863L33.593 26.5116L33.6022 26.5117H33.606L33.6115 26.5118H33.6154H33.6206H33.6247H33.63H33.6341H33.6393H33.6434H33.6487H33.6527H33.6581H33.668H33.6712H33.6804C37.2277 26.5149 40.1059 23.6321 40.1091 20.0729C40.1105 18.3599 39.4322 16.7167 38.2239 15.5065C38.0536 15.3356 37.8224 15.2395 37.5814 15.2397C37.0795 15.2397 36.6727 15.6479 36.6727 16.1513Z" fill="#C2D521"/>
<path d="M20.394 33.5261C20.1777 32.6735 20.3594 31.7389 21.0245 31.0717C21.6895 30.4044 22.621 30.2221 23.4707 30.4391L24.6584 29.2474C25.1603 28.7439 25.1603 27.9276 24.6584 27.424C24.1566 26.9205 23.343 26.9205 22.8411 27.424L17.3891 32.8943C16.8872 33.3978 16.8872 34.2142 17.3891 34.7177C17.8909 35.2212 18.7046 35.2212 19.2064 34.7177L20.394 33.5261Z" fill="#B9C600"/>
<path d="M27.0075 21.4196C27.5094 20.9161 28.323 20.9161 28.8249 21.4196C29.3267 21.9232 29.3267 22.7395 28.8249 23.243L15.5712 36.5411C15.0694 37.0447 14.2557 37.0447 13.7539 36.5411C13.252 36.0376 13.252 35.2213 13.7538 34.7177L27.0075 21.4196Z" fill="#C2D521"/>
</svg>








