<svg width="42" height="42" viewBox="0 0 42 42" fill="none" xmlns="http://www.w3.org/2000/svg">
<path d="M21.9249 4.36249C24.4454 4.36249 26.4887 6.40576 26.4887 8.92626V22.6176C26.4887 23.6258 27.3059 24.4431 28.3141 24.4431C29.3223 24.4431 30.1396 23.6258 30.1396 22.6176V8.92626C30.1396 4.38936 26.4617 0.711426 21.9248 0.711426V4.36249H21.9249Z" fill="#EDE85A"/>
<path d="M21.9247 2.53711C21.9229 2.53711 21.9223 2.54079 21.9206 2.54087V2.53711C21.4188 2.53728 21.012 2.94434 21.0122 3.44622C21.0124 3.94784 21.419 4.35438 21.9206 4.35464V4.33582C21.9217 4.34232 21.9247 4.36268 21.9247 4.36268C24.4452 4.36268 26.4884 6.40587 26.4884 8.92637V8.92645V22.6178C26.4884 23.1219 26.8971 23.5306 27.4012 23.5306C27.9053 23.5306 28.314 23.1219 28.314 22.6178V8.92645C28.1429 3.07912 23.0942 2.53711 21.9247 2.53711Z" fill="#EDC333"/>
<path d="M2.00056 13.0467L13.2669 1.78034C14.6928 0.354469 17.0045 0.354469 18.4304 1.78034L38.1982 21.5481C39.6241 22.974 39.6241 25.2857 38.1982 26.7116L26.9318 37.978C25.5059 39.4039 23.1942 39.4039 21.7684 37.978L2.00056 18.2102C0.574684 16.7843 0.574684 14.4726 2.00056 13.0467Z" fill="#00AB6F"/>
<path d="M15.8486 0.711429C14.8801 0.710145 13.9509 1.09504 13.267 1.78081C13.267 1.78081 13.0909 1.95683 12.7828 2.26489C12.4747 2.57294 12.0347 3.01304 11.5065 3.54118C10.9784 4.06933 10.3623 4.68544 9.70216 5.34554C9.04206 6.00572 8.33789 6.7098 7.63373 7.41396C6.92956 8.11804 6.2254 8.82221 5.5653 9.48239C4.90512 10.1426 4.28901 10.7587 3.76086 11.2867C3.2328 11.8149 2.79271 12.2549 2.48457 12.563C2.17651 12.8711 2.00049 13.0471 2.00049 13.0471C0.574706 14.4729 0.574706 16.7846 2.00049 18.2105L5.30397 21.514C5.66046 21.8704 6.23832 21.8704 6.59481 21.514C6.9513 21.1576 6.95121 20.5796 6.59481 20.2231L3.29142 16.9197C2.57972 16.2063 2.57972 15.0515 3.29133 14.338L14.5576 3.07174C14.8992 2.72826 15.3641 2.53572 15.8485 2.537C16.3526 2.537 16.7613 2.12832 16.7613 1.62422C16.7613 1.12012 16.3527 0.711429 15.8486 0.711429Z" fill="#00965C"/>
<path d="M24.1951 15.2122C22.3896 13.4067 18.9643 13.9046 16.5446 16.3244C14.1248 18.7441 13.6269 22.1694 15.4324 23.9749C17.238 25.7805 20.6633 25.2825 23.083 22.8628C25.5027 20.4431 26.0007 17.0178 24.1951 15.2122Z" fill="#007A3F"/>
<path d="M14.3361 4.98877L10.6851 8.63983V10.4653L14.3361 14.1164H16.1616L19.8127 10.4653V8.63983L16.1616 4.98877L14.3361 4.98877Z" fill="#FFB100"/>
<path d="M22.0167 10.8444L22.0173 10.8438C22.5212 10.3398 23.3382 10.3398 23.8422 10.8438L28.563 15.5646C29.067 16.0686 29.067 16.8856 28.563 17.3895L28.5624 17.3901C28.0585 17.8941 27.2415 17.8941 26.7376 17.3901L22.0167 12.6693C21.5127 12.1653 21.5127 11.3483 22.0167 10.8444Z" fill="#B3E6D4"/>
<path d="M29.3189 18.1456L29.3195 18.145C29.8234 17.6411 30.6405 17.6411 31.1444 18.145L34.0397 21.0403C34.5436 21.5443 34.5436 22.3613 34.0397 22.8652L34.0391 22.8658C33.5352 23.3698 32.7181 23.3698 32.2142 22.8658L29.3189 19.9705C28.815 19.4667 28.8149 18.6496 29.3189 18.1456Z" fill="#B3E6D4"/>
<path d="M5.58644 12.6696L5.58704 12.669C6.09097 12.165 6.908 12.165 7.41193 12.669L8.48191 13.7389C8.98584 14.2429 8.98584 15.0599 8.48191 15.5638L8.48132 15.5644C7.97739 16.0684 7.16035 16.0684 6.65642 15.5644L5.58644 14.4945C5.08251 13.9906 5.08251 13.1736 5.58644 12.6696Z" fill="#B3E6D4"/>
<path d="M9.23781 16.3195L9.23841 16.3189C9.74234 15.8149 10.5594 15.8149 11.0633 16.3189L12.1333 17.3888C12.6372 17.8928 12.6372 18.7098 12.1333 19.2137L12.1327 19.2143C11.6288 19.7183 10.8117 19.7183 10.3078 19.2143L9.23781 18.1444C8.73388 17.6405 8.73388 16.8234 9.23781 16.3195Z" fill="#B3E6D4"/>
<path d="M12.8887 19.9713L12.8893 19.9707C13.3932 19.4668 14.2102 19.4668 14.7142 19.9707L15.7842 21.0407C16.2881 21.5446 16.2881 22.3617 15.7842 22.8656L15.7836 22.8662C15.2796 23.3701 14.4626 23.3701 13.9587 22.8662L12.8887 21.7962C12.3848 21.2924 12.3848 20.4753 12.8887 19.9713Z" fill="#B3E6D4"/>
<path d="M16.5396 23.6227L16.5402 23.6221C17.0442 23.1182 17.8612 23.1182 18.3651 23.6221L19.4351 24.6921C19.939 25.196 19.939 26.013 19.4351 26.517L19.4345 26.5176C18.9306 27.0215 18.1135 27.0215 17.6096 26.5176L16.5396 25.4476C16.0356 24.9437 16.0356 24.1267 16.5396 23.6227Z" fill="#B3E6D4"/>
<path d="M14.8389 20.792H36.7179C38.7343 20.792 40.369 22.4267 40.369 24.4431C40.369 24.6621 40.3493 24.8807 40.3101 25.0961L37.9867 37.8747C37.671 39.6108 36.1591 40.8726 34.3946 40.8726H18.324C16.6775 40.8726 15.2348 39.7707 14.8016 38.1823L11.3166 25.4037C10.786 23.4583 11.9329 21.4512 13.8783 20.9206C14.1913 20.8352 14.5144 20.792 14.8389 20.792Z" fill="#E95F00"/>
<path d="M39.2674 26.2689C39.2674 27.2771 38.4501 28.0944 37.4419 28.0944H33.5117C32.6192 28.0944 31.8577 28.7395 31.711 29.6198L30.4981 36.897C30.2913 38.138 29.2175 39.0475 27.9595 39.0475C26.538 39.0475 25.3857 37.8952 25.3857 36.4738C25.3857 36.2634 25.4116 36.0537 25.4626 35.8496L27.9685 25.8261C28.1716 25.0134 28.9018 24.4434 29.7394 24.4434H37.4417C38.45 24.4434 39.2673 25.2607 39.2674 26.2689Z" fill="#E14C00"/>
<path d="M5.30592 20.792H25.7648C27.7812 20.792 29.4159 22.4267 29.4159 24.4431C29.4159 24.6621 29.3962 24.8807 29.357 25.0961L27.0336 37.8747C26.7179 39.6108 25.2059 40.8726 23.4415 40.8726H7.62935C5.86487 40.8726 4.35283 39.6107 4.03724 37.8747L1.71381 25.0961C1.35313 23.1123 2.66896 21.2115 4.65284 20.8509C4.86831 20.8117 5.08695 20.792 5.30592 20.792Z" fill="#FFB100"/>
<path d="M4.58233 24.4434H26.4889C27.4971 24.4434 28.3144 25.2606 28.3144 26.2688V26.2689C28.3144 27.2771 27.4971 28.0944 26.4889 28.0944H4.58233C3.57413 28.0944 2.75684 27.2771 2.75684 26.2689V26.2688C2.75684 25.2606 3.57413 24.4434 4.58233 24.4434Z" fill="#FF9B00"/>
<path d="M8.2332 28.0942C9.24149 28.0942 10.0588 28.9115 10.0588 29.9197V35.3966C10.0588 36.4048 9.24149 37.2221 8.23329 37.2221H8.2332C7.22501 37.2221 6.40771 36.4048 6.40771 35.3966V29.9197C6.40771 28.9115 7.22501 28.0942 8.2332 28.0942Z" fill="#E95F00"/>
<path d="M15.5359 28.0942H15.536C16.5442 28.0942 17.3615 28.9115 17.3615 29.9197V35.3966C17.3615 36.4048 16.5442 37.2221 15.536 37.2221H15.5359C14.5277 37.2221 13.7104 36.4048 13.7104 35.3966V29.9197C13.7104 28.9115 14.5277 28.0942 15.5359 28.0942Z" fill="#E95F00"/>
<path d="M22.8377 28.0942C23.846 28.0942 24.6633 28.9115 24.6633 29.9197V35.3966C24.6633 36.4048 23.846 37.2221 22.8378 37.2221H22.8377C21.8295 37.2221 21.0122 36.4048 21.0122 35.3966V29.9197C21.0122 28.9115 21.8295 28.0942 22.8377 28.0942Z" fill="#E95F00"/>
<path d="M12.7974 20.792H38.3549C39.8672 20.792 41.0932 22.018 41.0932 23.5303C41.0932 25.0426 39.8672 26.2685 38.3549 26.2685H12.7974C11.2851 26.2685 10.0591 25.0426 10.0591 23.5303C10.0591 22.018 11.2851 20.792 12.7974 20.792Z" fill="#FF7E00"/>
<path d="M3.66943 20.792H29.227C30.7393 20.792 31.9653 22.018 31.9653 23.5303C31.9653 25.0426 30.7393 26.2685 29.227 26.2685H3.66943C2.15713 26.2685 0.931152 25.0426 0.931152 23.5303C0.931152 22.018 2.15713 20.792 3.66943 20.792Z" fill="#FFD300"/>
<path d="M6.40801 20.792H26.4885C27.4967 20.792 28.314 21.6093 28.314 22.6175V22.6176C28.314 23.6258 27.4967 24.4431 26.4885 24.4431H6.40801C5.39981 24.4431 4.58252 23.6258 4.58252 22.6176V22.6175C4.58252 21.6093 5.39981 20.792 6.40801 20.792Z" fill="#FFE04C"/>
<path d="M3.66962 24.4434H29.2268C29.7309 24.4434 30.1396 24.852 30.1396 25.3561C30.1396 25.8602 29.7309 26.2689 29.2268 26.2689H3.66962C3.16552 26.2689 2.75684 25.8602 2.75684 25.3561C2.75684 24.852 3.16552 24.4434 3.66962 24.4434Z" fill="#FFBF00"/>
<path d="M17.3611 20.792C18.3694 20.792 19.1867 21.6093 19.1867 22.6175V24.4431C19.1867 25.4513 18.3694 26.2685 17.3612 26.2685H17.3611C16.3529 26.2685 15.5356 25.4513 15.5356 24.4431V22.6175C15.5356 21.6093 16.3529 20.792 17.3611 20.792Z" fill="#FFAB00"/>
<path d="M30.1396 8.92626C30.1396 4.38936 26.4617 0.711426 21.9248 0.711426C17.3879 0.711426 13.71 4.38936 13.71 8.92626V22.6176C13.7095 23.6258 14.5266 24.4435 15.5348 24.4439C16.543 24.4443 17.3606 23.6273 17.361 22.6191C17.361 22.6187 17.361 22.6182 17.361 22.6177V8.92634C17.361 6.40584 19.4043 4.36258 21.9248 4.36258C24.4453 4.36258 26.4886 6.40584 26.4886 8.92634L30.1396 8.92626Z" fill="#EDE85A"/>
<path d="M21.9247 2.53711C21.9229 2.53711 21.9223 2.54079 21.9206 2.54087V2.53711C21.4188 2.53728 21.012 2.94434 21.0122 3.44622C21.0124 3.94784 21.419 4.35438 21.9206 4.35464V4.33582C21.9217 4.34232 21.9247 4.36268 21.9247 4.36268C24.4452 4.36268 26.4884 6.40587 26.4884 8.92637V8.92645H28.3139C28.1429 3.07912 23.0942 2.53711 21.9247 2.53711Z" fill="#EDC333"/>
<path d="M32.8776 24.4434H38.3538C38.8579 24.4434 39.2666 24.852 39.2666 25.3561C39.2666 25.8602 38.8579 26.2689 38.3538 26.2689H32.8776C32.3735 26.2689 31.9648 25.8602 31.9648 25.3561C31.9648 24.852 32.3735 24.4434 32.8776 24.4434Z" fill="#FF6900"/>
<path d="M29.2268 39.0469H34.703C35.2071 39.0469 35.6158 39.4556 35.6158 39.9597C35.6158 40.4638 35.2071 40.8725 34.703 40.8725H29.2268C28.7227 40.8725 28.314 40.4638 28.314 39.9597C28.314 39.4555 28.7227 39.0469 29.2268 39.0469Z" fill="#E14C00"/>
<path d="M33.7903 20.792H37.4411C38.4493 20.792 39.2666 21.6093 39.2666 22.6175V22.6176C39.2666 23.6258 38.4493 24.4431 37.4411 24.4431H33.7903C32.7821 24.4431 31.9648 23.6258 31.9648 22.6176V22.6175C31.9648 21.6093 32.7821 20.792 33.7903 20.792Z" fill="#FF9A38"/>
<path d="M7.3205 29.9199C7.8246 29.9199 8.2332 30.3286 8.2332 30.8327V34.4837C8.2332 34.9878 7.82452 35.3965 7.3205 35.3965C6.8164 35.3965 6.40771 34.9878 6.40771 34.4837V30.8327C6.40771 30.3285 6.8164 29.9199 7.3205 29.9199Z" fill="#D03C03"/>
<path d="M10.9714 29.9199C11.4755 29.9199 11.8842 30.3286 11.8842 30.8327V34.4837C11.8842 34.9878 11.4755 35.3965 10.9714 35.3965C10.4673 35.3965 10.0586 34.9878 10.0586 34.4837V30.8327C10.0586 30.3285 10.4673 29.9199 10.9714 29.9199Z" fill="#FFD300"/>
<path d="M18.2732 29.9199C18.7773 29.9199 19.1859 30.3286 19.1859 30.8327V34.4837C19.1859 34.9878 18.7772 35.3965 18.2731 35.3965C17.769 35.3965 17.3604 34.9878 17.3604 34.4837V30.8327C17.3604 30.3285 17.7691 29.9199 18.2732 29.9199Z" fill="#FFD300"/>
<path d="M25.5759 29.9199C26.08 29.9199 26.4887 30.3286 26.4887 30.8327V34.4837C26.4887 34.9878 26.08 35.3965 25.5759 35.3965C25.0718 35.3965 24.6631 34.9878 24.6631 34.4837V30.8327C24.6631 30.3285 25.0718 29.9199 25.5759 29.9199Z" fill="#FFD300"/>
<path d="M14.6228 29.9199C15.1269 29.9199 15.5355 30.3286 15.5355 30.8327V34.4837C15.5355 34.9878 15.1268 35.3965 14.6227 35.3965C14.1186 35.3965 13.71 34.9878 13.71 34.4837V30.8327C13.71 30.3285 14.1187 29.9199 14.6228 29.9199Z" fill="#D03C03"/>
<path d="M21.9245 29.9199C22.4286 29.9199 22.8373 30.3286 22.8373 30.8327V34.4837C22.8373 34.9878 22.4286 35.3965 21.9245 35.3965C21.4204 35.3965 21.0117 34.9878 21.0117 34.4837V30.8327C21.0117 30.3285 21.4204 29.9199 21.9245 29.9199Z" fill="#D03C03"/>
<path d="M7.3205 39.0469H23.7498C24.2539 39.0469 24.6626 39.4556 24.6626 39.9597C24.6626 40.4638 24.2539 40.8725 23.7498 40.8725H7.3205C6.8164 40.8725 6.40771 40.4638 6.40771 39.9597C6.40771 39.4555 6.8164 39.0469 7.3205 39.0469Z" fill="#FF9B00"/>
</svg>









