<svg width="42" height="42" viewBox="0 0 42 42" fill="none" xmlns="http://www.w3.org/2000/svg">
<path d="M35.5146 16.3862C35.5146 16.8922 35.1044 17.3023 34.5985 17.3023C34.0925 17.3023 33.6823 16.8922 33.6823 16.3862V11.8056C33.6823 6.74596 29.5807 2.64424 24.521 2.64424C19.4614 2.64424 15.3597 6.74587 15.3597 11.8056V16.3862C15.3591 16.8922 14.9485 17.3019 14.4426 17.3014C13.9374 17.3009 13.5279 16.8915 13.5273 16.3862V11.8056C13.5273 5.73403 18.4493 0.812012 24.5209 0.812012C30.5924 0.812012 35.5145 5.73395 35.5145 11.8056L35.5146 16.3862Z" fill="#DB2838"/>
<path d="M4.36621 11.8052H37.3465C39.3704 11.8052 41.0111 13.4459 41.0111 15.4697V37.4565C41.0111 39.4803 39.3704 41.121 37.3465 41.121H4.36621C2.34236 41.121 0.70166 39.4803 0.70166 37.4565V15.4697C0.70166 13.4458 2.34228 11.8052 4.36621 11.8052Z" fill="#D12962"/>
<path d="M37.3465 11.8052C39.3703 11.8052 41.0109 13.4459 41.0109 15.4697V37.4565C41.0109 39.4803 39.3703 41.121 37.3465 41.121C35.3227 41.121 33.6821 39.4803 33.6821 37.4565V15.4697C33.6821 13.4458 35.3227 11.8052 37.3465 11.8052Z" fill="#B82456"/>
<path d="M4.36621 11.8052H30.0178C32.0416 11.8052 33.6823 13.4459 33.6823 15.4697V37.4565C33.6823 39.4803 32.0416 41.121 30.0178 41.121H4.36621C2.34236 41.121 0.70166 39.4803 0.70166 37.4565V15.4697C0.70166 13.4458 2.34228 11.8052 4.36621 11.8052Z" fill="#FF3378"/>
<path opacity="0.24" d="M7.11509 19.135C8.63298 19.135 9.86348 17.9045 9.86348 16.3866C9.86348 14.8687 8.63298 13.6382 7.11509 13.6382C5.5972 13.6382 4.3667 14.8687 4.3667 16.3866C4.3667 17.9045 5.5972 19.135 7.11509 19.135Z" fill="white"/>
<path opacity="0.24" d="M27.2699 19.135C28.7878 19.135 30.0183 17.9045 30.0183 16.3866C30.0183 14.8687 28.7878 13.6382 27.2699 13.6382C25.752 13.6382 24.5215 14.8687 24.5215 16.3866C24.5215 17.9045 25.752 19.135 27.2699 19.135Z" fill="white"/>
<path opacity="0.24" d="M6.19844 20.9668H6.19853C7.21045 20.9668 8.03076 21.7871 8.03076 22.799V33.7929C8.03076 34.8049 7.21045 35.6252 6.19853 35.6252H6.19844C5.18652 35.6252 4.36621 34.8049 4.36621 33.7929V22.799C4.36621 21.7871 5.18652 20.9668 6.19844 20.9668Z" fill="white"/>
<path d="M28.1858 16.3862C28.1858 16.8922 27.7757 17.3023 27.2697 17.3023C26.7637 17.3023 26.3535 16.8922 26.3535 16.3862V11.8056C26.3535 6.74596 22.2519 2.64424 17.1922 2.64424C12.1327 2.64424 8.03096 6.74596 8.03096 11.8056V16.3862C8.03062 16.8922 7.62025 17.3021 7.11429 17.3017C6.60876 17.3014 6.19899 16.8917 6.19873 16.3862V11.8056C6.19873 5.73403 11.1207 0.812012 17.1923 0.812012C23.2638 0.812012 28.1858 5.73395 28.1858 11.8056V16.3862Z" fill="#FF4957"/>
<path opacity="0.24" d="M12.6115 13.6382H23.6047C24.1106 13.6382 24.5208 14.0484 24.5208 14.5543C24.5208 15.0603 24.1106 15.4705 23.6047 15.4705H12.6115C12.1055 15.4705 11.6953 15.0603 11.6953 14.5543C11.6953 14.0483 12.1055 13.6382 12.6115 13.6382Z" fill="white"/>
<path opacity="0.18" d="M31.8503 15.4702C30.8384 15.4702 30.0181 16.2904 30.0181 17.3024V17.3024V35.625C30.0181 36.6369 29.1978 37.4572 28.1858 37.4572H6.19873C5.18681 37.4577 4.36676 38.2783 4.36719 39.2903C4.36762 40.3017 5.18732 41.1215 6.19873 41.1218H30.0181C32.0419 41.1218 33.6826 39.4811 33.6826 37.4572V17.3024C33.6826 16.2905 32.8624 15.4702 31.8505 15.4702C31.8504 15.4702 31.8503 15.4702 31.8503 15.4702Z" fill="black"/>
</svg>
