<svg width="41" height="37" viewBox="0 0 41 37" fill="none" xmlns="http://www.w3.org/2000/svg">
<path d="M39.6098 15.7933L34.187 9.03056C33.4919 8.1638 32.4395 7.65918 31.327 7.65918H31.1851C30.0725 7.65918 29.0201 8.1638 28.3251 9.03056L22.9022 15.7933C22.3827 16.4412 22.0996 17.2462 22.0996 18.0759V33.2371C22.0996 35.2552 23.7394 36.8912 25.7622 36.8912H36.7499C38.7727 36.8912 40.4125 35.2552 40.4125 33.2371V18.076C40.4124 17.2462 40.1293 16.4413 39.6098 15.7933Z" fill="#CE2478"/>
<path d="M24.8465 18.6211H35.8342C37.3513 18.6211 38.5811 19.848 38.5811 21.3616C38.5811 22.8751 37.3513 24.102 35.8342 24.102H24.8465C23.3294 24.102 22.0996 22.8751 22.0996 21.3616C22.0996 19.848 23.3294 18.6211 24.8465 18.6211Z" fill="#AA0D61"/>
<path d="M9.28045 9.48633H31.2559C32.2673 9.48633 33.0871 10.3043 33.0871 11.3133C33.0871 12.3223 32.2673 13.1402 31.2559 13.1402H9.28045C8.26907 13.1402 7.44922 12.3223 7.44922 11.3133C7.44914 10.3043 8.26907 9.48633 9.28045 9.48633Z" fill="#2B315B"/>
<path d="M31.2561 11.3135H9.28061C8.63757 11.3207 8.04678 11.6686 7.72998 12.227C8.04686 12.7853 8.63749 13.1333 9.28061 13.1406H31.2561C31.8991 13.1333 32.4899 12.7854 32.8067 12.227C32.4898 11.6686 31.8991 11.3206 31.2561 11.3135Z" fill="#191F4C"/>
<path d="M40.3794 6.97889C40.2762 5.91352 38.9161 5.49785 38.1575 6.25462L35.677 8.72928C34.6654 9.73797 33.0255 9.73734 32.0144 8.72802C31.0039 7.71918 31.0039 6.08427 32.0144 5.07542L34.4864 2.60931C35.2954 1.80222 34.7518 0.454947 33.6108 0.370477C32.8394 0.314661 32.064 0.382567 31.3142 0.571681C28.4474 1.2852 26.2117 3.74714 25.8273 6.66982C25.7103 7.54663 25.7516 8.43725 25.9491 9.29961L11.1118 24.102L16.6057 29.583L31.443 14.7805C32.3071 14.9774 33.1996 15.0187 34.0783 14.9022C37.008 14.5189 39.4759 12.2883 40.1912 9.4282C40.3942 8.62848 40.4578 7.79996 40.3794 6.97889Z" fill="#BFC3EC"/>
<path d="M40.1914 9.42823C40.2487 9.19868 40.2664 8.97644 40.3009 8.75098C39.6553 8.77115 39.0412 9.03375 38.5812 9.48616L36.75 11.3131C35.7386 12.322 34.0988 12.322 33.0873 11.3131C32.076 10.3041 30.4363 10.304 29.4249 11.313L29.4248 11.3131L16.6057 24.1021C15.5944 25.111 15.5943 26.7469 16.6057 27.7559L16.6057 27.756C16.9468 28.0961 17.3665 28.2786 17.8022 28.3894L31.4432 14.7804C32.3072 14.9774 33.1997 15.0186 34.0784 14.9021C37.0081 14.5189 39.476 12.2883 40.1914 9.42823Z" fill="#9EA4E2"/>
<path d="M18.4368 18.6212L22.0994 14.9672C23.1107 13.9582 24.7506 13.9582 25.762 14.9672C26.7734 15.9762 26.7734 17.6122 25.762 18.6212L22.0994 22.2752C21.088 23.2842 19.4481 23.2842 18.4368 22.2752C17.4254 21.2662 17.4254 19.6302 18.4368 18.6212Z" fill="#8B92CF"/>
<path d="M5.61768 4.00515L7.44898 2.17822L11.1115 4.00515V5.83208L23.9306 18.6211L22.0993 20.448L9.28029 7.65917H7.44906L5.61768 4.00515Z" fill="#E0E2FF"/>
<path d="M21.1839 17.7079L8.36493 4.91898C7.85936 4.41444 7.03951 4.41436 6.53386 4.91883C6.53378 4.9189 6.53371 4.91898 6.53371 4.91898C6.42307 5.03242 6.33447 5.16548 6.27246 5.31126L7.44932 7.65946H9.28055L21.1839 19.5349C21.6897 19.0303 21.6897 18.2123 21.1839 17.7079Z" fill="#BFC3EC"/>
<path d="M18.8161 20.0699L23.5513 15.3457C24.0571 14.8411 24.8769 14.8411 25.3826 15.3457C25.8883 15.8502 25.8883 16.6682 25.3826 17.1726L25.2255 17.3293C24.5104 18.0428 24.5104 19.1996 25.2255 19.9131C25.569 20.2558 26.0347 20.4482 26.5204 20.4482H27.8153C28.8456 20.4482 29.8337 20.8565 30.5622 21.5833L37.443 28.448C38.9601 29.9615 38.9601 32.4155 37.443 33.9289C35.9259 35.4425 33.4662 35.4425 31.9492 33.9289L25.0684 27.0643C24.3398 26.3374 23.9305 25.3517 23.9305 24.3238V23.032C23.9305 22.5474 23.7376 22.0827 23.3942 21.7401C22.6791 21.0267 21.5195 21.0267 20.8043 21.7401L20.6473 21.8968C20.1416 22.4013 19.3217 22.4013 18.8161 21.8968C18.3101 21.3926 18.3092 20.5751 18.8145 20.0703C18.8149 20.07 18.8152 20.0697 18.8161 20.0699Z" fill="#0026FF"/>
<path d="M21.1839 19.5345C21.6896 20.039 22.5094 20.039 23.0151 19.5345L25.2256 17.3292L25.3827 17.1724C25.888 16.6675 25.8874 15.8495 25.3814 15.3455C24.8759 14.8419 24.057 14.8419 23.5515 15.3455L21.1839 17.7076C20.6783 18.212 20.6783 19.03 21.1839 19.5345Z" fill="#3B58FF"/>
<path d="M14.7745 20.4482H38.5812C39.5925 20.4482 40.4124 21.2662 40.4124 22.2752V33.2371C40.4124 35.2552 38.7725 36.8912 36.7498 36.8912H14.7744L14.7745 20.4482Z" fill="#F32675"/>
<path d="M36.7498 33.2371H23.0152C21.4981 33.2371 20.2683 32.0102 20.2683 30.4967V23.1887C20.2683 21.6752 19.0384 20.4482 17.5213 20.4482C16.0042 20.4482 14.7744 21.6752 14.7744 23.1887V35.0642C14.7744 36.0732 15.5943 36.8911 16.6056 36.8911H36.7499C37.7612 36.8911 38.5811 36.0732 38.5811 35.0642C38.5811 34.0552 37.7612 33.2371 36.7498 33.2371Z" fill="#D51E70"/>
<path d="M17.6343 15.7933L12.2115 9.03056C11.5164 8.1638 10.464 7.65918 9.35146 7.65918H9.20958C8.09701 7.65918 7.04464 8.1638 6.34959 9.03056L0.926642 15.7933C0.407064 16.4413 0.124023 17.2462 0.124023 18.076V33.2371C0.124023 35.2552 1.76388 36.8912 3.78664 36.8912H14.7743C16.7971 36.8912 18.4369 35.2552 18.4369 33.2371V18.076C18.4369 17.2462 18.1538 16.4413 17.6343 15.7933Z" fill="#FF5794"/>
<path d="M12.4338 9.85742C11.9281 9.85774 11.5184 10.2671 11.5187 10.7715C11.5189 10.9788 11.5896 11.1797 11.7193 11.3415L16.2042 16.9345C16.4636 17.2587 16.605 17.6611 16.6055 18.0759V19.4099C16.6055 19.4267 16.6059 19.4435 16.6069 19.4601C16.6059 19.4768 16.6055 19.4935 16.6055 19.5104V33.237C16.6044 34.2456 15.7851 35.0628 14.7743 35.0639H12.3117C11.806 35.0639 11.396 35.4729 11.396 35.9775C11.396 36.482 11.806 36.891 12.3117 36.891H14.7743C16.7971 36.891 18.4369 35.255 18.4369 33.237V19.5104C18.4369 19.4935 18.4365 19.4767 18.4356 19.4601C18.4365 19.4435 18.4369 19.4267 18.4369 19.4099V18.0759C18.4369 17.2462 18.1539 16.4413 17.6343 15.7933L17.5846 15.7313L17.5834 15.7297C17.5754 15.7197 17.5666 15.7087 17.5568 15.6966L17.5562 15.6959L17.5526 15.6914L17.5488 15.6866L17.5487 15.6865L17.541 15.677L17.5404 15.6762L17.5242 15.6561L17.5225 15.654C17.5199 15.6507 17.5174 15.6475 17.5146 15.6441L17.5142 15.6436L17.5056 15.6328L17.5043 15.6312L17.5003 15.6262L17.4999 15.6256L17.4959 15.6206L13.1468 10.197C12.9728 9.98185 12.7107 9.85703 12.4338 9.85742Z" fill="#FF3F85"/>
<path d="M9.28094 13.1402C10.2923 13.1402 11.1122 12.3222 11.1122 11.3133C11.1122 10.3043 10.2923 9.48633 9.28094 9.48633C8.26958 9.48633 7.44971 10.3043 7.44971 11.3133C7.44971 12.3222 8.26958 13.1402 9.28094 13.1402Z" fill="#4A4F73"/>
<path d="M2.87126 18.6211C3.37699 18.6211 3.78695 19.0301 3.78695 19.5346V28.6696C3.78695 29.1741 3.37699 29.5831 2.87126 29.5831C2.36553 29.5831 1.95557 29.1741 1.95557 28.6696V19.5346C1.95557 19.03 2.36561 18.6211 2.87126 18.6211Z" fill="#FF83B0"/>
<path d="M2.87126 31.4102C3.37699 31.4102 3.78695 31.8192 3.78695 32.3237V34.1506C3.78695 34.6552 3.37699 35.0642 2.87126 35.0642C2.36553 35.0642 1.95557 34.6552 1.95557 34.1506V32.3237C1.95557 31.8192 2.36561 31.4102 2.87126 31.4102Z" fill="#FF83B0"/>
<path d="M22.0993 22.2749H36.7496C37.761 22.2749 38.5808 23.0928 38.5808 24.1018C38.5808 25.1108 37.761 25.9288 36.7496 25.9288H22.0993C21.0879 25.9288 20.2681 25.1108 20.2681 24.1018C20.2681 23.0928 21.0879 22.2749 22.0993 22.2749Z" fill="#F64689"/>
<path d="M30.2604 2.95947C27.6587 4.51682 26.815 7.8836 28.376 10.4793L28.3804 10.4867L28.382 10.4894L28.3849 10.4941L28.3867 10.497L28.3894 10.5014L28.3912 10.5043L28.3939 10.5088L28.3957 10.5118L28.3984 10.5162L28.4002 10.5191L28.4031 10.5237L28.4048 10.5264L28.4077 10.5311L28.4093 10.5337L28.4123 10.5385L28.4139 10.5411L28.417 10.5461L28.4182 10.5482L28.4217 10.5537L28.4227 10.5555L28.4266 10.5617L28.4273 10.5627L28.4316 10.5696L28.4319 10.57C28.4881 10.6596 28.5465 10.7471 28.6072 10.8325L28.6078 10.8334L28.612 10.8393L28.613 10.8407L28.6168 10.846L28.6181 10.848L28.6215 10.8527L28.6234 10.8552L28.6263 10.8592L28.6284 10.8622L28.6309 10.8657L28.6335 10.8693L28.6353 10.8716L28.6387 10.8764L28.639 10.8768C28.6485 10.8898 28.658 10.9028 28.6675 10.9157C28.9473 11.2946 29.4701 11.3995 29.8749 11.1578C29.8997 11.143 29.924 11.1268 29.9478 11.1094C30.3549 10.8101 30.4418 10.2382 30.1419 9.83205C30.0729 9.73855 30.0077 9.64097 29.9465 9.53931C28.9082 7.80855 29.4703 5.56586 31.2027 4.52608C31.6363 4.26663 31.777 3.70549 31.517 3.27286C31.2569 2.84023 30.6944 2.69986 30.2608 2.95931C30.2606 2.95939 30.2605 2.95939 30.2604 2.95947Z" fill="#DDDFF5"/>
</svg>












