<svg width="47" height="29" viewBox="0 0 47 29" fill="none" xmlns="http://www.w3.org/2000/svg">
<path d="M17.416 28.0376C19.6845 28.0376 21.5235 26.1866 21.5235 23.9033C21.5235 21.62 19.6845 19.769 17.416 19.769C15.1476 19.769 13.3086 21.62 13.3086 23.9033C13.3086 26.1866 15.1476 28.0376 17.416 28.0376Z" fill="#2B1094"/>
<path d="M37.9527 28.0376C40.2211 28.0376 42.0601 26.1866 42.0601 23.9033C42.0601 21.62 40.2211 19.769 37.9527 19.769C35.6842 19.769 33.8452 21.62 33.8452 23.9033C33.8452 26.1866 35.6842 28.0376 37.9527 28.0376Z" fill="#2B1094"/>
<path d="M44.1142 23.9042H23.5771V3.23291H40.0068C42.2753 3.23291 44.1143 5.08393 44.1143 7.3672V23.9042H44.1142Z" fill="#F79600"/>
<path d="M36.9263 15.6357H43.087C43.6542 15.6357 44.1139 16.0985 44.1139 16.6693C44.1139 17.2402 43.6542 17.7029 43.087 17.7029H36.9263C36.3592 17.7029 35.8994 17.2402 35.8994 16.6693C35.8994 16.0984 36.3592 15.6357 36.9263 15.6357Z" fill="#F8B02B"/>
<path d="M35.8993 23.9043H3.04004V7.3672C3.04004 5.08393 4.87904 3.23291 7.14749 3.23291H31.792C34.0604 3.23291 35.8994 5.08393 35.8994 7.3672V23.9043H35.8993Z" fill="#FFC100"/>
<path d="M3.04004 15.6357H35.8993V23.9042H3.04004V15.6357Z" fill="#FF5300"/>
<path d="M14.335 21.8369H24.6035C25.1706 21.8369 25.6304 22.2997 25.6304 22.8705C25.6304 23.4413 25.1706 23.9041 24.6035 23.9041H14.335C13.7679 23.9041 13.3081 23.4413 13.3081 22.8705C13.3081 22.2996 13.7679 21.8369 14.335 21.8369Z" fill="#EF3C00"/>
<path d="M17.4165 17.7026H21.5236C22.6579 17.7026 23.5773 18.6281 23.5773 19.7697V21.8369C23.5773 22.9786 22.6579 23.904 21.5236 23.904H17.4165C16.2822 23.904 15.3628 22.9786 15.3628 21.8369V19.7697C15.3628 18.6281 16.2822 17.7026 17.4165 17.7026Z" fill="#FF6317"/>
<path d="M29.7383 28.0381C32.0068 28.0381 33.8458 26.1871 33.8458 23.9038C33.8458 21.6205 32.0068 19.7695 29.7383 19.7695C27.4698 19.7695 25.6309 21.6205 25.6309 23.9038C25.6309 26.1871 27.4698 28.0381 29.7383 28.0381Z" fill="#3A27B4"/>
<path d="M29.7382 25.9711C30.8725 25.9711 31.7919 25.0456 31.7919 23.904C31.7919 22.7624 30.8725 21.8369 29.7382 21.8369C28.604 21.8369 27.6846 22.7624 27.6846 23.904C27.6846 25.0456 28.604 25.9711 29.7382 25.9711Z" fill="#FAFAFF"/>
<path d="M9.20169 28.0381C11.4702 28.0381 13.3091 26.1871 13.3091 23.9038C13.3091 21.6205 11.4702 19.7695 9.20169 19.7695C6.93321 19.7695 5.09424 21.6205 5.09424 23.9038C5.09424 26.1871 6.93321 28.0381 9.20169 28.0381Z" fill="#3A27B4"/>
<path d="M9.20163 25.9711C10.3358 25.9711 11.2553 25.0456 11.2553 23.904C11.2553 22.7624 10.3358 21.8369 9.20163 21.8369C8.06741 21.8369 7.14795 22.7624 7.14795 23.904C7.14795 25.0456 8.06741 25.9711 9.20163 25.9711Z" fill="#FAFAFF"/>
<path d="M33.8452 19.77H44.1135C45.2477 19.77 46.1671 20.6955 46.1671 21.8371V21.8372C46.1671 22.9789 45.2477 23.9043 44.1135 23.9043H33.8452C32.711 23.9043 31.7915 22.9789 31.7915 21.8372V21.8371C31.7915 20.6955 32.711 19.77 33.8452 19.77Z" fill="#5A4AC0"/>
<path d="M33.8452 19.77H35.899C37.0332 19.77 37.9526 20.6955 37.9526 21.8371V21.8372C37.9526 22.9789 37.0332 23.9043 35.899 23.9043H33.8452C32.711 23.9043 31.7915 22.9789 31.7915 21.8372V21.8371C31.7915 20.6955 32.711 19.77 33.8452 19.77Z" fill="#7F72CE"/>
<path d="M38.98 17.7029C39.5471 17.7029 40.0069 17.2402 40.0069 16.6693C40.0069 16.0985 39.5471 15.6357 38.98 15.6357C38.4129 15.6357 37.9531 16.0985 37.9531 16.6693C37.9531 17.2402 38.4129 17.7029 38.98 17.7029Z" fill="#DCECF7"/>
<path d="M43.0879 17.7029C43.6551 17.7029 44.1148 17.2402 44.1148 16.6693C44.1148 16.0985 43.6551 15.6357 43.0879 15.6357C42.5208 15.6357 42.061 16.0985 42.061 16.6693C42.061 17.2402 42.5208 17.7029 43.0879 17.7029Z" fill="#DCECF7"/>
<path d="M3.03509 19.7798H5.09869C6.23022 19.7798 7.14745 20.703 7.14745 21.8419V21.842C7.14745 22.981 6.23022 23.9042 5.09869 23.9042H3.03509C1.90357 23.9042 0.986328 22.9809 0.986328 21.842V21.8419C0.986328 20.703 1.90357 19.7798 3.03509 19.7798Z" fill="#7F72CE"/>
<path d="M3.04004 13.5686H6.1206C7.82194 13.5686 9.20116 12.1803 9.20116 10.4679C9.20116 8.75543 7.82194 7.36719 6.1206 7.36719H3.04004L3.04004 13.5686Z" fill="#E5E2F5"/>
<path d="M14.3354 7.36768H16.3888C18.0902 7.36768 19.4694 8.75592 19.4694 10.4684C19.4694 12.1808 18.0902 13.5691 16.3888 13.5691H14.3354C12.6341 13.5691 11.2549 12.1808 11.2549 10.4684C11.2549 8.75592 12.6341 7.36768 14.3354 7.36768Z" fill="#E5E2F5"/>
<path d="M16.3891 7.36719H14.3354C12.6341 7.36719 11.2549 8.75543 11.2549 10.4679V10.4742V10.4759V10.481V10.4824V10.4887V10.4899V10.495V10.4968L11.255 10.5031V10.5032L11.2551 10.5094V10.5112L11.2552 10.5161V10.5176L11.2553 10.5237V10.5254L11.2554 10.5302V10.532L11.2555 10.5381V10.5386L11.2556 10.5444V10.5462L11.2557 10.5512V10.5526L11.2558 10.5587V10.5602L11.2559 10.5651L11.256 10.5668L11.2562 10.5729V10.5737L11.2564 10.5791L11.2565 10.5812L11.2567 10.5861V10.5873L11.2569 10.5934L11.257 10.5952L11.2572 10.5999L11.2573 10.6017L11.2576 10.6078V10.6084L11.2579 10.6141L11.258 10.6158L11.2582 10.6209L11.2583 10.6222L11.2585 10.6283L11.2586 10.6299L11.2589 10.6346L11.259 10.6366L11.2593 10.6426L11.2594 10.6438L11.2597 10.6488L11.2598 10.6508L11.2601 10.6558L11.2602 10.6569L11.2606 10.663L11.2607 10.6648L11.2609 10.6695L11.261 10.6713L11.2614 10.6773L11.2615 10.6785L11.2619 10.6836L11.262 10.6855L11.2623 10.6903L11.2624 10.6918L11.2628 10.6977L11.2629 10.6996L11.2632 10.704L11.2633 10.706L11.2637 10.7119L11.2638 10.7134L11.2642 10.7181L11.2644 10.7202L11.2648 10.725L11.2649 10.7263L11.2654 10.7322L11.2656 10.7343L11.266 10.7385L11.2661 10.7406L11.2666 10.7465L11.2667 10.748L11.2671 10.7526L11.2673 10.7547L11.2678 10.7594L11.2679 10.7607L11.2685 10.7666L11.2686 10.7685L11.269 10.7729L11.2692 10.7749L11.2698 10.7807L11.27 10.7822L11.2705 10.7869L11.2707 10.7889L11.2712 10.7936L11.2713 10.795L11.2719 10.8006L11.2722 10.8031L11.2726 10.8068L11.2729 10.8092L11.2735 10.8146L11.2738 10.8168L11.2741 10.8206L11.2744 10.823L11.2749 10.8273L11.2752 10.8296L11.2758 10.8346L11.2761 10.837L11.2765 10.8406L11.2768 10.843L11.2775 10.8485L11.2778 10.8506L11.2783 10.8544L11.2786 10.857L11.279 10.8612L11.2793 10.8635L11.2799 10.8684L11.2802 10.8709L11.2807 10.8746L11.281 10.877L11.2816 10.8824L11.282 10.885L11.2825 10.8883L11.2829 10.8912L11.2834 10.8944L11.284 10.8988L11.2844 10.9024L11.2848 10.9052L11.2852 10.9082L11.2856 10.9111L11.2864 10.9162L11.2867 10.9189L11.2872 10.9221L11.2876 10.925L11.2881 10.9285L11.2887 10.9323L11.2893 10.9361L11.2896 10.9388L11.2901 10.9422L11.2905 10.9448L11.2913 10.95L11.2917 10.9528L11.2921 10.956L11.2926 10.9587L11.2932 10.9621L11.2939 10.9665L11.2944 10.9697L11.2948 10.9726L11.2953 10.9757L11.2958 10.9784L11.2967 10.9837L11.2971 10.9865L11.2976 10.9895L11.2981 10.9925L11.2987 10.9958L11.2995 11.0003L11.2999 11.0033L11.3005 11.0064L11.301 11.0092L11.3016 11.0126L11.3023 11.0172L11.3029 11.0203L11.3034 11.0229L11.304 11.0261L11.3045 11.0287L11.3054 11.0341L11.3059 11.0368L11.3065 11.04L11.307 11.0425L11.3075 11.0457L11.3085 11.0505L11.3091 11.0534L11.3097 11.0563L11.3102 11.0593L11.3108 11.0625L11.3117 11.0672L11.3122 11.0699L11.3128 11.0732L11.3133 11.0758L11.3142 11.0801L11.315 11.0837L11.3156 11.0868L11.3162 11.0895L11.3168 11.0924L11.3175 11.0956L11.3184 11.1004L11.319 11.103L11.3197 11.1062L11.3202 11.1088L11.3214 11.1148L11.3218 11.1167L11.3226 11.1203L11.3229 11.1222L11.3237 11.1259L11.324 11.1275L11.3254 11.134L11.3258 11.1361L11.3266 11.1397L11.327 11.1415L11.3286 11.149L11.3288 11.1497L11.3297 11.1534L11.3301 11.1551L11.3309 11.1589L11.3312 11.1599L11.3329 11.1671L11.3332 11.1689L11.3341 11.1726L11.3345 11.1742L11.3374 11.1864L11.3378 11.1879L11.3408 11.2003L11.341 11.2016L11.342 11.2054L11.3424 11.2069L11.3454 11.2192L11.3457 11.2205L11.3488 11.2332L11.3491 11.2341L11.3502 11.2382L11.3504 11.2391C11.3514 11.2433 11.3525 11.2475 11.3537 11.2518L11.3539 11.2529L11.3573 11.266L11.3574 11.2664L11.3586 11.2709V11.2711C11.3598 11.2757 11.361 11.2802 11.3622 11.2847V11.2849L11.366 11.2985L11.3661 11.2988C11.3677 11.3049 11.3694 11.3109 11.3712 11.3169L11.3713 11.3173C11.6059 12.1436 12.1698 12.8353 12.9293 13.228C13.4345 13.4873 14.0529 13.2853 14.3105 12.7767C14.5674 12.2698 14.3688 11.6493 13.8662 11.3885C13.3615 11.1278 13.1622 10.5045 13.4213 9.99648C13.5971 9.65163 13.9498 9.43477 14.3349 9.43458H16.3891C16.9562 9.43516 17.4165 8.97296 17.4171 8.40205C17.4176 7.83123 16.9584 7.36796 16.3912 7.36738C16.3906 7.36719 16.3899 7.36719 16.3891 7.36719Z" fill="#D3CFEE"/>
<path d="M23.5776 7.36719H23.5777C24.7119 7.36719 25.6314 8.29265 25.6314 9.43429V11.5015C25.6314 12.6431 24.7119 13.5686 23.5777 13.5686H23.5776C22.4434 13.5686 21.5239 12.6431 21.5239 11.5015V9.43429C21.5239 8.29265 22.4434 7.36719 23.5776 7.36719Z" fill="#E5E2F5"/>
<path d="M31.792 7.36719H44.1142V13.5686H31.792V7.36719Z" fill="#B3B8D2"/>
<path d="M30.7651 7.36719H35.8994V13.5686H30.7651C29.0638 13.5686 27.6846 12.1803 27.6846 10.4679C27.6846 8.75543 29.0637 7.36719 30.7651 7.36719Z" fill="#E5E2F5"/>
<path d="M32.8188 7.36719H30.7651C29.0638 7.36719 27.6846 8.75543 27.6846 10.4679V10.4742V10.4759V10.481V10.4824V10.4887V10.4899V10.495V10.4968L27.6847 10.5031V10.5032L27.6848 10.5094V10.5112L27.6849 10.5161V10.5176L27.685 10.5237V10.5254L27.6851 10.5302V10.532L27.6851 10.5381V10.5386L27.6852 10.5444V10.5462L27.6853 10.5512V10.5526L27.6855 10.5587V10.5602L27.6856 10.5651L27.6857 10.5668L27.6859 10.5729V10.5737L27.6861 10.5791L27.6862 10.5812L27.6864 10.5861V10.5873L27.6866 10.5934L27.6867 10.5952L27.6869 10.5999L27.687 10.6017L27.6873 10.6078V10.6084L27.6876 10.6141L27.6877 10.6158L27.6878 10.6209L27.6879 10.6222L27.6882 10.6283L27.6883 10.6299L27.6886 10.6346L27.6887 10.6366L27.689 10.6426L27.6891 10.6438L27.6894 10.6488L27.6895 10.6508L27.6898 10.6558L27.6899 10.6569L27.6903 10.663L27.6903 10.6648L27.6906 10.6695L27.6907 10.6713L27.6911 10.6773L27.6912 10.6785L27.6916 10.6836L27.6917 10.6855L27.692 10.6903L27.6921 10.6918L27.6925 10.6977L27.6926 10.6996L27.6928 10.704L27.6929 10.706L27.6934 10.7119L27.6935 10.7134L27.6939 10.7181L27.6941 10.7202L27.6945 10.725L27.6946 10.7263L27.6951 10.7322L27.6953 10.7343L27.6956 10.7385L27.6958 10.7406L27.6963 10.7465L27.6964 10.748L27.6968 10.7526L27.697 10.7547L27.6975 10.7594L27.6976 10.7607L27.6981 10.7666L27.6983 10.7685L27.6987 10.7729L27.6989 10.7749L27.6995 10.7807L27.6997 10.7822L27.7002 10.7869L27.7004 10.7889L27.7008 10.7936L27.701 10.795L27.7016 10.8006L27.7019 10.8031L27.7023 10.8068L27.7026 10.8092L27.7031 10.8146L27.7034 10.8168L27.7038 10.8206L27.7041 10.823L27.7046 10.8273L27.7049 10.8296L27.7055 10.8346L27.7057 10.837L27.7062 10.8406L27.7065 10.843L27.7072 10.8485L27.7075 10.8506L27.708 10.8544L27.7083 10.857L27.7087 10.8612L27.709 10.8635L27.7097 10.8684L27.71 10.8709L27.7105 10.8746L27.7108 10.877L27.7114 10.8824L27.7118 10.885L27.7123 10.8883L27.7127 10.8912L27.7132 10.8944L27.7137 10.8988L27.7142 10.9024L27.7146 10.9052L27.715 10.9082L27.7154 10.9111L27.7161 10.9162L27.7165 10.9189L27.717 10.9221L27.7174 10.925L27.7179 10.9285L27.7185 10.9323L27.719 10.9361L27.7194 10.9388L27.7199 10.9422L27.7203 10.9448L27.7211 10.95L27.7214 10.9528L27.7219 10.956L27.7223 10.9587L27.7229 10.9621L27.7236 10.9665L27.724 10.9697L27.7245 10.9726L27.725 10.9757L27.7255 10.9784L27.7264 10.9837L27.7268 10.9865L27.7273 10.9895L27.7278 10.9925L27.7284 10.9958L27.7291 11.0003L27.7296 11.0033L27.7302 11.0064L27.7307 11.0092L27.7313 11.0126L27.732 11.0172L27.7326 11.0203L27.7331 11.0229L27.7337 11.0261L27.7341 11.0287L27.7351 11.0341L27.7356 11.0368L27.7362 11.04L27.7367 11.0425L27.7372 11.0457L27.7382 11.0505L27.7388 11.0534L27.7393 11.0563L27.7399 11.0593L27.7405 11.0625L27.7414 11.0672L27.7418 11.0699L27.7425 11.0732L27.743 11.0758L27.7439 11.0801L27.7445 11.0837L27.7452 11.0868L27.7458 11.0895L27.7464 11.0924L27.747 11.0956L27.748 11.1004L27.7486 11.103L27.7493 11.1062L27.7497 11.1088L27.751 11.1148L27.7514 11.1167L27.7522 11.1203L27.7525 11.1222L27.7533 11.1259L27.7536 11.1275L27.755 11.134L27.7554 11.1361L27.7562 11.1397L27.7566 11.1415L27.7582 11.149L27.7584 11.1497L27.7593 11.1534L27.7597 11.1551L27.7605 11.1589L27.7608 11.1599L27.7625 11.1671L27.7628 11.1689L27.7637 11.1726L27.7641 11.1742L27.767 11.1864L27.7674 11.1879L27.7703 11.2003L27.7706 11.2016L27.7716 11.2054L27.772 11.2069L27.775 11.2192L27.7753 11.2205L27.7784 11.2332L27.7787 11.2341L27.7798 11.2382L27.78 11.2391C27.781 11.2433 27.7821 11.2475 27.7832 11.2518L27.7835 11.2529L27.7869 11.266L27.787 11.2664L27.7882 11.2709V11.2711C27.7894 11.2757 27.7906 11.2802 27.7918 11.2847V11.2849L27.7956 11.2985L27.7957 11.2988C27.7973 11.3049 27.799 11.3109 27.8008 11.3169L27.8009 11.3173C28.0355 12.1436 28.5994 12.8353 29.3589 13.228C29.8641 13.4874 30.4825 13.2854 30.7402 12.7769C30.9971 12.27 30.7985 11.6493 30.2959 11.3885C29.7912 11.1278 29.5919 10.5045 29.851 9.99648C30.0268 9.65163 30.3795 9.43477 30.7646 9.43458H32.8182C33.3853 9.43458 33.8451 8.9718 33.8451 8.40098C33.8457 7.82997 33.3859 7.36719 32.8188 7.36719Z" fill="#D3CFEE"/>
<path d="M34.8731 9.43408C35.4402 9.43408 35.9 9.89686 35.9 10.4677V12.5348C35.9 13.1056 35.4402 13.5684 34.8731 13.5684C34.306 13.5684 33.8462 13.1056 33.8462 12.5348V10.4677C33.8462 9.89676 34.306 9.43408 34.8731 9.43408Z" fill="#5A4AC0"/>
<path d="M43.0874 9.43408C43.6545 9.43408 44.1143 9.89686 44.1143 10.4677V12.5348C44.1143 13.1056 43.6545 13.5684 43.0874 13.5684C42.5203 13.5684 42.0605 13.1056 42.0605 12.5348V10.4677C42.0606 9.89676 42.5204 9.43408 43.0874 9.43408Z" fill="#2B1094"/>
<path d="M36.9263 7.36719H43.087C43.6542 7.36719 44.1139 7.82997 44.1139 8.40079C44.1139 8.9716 43.6542 9.43438 43.087 9.43438H36.9263C36.3592 9.43438 35.8994 8.9716 35.8994 8.40079C35.8994 7.82987 36.3592 7.36719 36.9263 7.36719Z" fill="#8C93BB"/>
<path d="M4.06693 7.36719H6.1206C6.68771 7.36719 7.14749 7.82997 7.14749 8.40079C7.14749 8.9716 6.68771 9.43438 6.1206 9.43438H4.06693C3.49981 9.43438 3.04004 8.9716 3.04004 8.40079C3.04004 7.82987 3.49981 7.36719 4.06693 7.36719Z" fill="#D3CFEE"/>
<path d="M38.9795 21.8369H44.1141C44.6812 21.8369 45.1409 22.2997 45.1409 22.8705C45.1409 23.4413 44.6812 23.9041 44.1141 23.9041H38.9795C38.4124 23.9041 37.9526 23.4413 37.9526 22.8705C37.9526 22.2996 38.4124 21.8369 38.9795 21.8369Z" fill="#4633B8"/>
<path d="M34.8721 23.9046C35.4392 23.9046 35.899 23.4418 35.899 22.871C35.899 22.3002 35.4392 21.8374 34.8721 21.8374C34.305 21.8374 33.8452 22.3002 33.8452 22.871C33.8452 23.4418 34.305 23.9046 34.8721 23.9046Z" fill="#6C5EC7"/>
<path d="M8.17386 3.23291H30.7646C31.3317 3.23291 31.7915 3.69569 31.7915 4.26651C31.7915 4.83733 31.3317 5.30011 30.7646 5.30011H8.17386C7.60675 5.30011 7.14697 4.83733 7.14697 4.26651C7.14697 3.69559 7.60675 3.23291 8.17386 3.23291Z" fill="#FFDA67"/>
<path d="M36.9263 3.23291H41.0337C41.6008 3.23291 42.0605 3.69569 42.0605 4.26651C42.0605 4.83733 41.6008 5.30011 41.0337 5.30011H36.9263C36.3592 5.30011 35.8994 4.83733 35.8994 4.26651C35.8994 3.69559 36.3592 3.23291 36.9263 3.23291Z" fill="#F8B02B"/>
<path d="M36.9263 7.36719C37.4934 7.36719 37.9532 7.82997 37.9532 8.40079V10.4679C37.9532 11.0387 37.4934 11.5015 36.9263 11.5015C36.3592 11.5015 35.8994 11.0387 35.8994 10.4679V8.40079C35.8995 7.82987 36.3593 7.36719 36.9263 7.36719Z" fill="#8C93BB"/>
<path d="M4.06693 7.36719C4.63404 7.36719 5.09381 7.82997 5.09381 8.40079V12.535C5.09381 13.1058 4.63404 13.5686 4.06693 13.5686C3.49981 13.5686 3.04004 13.1058 3.04004 12.535V8.40079C3.04014 7.82987 3.49991 7.36719 4.06693 7.36719Z" fill="#D3CFEE"/>
<path d="M6.12112 13.5684H28.7119C29.279 13.5684 29.7387 14.0311 29.7387 14.602C29.7387 15.1728 29.279 15.6356 28.7119 15.6356H6.12112C5.55401 15.6356 5.09424 15.1728 5.09424 14.602C5.09424 14.031 5.55401 13.5684 6.12112 13.5684Z" fill="#FFA500"/>
<path d="M32.8189 13.5684H34.8726C35.4397 13.5684 35.8994 14.0311 35.8994 14.602C35.8994 15.1728 35.4397 15.6356 34.8726 15.6356H32.8189C32.2518 15.6356 31.792 15.1728 31.792 14.602C31.792 14.031 32.2518 13.5684 32.8189 13.5684Z" fill="#FFA500"/>
<path d="M18.4429 21.8369H20.4966C21.0637 21.8369 21.5235 22.2997 21.5235 22.8705C21.5235 23.4413 21.0637 23.9041 20.4966 23.9041H18.4429C17.8758 23.9041 17.416 23.4413 17.416 22.8705C17.416 22.2996 17.8758 21.8369 18.4429 21.8369Z" fill="#FF5300"/>
<path d="M8.17386 1.16602H38.9791C39.5462 1.16602 40.006 1.62879 40.006 2.19961C40.006 2.77043 39.5462 3.23321 38.9791 3.23321H8.17386C7.60675 3.23321 7.14697 2.77043 7.14697 2.19961C7.14697 1.6287 7.60675 1.16602 8.17386 1.16602Z" fill="#E5E2F5"/>
<path d="M10.2281 1.16602H14.3354C14.9025 1.16602 15.3623 1.62879 15.3623 2.19961C15.3623 2.77043 14.9025 3.23321 14.3354 3.23321H10.2281C9.66095 3.23321 9.20117 2.77043 9.20117 2.19961C9.20117 1.6287 9.66095 1.16602 10.2281 1.16602Z" fill="#C4BDE9"/>
<path d="M20.4961 1.16602H26.6569C27.224 1.16602 27.6838 1.62879 27.6838 2.19961C27.6838 2.77043 27.224 3.23321 26.6569 3.23321H20.4961C19.929 3.23321 19.4692 2.77043 19.4692 2.19961C19.4692 1.6287 19.929 1.16602 20.4961 1.16602Z" fill="#C4BDE9"/>
<path d="M30.7652 1.16602H38.9803C39.5474 1.16602 40.0071 1.62879 40.0071 2.19961C40.0071 2.77043 39.5474 3.23321 38.9803 3.23321H30.7652C30.1981 3.23321 29.7383 2.77043 29.7383 2.19961C29.7383 1.6287 30.1981 1.16602 30.7652 1.16602Z" fill="#B3B8D2"/>
</svg>










